<svg xmlns="http://www.w3.org/2000/svg" width="297.51" height="262.221" viewBox="0 0 297.51 262.221">
  <g id="undraw_delivery_address_re_cjca" transform="translate(0 0)">
    <path id="Tracé_8931" data-name="Tracé 8931" d="M687.234,713.723l-.73-10.153a32.843,32.843,0,0,0-15.419-3.458c7.519,5.812,6.917,17.428,12.124,25.378a19.755,19.755,0,0,0,14.731,8.73l6.258,3.6a33.1,33.1,0,0,0-7.708-26.624,31.977,31.977,0,0,0-6.024-5.3C689.1,709.826,687.234,713.723,687.234,713.723Z" transform="translate(-496.169 -476.952)" fill="#f2f2f2"/>
    <path id="f02c4e45-f306-4b42-b3ad-5ddd3016d7d2" d="M612.893,804.688H756.154a.459.459,0,1,0,0-.918H612.893a.459.459,0,1,0,0,.918Z" transform="translate(-459.103 -542.467)" fill="#ccc"/>
    <path id="Tracé_8932" data-name="Tracé 8932" d="M342.36,317.329v.2h.137a1.971,1.971,0,0,1-.137-.2Zm1.054-83.3a71.026,71.026,0,0,0-14.721,43.377q0,3.584.351,7.066c.036.4.077.8.131,1.191a70.86,70.86,0,0,0,12.078,32.15c.256.375.518.744.78,1.113A71.337,71.337,0,0,0,452.52,325.9c.411-.435.8-.875,1.19-1.315a71.272,71.272,0,0,0,3.125-90.552c-.3-.4-.613-.8-.934-1.191q-1.057-1.33-2.191-2.607c-.387-.441-.78-.881-1.19-1.316a71.216,71.216,0,0,0-52.4-22.942c-.684,0-1.363.012-2.042.03q-.679.018-1.357.054a71.3,71.3,0,0,0-52.378,26.781C344.026,233.236,343.717,233.635,343.413,234.034Zm-.917,83.492a1.974,1.974,0,0,1-.137-.2v.2Z" transform="translate(-279.783 -164.672)" fill="#fff"/>
    <path id="Tracé_8933" data-name="Tracé 8933" d="M363.429,316.648l.2-.411,15.155-30.519v-.006l.589-1.185v-.006l25.037-50.437v-.006l.589-1.185.006-.006,12.679-25.555.607-1.22q.679-.036,1.357-.054l-.6,1.214-12.715,25.614v.006l-.589,1.185v.006l-25.692,51.752-.006.006-15.155,30.543-.6,1.19-.1.2-.6,1.208c-.262-.369-.524-.738-.78-1.113Z" transform="translate(-301.352 -164.723)" fill="#3f3d56"/>
    <path id="Tracé_8934" data-name="Tracé 8934" d="M358.833,419.279v1.19H329.778c-.054-.393-.1-.792-.131-1.19Z" transform="translate(-280.386 -299.474)" fill="#3f3d56"/>
    <path id="Tracé_8935" data-name="Tracé 8935" d="M531.647,442.47v-1.191H560.7c.054.393.1.792.131,1.191Z" transform="translate(-408.047 -313.378)" fill="#3f3d56"/>
    <path id="Tracé_8936" data-name="Tracé 8936" d="M597.682,433.243h1.191V462.3c-.393.054-.792.1-1.191.131Z" transform="translate(-449.78 -308.3)" fill="#3f3d56"/>
    <path id="Tracé_8937" data-name="Tracé 8937" d="M482.115,273.431c-.3-.4-.613-.8-.934-1.191H478.99v-2.607c-.387-.44-.78-.881-1.191-1.316v3.923H369.628c-.321.393-.631.792-.934,1.191H477.8V365.3c.411-.435.8-.875,1.191-1.316V273.431Z" transform="translate(-305.063 -204.069)" fill="#3f3d56"/>
    <rect id="Rectangle_414" data-name="Rectangle 414" width="110.757" height="1.191" transform="translate(62.576 151.663)" fill="#3f3d56"/>
    <path id="Tracé_8938" data-name="Tracé 8938" d="M342.36,317.329v.2h.137a1.971,1.971,0,0,1-.137-.2Zm1.054-83.3a71.026,71.026,0,0,0-14.721,43.377q0,3.584.351,7.066c.036.4.077.8.131,1.191a70.86,70.86,0,0,0,12.078,32.15c.256.375.518.744.78,1.113A71.337,71.337,0,0,0,452.52,325.9c.411-.435.8-.875,1.19-1.315a71.272,71.272,0,0,0,3.125-90.552c-.3-.4-.613-.8-.934-1.191q-1.057-1.33-2.191-2.607c-.387-.441-.78-.881-1.19-1.316a71.216,71.216,0,0,0-52.4-22.942c-.684,0-1.363.012-2.042.03q-.679.018-1.357.054a71.3,71.3,0,0,0-52.378,26.781C344.026,233.236,343.717,233.635,343.413,234.034Zm-13.042,51.633c-.053-.393-.1-.792-.137-1.191a70.253,70.253,0,0,1,14.679-50.443c.315-.4.631-.8.958-1.191a70.151,70.151,0,0,1,50.247-25.561c.452-.024.9-.048,1.363-.06q1.312-.054,2.643-.054a70.042,70.042,0,0,1,52.4,23.513c.411.452.81.9,1.191,1.369.232.262.452.524.667.792.327.393.643.792.958,1.191a70.1,70.1,0,0,1-1.625,88.736c-.381.464-.78.917-1.191,1.369a70.159,70.159,0,0,1-109.886-6.417c-.048-.065-.1-.131-.137-.2a1.961,1.961,0,0,1-.137-.2q-.259-.366-.5-.732a69.617,69.617,0,0,1-11.489-30.93ZM342.5,317.526a1.974,1.974,0,0,1-.137-.2v.2Z" transform="translate(-279.783 -164.672)" fill="#ccc"/>
    <path id="Tracé_8939" data-name="Tracé 8939" d="M618.312,537.637H547.046a3.29,3.29,0,0,1-3.287-3.287V499.625a3.29,3.29,0,0,1,3.287-3.287h71.266a3.29,3.29,0,0,1,3.287,3.287V534.35A3.29,3.29,0,0,1,618.312,537.637Z" transform="translate(-415.702 -348.175)" fill="#cacaca"/>
    <path id="Tracé_8940" data-name="Tracé 8940" d="M590.713,538.635c-15.608,0-31.882-.149-37.955-.246a3.062,3.062,0,0,1-3-3.049V503.42a1.082,1.082,0,0,1,1.078-1.081H622.1a1.082,1.082,0,0,1,1.081,1.078v21.657A13.511,13.511,0,0,1,609.9,538.533C604.24,538.606,597.538,538.635,590.713,538.635Z" transform="translate(-419.494 -351.967)" fill="#e4e4e4"/>
    <path id="Tracé_8941" data-name="Tracé 8941" d="M612.369,518.508H554.383a1.826,1.826,0,0,1-1.717-1.211L546.1,498.884a1.823,1.823,0,0,1,1.714-2.435l72.483-.1h0a1.823,1.823,0,0,1,1.675,2.541l-.1-.043.1.043L614.044,517.4a1.821,1.821,0,0,1-1.675,1.1Z" transform="translate(-417.116 -348.181)" fill="#cacaca"/>
    <path id="Tracé_8942" data-name="Tracé 8942" d="M576.925,584.857h-20a1.858,1.858,0,0,1,0-3.715h20a1.858,1.858,0,1,1,0,3.715Z" transform="translate(-422.851 -401.769)" fill="#cacaca"/>
    <circle id="Ellipse_175" data-name="Ellipse 175" cx="4.541" cy="4.541" r="4.541" transform="translate(162.329 165.786)" fill="#3f3d56"/>
    <path id="Tracé_8943" data-name="Tracé 8943" d="M218.8,103.125a51.452,51.452,0,0,1,71.692,12.442c16.361,23.233,32.779,84.156,21.19,119.448-34.567-36.513-87.673-40.307-105.324-60.2C187.494,153.562,195.564,119.487,218.8,103.125Z" transform="translate(-195.843 -93.736)" fill="#5241fb"/>
    <circle id="b262ea8c-1946-46c9-a449-3a1996c39394" cx="16.78" cy="16.78" r="16.78" transform="translate(36.498 28.438)" fill="#fff"/>
    <circle id="bcc29a3a-8123-4529-80aa-6f70df2823cf" cx="10.991" cy="10.991" r="10.991" transform="translate(119.03 137.573)" fill="#5241fb"/>
    <path id="Tracé_8944" data-name="Tracé 8944" d="M287.844,198.939a16.78,16.78,0,0,0,28.981,16.922,16.778,16.778,0,0,1-25.546-21.083,16.78,16.78,0,0,0-3.435,4.162Z" transform="translate(-252.519 -157.593)" fill="#231f20" opacity="0.2" style="mix-blend-mode: normal;isolation: isolate"/>
    <path id="Tracé_8945" data-name="Tracé 8945" d="M206.27,198.814c17.65,19.891,70.756,23.686,105.324,60.2a71.172,71.172,0,0,0,2.485-10.216c-34.55-33.193-84.7-37.388-101.753-56.607-15.263-17.2-12.887-42.8.888-60.608C194.321,149.093,188.987,179.336,206.27,198.814Z" transform="translate(-195.791 -117.653)" fill="#231f20" opacity="0.2" style="mix-blend-mode: normal;isolation: isolate"/>
    <path id="Tracé_8946" data-name="Tracé 8946" d="M778.464,501.514l-7.126-2.171c-3.1,3.74-5.674,14.574-5.674,14.574l-9.753,15.848a3.289,3.289,0,1,0,4.689,3.225l14.761-17.92Z" transform="translate(-548.591 -350.074)" fill="#ffb6b6"/>
    <path id="Tracé_8947" data-name="Tracé 8947" d="M798.057,477.932l1.317-10.787-2.952-4.93a6.048,6.048,0,0,0-5.687-2.9h0a6.033,6.033,0,0,0-5.483,6.148c.111,4.636.841,10.5,3.692,12.1l.029.016Z" transform="translate(-568.32 -324.763)" fill="#ff6484"/>
    <path id="Tracé_8948" data-name="Tracé 8948" d="M654.466,652.761l-4.273,2.062-9.99-15.5,6.307-3.044Z" transform="translate(-404.599 -402.118)" fill="#ffb6b6"/>
    <path id="Tracé_8949" data-name="Tracé 8949" d="M857.331,777.648l-13.141,6.343-.08-.166a5.68,5.68,0,0,1,2.646-7.584h0l1.521-2.98,5.357-.341,1.147-.554Z" transform="translate(-605.161 -522.621)" fill="#2f2e41"/>
    <path id="Tracé_8950" data-name="Tracé 8950" d="M580.5,665.336h-4.745l-2.257-18.3h7Z" transform="translate(-362.443 -408.915)" fill="#ffb6b6"/>
    <path id="Tracé_8951" data-name="Tracé 8951" d="M763.715,790.41H749.123v-.185a5.68,5.68,0,0,1,5.679-5.679h0l2.665-2.022,4.973,2.022h1.274Z" transform="translate(-545.489 -529.039)" fill="#2f2e41"/>
    <path id="Tracé_8952" data-name="Tracé 8952" d="M765.409,555.928l-5.437,37.5,1.48,4.934-1.942,3.494,2.852,26.3L761.2,630.7l3.234,1.995h6.581l.349-27.781,1.626-4.079v-2.248l3.309-16.94.763,26.372,1.057,2.038c3.935,8.929,9.236,11.852,12.984,18.526l6.581-3.565-.138-2.658c1.322-.669-1.985-2.626-2.3-4.073l-.576-2.592-3.839-7.952-.146-2.8,1.051-19.047-.494-25.649-8.632-6.6Z" transform="translate(-552.053 -384.391)" fill="#2f2e41"/>
    <circle id="Ellipse_176" data-name="Ellipse 176" cx="8.55" cy="8.55" r="8.55" transform="translate(213.35 108.957)" fill="#ffb6b6"/>
    <path id="Tracé_8953" data-name="Tracé 8953" d="M764.214,500.913l-.125-.043,1.655-5.378a4.381,4.381,0,0,1,.79-4.085,3.719,3.719,0,0,1,.426-4.51c-.107-.542-.648-3.75,1.238-5.318,0,0,3.659-27.732,5.711-35.057.059-.536-.421-4.911,2.339-5.083,1.456-.09,3.64-.229,6.919-.44.423-.03.672.685,1.048,1.849.255.788-1.055,1.864-.738,1.846h.022l.022.006a13.784,13.784,0,0,1,10.193,14.087l-.975,16.57c.148.666,3.252,19.562,2.44,21.591-.46,1.151.325,1.867.9,2.391.3.27.508.464.479.677a.355.355,0,0,1-.221.261c-.519.259-.232,2.037.071,3.1l.031.108-.1.051a58.729,58.729,0,0,0-20.665-4.2C771.422,499.335,768.966,502.571,764.214,500.913Z" transform="translate(-554.947 -313.201)" fill="#ff6484"/>
    <path id="Tracé_8954" data-name="Tracé 8954" d="M786.131,395.505a.712.712,0,0,1-.363-.452l-.122-.5.375.39a1.48,1.48,0,0,0-.433-2.529,3.1,3.1,0,0,0-.506-.123,3.5,3.5,0,0,1-.53-.128,2.415,2.415,0,0,1-1.449-2.037,6.4,6.4,0,0,1,.254-2.3,31.288,31.288,0,0,1-11.351-.341,5.269,5.269,0,0,1-1.629-.641,6.311,6.311,0,0,1-2.229-2.243.673.673,0,0,1,.091-.794.733.733,0,0,1,.533-.235l-.137-.37a.7.7,0,0,1,.781-.926l.484.09-.047-.321a.7.7,0,0,1,.934-.752.768.768,0,0,0,1.022-.564l.166-.808.017-.043a6.3,6.3,0,0,1,4.315-2.72,18.44,18.44,0,0,1,5.161,0,4.725,4.725,0,0,1,2.063.521,1.8,1.8,0,0,1,.9,1.665,4.119,4.119,0,0,1,4.343,1.8,9.025,9.025,0,0,1,1.253,4.955,14.37,14.37,0,0,1-2.175,8.637,2.035,2.035,0,0,1-.938.834.962.962,0,0,1-.31.05,1,1,0,0,1-.474-.117Z" transform="translate(-557.455 -272.741)" fill="#2f2e41"/>
    <path id="Tracé_8955" data-name="Tracé 8955" d="M762.922,511.9l-6.276-4.013c-4,2.764-9.4,12.5-9.4,12.5l-13.669,12.628a3.289,3.289,0,1,0,3.645,4.371l19.049-13.271Z" transform="translate(-533.939 -355.474)" fill="#ffb6b6"/>
    <path id="Tracé_8956" data-name="Tracé 8956" d="M798.988,488.868l4.18-10.031-1.512-5.544a6.048,6.048,0,0,0-4.693-4.328h0a6.033,6.033,0,0,0-6.939,4.439c-1.145,4.494-2.024,10.337.288,12.649l.023.023Z" transform="translate(-570.604 -330.811)" fill="#ff6484"/>
  </g>
</svg>
