<svg id="undraw_team_spirit_re_yl1v" xmlns="http://www.w3.org/2000/svg" width="258.473" height="303" viewBox="0 0 258.473 303">
  <g id="Groupe_1447" data-name="Groupe 1447" transform="translate(0 0)">
    <path id="Tracé_7878" data-name="Tracé 7878" d="M520.429,420.924a5.537,5.537,0,0,0-.727-8.459l9.039-43.744-9.752,3.076-7.272,42.319a5.567,5.567,0,0,0,8.712,6.808Z" transform="translate(-506.91 -247.42)" fill="#ffb6b6"/>
    <path id="Tracé_7879" data-name="Tracé 7879" d="M542.848,251.149l-6.041-4.56s-5.329-.377-6.273,9.232-6.853,46.492-6.853,46.492l-9.243,42.812,12.8,2.808,9.9-46.2,9.91-31.874Z" transform="translate(-508.437 -194.576)" fill="#e6e6e6"/>
    <path id="Tracé_7880" data-name="Tracé 7880" d="M533.67,354.8l-28.976-22.53a2.161,2.161,0,0,1-.379-3.029l19.715-25.355a2.161,2.161,0,0,1,3.029-.379l28.976,22.53a2.161,2.161,0,0,1,.379,3.029L536.7,354.417a2.161,2.161,0,0,1-3.029.379Z" transform="translate(-503.861 -219.006)" fill="#3f3d56"/>
    <path id="Tracé_7881" data-name="Tracé 7881" d="M535.335,354.282l-26.518-20.619a1.919,1.919,0,0,1-.336-2.689l17.873-22.986a1.918,1.918,0,0,1,2.689-.337l26.518,20.619a1.918,1.918,0,0,1,.337,2.689l-17.873,22.986A1.918,1.918,0,0,1,535.335,354.282Z" transform="translate(-505.685 -220.823)" fill="#fff"/>
    <path id="Tracé_7882" data-name="Tracé 7882" d="M515.367,343.28a.48.48,0,0,1-.084-.672l9.016-11.6a.479.479,0,1,1,.756.588l-9.016,11.6A.479.479,0,0,1,515.367,343.28Z" transform="translate(-508.759 -231.025)" fill="#e4e4e4"/>
    <path id="Tracé_7883" data-name="Tracé 7883" d="M518,345.328a.479.479,0,0,1-.084-.672l9.016-11.6a.479.479,0,0,1,.756.588l-9.016,11.6A.479.479,0,0,1,518,345.328Z" transform="translate(-509.899 -231.911)" fill="#e4e4e4"/>
    <path id="Tracé_7884" data-name="Tracé 7884" d="M529.639,340.807a.48.48,0,0,1-.084-.672l3.908-5.026a.479.479,0,1,1,.756.588l-3.908,5.026A.48.48,0,0,1,529.639,340.807Z" transform="translate(-514.934 -232.797)" fill="#e4e4e4"/>
    <path id="Tracé_7885" data-name="Tracé 7885" d="M533.19,348.066a.48.48,0,0,1-.084-.672l14.234-18.306a.479.479,0,1,1,.756.588l-14.234,18.306A.479.479,0,0,1,533.19,348.066Z" transform="translate(-516.471 -230.192)" fill="#e4e4e4"/>
    <path id="Tracé_7886" data-name="Tracé 7886" d="M535.824,350.114a.48.48,0,0,1-.084-.672l14.234-18.306a.479.479,0,0,1,.756.588L536.5,350.03A.48.48,0,0,1,535.824,350.114Z" transform="translate(-517.611 -231.078)" fill="#e4e4e4"/>
    <path id="Tracé_7887" data-name="Tracé 7887" d="M541.8,354.763a.479.479,0,0,1-.084-.672l14.234-18.306a.479.479,0,1,1,.756.588l-14.234,18.306A.479.479,0,0,1,541.8,354.763Z" transform="translate(-520.198 -233.09)" fill="#e4e4e4"/>
    <path id="Tracé_7888" data-name="Tracé 7888" d="M544.438,356.811a.479.479,0,0,1-.084-.672l14.234-18.306a.479.479,0,0,1,.756.588L545.11,356.727A.479.479,0,0,1,544.438,356.811Z" transform="translate(-521.337 -233.976)" fill="#e4e4e4"/>
    <path id="Tracé_7889" data-name="Tracé 7889" d="M550.417,361.46a.479.479,0,0,1-.084-.672l14.234-18.306a.479.479,0,0,1,.756.588l-14.234,18.306A.479.479,0,0,1,550.417,361.46Z" transform="translate(-523.924 -235.988)" fill="#e4e4e4"/>
    <path id="Tracé_7890" data-name="Tracé 7890" d="M553.051,363.508a.48.48,0,0,1-.084-.672L567.2,344.53a.479.479,0,0,1,.756.588l-14.234,18.306A.48.48,0,0,1,553.051,363.508Z" transform="translate(-525.064 -236.874)" fill="#e4e4e4"/>
    <ellipse id="Ellipse_94" data-name="Ellipse 94" cx="0.197" cy="0.197" rx="0.197" ry="0.197" transform="translate(4 147.5)" fill="#fff"/>
    <path id="Tracé_7891" data-name="Tracé 7891" d="M557.78,167.275A47.344,47.344,0,0,1,554.4,178.06c-8.892,18.81,16.431,12.679,25.48,12.679,9.894,0,19.361,5.2,17.915-17.915-.617-9.875-8.021-17.915-17.915-17.915C571.429,154.909,559.547,158.666,557.78,167.275Z" transform="translate(-524.922 -154.909)" fill="#2f2e41"/>
    <path id="Tracé_7892" data-name="Tracé 7892" d="M443.851,483.287h-8.43l-4.011-32.515h12.441Z" transform="translate(-379.67 -195.039)" fill="#ffb6b6"/>
    <path id="Tracé_7893" data-name="Tracé 7893" d="M602.315,672.584h-6.045l-1.079-5.708-2.764,5.708H576.393a3.6,3.6,0,0,1-2.048-6.57l12.8-8.843V651.4l13.468.8Z" transform="translate(-533.684 -369.73)" fill="#2f2e41"/>
    <path id="Tracé_7894" data-name="Tracé 7894" d="M519.206,469.434l-6.765,5.03-22.621-23.7,9.984-7.424Z" transform="translate(-404.943 -191.824)" fill="#ffb6b6"/>
    <path id="Tracé_7895" data-name="Tracé 7895" d="M706.67,648.522l-4.851,3.607-4.272-3.936,1.188,6.229-12.866,9.568a3.6,3.6,0,0,1-5.564-4.05l5-14.736-3.443-4.63,11.287-7.391Z" transform="translate(-580.121 -361.847)" fill="#2f2e41"/>
    <path id="Tracé_7896" data-name="Tracé 7896" d="M404.675,221.3l40.016-6.233-7.958-23.94H404.675Z" transform="translate(-368.103 -82.697)" fill="#ffb6b6"/>
    <path id="Tracé_7897" data-name="Tracé 7897" d="M603.981,367.291S619.975,381.11,612.6,420.5l-9.009,38.6,24.546,42.615-12.481,6.808L585.4,466.482l-13.842-32.468-7.322-56.9Z" transform="translate(-529.985 -246.802)" fill="#2f2e41"/>
    <path id="Tracé_7898" data-name="Tracé 7898" d="M426.208,346.3l-.962,14.9,2.816,44.118,13.981,4.814,2.648-45.2Z" transform="translate(-377.003 -149.837)" fill="#2f2e41"/>
    <path id="Tracé_7899" data-name="Tracé 7899" d="M569.155,226.8l15.468.6,6.165,10.233,14.065,2.746-8.4,42.477L598,307.042l-14-.085a40.964,40.964,0,0,0-27.41,10.3h0l.419-31.384-6.024-23.428,1.354-24.566,11.315-1.414Z" transform="translate(-524.249 -186.017)" fill="#e6e6e6"/>
    <ellipse id="Ellipse_95" data-name="Ellipse 95" cx="14.558" cy="14.558" rx="14.558" ry="14.558" transform="translate(38.919 6.71)" fill="#ffb6b6"/>
    <path id="Tracé_7900" data-name="Tracé 7900" d="M574.6,164.38a16.675,16.675,0,0,1,25.353,14.553c-7.418,1.862-15.211,3.288-23.122.445l-1.868-4.572-1.1,4.576c-2.409.985-4.825,1.818-7.24-.01A17.027,17.027,0,0,1,574.6,164.38Z" transform="translate(-531.013 -157.953)" fill="#2f2e41"/>
    <path id="Tracé_7901" data-name="Tracé 7901" d="M641.12,417.825l1.963,17.81a2.174,2.174,0,0,0,2.078,1.535h9.046a2.174,2.174,0,0,0,2.078-1.535l1.625-13.65a3.3,3.3,0,1,0,.851-6.21,2.155,2.155,0,0,0-1.65-.762H643.2a2.174,2.174,0,0,0-2.078,2.813Zm17.074,3.236,1-3.236a2.155,2.155,0,0,0,.033-1.151c.042,0,.082-.013.126-.013a2.357,2.357,0,0,1,0,4.715A2.327,2.327,0,0,1,658.194,421.061Z" transform="translate(-563.208 -267.45)" fill="#3700bd"/>
    <path id="Tracé_7902" data-name="Tracé 7902" d="M659.1,414.244a5.538,5.538,0,0,1,.77-8.456L651.055,362l9.736,3.126,7.057,42.356a5.567,5.567,0,0,1-8.747,6.764Z" transform="translate(-567.548 -244.512)" fill="#ffb6b6"/>
    <path id="Tracé_7903" data-name="Tracé 7903" d="M632.091,255.3l6.041-4.56s5.329-.377,6.273,9.232,6.853,46.492,6.853,46.492l9.243,42.812-12.8,2.809-9.9-46.2-9.91-31.874Z" transform="translate(-557.527 -196.374)" fill="#e6e6e6"/>
    <ellipse id="Ellipse_96" data-name="Ellipse 96" cx="3.419" cy="3.419" rx="3.419" ry="3.419" transform="translate(19.01 91.953)" fill="#3700bd"/>
  </g>
  <g id="Groupe_1446" data-name="Groupe 1446" transform="translate(119.264 0)">
    <path id="Tracé_7913" data-name="Tracé 7913" d="M722.11,554.461h-7.472l-3.555-28.821h11.028Z" transform="translate(-663.562 -259.256)" fill="#9e616a"/>
    <path id="Tracé_7914" data-name="Tracé 7914" d="M659.8,554.461h-7.472l-3.555-28.821H659.8Z" transform="translate(-636.601 -259.256)" fill="#9e616a"/>
    <path id="Tracé_7915" data-name="Tracé 7915" d="M814.8,735.619H791.822v-.291a8.944,8.944,0,0,1,8.943-8.943h0l4.2-3.184,7.831,3.185H814.8Z" transform="translate(-791.339 -432.62)" fill="#2f2e41"/>
    <path id="Tracé_7916" data-name="Tracé 7916" d="M878.8,735.619H855.822v-.291a8.944,8.944,0,0,1,8.943-8.943h0l4.2-3.184,7.831,3.185H878.8Z" transform="translate(-819.03 -432.62)" fill="#2f2e41"/>
    <path id="Tracé_7917" data-name="Tracé 7917" d="M809.544,427.05,798.188,496.2l3.09,10.3-4.055,7.3,5.955,64.091-2.417,5.322,6.754,4.165h13.744l.729-58.021,3.395-8.519v-4.7l6.911-35.38,1.272,49.548,2.01,8.532-1.689,6.075,2.207,4.256,5.861,39.469h15.411l-1.192-9.183h0a6.786,6.786,0,0,0,3.563-7.51l-.884-4.025,2.011-11.9,3.662-66.39L863.5,436.066,845.468,422.28Z" transform="translate(-793.675 -302.418)" fill="#2f2e41"/>
    <ellipse id="Ellipse_219" data-name="Ellipse 219" cx="14.319" cy="14.319" rx="14.319" ry="14.319" transform="translate(27.584 7.201)" fill="#9e616a"/>
    <path id="Tracé_7918" data-name="Tracé 7918" d="M801.588,455.868a6.129,6.129,0,0,0-.982-9.346l5.568-21.056-10.727,3.608L791.8,448.516a6.162,6.162,0,0,0,9.784,7.352Z" transform="translate(-790.97 -303.797)" fill="#9e616a"/>
    <path id="Path_1101" data-name="Path 1101" d="M807.464,300.5l-2.3-.478-1.964,1.087s-5.485,7.314-5.485,14.018-6.7,71.309-6.7,71.309l12.189,5.485,9.752-50.587Z" transform="translate(-790.986 -249.518)" fill="#e6e6e6"/>
    <path id="Path_1104" data-name="Path 1104" d="M864.461,222.025s3.745-7.159-4.494-7.81c0,0-7.024-6.372-14.183-1.165a7.19,7.19,0,0,0-6.041,4.419s-3.071-1.165-3.746,1.952c0,0-2.247,6.509,0,12.366s2.994,6.508,2.994,6.508-3.693-12.281,5.3-12.932,19.048-6.268,19.8.891,1.876,8.923,1.876,8.923S873.076,224.954,864.461,222.025Z" transform="translate(-810.02 -211.004)" fill="#2f2e41"/>
    <path id="Tracé_7919" data-name="Tracé 7919" d="M942.719,523.665a4.383,4.383,0,0,1-2.929-1.118l-43.333-38.573a4.419,4.419,0,0,1-.362-6.232l27.76-31.185a4.418,4.418,0,0,1,6.232-.362L973.42,484.77a4.414,4.414,0,0,1,.362,6.231l-27.76,31.184a4.383,4.383,0,0,1-3.041,1.472C942.894,523.663,942.806,523.665,942.719,523.665Z" transform="translate(-835.973 -312.284)" fill="#fff"/>
    <path id="Tracé_7920" data-name="Tracé 7920" d="M942.5,523.733a4.664,4.664,0,0,1-3.117-1.189l-43.333-38.573a4.7,4.7,0,0,1-.385-6.633l27.759-31.184a4.7,4.7,0,0,1,6.633-.386l43.333,38.574a4.7,4.7,0,0,1,.385,6.632l-27.759,31.185a4.669,4.669,0,0,1-3.237,1.567C942.688,523.73,942.6,523.733,942.5,523.733Zm-15.565-78.017a3.554,3.554,0,0,0-2.663,1.192l-27.759,31.184a3.568,3.568,0,0,0,.292,5.031L940.14,521.7a3.562,3.562,0,0,0,5.03-.292l27.76-31.184a3.563,3.563,0,0,0-.292-5.03L929.3,446.616a3.548,3.548,0,0,0-2.367-.9Z" transform="translate(-835.757 -312.068)" fill="#3f3d56"/>
    <path id="Tracé_7921" data-name="Tracé 7921" d="M979.428,505.536a1.9,1.9,0,0,1-1.269-.483l-34.014-30.279a1.91,1.91,0,1,1,2.54-2.853L980.7,502.2a1.909,1.909,0,0,1-1.271,3.336Z" transform="translate(-856.968 -323.688)" fill="#5241fb"/>
    <path id="Tracé_7922" data-name="Tracé 7922" d="M967.992,518.383a1.9,1.9,0,0,1-1.269-.483l-34.014-30.279a1.91,1.91,0,1,1,2.54-2.853l34.015,30.279a1.909,1.909,0,0,1-1.271,3.335Z" transform="translate(-852.02 -329.247)" fill="#5241fb"/>
    <path id="Tracé_7923" data-name="Tracé 7923" d="M956.555,531.231a1.9,1.9,0,0,1-1.269-.483L921.271,500.47a1.91,1.91,0,0,1,2.54-2.853L957.826,527.9a1.909,1.909,0,0,1-1.271,3.336Z" transform="translate(-847.071 -334.806)" fill="#5241fb"/>
    <path id="Tracé_7924" data-name="Tracé 7924" d="M914.8,457.939a6.129,6.129,0,0,1,3.353-8.779l.037-21.78,9.438,6.247-1.482,19.725a6.162,6.162,0,0,1-11.346,4.588Z" transform="translate(-844.21 -304.625)" fill="#9e616a"/>
    <path id="Path_1100" data-name="Path 1100" d="M913.672,308.281l4.216-4.064,3.1,2.236s3.047,3.657,5.485,14.628,0,71.31,0,71.31l-13.409-1.829,1.829-31.693-5.485-26.817Z" transform="translate(-842.214 -251.335)" fill="#e6e6e6"/>
    <path id="Tracé_7925" data-name="Tracé 7925" d="M880.387,293.866l-14.205-6.785-9.645-8.946L838.95,278l-5.673,7.375L818.3,290.467l2.5,51.645-1.7,3.971s1.186,1.071,1.727,1.67-.748,5.615-.748,5.615l-.728,5.457,2.018,1.442-2.623,3.1-.651,4.885s45.791-11.381,54.444,7.473c.457,1-.669-8.74-.669-8.74l-1.126-7.127,1.117-6.4,1.7-1.7L870.7,348.9l1.83-13.544Z" transform="translate(-802.703 -239.993)" fill="#3f3d56"/>
  </g>
</svg>
