<svg id="undraw_having_fun_re_vj4h" xmlns="http://www.w3.org/2000/svg" width="253.255" height="284.978" viewBox="0 0 253.255 284.978">
  <g id="Groupe_1449" data-name="Groupe 1449" transform="translate(147.555 0)">
    <path id="Tracé_4406" data-name="Tracé 4406" d="M595.017,431.435a5.772,5.772,0,0,0,.922-8.8l9.244-18.31L594.6,405.551l-7.155,17.2a5.8,5.8,0,0,0,7.576,8.685Z" transform="translate(-585.941 -284.231)" fill="#ffb7b7"/>
    <path id="Tracé_4407" data-name="Tracé 4407" d="M494.932,535.132H486.6L482.638,503h12.295Z" transform="translate(-411.722 -258.23)" fill="#ffb7b7"/>
    <path id="Tracé_4408" data-name="Tracé 4408" d="M720.3,698.408H693.44v-.34a10.456,10.456,0,0,1,10.454-10.455H720.3Z" transform="translate(-634.968 -413.431)" fill="#2f2e41"/>
    <path id="Tracé_4409" data-name="Tracé 4409" d="M411.232,535.132H402.9L398.938,503h12.3Z" transform="translate(-373.55 -258.23)" fill="#ffb7b7"/>
    <path id="Tracé_4410" data-name="Tracé 4410" d="M632.854,698.408H605.993v-.34a10.456,10.456,0,0,1,10.455-10.455h16.407Z" transform="translate(-595.085 -413.431)" fill="#2f2e41"/>
    <path id="Tracé_4411" data-name="Tracé 4411" d="M407.808,312.572l-8.154,18.785-6.726,107.974,16.987-.679,4.64-51.472,14.313-45.844,8.228,51.108,3.4,44.848,14.056.609,5.6-125.329Z" transform="translate(-370.808 -171.382)" fill="#2f2e41"/>
    <path id="Tracé_4412" data-name="Tracé 4412" d="M689.556,272.694l-23.633.591-13.875,7.123-.761,52.551-8.654,36.283s54.069,3.721,61.544-1.715l-8.833-41.45,11.848-44.8Z" transform="translate(-611.796 -224.2)" fill="#5241fb"/>
    <path id="Tracé_4413" data-name="Tracé 4413" d="M632.339,287.232l-2.2-1.486s-9.115,2.732-11.809,14.886c0,0-2.061,6.1-2.966,10.29-1.038,4.809-23.947,48.976-23.947,48.976l13.716,3.935,25.148-40.668Z" transform="translate(-588.438 -230.153)" fill="#5241fb"/>
    <path id="Tracé_4414" data-name="Tracé 4414" d="M758.714,442.355a5.772,5.772,0,0,1,1.541-8.715l-3.836-20.149,9.838,4.1,2.135,18.505a5.8,5.8,0,0,1-9.678,6.259Z" transform="translate(-663.689 -288.412)" fill="#ffb7b7"/>
    <path id="Tracé_4415" data-name="Tracé 4415" d="M749.311,288.947l2.524-.821s8.008,5.139,7.246,17.565c0,0,.3,6.43.013,10.709-.329,4.908,4.077,53.681,4.077,53.681H748.9l-6.116-44.168Z" transform="translate(-657.473 -231.238)" fill="#5241fb"/>
    <path id="Tracé_4416" data-name="Tracé 4416" d="M712.092,218.424a16.383,16.383,0,1,1-16.383-16.383h0a16.342,16.342,0,0,1,16.383,16.3C712.092,218.369,712.092,218.4,712.092,218.424Z" transform="translate(-628.531 -191.977)" fill="#ffb7b7"/>
    <path id="Tracé_4417" data-name="Tracé 4417" d="M678.837,187.981c1.919-4.127,5.633-3.311,8.881-1.912,4.113-.912,8.025-3.644,12.457-2.029,4.365,6.349,19.022,4.481,15.9,14.818,0,2.477,4.661,1.035,3.847,5.092,2.471,7.807-8.92,22.592-15.459,19.479,1.617-2.964,5.312-9.7-.292-10.364-12.054,11.216-1.243-21.357-16.389-11.885C682.771,205.77,675.905,192.571,678.837,187.981Z" transform="translate(-627.986 -183.539)" fill="#2f2e41"/>
  </g>
  <g id="Groupe_1450" data-name="Groupe 1450" transform="translate(0 11.897)">
    <path id="Tracé_4418" data-name="Tracé 4418" d="M805.419,426.53a5.444,5.444,0,0,1-6.516-5.219l-41.136-38.718,9.256-7.383,37.595,40.478a5.474,5.474,0,0,1,.8,10.842Z" transform="translate(-696.41 -316.983)" fill="#9f616a"/>
    <path id="Tracé_4419" data-name="Tracé 4419" d="M841.157,382.544l8-9.379a2.441,2.441,0,0,0-.562-3.654l-10.419-6.522a6.78,6.78,0,0,0-8.771,10.34l8.052,9.235a2.441,2.441,0,0,0,3.7-.021Z" transform="translate(-773.971 -310.676)" fill="#cbcbcb"/>
    <path id="Tracé_4420" data-name="Tracé 4420" d="M542.271,588.47h10.058l4.785-38.794H542.27Z" transform="translate(-453.564 -325.547)" fill="#9f616a"/>
    <path id="Tracé_4421" data-name="Tracé 4421" d="M748.331,758.532h32.43v-.411A12.623,12.623,0,0,0,768.139,745.5H748.33Z" transform="translate(-662.189 -485.86)" fill="#2f2e41"/>
    <path id="Tracé_4422" data-name="Tracé 4422" d="M690.08,588.47h10.058l4.785-38.794H690.078Z" transform="translate(-681.77 -325.547)" fill="#9f616a"/>
    <path id="Tracé_4423" data-name="Tracé 4423" d="M896.139,758.532h32.43v-.411A12.623,12.623,0,0,0,915.947,745.5H896.138Z" transform="translate(-890.393 -485.86)" fill="#2f2e41"/>
    <path id="Tracé_4424" data-name="Tracé 4424" d="M781.481,400.491l-10.138-37.457,13.152-7.393h18.358l7.14,7.639s11.93,8.3,9.042,17.5l-4.658,20.946,7.124,33.268L857.4,484.769l8.5,48.9-33.448,8.769-36.168-71.217-17.536,78.857-32.624-1.641,11.241-95.614s3.205-29.127,20-47.314Z" transform="translate(-746.118 -308.06)" fill="#2f2e41"/>
    <path id="Tracé_4425" data-name="Tracé 4425" d="M904.91,447.554a5.444,5.444,0,0,1,.7-8.319l7.866-53.068,11.29,3.565-11.3,51.11a5.474,5.474,0,0,1-8.552,6.712Z" transform="translate(-890.484 -321.981)" fill="#9f616a"/>
    <path id="Tracé_4426" data-name="Tracé 4426" d="M902.271,383.943l12.248,1.412a2.441,2.441,0,0,0,2.72-2.5l-.4-12.286a6.78,6.78,0,1,0-13.474-1.514l-3.175,11.834a2.441,2.441,0,0,0,2.078,3.057Z" transform="translate(-881.225 -311.429)" fill="#cbcbcb"/>
    <path id="Tracé_4427" data-name="Tracé 4427" d="M883.442,305.094V289.312a21.148,21.148,0,1,0-42.3,0v15.782a2.844,2.844,0,0,0,2.841,2.841H880.6A2.844,2.844,0,0,0,883.442,305.094Z" transform="translate(-815.355 -268.164)" fill="#2f2e41"/>
    <ellipse id="Ellipse_72" data-name="Ellipse 72" cx="15.505" cy="15.505" rx="15.505" ry="15.505" transform="translate(57.454 44.94) rotate(-151.337)" fill="#9f616a"/>
    <path id="Tracé_4428" data-name="Tracé 4428" d="M868.563,295.338a16.748,16.748,0,0,0-16.729-16.729h-3.157a16.748,16.748,0,0,0-16.729,16.729v.316h6.671l2.275-6.371.455,6.371H844.8l1.148-3.214.23,3.214h22.389Z" transform="translate(-795.473 -272.927)" fill="#2f2e41"/>
    <path id="Tracé_4429" data-name="Tracé 4429" d="M887.414,320.345a2.8,2.8,0,0,0,.223-2.972c-3.345-6.362-8.028-18.118-1.812-25.368l.447-.521H868.225V318.58l16.394,2.892a2.918,2.918,0,0,0,.5.045,2.828,2.828,0,0,0,2.292-1.171Z" transform="translate(-834.604 -278.8)" fill="#2f2e41"/>
  </g>
</svg>
