<svg id="Groupe_1538" data-name="Groupe 1538" xmlns="http://www.w3.org/2000/svg" xmlns:xlink="http://www.w3.org/1999/xlink" width="158.936" height="87.142" viewBox="0 0 158.936 87.142">
  <defs>
    <clipPath id="clip-path">
      <rect id="Rectangle_350" data-name="Rectangle 350" width="158.936" height="87.142" fill="none"/>
    </clipPath>
  </defs>
  <path id="Tracé_9220" data-name="Tracé 9220" d="M0,0H158.936V87.142H0Z" fill="none"/>
  <g id="Groupe_1537" data-name="Groupe 1537">
    <g id="Groupe_1536" data-name="Groupe 1536" clip-path="url(#clip-path)">
      <path id="Tracé_7946" data-name="Tracé 7946" d="M45.188,43.222a22.812,22.812,0,0,1-1-3.627h-.069a28.654,28.654,0,0,1-1.035,3.886L41.652,47.6h5.056Zm4.146,12.42-1.36-4.056H40.423l-1.329,4.056H34.069l7.392-21.884H47.2l7.68,21.884Z" transform="translate(-15.372 -15.231)" fill="#fff"/>
      <path id="Tracé_7947" data-name="Tracé 7947" d="M83.946,47.705c-1.682,0-2.817,1.945-2.817,4.634v3.955a6.229,6.229,0,0,0,1.685.2c1.91,0,3.371-1.235,3.371-4.831,0-2.69-.713-3.956-2.239-3.956m-10.6-.291V44.237a50.5,50.5,0,0,1,7.357-.291,14.515,14.515,0,0,1-.131,2.333h.066A5.094,5.094,0,0,1,85.5,43.62c3.859,0,5.869,2.853,5.869,7.522,0,5.509-2.786,9.206-8.59,9.206a8.327,8.327,0,0,1-1.651-.128v7.552H76.166V47.74c-.778-.131-1.879-.26-2.817-.325" transform="translate(-33.095 -19.681)" fill="#fff"/>
      <path id="Tracé_7948" data-name="Tracé 7948" d="M117.458,46.8h.066a4.8,4.8,0,0,1,4.862-3.243l-.262,4.894c-2.69-.612-4.081.941-4.081,4.956v6.651h-4.959V47.705c-.779-.131-1.882-.26-2.821-.325V44.2a51.238,51.238,0,0,1,7.424-.291,20.038,20.038,0,0,1-.228,2.886" transform="translate(-49.75 -19.647)" fill="#fff"/>
      <path id="Tracé_7949" data-name="Tracé 7949" d="M145.5,55.731c-3.731,0-4.932-1.232-4.932-5.187V43.06h-2.429v-3.8h2.429V34.5l4.932-1.328v6.09H149v3.8h-3.471v6.351c0,1.651.425,2.2,1.654,2.2a8.2,8.2,0,0,0,1.817-.26v3.918a15.25,15.25,0,0,1-3.5.456" transform="translate(-62.327 -14.967)" fill="#fff"/>
      <path id="Tracé_7950" data-name="Tracé 7950" d="M175.3,34.256a5.944,5.944,0,0,0-1.789-.289c-1.489,0-2.17.715-2.17,2.431v1.424h3.308v3.8h-3.308V53.937H166.42V41.62h-2.467v-3.8h2.467V36.429c0-4.279,1.907-6.449,6.613-6.449a11.753,11.753,0,0,1,2.593.257Z" transform="translate(-73.974 -13.527)" fill="#fff"/>
      <path id="Tracé_7951" data-name="Tracé 7951" d="M220.382,31.148h.414c.055.562-.864.572-.839.031.113-.039.312.009.425-.031" transform="translate(-99.243 -14.054)" fill="#fff"/>
      <path id="Tracé_7952" data-name="Tracé 7952" d="M223.878,31.177c.333.025.684.04.991.092-.05.561-1.032.52-.991-.092" transform="translate(-101.012 -14.067)" fill="#fff"/>
      <path id="Tracé_7953" data-name="Tracé 7953" d="M226.316,31.675a.525.525,0,0,1,.595.5c.018.784-1.135.653-1.072-.049a.49.49,0,0,1,.477-.454" transform="translate(-101.896 -14.29)" fill="#fff"/>
      <path id="Tracé_7954" data-name="Tracé 7954" d="M227.928,31.705a7.372,7.372,0,0,1,.839.166.576.576,0,0,1-.839-.166" transform="translate(-102.84 -14.305)" fill="#fff"/>
      <path id="Tracé_7955" data-name="Tracé 7955" d="M222.282,31.806a.439.439,0,0,1,.55.427.469.469,0,0,1-.9.182.444.444,0,0,1,.351-.609" transform="translate(-100.12 -14.347)" fill="#fff"/>
      <path id="Tracé_7956" data-name="Tracé 7956" d="M218.292,31.944a.369.369,0,0,1,.469.352.388.388,0,1,1-.776,0,.348.348,0,0,1,.307-.352" transform="translate(-98.353 -14.409)" fill="#fff"/>
      <path id="Tracé_7957" data-name="Tracé 7957" d="M214.095,32.231c.123-.036.226-.143.351-.138.388.017.265.695-.165.594a.327.327,0,0,1-.186-.456" transform="translate(-96.585 -14.48)" fill="#fff"/>
      <path id="Tracé_7958" data-name="Tracé 7958" d="M205.886,32.185a2.983,2.983,0,0,1,.579-.016c.428.469-.466.893-.642.395a.4.4,0,0,1,.063-.379" transform="translate(-92.857 -14.51)" fill="#fff"/>
      <path id="Tracé_7959" data-name="Tracé 7959" d="M230.968,32.5c-.112.876-1.517.51-1.14-.352a10.306,10.306,0,0,1,1.14.352" transform="translate(-103.668 -14.504)" fill="#fff"/>
      <path id="Tracé_7960" data-name="Tracé 7960" d="M210.005,32.6a2.085,2.085,0,0,1,.506.243.3.3,0,0,1-.506-.243" transform="translate(-94.752 -14.707)" fill="#fff"/>
      <path id="Tracé_7961" data-name="Tracé 7961" d="M228.332,33.032a.566.566,0,1,1,.076,1.128.566.566,0,0,1-.076-1.128" transform="translate(-102.798 -14.902)" fill="#fff"/>
      <path id="Tracé_7962" data-name="Tracé 7962" d="M232.253,33.094a1.648,1.648,0,0,1,.752.4.579.579,0,0,1-.293.642.59.59,0,0,1-.794-.762.55.55,0,0,1,.335-.276" transform="translate(-104.618 -14.931)" fill="#fff"/>
      <path id="Tracé_7963" data-name="Tracé 7963" d="M224.306,33.171a.5.5,0,0,1,.55.321c.212.724-.97.9-.977.168a.454.454,0,0,1,.427-.489" transform="translate(-101.013 -14.964)" fill="#fff"/>
      <path id="Tracé_7964" data-name="Tracé 7964" d="M204.4,34.029a4.653,4.653,0,0,1-.689-.227c-.121-.586.739-.649.828-.185a.438.438,0,0,1-.139.412" transform="translate(-91.909 -15.03)" fill="#fff"/>
      <path id="Tracé_7965" data-name="Tracé 7965" d="M220.294,33.308a.407.407,0,0,1,.487.258.424.424,0,1,1-.825.092.386.386,0,0,1,.338-.35" transform="translate(-99.241 -15.023)" fill="#fff"/>
      <path id="Tracé_7966" data-name="Tracé 7966" d="M208.184,33.447c.574-.115.53.778-.015.672a.352.352,0,0,1,.015-.672" transform="translate(-93.816 -15.086)" fill="#fff"/>
      <path id="Tracé_7967" data-name="Tracé 7967" d="M216.3,33.447a.347.347,0,0,1,.17.672c-.44.082-.6-.58-.17-.672" transform="translate(-97.48 -15.086)" fill="#fff"/>
      <path id="Tracé_7968" data-name="Tracé 7968" d="M212.3,33.583c.506-.13.4.643-.016.515-.178-.053-.275-.444.016-.515" transform="translate(-95.707 -15.146)" fill="#fff"/>
      <path id="Tracé_7969" data-name="Tracé 7969" d="M230.33,34.395a.585.585,0,0,1,.657.581c.019.749-1.221.858-1.221.013a.569.569,0,0,1,.564-.594" transform="translate(-103.669 -15.518)" fill="#fff"/>
      <path id="Tracé_7970" data-name="Tracé 7970" d="M226.33,34.531a.529.529,0,0,1,.094,1.054.542.542,0,0,1-.32-.991.512.512,0,0,1,.226-.063" transform="translate(-101.91 -15.578)" fill="#fff"/>
      <path id="Tracé_7971" data-name="Tracé 7971" d="M234.952,35.329a.537.537,0,0,1-.988-.261c-.008-.2.175-.545.424-.535.139.008.27.248.338.353.108.162.144.3.226.442" transform="translate(-105.563 -15.581)" fill="#fff"/>
      <path id="Tracé_7972" data-name="Tracé 7972" d="M222.282,34.671a.437.437,0,0,1,.55.425.47.47,0,0,1-.9.182.442.442,0,0,1,.351-.608" transform="translate(-100.12 -15.639)" fill="#fff"/>
      <path id="Tracé_7973" data-name="Tracé 7973" d="M206.6,35.379a1.517,1.517,0,0,0-.6-.459c.252-.366.875.064.6.459" transform="translate(-92.949 -15.693)" fill="#fff"/>
      <path id="Tracé_7974" data-name="Tracé 7974" d="M218.295,34.806c.613-.125.587.862-.021.747a.384.384,0,0,1,.021-.747" transform="translate(-98.356 -15.699)" fill="#fff"/>
      <path id="Tracé_7975" data-name="Tracé 7975" d="M210.228,34.947a.3.3,0,0,1,.38.38.325.325,0,0,1-.61,0,.285.285,0,0,1,.23-.38" transform="translate(-94.744 -15.763)" fill="#fff"/>
      <path id="Tracé_7976" data-name="Tracé 7976" d="M214.3,34.938a.352.352,0,0,1,.168-.017c.325.075.283.718-.181.609a.311.311,0,0,1,.013-.592" transform="translate(-96.589 -15.754)" fill="#fff"/>
      <path id="Tracé_7977" data-name="Tracé 7977" d="M228.334,35.9a.549.549,0,0,1,.595.335.583.583,0,0,1-.519.793.567.567,0,0,1-.076-1.128" transform="translate(-102.8 -16.194)" fill="#fff"/>
      <path id="Tracé_7978" data-name="Tracé 7978" d="M232.376,35.9a.572.572,0,0,1,.639.548.579.579,0,0,1-1.145.108.543.543,0,0,1,.505-.655" transform="translate(-104.615 -16.194)" fill="#fff"/>
      <path id="Tracé_7979" data-name="Tracé 7979" d="M224.306,36.033a.5.5,0,1,1-.427.487.448.448,0,0,1,.427-.487" transform="translate(-101.013 -16.255)" fill="#fff"/>
      <path id="Tracé_7980" data-name="Tracé 7980" d="M220.288,36.168a.409.409,0,0,1,.487.257c.194.608-.668.722-.812.291a.412.412,0,0,1,.325-.548" transform="translate(-99.236 -16.314)" fill="#fff"/>
      <path id="Tracé_7981" data-name="Tracé 7981" d="M208.184,36.3c.574-.113.53.782-.015.675a.354.354,0,0,1,.015-.675" transform="translate(-93.816 -16.376)" fill="#fff"/>
      <path id="Tracé_7982" data-name="Tracé 7982" d="M216.3,36.3a.348.348,0,0,1,.17.675c-.44.081-.605-.579-.17-.675" transform="translate(-97.479 -16.375)" fill="#fff"/>
      <path id="Tracé_7983" data-name="Tracé 7983" d="M212.3,36.442c.49-.125.412.653-.016.518-.17-.05-.283-.44.016-.518" transform="translate(-95.706 -16.436)" fill="#fff"/>
      <path id="Tracé_7984" data-name="Tracé 7984" d="M236.085,36.644c.294.113.657.169.946.291-.113.566-1.153.385-.946-.291" transform="translate(-106.508 -16.534)" fill="#fff"/>
      <path id="Tracé_7985" data-name="Tracé 7985" d="M230.33,37.258a.583.583,0,0,1,.657.576.611.611,0,0,1-1.221.016.589.589,0,0,1,.564-.592" transform="translate(-103.669 -16.809)" fill="#fff"/>
      <path id="Tracé_7986" data-name="Tracé 7986" d="M226.33,37.393a.529.529,0,0,1,.094,1.054.542.542,0,0,1-.32-.991.511.511,0,0,1,.226-.063" transform="translate(-101.91 -16.869)" fill="#fff"/>
      <path id="Tracé_7987" data-name="Tracé 7987" d="M234.438,37.391a.528.528,0,1,1,.044,1.054.564.564,0,0,1-.519-.52.5.5,0,0,1,.474-.533" transform="translate(-105.563 -16.868)" fill="#fff"/>
      <path id="Tracé_7988" data-name="Tracé 7988" d="M222.282,37.534a.435.435,0,0,1,.55.422.47.47,0,0,1-.9.185.442.442,0,0,1,.351-.607" transform="translate(-100.12 -16.93)" fill="#fff"/>
      <path id="Tracé_7989" data-name="Tracé 7989" d="M238.445,37.583c-.005-.014,0-.015.013-.015a3.763,3.763,0,0,1,.349.212c.094.064.265.169.278.274.031.239-.265.425-.521.4a.458.458,0,0,1-.118-.866" transform="translate(-107.466 -16.95)" fill="#fff"/>
      <path id="Tracé_7990" data-name="Tracé 7990" d="M206.1,37.667a.379.379,0,0,1,.456.5.389.389,0,0,1-.733-.259.356.356,0,0,1,.277-.243" transform="translate(-92.856 -16.99)" fill="#fff"/>
      <path id="Tracé_7991" data-name="Tracé 7991" d="M218.293,37.668a.367.367,0,0,1,.469.35.388.388,0,0,1-.776.015.345.345,0,0,1,.307-.364" transform="translate(-98.354 -16.991)" fill="#fff"/>
      <path id="Tracé_7992" data-name="Tracé 7992" d="M210.244,37.805a.31.31,0,0,1,.168.595c-.393.089-.561-.509-.168-.595" transform="translate(-94.76 -17.053)" fill="#fff"/>
      <path id="Tracé_7993" data-name="Tracé 7993" d="M214.3,37.8a.365.365,0,0,1,.168-.014c.325.073.283.717-.181.609a.312.312,0,0,1,.013-.595" transform="translate(-96.589 -17.045)" fill="#fff"/>
      <path id="Tracé_7994" data-name="Tracé 7994" d="M228.315,38.753a.568.568,0,1,1,.113,1.129.568.568,0,0,1-.113-1.129" transform="translate(-102.8 -17.482)" fill="#fff"/>
      <path id="Tracé_7995" data-name="Tracé 7995" d="M232.938,39.6c-.244.072-.5.128-.731.215a.579.579,0,0,1,.2-1.082.569.569,0,0,1,.532.867" transform="translate(-104.632 -17.475)" fill="#fff"/>
      <path id="Tracé_7996" data-name="Tracé 7996" d="M224.319,38.892c.731-.1.721,1.038.013.975a.513.513,0,0,1-.2-.927.479.479,0,0,1,.189-.047" transform="translate(-101.026 -17.545)" fill="#fff"/>
      <path id="Tracé_7997" data-name="Tracé 7997" d="M237.063,39.418c-.328.02-.666.03-1,.046a.5.5,0,1,1,1-.046" transform="translate(-106.509 -17.552)" fill="#fff"/>
      <path id="Tracé_7998" data-name="Tracé 7998" d="M204.1,39.007c.726-.044.453,1.135-.183.794-.089-.05-.23-.2-.21-.335s.309-.341.393-.459" transform="translate(-91.909 -17.599)" fill="#fff"/>
      <path id="Tracé_7999" data-name="Tracé 7999" d="M220.284,39.031a.414.414,0,0,1,.487.548c-.144.443-1.006.318-.812-.29a.412.412,0,0,1,.325-.258" transform="translate(-99.231 -17.606)" fill="#fff"/>
      <path id="Tracé_8000" data-name="Tracé 8000" d="M208.184,39.169c.574-.114.53.779-.015.668a.349.349,0,0,1,.015-.668" transform="translate(-93.816 -17.668)" fill="#fff"/>
      <path id="Tracé_8001" data-name="Tracé 8001" d="M216.3,39.169a.345.345,0,0,1,.17.668c-.437.085-.605-.575-.17-.668" transform="translate(-97.479 -17.668)" fill="#fff"/>
      <path id="Tracé_8002" data-name="Tracé 8002" d="M212.3,39.3c.49-.127.412.649-.016.518-.17-.051-.283-.443.016-.518" transform="translate(-95.706 -17.727)" fill="#fff"/>
      <path id="Tracé_8003" data-name="Tracé 8003" d="M230.941,40.52c-.388.11-.763.236-1.145.351-.251-.765.988-1.03,1.145-.351" transform="translate(-103.667 -18.107)" fill="#fff"/>
      <path id="Tracé_8004" data-name="Tracé 8004" d="M226.318,40.254a.529.529,0,1,1,.108,1.052.544.544,0,0,1-.328-.989.6.6,0,0,1,.22-.063" transform="translate(-101.911 -18.159)" fill="#fff"/>
      <path id="Tracé_8005" data-name="Tracé 8005" d="M222.28,40.388a.439.439,0,0,1,.55.427.464.464,0,1,1-.9-.152.458.458,0,0,1,.351-.275" transform="translate(-100.119 -18.219)" fill="#fff"/>
      <path id="Tracé_8006" data-name="Tracé 8006" d="M206.1,40.528a.386.386,0,0,1,.187.748c-.5.093-.677-.644-.187-.748" transform="translate(-92.862 -18.281)" fill="#fff"/>
      <path id="Tracé_8007" data-name="Tracé 8007" d="M218.295,40.527c.613-.122.582.863-.021.748a.385.385,0,0,1,.021-.748" transform="translate(-98.356 -18.281)" fill="#fff"/>
      <path id="Tracé_8008" data-name="Tracé 8008" d="M202.641,40.646a.456.456,0,0,1-.474.747,4.938,4.938,0,0,1,.474-.747" transform="translate(-91.216 -18.339)" fill="#fff"/>
      <path id="Tracé_8009" data-name="Tracé 8009" d="M210.244,40.665c.443-.1.49.523.168.595-.393.088-.561-.506-.168-.595" transform="translate(-94.76 -18.343)" fill="#fff"/>
      <path id="Tracé_8010" data-name="Tracé 8010" d="M214.294,40.665a.308.308,0,0,1,.2.581c-.383.131-.634-.477-.2-.581" transform="translate(-96.584 -18.343)" fill="#fff"/>
      <path id="Tracé_8011" data-name="Tracé 8011" d="M224.306,41.756a.487.487,0,0,1,.564.578.5.5,0,0,1-.991-.089.447.447,0,0,1,.427-.488" transform="translate(-101.013 -18.838)" fill="#fff"/>
      <path id="Tracé_8012" data-name="Tracé 8012" d="M204.041,41.892a.509.509,0,0,1,.383.089.469.469,0,0,1,0,.628c-.519.48-1.085-.579-.383-.717" transform="translate(-91.914 -18.897)" fill="#fff"/>
      <path id="Tracé_8013" data-name="Tracé 8013" d="M220.284,41.891a.415.415,0,0,1,.487.549c-.144.439-1.006.317-.812-.291a.422.422,0,0,1,.325-.258" transform="translate(-99.231 -18.897)" fill="#fff"/>
      <path id="Tracé_8014" data-name="Tracé 8014" d="M208.184,42.029c.574-.114.53.778-.015.67a.35.35,0,0,1,.015-.67" transform="translate(-93.816 -18.959)" fill="#fff"/>
      <path id="Tracé_8015" data-name="Tracé 8015" d="M216.3,42.028a.343.343,0,0,1,.152.67.343.343,0,0,1-.152-.67" transform="translate(-97.477 -18.958)" fill="#fff"/>
      <path id="Tracé_8016" data-name="Tracé 8016" d="M212.3,42.165c.49-.126.412.649-.016.519-.17-.049-.285-.443.016-.519" transform="translate(-95.706 -19.018)" fill="#fff"/>
      <path id="Tracé_8017" data-name="Tracé 8017" d="M201.969,43.25a.435.435,0,0,1,.55.425.47.47,0,0,1-.9.185.449.449,0,0,1,.351-.61" transform="translate(-90.955 -19.51)" fill="#fff"/>
      <path id="Tracé_8018" data-name="Tracé 8018" d="M222.048,44c0-.1.044-.145.031-.245-.01-.058-.113-.028-.149-.06a.457.457,0,1,1,.118.305" transform="translate(-100.133 -19.515)" fill="#fff"/>
      <path id="Tracé_8019" data-name="Tracé 8019" d="M206.1,43.389a.385.385,0,0,1,.187.747c-.5.094-.677-.644-.187-.747" transform="translate(-92.862 -19.572)" fill="#fff"/>
      <path id="Tracé_8020" data-name="Tracé 8020" d="M218.759,43.809c-.239.044-.514.056-.744.107-.239-.6.8-.732.744-.107" transform="translate(-98.351 -19.581)" fill="#fff"/>
      <path id="Tracé_8021" data-name="Tracé 8021" d="M210.228,43.517a.431.431,0,0,1,.183-.016c.32.076.26.713-.183.611-.2-.046-.344-.5,0-.595" transform="translate(-94.76 -19.626)" fill="#fff"/>
      <path id="Tracé_8022" data-name="Tracé 8022" d="M214.294,43.525a.308.308,0,0,1,.2.581c-.383.132-.634-.479-.2-.581" transform="translate(-96.584 -19.633)" fill="#fff"/>
      <path id="Tracé_8023" data-name="Tracé 8023" d="M224.688,44.7a4.452,4.452,0,0,1-.459.856.473.473,0,0,1-.351-.459.5.5,0,0,1,.81-.4" transform="translate(-101.012 -20.121)" fill="#fff"/>
      <path id="Tracé_8024" data-name="Tracé 8024" d="M200,45.56c.094-.335.267-.6.383-.913.605.153.291,1.228-.383.913" transform="translate(-90.238 -20.144)" fill="#fff"/>
      <path id="Tracé_8025" data-name="Tracé 8025" d="M204.041,44.753a.513.513,0,0,1,.383.091.464.464,0,0,1,0,.623c-.519.483-1.085-.575-.383-.714" transform="translate(-91.914 -20.189)" fill="#fff"/>
      <path id="Tracé_8026" data-name="Tracé 8026" d="M208.252,45.012c.6-.142.54.774,0,.671a.353.353,0,0,1,0-.671" transform="translate(-93.853 -20.302)" fill="#fff"/>
      <path id="Tracé_8027" data-name="Tracé 8027" d="M212.369,44.946s-.388.1-.509.143c-.191-.212.089-.524.33-.4.121.06.121.077.178.26" transform="translate(-95.561 -20.15)" fill="#fff"/>
      <path id="Tracé_8028" data-name="Tracé 8028" d="M201.965,46.111a.457.457,0,0,1,.55.443c0,.7-1.145.521-.9-.167a.46.46,0,0,1,.351-.276" transform="translate(-90.952 -20.802)" fill="#fff"/>
      <path id="Tracé_8029" data-name="Tracé 8029" d="M222.281,46.11a.438.438,0,0,1,.55.443c0,.7-1.127.528-.9-.167a.455.455,0,0,1,.351-.275" transform="translate(-100.12 -20.801)" fill="#fff"/>
      <path id="Tracé_8030" data-name="Tracé 8030" d="M206.1,46.245a.386.386,0,0,1,.187.749c-.5.1-.677-.642-.187-.749" transform="translate(-92.862 -20.861)" fill="#fff"/>
      <path id="Tracé_8031" data-name="Tracé 8031" d="M199.918,47.472a.643.643,0,0,1,.275.017c.519.2.294,1.194-.383.929a.5.5,0,0,1,.108-.946" transform="translate(-90.018 -21.416)" fill="#fff"/>
      <path id="Tracé_8032" data-name="Tracé 8032" d="M204.036,47.611a.5.5,0,0,1,.383.092.436.436,0,0,1-.354.733.4.4,0,0,1-.362-.441.375.375,0,0,1,.333-.384" transform="translate(-91.909 -21.479)" fill="#fff"/>
      <path id="Tracé_8033" data-name="Tracé 8033" d="M201.965,48.974a.456.456,0,0,1,.55.441c0,.7-1.145.524-.9-.166a.455.455,0,0,1,.351-.275" transform="translate(-90.952 -22.093)" fill="#fff"/>
      <path id="Tracé_8034" data-name="Tracé 8034" d="M198.762,49.037a.541.541,0,0,1-.262.943,6,6,0,0,1,.262-.943" transform="translate(-89.562 -22.125)" fill="#fff"/>
      <path id="Tracé_8035" data-name="Tracé 8035" d="M199.9,50.335a.494.494,0,0,1,.55.671c-.241.617-1.258.178-.9-.443a.493.493,0,0,1,.351-.228" transform="translate(-90.002 -22.707)" fill="#fff"/>
      <path id="Tracé_8036" data-name="Tracé 8036" d="M197.841,52.648a9,9,0,0,1,.228-.976.536.536,0,0,1,.092,1.068.587.587,0,0,1-.32-.092" transform="translate(-89.265 -23.313)" fill="#fff"/>
      <path id="Tracé_8037" data-name="Tracé 8037" d="M202.16,51.828a7.684,7.684,0,0,0-.43.754.434.434,0,0,1,.43-.754" transform="translate(-90.929 -23.367)" fill="#fff"/>
      <path id="Tracé_8038" data-name="Tracé 8038" d="M199.9,53.195a.494.494,0,0,1,.55.671c-.241.62-1.258.179-.9-.441a.49.49,0,0,1,.351-.229" transform="translate(-90.002 -23.998)" fill="#fff"/>
      <path id="Tracé_8039" data-name="Tracé 8039" d="M196.357,53.588a.552.552,0,0,1-.471.84.584.584,0,0,1-.584-.5c.349-.119.691-.241,1.056-.338" transform="translate(-88.118 -24.179)" fill="#fff"/>
      <path id="Tracé_8040" data-name="Tracé 8040" d="M193.22,54.906a4.015,4.015,0,0,1,.731-.4c.016-.01.029-.037.06-.03.629.124.49,1.158-.184,1.174a.611.611,0,0,1-.608-.748" transform="translate(-87.178 -24.581)" fill="#fff"/>
      <path id="Tracé_8041" data-name="Tracé 8041" d="M197.853,54.559a.523.523,0,0,1,.579.3c.289.738-.775.971-.993.428a.527.527,0,0,1,.414-.731" transform="translate(-89.064 -24.614)" fill="#fff"/>
      <path id="Tracé_8042" data-name="Tracé 8042" d="M202.117,55.677a.464.464,0,0,1-.348-.809,5.914,5.914,0,0,1,.348.809" transform="translate(-90.968 -24.756)" fill="#fff"/>
      <path id="Tracé_8043" data-name="Tracé 8043" d="M195.805,55.917a.567.567,0,1,1,.092,1.129.567.567,0,0,1-.092-1.129" transform="translate(-88.13 -25.226)" fill="#fff"/>
      <path id="Tracé_8044" data-name="Tracé 8044" d="M191.943,55.923c.694.088.558,1.132-.092,1.129a.574.574,0,0,1-.519-.337,2.822,2.822,0,0,1,.61-.792" transform="translate(-86.328 -25.232)" fill="#fff"/>
      <path id="Tracé_8045" data-name="Tracé 8045" d="M199.924,56.056c.852-.14.679,1.249-.108.944a.5.5,0,0,1,.108-.944" transform="translate(-90.024 -25.287)" fill="#fff"/>
      <path id="Tracé_8046" data-name="Tracé 8046" d="M194.264,58.263c-.223-.02-.555.139-.807.075-.154-.037-.254-.284-.257-.456a.669.669,0,0,1,.336-.563.61.61,0,0,1,.728.944" transform="translate(-87.17 -25.833)" fill="#fff"/>
      <path id="Tracé_8047" data-name="Tracé 8047" d="M198.283,58.384c-.291-.055-.773-.343-.7-.733.031-.157.225-.246.369-.261a.54.54,0,0,1,.335.993" transform="translate(-89.143 -25.893)" fill="#fff"/>
      <path id="Tracé_8048" data-name="Tracé 8048" d="M201.953,57.554a.449.449,0,0,1,.548.532c-.058.6-1.119.4-.886-.258a.459.459,0,0,1,.338-.274" transform="translate(-90.952 -25.963)" fill="#fff"/>
      <path id="Tracé_8049" data-name="Tracé 8049" d="M190.75,58.556v-.216a1.437,1.437,0,0,1,.183-.47c.176.236,0,.711-.183.687" transform="translate(-86.065 -26.11)" fill="#fff"/>
      <path id="Tracé_8050" data-name="Tracé 8050" d="M191.573,59.089h-.212c.092-.405.883-.4.978-.047-.233.041-.527.013-.766.047" transform="translate(-86.341 -26.522)" fill="#fff"/>
      <path id="Tracé_8051" data-name="Tracé 8051" d="M200.134,59.149h-.493c.092-.313.736-.3.812-.033a2.579,2.579,0,0,0-.319.033" transform="translate(-90.077 -26.582)" fill="#fff"/>
      <path id="Tracé_8052" data-name="Tracé 8052" d="M220.551,48.9c.113-.008.226-.017.343-.022.082.461-.689.523-.694.071.094-.038.262-.009.351-.048" transform="translate(-99.353 -22.054)" fill="#fff"/>
      <path id="Tracé_8053" data-name="Tracé 8053" d="M223.438,48.766c.282,0,.571-.008.828.02-.008.468-.828.489-.828-.02" transform="translate(-100.814 -22.002)" fill="#fff"/>
      <path id="Tracé_8054" data-name="Tracé 8054" d="M225.512,49.01a.443.443,0,0,1,.527.384c.055.65-.907.605-.889.023a.4.4,0,0,1,.362-.406" transform="translate(-101.586 -22.11)" fill="#fff"/>
      <path id="Tracé_8055" data-name="Tracé 8055" d="M226.837,48.971a6.7,6.7,0,0,1,.7.093.477.477,0,0,1-.7-.093" transform="translate(-102.347 -22.095)" fill="#fff"/>
      <path id="Tracé_8056" data-name="Tracé 8056" d="M222.185,49.353a.36.36,0,0,1,.474.322.386.386,0,0,1-.731.2.369.369,0,0,1,.257-.525" transform="translate(-100.117 -22.261)" fill="#fff"/>
      <path id="Tracé_8057" data-name="Tracé 8057" d="M218.881,49.7a.3.3,0,0,1,.406.262.321.321,0,1,1-.639.046.282.282,0,0,1,.233-.308" transform="translate(-98.652 -22.416)" fill="#fff"/>
      <path id="Tracé_8058" data-name="Tracé 8058" d="M215.418,50.171c.1-.034.176-.13.28-.131.325-.007.254.561-.1.5a.267.267,0,0,1-.176-.369" transform="translate(-97.187 -22.578)" fill="#fff"/>
      <path id="Tracé_8059" data-name="Tracé 8059" d="M208.611,50.59a2.922,2.922,0,0,1,.482-.047c.38.368-.336.771-.508.368a.349.349,0,0,1,.026-.321" transform="translate(-94.1 -22.804)" fill="#fff"/>
      <path id="Tracé_8060" data-name="Tracé 8060" d="M229.4,49.457c-.044.734-1.221.509-.964-.226a7.891,7.891,0,0,1,.964.226" transform="translate(-103.054 -22.213)" fill="#fff"/>
      <path id="Tracé_8061" data-name="Tracé 8061" d="M212.039,50.723a1.642,1.642,0,0,1,.427.173.248.248,0,0,1-.427-.173" transform="translate(-95.67 -22.886)" fill="#fff"/>
      <path id="Tracé_8062" data-name="Tracé 8062" d="M227.264,50.021a.469.469,0,1,1,.126.93.469.469,0,0,1-.126-.93" transform="translate(-102.368 -22.565)" fill="#fff"/>
      <path id="Tracé_8063" data-name="Tracé 8063" d="M230.509,49.86a1.317,1.317,0,0,1,.644.284.466.466,0,0,1-.2.547.491.491,0,0,1-.7-.586.48.48,0,0,1,.262-.245" transform="translate(-103.873 -22.496)" fill="#fff"/>
      <path id="Tracé_8064" data-name="Tracé 8064" d="M223.932,50.368a.4.4,0,0,1,.472.234c.217.587-.752.8-.8.194a.375.375,0,0,1,.325-.429" transform="translate(-100.889 -22.72)" fill="#fff"/>
      <path id="Tracé_8065" data-name="Tracé 8065" d="M207.494,52.209a3.636,3.636,0,0,1-.587-.149c-.133-.479.577-.578.676-.2a.357.357,0,0,1-.089.348" transform="translate(-93.347 -23.295)" fill="#fff"/>
      <path id="Tracé_8066" data-name="Tracé 8066" d="M220.617,50.711a.338.338,0,0,1,.419.189c.22.545-.7.691-.673.122a.316.316,0,0,1,.254-.311" transform="translate(-99.426 -22.874)" fill="#fff"/>
      <path id="Tracé_8067" data-name="Tracé 8067" d="M210.593,51.516c.466-.127.482.617.021.555a.29.29,0,0,1-.021-.555" transform="translate(-94.93 -23.237)" fill="#fff"/>
      <path id="Tracé_8068" data-name="Tracé 8068" d="M217.314,51.055a.288.288,0,0,1,.178.547c-.362.1-.53-.445-.178-.547" transform="translate(-97.963 -23.029)" fill="#fff"/>
      <path id="Tracé_8069" data-name="Tracé 8069" d="M214,51.393c.414-.131.369.515.021.432-.154-.034-.257-.351-.021-.432" transform="translate(-96.494 -23.18)" fill="#fff"/>
      <path id="Tracé_8070" data-name="Tracé 8070" d="M229,51.034a.488.488,0,0,1,.576.443c.055.621-.964.782-1.014.082a.48.48,0,0,1,.437-.525" transform="translate(-103.124 -23.023)" fill="#fff"/>
      <path id="Tracé_8071" data-name="Tracé 8071" d="M225.689,51.38a.438.438,0,0,1,.139.865.451.451,0,0,1-.328-.8.467.467,0,0,1,.188-.064" transform="translate(-101.669 -23.178)" fill="#fff"/>
      <path id="Tracé_8072" data-name="Tracé 8072" d="M232.875,51.558a.45.45,0,0,1-.839-.159c-.01-.168.121-.463.328-.464.113,0,.23.185.293.271.1.13.144.239.218.351" transform="translate(-104.693 -22.982)" fill="#fff"/>
      <path id="Tracé_8073" data-name="Tracé 8073" d="M222.344,51.725a.36.36,0,0,1,.477.32.388.388,0,0,1-.734.2.369.369,0,0,1,.257-.524" transform="translate(-100.189 -23.331)" fill="#fff"/>
      <path id="Tracé_8074" data-name="Tracé 8074" d="M209.381,53.213a1.214,1.214,0,0,0-.522-.345c.189-.317.732,0,.522.345" transform="translate(-94.236 -23.795)" fill="#fff"/>
      <path id="Tracé_8075" data-name="Tracé 8075" d="M219.044,52.066c.5-.137.533.683.032.621a.321.321,0,0,1-.032-.621" transform="translate(-98.729 -23.485)" fill="#fff"/>
      <path id="Tracé_8076" data-name="Tracé 8076" d="M212.37,52.641a.251.251,0,0,1,.335.3.268.268,0,0,1-.5.034.239.239,0,0,1,.168-.33" transform="translate(-95.736 -23.745)" fill="#fff"/>
      <path id="Tracé_8077" data-name="Tracé 8077" d="M215.737,52.407a.316.316,0,0,1,.139-.024c.278.042.275.58-.115.513a.257.257,0,0,1-.024-.489" transform="translate(-97.263 -23.634)" fill="#fff"/>
      <path id="Tracé_8078" data-name="Tracé 8078" d="M227.428,52.394a.456.456,0,0,1,.514.244.485.485,0,0,1-.388.685.47.47,0,0,1-.126-.929" transform="translate(-102.442 -23.636)" fill="#fff"/>
      <path id="Tracé_8079" data-name="Tracé 8079" d="M230.78,52.163a.467.467,0,0,1,.556.418.479.479,0,0,1-.938.153.449.449,0,0,1,.383-.571" transform="translate(-103.947 -23.532)" fill="#fff"/>
      <path id="Tracé_8080" data-name="Tracé 8080" d="M224.094,52.738a.413.413,0,1,1-.325.427.37.37,0,0,1,.325-.427" transform="translate(-100.962 -23.79)" fill="#fff"/>
      <path id="Tracé_8081" data-name="Tracé 8081" d="M220.773,53.082a.336.336,0,0,1,.419.184c.194.492-.514.637-.65.287a.335.335,0,0,1,.231-.471" transform="translate(-99.493 -23.944)" fill="#fff"/>
      <path id="Tracé_8082" data-name="Tracé 8082" d="M210.753,53.884c.466-.126.485.616.026.557a.292.292,0,0,1-.026-.557" transform="translate(-95.003 -24.306)" fill="#fff"/>
      <path id="Tracé_8083" data-name="Tracé 8083" d="M217.476,53.425a.287.287,0,0,1,.176.546c-.356.095-.532-.442-.176-.546" transform="translate(-98.036 -24.099)" fill="#fff"/>
      <path id="Tracé_8084" data-name="Tracé 8084" d="M214.165,53.769c.4-.135.383.514.019.428-.142-.032-.26-.35-.019-.428" transform="translate(-96.567 -24.252)" fill="#fff"/>
      <path id="Tracé_8085" data-name="Tracé 8085" d="M233.865,52.607c.257.073.556.1.8.184a.412.412,0,0,1-.8-.184" transform="translate(-105.513 -23.736)" fill="#fff"/>
      <path id="Tracé_8086" data-name="Tracé 8086" d="M229.163,53.4a.483.483,0,0,1,.574.442.505.505,0,0,1-1.007.083.489.489,0,0,1,.432-.525" transform="translate(-103.201 -24.092)" fill="#fff"/>
      <path id="Tracé_8087" data-name="Tracé 8087" d="M225.848,53.748a.439.439,0,0,1,.139.866.448.448,0,0,1-.32-.8.408.408,0,0,1,.181-.064" transform="translate(-101.74 -24.247)" fill="#fff"/>
      <path id="Tracé_8088" data-name="Tracé 8088" d="M232.563,53.291a.437.437,0,1,1,.1.867.458.458,0,0,1-.458-.4.41.41,0,0,1,.356-.466" transform="translate(-104.769 -24.04)" fill="#fff"/>
      <path id="Tracé_8089" data-name="Tracé 8089" d="M222.5,54.094a.356.356,0,0,1,.474.321.386.386,0,0,1-.731.2.363.363,0,0,1,.257-.522" transform="translate(-100.261 -24.4)" fill="#fff"/>
      <path id="Tracé_8090" data-name="Tracé 8090" d="M235.89,53.23c0-.009.008-.012.013-.012.094.048.194.089.3.156.081.048.225.124.244.211.036.195-.194.367-.409.359a.382.382,0,0,1-.149-.714" transform="translate(-106.343 -24.012)" fill="#fff"/>
      <path id="Tracé_8091" data-name="Tracé 8091" d="M209.107,55.129a.315.315,0,0,1,.406.39.321.321,0,0,1-.619-.172.289.289,0,0,1,.212-.218" transform="translate(-94.247 -24.867)" fill="#fff"/>
      <path id="Tracé_8092" data-name="Tracé 8092" d="M219.2,54.437a.309.309,0,0,1,.414.263.323.323,0,0,1-.644.057.29.29,0,0,1,.23-.32" transform="translate(-98.797 -24.555)" fill="#fff"/>
      <path id="Tracé_8093" data-name="Tracé 8093" d="M212.539,55.014a.256.256,0,0,1,.173.481c-.322.1-.5-.385-.173-.481" transform="translate(-95.818 -24.815)" fill="#fff"/>
      <path id="Tracé_8094" data-name="Tracé 8094" d="M215.9,54.776a.364.364,0,0,1,.139-.021.263.263,0,0,1-.115.514.259.259,0,0,1-.024-.493" transform="translate(-97.336 -24.705)" fill="#fff"/>
      <path id="Tracé_8095" data-name="Tracé 8095" d="M227.578,54.765a.469.469,0,1,1,.149.926.469.469,0,0,1-.149-.926" transform="translate(-102.517 -24.704)" fill="#fff"/>
      <path id="Tracé_8096" data-name="Tracé 8096" d="M231.456,55.2c-.2.071-.414.133-.595.219a.482.482,0,0,1,.108-.909.474.474,0,0,1,.487.69" transform="translate(-104.036 -24.593)" fill="#fff"/>
      <path id="Tracé_8097" data-name="Tracé 8097" d="M224.265,55.106c.6-.13.658.818.071.806a.426.426,0,0,1-.22-.757.445.445,0,0,1,.149-.049" transform="translate(-101.047 -24.858)" fill="#fff"/>
      <path id="Tracé_8098" data-name="Tracé 8098" d="M234.843,54.817c-.267.036-.545.064-.82.094-.131-.6.839-.68.82-.094" transform="translate(-105.584 -24.552)" fill="#fff"/>
      <path id="Tracé_8099" data-name="Tracé 8099" d="M207.527,56.349c.6-.08.44.916-.1.667a.335.335,0,0,1-.2-.266c.005-.11.241-.3.3-.4" transform="translate(-93.499 -25.422)" fill="#fff"/>
      <path id="Tracé_8100" data-name="Tracé 8100" d="M220.927,55.449a.347.347,0,0,1,.44.427c-.094.375-.82.323-.689-.194a.341.341,0,0,1,.249-.233" transform="translate(-99.561 -25.013)" fill="#fff"/>
      <path id="Tracé_8101" data-name="Tracé 8101" d="M210.915,56.255c.469-.126.485.617.024.555a.291.291,0,0,1-.024-.555" transform="translate(-95.076 -25.375)" fill="#fff"/>
      <path id="Tracé_8102" data-name="Tracé 8102" d="M217.639,55.794a.288.288,0,0,1,.178.547c-.357.093-.532-.442-.178-.547" transform="translate(-98.11 -25.167)" fill="#fff"/>
      <path id="Tracé_8103" data-name="Tracé 8103" d="M214.335,56.136c.4-.131.377.516.015.431-.141-.034-.259-.351-.015-.431" transform="translate(-96.643 -25.32)" fill="#fff"/>
      <path id="Tracé_8104" data-name="Tracé 8104" d="M229.85,56.071c-.32.116-.619.239-.933.356-.244-.619.763-.91.933-.356" transform="translate(-103.269 -25.167)" fill="#fff"/>
      <path id="Tracé_8105" data-name="Tracé 8105" d="M226.006,56.116a.439.439,0,1,1,.142.866.453.453,0,0,1-.325-.8.552.552,0,0,1,.183-.061" transform="translate(-101.815 -25.314)" fill="#fff"/>
      <path id="Tracé_8106" data-name="Tracé 8106" d="M222.664,56.465a.364.364,0,0,1,.482.319.386.386,0,1,1-.757-.075.377.377,0,0,1,.275-.245" transform="translate(-100.333 -25.47)" fill="#fff"/>
      <path id="Tracé_8107" data-name="Tracé 8107" d="M209.267,57.5a.32.32,0,0,1,.194.609c-.4.1-.59-.5-.194-.609" transform="translate(-94.322 -25.936)" fill="#fff"/>
      <path id="Tracé_8108" data-name="Tracé 8108" d="M219.364,56.806c.5-.138.532.68.032.621a.32.32,0,0,1-.032-.621" transform="translate(-98.874 -25.623)" fill="#fff"/>
      <path id="Tracé_8109" data-name="Tracé 8109" d="M206.431,57.788a.377.377,0,0,1-.346.646,3.813,3.813,0,0,1,.346-.646" transform="translate(-92.984 -26.074)" fill="#fff"/>
      <path id="Tracé_8110" data-name="Tracé 8110" d="M212.7,57.38c.362-.106.437.405.176.485-.322.094-.5-.386-.176-.485" transform="translate(-95.893 -25.883)" fill="#fff"/>
      <path id="Tracé_8111" data-name="Tracé 8111" d="M216.055,57.15a.256.256,0,0,1,.194.472c-.307.127-.548-.362-.194-.472" transform="translate(-97.403 -25.779)" fill="#fff"/>
      <path id="Tracé_8112" data-name="Tracé 8112" d="M224.415,57.475a.406.406,0,0,1,.5.449.416.416,0,0,1-.825-.021.374.374,0,0,1,.325-.429" transform="translate(-101.107 -25.928)" fill="#fff"/>
      <path id="Tracé_8113" data-name="Tracé 8113" d="M207.643,58.738a.425.425,0,0,1,.319.057.384.384,0,0,1,.034.516c-.4.43-.93-.415-.353-.572" transform="translate(-93.572 -26.498)" fill="#fff"/>
      <path id="Tracé_8114" data-name="Tracé 8114" d="M221.094,57.82a.343.343,0,0,1,.432.427c-.094.374-.815.323-.689-.194a.366.366,0,0,1,.257-.233" transform="translate(-99.634 -26.082)" fill="#fff"/>
      <path id="Tracé_8115" data-name="Tracé 8115" d="M211.08,58.624c.469-.127.485.615.026.557a.292.292,0,0,1-.026-.557" transform="translate(-95.151 -26.444)" fill="#fff"/>
      <path id="Tracé_8116" data-name="Tracé 8116" d="M217.8,58.162a.286.286,0,0,1,.162.548.286.286,0,0,1-.162-.548" transform="translate(-98.18 -26.236)" fill="#fff"/>
      <path id="Tracé_8117" data-name="Tracé 8117" d="M214.492,58.506c.4-.132.38.513.016.429-.142-.032-.26-.349-.016-.429" transform="translate(-96.714 -26.39)" fill="#fff"/>
      <path id="Tracé_8118" data-name="Tracé 8118" d="M206,59.979a.362.362,0,0,1,.48.325.388.388,0,0,1-.734.2.372.372,0,0,1,.255-.525" transform="translate(-92.817 -27.056)" fill="#fff"/>
      <path id="Tracé_8119" data-name="Tracé 8119" d="M222.68,59.468c-.013-.077.024-.121.013-.2-.019-.047-.1-.015-.131-.042a.38.38,0,1,1,.118.245" transform="translate(-100.418 -26.543)" fill="#fff"/>
      <path id="Tracé_8120" data-name="Tracé 8120" d="M209.433,59.867a.319.319,0,0,1,.194.608c-.4.108-.593-.5-.194-.608" transform="translate(-94.395 -27.005)" fill="#fff"/>
      <path id="Tracé_8121" data-name="Tracé 8121" d="M219.935,59.5c-.2.052-.425.077-.613.133-.233-.487.626-.653.613-.133" transform="translate(-98.938 -26.7)" fill="#fff"/>
      <path id="Tracé_8122" data-name="Tracé 8122" d="M212.853,59.743A.271.271,0,0,1,213,59.72a.266.266,0,0,1-.118.516c-.17-.031-.314-.4-.031-.494" transform="translate(-95.966 -26.944)" fill="#fff"/>
      <path id="Tracé_8123" data-name="Tracé 8123" d="M216.221,59.521a.255.255,0,0,1,.2.469c-.309.128-.553-.358-.2-.469" transform="translate(-97.478 -26.848)" fill="#fff"/>
      <path id="Tracé_8124" data-name="Tracé 8124" d="M224.894,59.893a3.039,3.039,0,0,1-.325.734.4.4,0,0,1-.319-.358.417.417,0,0,1,.644-.376" transform="translate(-101.18 -26.991)" fill="#fff"/>
      <path id="Tracé_8125" data-name="Tracé 8125" d="M204.534,62.012a8.119,8.119,0,0,1,.262-.779c.509.094.307,1-.262.779" transform="translate(-92.284 -27.628)" fill="#fff"/>
      <path id="Tracé_8126" data-name="Tracé 8126" d="M207.8,61.111a.411.411,0,0,1,.322.055.387.387,0,0,1,.037.516c-.4.428-.933-.418-.359-.571" transform="translate(-93.646 -27.568)" fill="#fff"/>
      <path id="Tracé_8127" data-name="Tracé 8127" d="M211.312,61.118c.487-.153.49.609.037.555a.294.294,0,0,1-.037-.555" transform="translate(-95.26 -27.567)" fill="#fff"/>
      <path id="Tracé_8128" data-name="Tracé 8128" d="M214.692,60.82s-.314.108-.412.147c-.17-.168.042-.437.249-.355.108.046.11.061.162.208" transform="translate(-96.654 -27.341)" fill="#fff"/>
      <path id="Tracé_8129" data-name="Tracé 8129" d="M206.169,62.355a.375.375,0,0,1,.477.334c.04.583-.914.5-.752-.088a.364.364,0,0,1,.275-.246" transform="translate(-92.889 -28.128)" fill="#fff"/>
      <path id="Tracé_8130" data-name="Tracé 8130" d="M222.989,61.2a.359.359,0,0,1,.477.334c.044.582-.9.5-.757-.087a.38.38,0,0,1,.28-.248" transform="translate(-100.478 -27.606)" fill="#fff"/>
      <path id="Tracé_8131" data-name="Tracé 8131" d="M209.592,62.237a.319.319,0,0,1,.194.607c-.4.106-.59-.494-.194-.607" transform="translate(-94.468 -28.074)" fill="#fff"/>
      <path id="Tracé_8132" data-name="Tracé 8132" d="M204.548,63.593a.531.531,0,0,1,.228,0c.442.139.306.969-.265.791a.413.413,0,0,1,.037-.79" transform="translate(-92.15 -28.687)" fill="#fff"/>
      <path id="Tracé_8133" data-name="Tracé 8133" d="M207.963,63.48a.414.414,0,0,1,.322.055.36.36,0,0,1-.251.625.329.329,0,0,1-.325-.345.313.313,0,0,1,.254-.335" transform="translate(-93.717 -28.637)" fill="#fff"/>
      <path id="Tracé_8134" data-name="Tracé 8134" d="M206.326,64.725a.38.38,0,0,1,.482.334c.042.579-.923.5-.758-.088a.37.37,0,0,1,.275-.246" transform="translate(-92.96 -29.198)" fill="#fff"/>
      <path id="Tracé_8135" data-name="Tracé 8135" d="M203.7,64.967a.45.45,0,0,1-.162.8,5.361,5.361,0,0,1,.162-.8" transform="translate(-91.836 -29.313)" fill="#fff"/>
      <path id="Tracé_8136" data-name="Tracé 8136" d="M204.7,65.966a.406.406,0,0,1,.49.523c-.162.525-1.03.217-.771-.314a.4.4,0,0,1,.28-.209" transform="translate(-92.21 -29.758)" fill="#fff"/>
      <path id="Tracé_8137" data-name="Tracé 8137" d="M203.149,68.006a7.2,7.2,0,0,1,.131-.819.445.445,0,0,1,.136.879.458.458,0,0,1-.267-.06" transform="translate(-91.659 -30.311)" fill="#fff"/>
      <path id="Tracé_8138" data-name="Tracé 8138" d="M206.647,67.075a6.762,6.762,0,0,0-.314.647.36.36,0,0,1,.314-.647" transform="translate(-93.012 -30.255)" fill="#fff"/>
      <path id="Tracé_8139" data-name="Tracé 8139" d="M204.862,68.333a.409.409,0,0,1,.493.524c-.168.528-1.03.219-.771-.314a.413.413,0,0,1,.278-.21" transform="translate(-92.285 -30.826)" fill="#fff"/>
      <path id="Tracé_8140" data-name="Tracé 8140" d="M201.945,68.832a.461.461,0,0,1-.348.722.472.472,0,0,1-.505-.384c.28-.114.553-.234.854-.338" transform="translate(-90.731 -31.057)" fill="#fff"/>
      <path id="Tracé_8141" data-name="Tracé 8141" d="M199.424,70.116a3.19,3.19,0,0,1,.584-.369c.01-.008.018-.033.047-.029.527.069.469.932-.084.984a.508.508,0,0,1-.548-.586" transform="translate(-89.979 -31.456)" fill="#fff"/>
      <path id="Tracé_8142" data-name="Tracé 8142" d="M203.238,69.575a.435.435,0,0,1,.5.22c.283.595-.584.848-.794.411a.44.44,0,0,1,.3-.631" transform="translate(-91.544 -31.387)" fill="#fff"/>
      <path id="Tracé_8143" data-name="Tracé 8143" d="M206.827,70.283a.386.386,0,0,1-.33-.653,6.087,6.087,0,0,1,.33.653" transform="translate(-93.12 -31.417)" fill="#fff"/>
      <path id="Tracé_8144" data-name="Tracé 8144" d="M201.625,70.817a.469.469,0,1,1,.142.926.469.469,0,0,1-.142-.926" transform="translate(-90.806 -31.946)" fill="#fff"/>
      <path id="Tracé_8145" data-name="Tracé 8145" d="M198.441,71.043a.473.473,0,0,1-.013.94.478.478,0,0,1-.446-.252,2.155,2.155,0,0,1,.459-.688" transform="translate(-89.328 -32.054)" fill="#fff"/>
      <path id="Tracé_8146" data-name="Tracé 8146" d="M205.04,70.7c.694-.162.632,1-.034.789a.414.414,0,0,1,.034-.789" transform="translate(-92.375 -31.891)" fill="#fff"/>
      <path id="Tracé_8147" data-name="Tracé 8147" d="M200.48,72.843c-.183,0-.451.147-.663.11-.131-.024-.228-.224-.241-.363a.572.572,0,0,1,.246-.488.507.507,0,0,1,.657.741" transform="translate(-90.047 -32.501)" fill="#fff"/>
      <path id="Tracé_8148" data-name="Tracé 8148" d="M203.8,72.725c-.244-.026-.655-.238-.619-.566.016-.131.173-.215.289-.236a.445.445,0,0,1,.33.8" transform="translate(-91.675 -32.448)" fill="#fff"/>
      <path id="Tracé_8149" data-name="Tracé 8149" d="M206.8,71.827a.375.375,0,0,1,.485.41c-.018.5-.909.393-.747-.162a.37.37,0,0,1,.262-.248" transform="translate(-93.181 -32.4)" fill="#fff"/>
      <path id="Tracé_8150" data-name="Tracé 8150" d="M197.587,73.308a1.435,1.435,0,0,1-.016-.177,1.291,1.291,0,0,1,.123-.4c.157.184.042.589-.108.579" transform="translate(-89.143 -32.815)" fill="#fff"/>
      <path id="Tracé_8151" data-name="Tracé 8151" d="M198.289,73.684c-.058.007-.118.009-.178.014.053-.34.71-.378.807-.095-.186.048-.435.042-.629.081" transform="translate(-89.386 -33.124)" fill="#fff"/>
      <path id="Tracé_8152" data-name="Tracé 8152" d="M205.376,73.253c-.133.012-.27.021-.4.029.055-.263.587-.289.665-.072-.078.021-.191.017-.262.043" transform="translate(-92.482 -32.966)" fill="#fff"/>
      <path id="Tracé_8153" data-name="Tracé 8153" d="M249.578,44.18c.052.042.108.086.158.128-.144.24-.514-.044-.339-.249.063.02.126.1.181.121" transform="translate(-112.505 -19.879)" fill="#fff"/>
      <path id="Tracé_8154" data-name="Tracé 8154" d="M250.937,45.262a4.951,4.951,0,0,1,.364.342c-.2.206-.571-.115-.364-.342" transform="translate(-113.194 -20.422)" fill="#fff"/>
      <path id="Tracé_8155" data-name="Tracé 8155" d="M251.619,46.293a.269.269,0,0,1,.081.381c-.239.313-.645-.093-.409-.348a.248.248,0,0,1,.328-.033" transform="translate(-113.349 -20.866)" fill="#fff"/>
      <path id="Tracé_8156" data-name="Tracé 8156" d="M252.41,46.721a3.689,3.689,0,0,1,.28.325.291.291,0,0,1-.28-.325" transform="translate(-113.883 -21.08)" fill="#fff"/>
      <path id="Tracé_8157" data-name="Tracé 8157" d="M250.011,45.091a.217.217,0,0,1,.081.338.232.232,0,0,1-.406-.207.22.22,0,0,1,.325-.131" transform="translate(-112.651 -20.331)" fill="#fff"/>
      <path id="Tracé_8158" data-name="Tracé 8158" d="M248.423,43.9a.18.18,0,0,1,.076.285.193.193,0,1,1-.3-.24.17.17,0,0,1,.226-.046" transform="translate(-111.963 -19.795)" fill="#fff"/>
      <path id="Tracé_8159" data-name="Tracé 8159" d="M246.712,42.708c.063.022.139.012.181.052.151.129-.113.354-.249.182a.162.162,0,0,1,.068-.234" transform="translate(-111.272 -19.27)" fill="#fff"/>
      <path id="Tracé_8160" data-name="Tracé 8160" d="M243.5,40.127a1.74,1.74,0,0,1,.233.174c.019.314-.459.206-.378-.043a.212.212,0,0,1,.144-.131" transform="translate(-109.797 -18.105)" fill="#fff"/>
      <path id="Tracé_8161" data-name="Tracé 8161" d="M253.249,47.987c-.319.309-.75-.267-.338-.49a5.452,5.452,0,0,1,.338.49" transform="translate(-114.036 -21.43)" fill="#fff"/>
      <path id="Tracé_8162" data-name="Tracé 8162" d="M245.069,41.534a.94.94,0,0,1,.118.251.149.149,0,0,1-.118-.251" transform="translate(-110.553 -18.74)" fill="#fff"/>
      <path id="Tracé_8163" data-name="Tracé 8163" d="M251.972,47.457a.281.281,0,1,1-.312.466c-.27-.2,0-.665.312-.466" transform="translate(-113.497 -21.391)" fill="#fff"/>
      <path id="Tracé_8164" data-name="Tracé 8164" d="M253.51,48.685a.839.839,0,0,1,.176.386c-.044.143-.238.176-.32.164a.3.3,0,0,1-.073-.548.278.278,0,0,1,.217,0" transform="translate(-114.215 -21.957)" fill="#fff"/>
      <path id="Tracé_8165" data-name="Tracé 8165" d="M250.375,46.254a.257.257,0,0,1,.118.3c-.139.35-.658.053-.438-.237a.229.229,0,0,1,.32-.06" transform="translate(-112.799 -20.852)" fill="#fff"/>
      <path id="Tracé_8166" data-name="Tracé 8166" d="M242.333,40.429a2.382,2.382,0,0,1-.194-.3c.131-.27.488-.029.38.181a.218.218,0,0,1-.186.12" transform="translate(-109.251 -18.052)" fill="#fff"/>
      <path id="Tracé_8167" data-name="Tracé 8167" d="M248.772,45.055a.2.2,0,0,1,.113.255c-.126.331-.595.026-.351-.22a.192.192,0,0,1,.238-.035" transform="translate(-112.106 -20.317)" fill="#fff"/>
      <path id="Tracé_8168" data-name="Tracé 8168" d="M244,41.358c.262.133-.031.469-.212.257a.173.173,0,0,1,.212-.257" transform="translate(-109.98 -18.652)" fill="#fff"/>
      <path id="Tracé_8169" data-name="Tracé 8169" d="M247.2,43.867a.173.173,0,0,1-.144.314c-.193-.1-.057-.412.144-.314" transform="translate(-111.428 -19.784)" fill="#fff"/>
      <path id="Tracé_8170" data-name="Tracé 8170" d="M245.605,42.671c.236.106-.039.379-.162.2-.058-.077.024-.26.162-.2" transform="translate(-110.734 -19.247)" fill="#fff"/>
      <path id="Tracé_8171" data-name="Tracé 8171" d="M252.318,48.616a.289.289,0,0,1,.081.43c-.226.3-.747-.039-.49-.369a.29.29,0,0,1,.409-.06" transform="translate(-113.628 -21.909)" fill="#fff"/>
      <path id="Tracé_8172" data-name="Tracé 8172" d="M250.738,47.416c.294.184-.008.644-.288.444a.27.27,0,0,1,.176-.488.284.284,0,0,1,.113.044" transform="translate(-112.949 -21.373)" fill="#fff"/>
      <path id="Tracé_8173" data-name="Tracé 8173" d="M253.885,50.394c-.244.11-.459-.21-.314-.408.063-.081.239-.159.338-.076.05.043.026.179.018.24a1.807,1.807,0,0,1-.042.244" transform="translate(-114.388 -22.503)" fill="#fff"/>
      <path id="Tracé_8174" data-name="Tracé 8174" d="M249.124,46.216a.212.212,0,0,1,.081.338.233.233,0,0,1-.406-.208.22.22,0,0,1,.325-.13" transform="translate(-112.251 -20.838)" fill="#fff"/>
      <path id="Tracé_8175" data-name="Tracé 8175" d="M242.864,41.613a.766.766,0,0,0-.089-.363c.207-.065.319.3.089.363" transform="translate(-109.538 -18.608)" fill="#fff"/>
      <path id="Tracé_8176" data-name="Tracé 8176" d="M247.539,45.024c.278.14-.037.523-.236.291a.193.193,0,0,1,.236-.291" transform="translate(-111.562 -20.306)" fill="#fff"/>
      <path id="Tracé_8177" data-name="Tracé 8177" d="M244.352,42.574a.149.149,0,0,1,.031.267.161.161,0,0,1-.238-.187.145.145,0,0,1,.207-.08" transform="translate(-110.151 -19.201)" fill="#fff"/>
      <path id="Tracé_8178" data-name="Tracé 8178" d="M245.949,43.828c.026.014.058.025.071.049.1.128-.113.368-.257.182a.156.156,0,0,1,.186-.231" transform="translate(-110.874 -19.769)" fill="#fff"/>
      <path id="Tracé_8179" data-name="Tracé 8179" d="M251.084,48.58a.257.257,0,0,1,.131.314.287.287,0,0,1-.443.153c-.27-.2,0-.663.312-.468" transform="translate(-113.097 -21.898)" fill="#fff"/>
      <path id="Tracé_8180" data-name="Tracé 8180" d="M252.674,49.833a.287.287,0,1,1-.4.1.267.267,0,0,1,.4-.1" transform="translate(-113.809 -22.462)" fill="#fff"/>
      <path id="Tracé_8181" data-name="Tracé 8181" d="M249.483,47.377a.246.246,0,0,1-.081.459.249.249,0,0,1-.239-.4.226.226,0,0,1,.32-.059" transform="translate(-112.397 -21.357)" fill="#fff"/>
      <path id="Tracé_8182" data-name="Tracé 8182" d="M247.9,46.18a.206.206,0,0,1,.113.256c-.113.3-.487.074-.406-.136a.2.2,0,0,1,.293-.12" transform="translate(-111.711 -20.825)" fill="#fff"/>
      <path id="Tracé_8183" data-name="Tracé 8183" d="M243.118,42.48c.257.133-.037.472-.22.26a.179.179,0,0,1,.22-.26" transform="translate(-109.581 -19.159)" fill="#fff"/>
      <path id="Tracé_8184" data-name="Tracé 8184" d="M246.309,44.989a.173.173,0,0,1-.144.314c-.194-.1-.055-.413.144-.314" transform="translate(-111.026 -20.29)" fill="#fff"/>
      <path id="Tracé_8185" data-name="Tracé 8185" d="M244.724,43.8c.23.1-.044.383-.17.2-.05-.069.026-.26.17-.2" transform="translate(-110.334 -19.755)" fill="#fff"/>
      <path id="Tracé_8186" data-name="Tracé 8186" d="M254.012,51.188c.086.137.207.269.283.4-.215.189-.571-.2-.283-.4" transform="translate(-114.56 -23.096)" fill="#fff"/>
      <path id="Tracé_8187" data-name="Tracé 8187" d="M251.439,49.745a.284.284,0,0,1,.074.43c-.231.31-.737-.047-.482-.37a.3.3,0,0,1,.409-.059" transform="translate(-113.231 -22.42)" fill="#fff"/>
      <path id="Tracé_8188" data-name="Tracé 8188" d="M249.846,48.542a.263.263,0,0,1-.286.442.272.272,0,0,1,.181-.49.233.233,0,0,1,.1.048" transform="translate(-112.548 -21.879)" fill="#fff"/>
      <path id="Tracé_8189" data-name="Tracé 8189" d="M253.042,51.051a.265.265,0,1,1-.312.427.3.3,0,0,1-.044-.363.256.256,0,0,1,.356-.064" transform="translate(-113.991 -23.013)" fill="#fff"/>
      <path id="Tracé_8190" data-name="Tracé 8190" d="M248.239,47.342a.215.215,0,0,1,.087.337.232.232,0,0,1-.406-.207.217.217,0,0,1,.319-.13" transform="translate(-111.853 -21.347)" fill="#fff"/>
      <path id="Tracé_8191" data-name="Tracé 8191" d="M254.587,52.345c0-.007,0,0,0,0a1.82,1.82,0,0,1,.076.19c.01.054.05.149.024.194-.063.1-.238.087-.33,0a.232.232,0,0,1,.226-.38" transform="translate(-114.739 -23.614)" fill="#fff"/>
      <path id="Tracé_8192" data-name="Tracé 8192" d="M241.866,42.381a.191.191,0,0,1,.026.341.2.2,0,0,1-.215-.33.183.183,0,0,1,.189-.01" transform="translate(-109.005 -19.112)" fill="#fff"/>
      <path id="Tracé_8193" data-name="Tracé 8193" d="M246.656,46.146a.183.183,0,0,1,.076.284c-.152.21-.464-.04-.307-.235a.169.169,0,0,1,.23-.049" transform="translate(-111.166 -20.809)" fill="#fff"/>
      <path id="Tracé_8194" data-name="Tracé 8194" d="M243.482,43.7a.155.155,0,0,1-.118.285c-.181-.088-.063-.372.118-.285" transform="translate(-109.763 -19.71)" fill="#fff"/>
      <path id="Tracé_8195" data-name="Tracé 8195" d="M245.071,44.954a.248.248,0,0,1,.068.044c.105.13-.112.371-.261.185a.158.158,0,0,1,.194-.229" transform="translate(-110.474 -20.277)" fill="#fff"/>
      <path id="Tracé_8196" data-name="Tracé 8196" d="M250.2,49.7c.33.194.013.7-.3.475a.282.282,0,0,1,.3-.475" transform="translate(-112.696 -22.407)" fill="#fff"/>
      <path id="Tracé_8197" data-name="Tracé 8197" d="M251.744,51.464c-.121-.047-.233-.1-.351-.142-.144-.234.181-.519.412-.366a.288.288,0,0,1-.06.507" transform="translate(-113.411 -22.972)" fill="#fff"/>
      <path id="Tracé_8198" data-name="Tracé 8198" d="M248.607,48.5c.319.186-.042.629-.3.39a.257.257,0,0,1,.212-.427.427.427,0,0,1,.086.037" transform="translate(-112.004 -21.865)" fill="#fff"/>
      <path id="Tracé_8199" data-name="Tracé 8199" d="M253.475,52.652c-.126-.094-.262-.192-.4-.29.189-.323.645.033.4.29" transform="translate(-114.185 -23.567)" fill="#fff"/>
      <path id="Tracé_8200" data-name="Tracé 8200" d="M240.65,42.331c.3.207-.176.586-.317.256a.194.194,0,0,1,.018-.2c.05-.046.226-.038.3-.055" transform="translate(-108.428 -19.099)" fill="#fff"/>
      <path id="Tracé_8201" data-name="Tracé 8201" d="M247,47.307a.206.206,0,0,1,.018.367c-.188.13-.487-.185-.225-.364a.214.214,0,0,1,.207,0" transform="translate(-111.306 -21.333)" fill="#fff"/>
      <path id="Tracé_8202" data-name="Tracé 8202" d="M242.232,43.607c.262.133-.032.472-.215.258a.175.175,0,0,1,.215-.258" transform="translate(-109.182 -19.667)" fill="#fff"/>
      <path id="Tracé_8203" data-name="Tracé 8203" d="M245.428,46.113a.173.173,0,0,1-.144.314c-.2-.1-.055-.413.144-.314" transform="translate(-110.627 -20.798)" fill="#fff"/>
      <path id="Tracé_8204" data-name="Tracé 8204" d="M243.832,44.918c.233.1-.037.385-.168.2-.05-.072.026-.261.168-.2" transform="translate(-109.933 -20.262)" fill="#fff"/>
      <path id="Tracé_8205" data-name="Tracé 8205" d="M250.7,51.214c-.189-.077-.369-.144-.558-.216.139-.378.707-.1.558.216" transform="translate(-112.862 -22.928)" fill="#fff"/>
      <path id="Tracé_8206" data-name="Tracé 8206" d="M248.955,49.661c.312.179.01.651-.276.446a.269.269,0,0,1,.176-.486.246.246,0,0,1,.1.041" transform="translate(-112.149 -22.387)" fill="#fff"/>
      <path id="Tracé_8207" data-name="Tracé 8207" d="M247.357,48.465a.211.211,0,0,1,.081.337c-.212.284-.621-.127-.3-.337a.21.21,0,0,1,.22,0" transform="translate(-111.453 -21.853)" fill="#fff"/>
      <path id="Tracé_8208" data-name="Tracé 8208" d="M240.986,43.5a.193.193,0,0,1-.158.351c-.225-.114-.063-.463.158-.351" transform="translate(-108.611 -19.618)" fill="#fff"/>
      <path id="Tracé_8209" data-name="Tracé 8209" d="M245.771,47.273c.283.143-.037.52-.239.29-.131-.148.058-.378.239-.29" transform="translate(-110.763 -21.32)" fill="#fff"/>
      <path id="Tracé_8210" data-name="Tracé 8210" d="M239.529,42.543a.225.225,0,0,1-.412.148,2.117,2.117,0,0,1,.412-.148" transform="translate(-107.888 -19.195)" fill="#fff"/>
      <path id="Tracé_8211" data-name="Tracé 8211" d="M242.592,44.824c.207.1.032.356-.121.287-.181-.087-.06-.373.121-.287" transform="translate(-109.361 -20.217)" fill="#fff"/>
      <path id="Tracé_8212" data-name="Tracé 8212" d="M244.191,46.076a.154.154,0,0,1-.1.29c-.194-.067-.1-.387.1-.29" transform="translate(-110.084 -20.781)" fill="#fff"/>
      <path id="Tracé_8213" data-name="Tracé 8213" d="M247.714,49.628a.244.244,0,0,1,.044.4c-.194.179-.558-.089-.364-.342a.227.227,0,0,1,.319-.058" transform="translate(-111.598 -22.373)" fill="#fff"/>
      <path id="Tracé_8214" data-name="Tracé 8214" d="M239.743,43.406a.211.211,0,0,1-.068.4c-.351.03-.251-.564.068-.4" transform="translate(-108.04 -19.571)" fill="#fff"/>
      <path id="Tracé_8215" data-name="Tracé 8215" d="M246.121,48.43a.209.209,0,0,1,.018.368c-.194.128-.492-.183-.23-.366a.233.233,0,0,1,.212,0" transform="translate(-110.906 -21.84)" fill="#fff"/>
      <path id="Tracé_8216" data-name="Tracé 8216" d="M241.352,44.732c.257.132-.04.469-.22.26-.094-.114.05-.346.22-.26" transform="translate(-108.783 -20.174)" fill="#fff"/>
      <path id="Tracé_8217" data-name="Tracé 8217" d="M244.54,47.239a.172.172,0,0,1-.149.311.172.172,0,0,1,.149-.311" transform="translate(-110.226 -21.306)" fill="#fff"/>
      <path id="Tracé_8218" data-name="Tracé 8218" d="M242.948,46.044c.239.1-.031.384-.162.2-.05-.072.026-.263.162-.2" transform="translate(-109.536 -20.769)" fill="#fff"/>
      <path id="Tracé_8219" data-name="Tracé 8219" d="M238.492,43.312a.216.216,0,0,1,.086.338.232.232,0,0,1-.406-.207.218.218,0,0,1,.32-.131" transform="translate(-107.456 -19.529)" fill="#fff"/>
      <path id="Tracé_8220" data-name="Tracé 8220" d="M246.15,49.8c.031-.036.063-.043.089-.083.01-.03-.039-.047-.039-.071.194-.249.532.065.359.283a.232.232,0,0,1-.409-.128" transform="translate(-111.061 -22.36)" fill="#fff"/>
      <path id="Tracé_8221" data-name="Tracé 8221" d="M240.1,44.627a.193.193,0,0,1-.162.35.193.193,0,0,1,.162-.35" transform="translate(-108.21 -20.126)" fill="#fff"/>
      <path id="Tracé_8222" data-name="Tracé 8222" d="M244.955,48.706c-.113-.058-.226-.139-.333-.189.094-.312.546-.039.333.189" transform="translate(-110.372 -21.828)" fill="#fff"/>
      <path id="Tracé_8223" data-name="Tracé 8223" d="M241.705,45.944a.173.173,0,0,1,.073.049c.1.13-.117.362-.262.183-.063-.078.024-.3.189-.232" transform="translate(-108.961 -20.723)" fill="#fff"/>
      <path id="Tracé_8224" data-name="Tracé 8224" d="M243.245,47.14a.152.152,0,0,1-.1.285c-.193-.064-.1-.38.1-.285" transform="translate(-109.658 -21.261)" fill="#fff"/>
      <path id="Tracé_8225" data-name="Tracé 8225" d="M246.955,50.908a1.871,1.871,0,0,1-.443.194.241.241,0,0,1,0-.287.252.252,0,0,1,.443.093" transform="translate(-111.203 -22.884)" fill="#fff"/>
      <path id="Tracé_8226" data-name="Tracé 8226" d="M236.925,43.636c.144-.1.294-.156.432-.243.186.245-.265.572-.432.243" transform="translate(-106.899 -19.579)" fill="#fff"/>
      <path id="Tracé_8227" data-name="Tracé 8227" d="M238.861,44.532a.221.221,0,0,1,.121.153.239.239,0,0,1-.2.244c-.349.03-.244-.564.076-.4" transform="translate(-107.64 -20.079)" fill="#fff"/>
      <path id="Tracé_8228" data-name="Tracé 8228" d="M240.456,45.931c.275.128-.026.472-.207.266a.177.177,0,0,1,.207-.266" transform="translate(-108.384 -20.717)" fill="#fff"/>
      <path id="Tracé_8229" data-name="Tracé 8229" d="M242.188,47.127s-.181-.08-.244-.1a.138.138,0,0,1,.262-.054c.026.059.019.068-.018.156" transform="translate(-109.163 -21.159)" fill="#fff"/>
      <path id="Tracé_8230" data-name="Tracé 8230" d="M237.607,44.439a.228.228,0,0,1,.081.342c-.22.275-.613-.148-.307-.346a.229.229,0,0,1,.226,0" transform="translate(-107.054 -20.036)" fill="#fff"/>
      <path id="Tracé_8231" data-name="Tracé 8231" d="M245.593,50.713a.219.219,0,0,1,.081.343c-.22.276-.608-.142-.307-.343a.211.211,0,0,1,.226,0" transform="translate(-110.658 -22.867)" fill="#fff"/>
      <path id="Tracé_8232" data-name="Tracé 8232" d="M239.214,45.753c.233.114.052.456-.155.35-.225-.114-.071-.46.155-.35" transform="translate(-107.812 -20.634)" fill="#fff"/>
      <path id="Tracé_8233" data-name="Tracé 8233" d="M236.36,44.344a.356.356,0,0,1,.108.089c.136.241-.257.561-.44.248a.247.247,0,0,1,.333-.337" transform="translate(-106.478 -19.994)" fill="#fff"/>
      <path id="Tracé_8234" data-name="Tracé 8234" d="M237.963,45.654a.234.234,0,0,1,.126.153.218.218,0,0,1-.364.178.2.2,0,0,1-.013-.284.188.188,0,0,1,.252-.047" transform="translate(-107.229 -20.586)" fill="#fff"/>
      <path id="Tracé_8235" data-name="Tracé 8235" d="M236.724,45.561a.233.233,0,0,1,.074.345c-.218.275-.614-.151-.3-.345a.233.233,0,0,1,.226,0" transform="translate(-106.654 -20.544)" fill="#fff"/>
      <path id="Tracé_8236" data-name="Tracé 8236" d="M235.359,44.587a.272.272,0,0,1-.4.291,3.006,3.006,0,0,1,.4-.291" transform="translate(-106.014 -20.117)" fill="#fff"/>
      <path id="Tracé_8237" data-name="Tracé 8237" d="M235.482,45.463a.247.247,0,0,1,.005.435c-.286.169-.55-.317-.218-.449a.252.252,0,0,1,.212.014" transform="translate(-106.082 -20.499)" fill="#fff"/>
      <path id="Tracé_8238" data-name="Tracé 8238" d="M233.869,45.714a4.856,4.856,0,0,1,.388-.313.266.266,0,1,1-.289.447.246.246,0,0,1-.1-.133" transform="translate(-105.52 -20.485)" fill="#fff"/>
      <path id="Tracé_8239" data-name="Tracé 8239" d="M235.924,46.74a3.74,3.74,0,0,0-.4.161.215.215,0,0,1,.4-.161" transform="translate(-106.262 -21.032)" fill="#fff"/>
      <path id="Tracé_8240" data-name="Tracé 8240" d="M234.6,46.59a.246.246,0,0,1,.013.432c-.3.169-.553-.317-.22-.451a.224.224,0,0,1,.207.018" transform="translate(-105.684 -21.005)" fill="#fff"/>
      <path id="Tracé_8241" data-name="Tracé 8241" d="M233.127,45.676a.275.275,0,0,1-.443.185.3.3,0,0,1-.076-.376c.176.059.343.118.519.191" transform="translate(-104.936 -20.523)" fill="#fff"/>
      <path id="Tracé_8242" data-name="Tracé 8242" d="M231.4,45.253a1.884,1.884,0,0,1,.406.071c.013,0,.026-.007.04.007.2.245-.163.606-.433.405a.3.3,0,0,1-.013-.482" transform="translate(-104.358 -20.418)" fill="#fff"/>
      <path id="Tracé_8243" data-name="Tracé 8243" d="M233.348,46.5a.268.268,0,0,1,.139.3c-.121.379-.608.143-.527-.138a.265.265,0,0,1,.388-.16" transform="translate(-105.106 -20.963)" fill="#fff"/>
      <path id="Tracé_8244" data-name="Tracé 8244" d="M234.727,48.2a.233.233,0,0,1,.113-.426,3.79,3.79,0,0,1-.113.426" transform="translate(-105.859 -21.558)" fill="#fff"/>
      <path id="Tracé_8245" data-name="Tracé 8245" d="M232.109,46.4c.349.2-.008.7-.314.47a.284.284,0,0,1,.314-.47" transform="translate(-104.535 -20.917)" fill="#fff"/>
      <path id="Tracé_8246" data-name="Tracé 8246" d="M230.584,45.275c.244.251-.133.617-.39.415a.3.3,0,0,1-.092-.294,1.423,1.423,0,0,1,.482-.122" transform="translate(-103.818 -20.428)" fill="#fff"/>
      <path id="Tracé_8247" data-name="Tracé 8247" d="M233.706,47.715c.383.208-.118.7-.33.339a.249.249,0,0,1,.33-.339" transform="translate(-105.284 -21.515)" fill="#fff"/>
      <path id="Tracé_8248" data-name="Tracé 8248" d="M230.764,46.858c-.081-.077-.262-.117-.338-.219a.238.238,0,0,1,.04-.261.333.333,0,0,1,.306-.116.3.3,0,0,1-.008.6" transform="translate(-103.955 -20.871)" fill="#fff"/>
      <path id="Tracé_8249" data-name="Tracé 8249" d="M232.394,48.106c-.1-.111-.2-.373-.055-.5a.2.2,0,0,1,.225.009.269.269,0,0,1-.17.494" transform="translate(-104.797 -21.464)" fill="#fff"/>
      <path id="Tracé_8250" data-name="Tracé 8250" d="M234.064,48.93a.225.225,0,0,1,.05.378c-.207.216-.564-.189-.27-.374a.232.232,0,0,1,.22,0" transform="translate(-105.459 -22.065)" fill="#fff"/>
      <path id="Tracé_8251" data-name="Tracé 8251" d="M229.328,45.829c.018-.026.044-.054.063-.082a.806.806,0,0,1,.226-.13c0,.147-.226.281-.288.211" transform="translate(-103.471 -20.583)" fill="#fff"/>
      <path id="Tracé_8252" data-name="Tracé 8252" d="M229.581,46.319a.608.608,0,0,0-.081-.067c.162-.13.469.118.4.286-.108-.057-.212-.161-.32-.219" transform="translate(-103.549 -20.852)" fill="#fff"/>
      <path id="Tracé_8253" data-name="Tracé 8253" d="M232.95,48.973l-.189-.152c.126-.094.375.109.325.236-.042-.019-.092-.068-.136-.084" transform="translate(-105.02 -22.017)" fill="#fff"/>
      <path id="Tracé_8254" data-name="Tracé 8254" d="M96.325,87.548l-.4-1.306h-2l-.4,1.306H92.276l1.936-5.509h1.421l1.944,5.509Zm-1.076-3.557c-.026-.087-.059-.2-.1-.33s-.082-.269-.122-.407-.075-.258-.1-.361c-.026.1-.06.229-.1.38s-.085.3-.123.431-.068.231-.088.288l-.392,1.275h1.43Z" transform="translate(-41.634 -37.015)" fill="#fff"/>
      <path id="Tracé_8255" data-name="Tracé 8255" d="M105.747,87.321a1.156,1.156,0,0,1-.449.979,2.195,2.195,0,0,1-1.341.342,4.255,4.255,0,0,1-.753-.057,3.158,3.158,0,0,1-.63-.188v-.946a4.292,4.292,0,0,0,.73.254,2.829,2.829,0,0,0,.691.1.861.861,0,0,0,.48-.1.306.306,0,0,0,.142-.261.333.333,0,0,0-.058-.192.761.761,0,0,0-.25-.193,6.326,6.326,0,0,0-.6-.276,4.38,4.38,0,0,1-.645-.335,1.067,1.067,0,0,1-.376-.4,1.254,1.254,0,0,1-.123-.588.971.971,0,0,1,.453-.875,2.2,2.2,0,0,1,1.206-.293,3.479,3.479,0,0,1,.745.077,3.416,3.416,0,0,1,.73.254l-.346.822q-.308-.131-.584-.219a1.824,1.824,0,0,0-.561-.089q-.507,0-.507.277a.276.276,0,0,0,.065.181.773.773,0,0,0,.254.173c.126.061.311.143.557.245a4.425,4.425,0,0,1,.622.3,1.056,1.056,0,0,1,.546,1" transform="translate(-46.277 -38.032)" fill="#fff"/>
      <path id="Tracé_8256" data-name="Tracé 8256" d="M112.7,87.321a1.156,1.156,0,0,1-.449.979,2.195,2.195,0,0,1-1.341.342,4.255,4.255,0,0,1-.753-.057,3.158,3.158,0,0,1-.63-.188v-.946a4.292,4.292,0,0,0,.73.254,2.829,2.829,0,0,0,.691.1.861.861,0,0,0,.48-.1.306.306,0,0,0,.142-.261.333.333,0,0,0-.058-.192.761.761,0,0,0-.25-.193,6.325,6.325,0,0,0-.6-.276,4.379,4.379,0,0,1-.645-.335,1.067,1.067,0,0,1-.376-.4,1.254,1.254,0,0,1-.123-.588.971.971,0,0,1,.453-.875,2.2,2.2,0,0,1,1.206-.293,3.479,3.479,0,0,1,.745.077,3.416,3.416,0,0,1,.73.254l-.346.822q-.308-.131-.584-.219a1.824,1.824,0,0,0-.561-.089q-.507,0-.507.277a.276.276,0,0,0,.065.181.773.773,0,0,0,.254.173c.126.061.311.143.557.245a4.425,4.425,0,0,1,.622.3,1.056,1.056,0,0,1,.546,1" transform="translate(-49.416 -38.032)" fill="#fff"/>
      <path id="Tracé_8257" data-name="Tracé 8257" d="M120.546,86.461A2.227,2.227,0,0,1,120,88.074a1.981,1.981,0,0,1-1.494.569,2.116,2.116,0,0,1-1.041-.253,1.794,1.794,0,0,1-.718-.741,2.483,2.483,0,0,1-.261-1.187,2.209,2.209,0,0,1,.546-1.606,1.992,1.992,0,0,1,1.5-.56,2.106,2.106,0,0,1,1.045.254,1.808,1.808,0,0,1,.715.733,2.445,2.445,0,0,1,.261,1.18m-2.9,0a1.764,1.764,0,0,0,.2.941.844.844,0,0,0,1.322,0,1.764,1.764,0,0,0,.2-.941,1.725,1.725,0,0,0-.2-.934.734.734,0,0,0-.665-.311.726.726,0,0,0-.657.311,1.725,1.725,0,0,0-.2.934" transform="translate(-52.556 -38.033)" fill="#fff"/>
      <path id="Tracé_8258" data-name="Tracé 8258" d="M127.108,88.642a1.942,1.942,0,0,1-1.449-.518,2.255,2.255,0,0,1-.51-1.633,2.628,2.628,0,0,1,.261-1.252,1.644,1.644,0,0,1,.727-.715,2.388,2.388,0,0,1,1.072-.23,2.965,2.965,0,0,1,.749.085,3.1,3.1,0,0,1,.557.2l-.339.883q-.268-.107-.5-.176a1.63,1.63,0,0,0-.464-.069q-.892,0-.891,1.267a1.509,1.509,0,0,0,.234.93.789.789,0,0,0,.657.3,1.953,1.953,0,0,0,.638-.1,2.494,2.494,0,0,0,.537-.266v.976a1.836,1.836,0,0,1-.549.241,3.007,3.007,0,0,1-.726.073" transform="translate(-56.466 -38.032)" fill="#fff"/>
      <path id="Tracé_8259" data-name="Tracé 8259" d="M133.344,81.438a.789.789,0,0,1,.438.119.616.616,0,0,1,0,.879.845.845,0,0,1-.88,0,.624.624,0,0,1,0-.879.783.783,0,0,1,.442-.119m.569,5.839h-1.145v-4.2h1.145Z" transform="translate(-59.883 -36.744)" fill="#fff"/>
      <path id="Tracé_8260" data-name="Tracé 8260" d="M138.57,84.28a2.01,2.01,0,0,1,1.295.365,1.354,1.354,0,0,1,.449,1.118v2.8h-.8l-.223-.569h-.031a1.777,1.777,0,0,1-.568.492,1.825,1.825,0,0,1-.822.153,1.354,1.354,0,0,1-.93-.326,1.272,1.272,0,0,1-.369-1,1.111,1.111,0,0,1,.469-.987,2.677,2.677,0,0,1,1.406-.35l.73-.023v-.184a.617.617,0,0,0-.173-.484.7.7,0,0,0-.48-.154,2.066,2.066,0,0,0-.6.088,4.984,4.984,0,0,0-.584.218l-.376-.776a3.338,3.338,0,0,1,.75-.277,3.621,3.621,0,0,1,.856-.1m.161,2.351a1.262,1.262,0,0,0-.768.2.608.608,0,0,0-.216.485.431.431,0,0,0,.154.373.662.662,0,0,0,.4.111.921.921,0,0,0,.623-.219.775.775,0,0,0,.253-.619v-.346Z" transform="translate(-61.62 -38.027)" fill="#fff"/>
      <path id="Tracé_8261" data-name="Tracé 8261" d="M146.952,87.058a1.723,1.723,0,0,0,.369-.038q.177-.039.353-.092v.852a2.609,2.609,0,0,1-.457.135,2.887,2.887,0,0,1-.6.057,1.73,1.73,0,0,1-.672-.123.951.951,0,0,1-.469-.426,1.707,1.707,0,0,1-.173-.841V84.561h-.546v-.484l.63-.384.33-.883h.73V83.7h1.176v.86h-1.176v2.021a.444.444,0,0,0,.138.357.533.533,0,0,0,.361.119" transform="translate(-65.316 -37.363)" fill="#fff"/>
      <path id="Tracé_8262" data-name="Tracé 8262" d="M152.146,81.438a.79.79,0,0,1,.438.119.616.616,0,0,1,0,.879.846.846,0,0,1-.88,0,.625.625,0,0,1,0-.879.785.785,0,0,1,.442-.119m.569,5.839H151.57v-4.2h1.145Z" transform="translate(-68.367 -36.744)" fill="#fff"/>
      <path id="Tracé_8263" data-name="Tracé 8263" d="M159.48,86.461a2.227,2.227,0,0,1-.549,1.613,1.981,1.981,0,0,1-1.494.569,2.116,2.116,0,0,1-1.041-.253,1.789,1.789,0,0,1-.718-.741,2.483,2.483,0,0,1-.262-1.187,2.209,2.209,0,0,1,.546-1.606,1.992,1.992,0,0,1,1.5-.56,2.106,2.106,0,0,1,1.045.254,1.808,1.808,0,0,1,.715.733,2.445,2.445,0,0,1,.261,1.18m-2.9,0a1.764,1.764,0,0,0,.2.941.728.728,0,0,0,.665.319.72.72,0,0,0,.657-.319,1.764,1.764,0,0,0,.2-.941,1.725,1.725,0,0,0-.2-.934.733.733,0,0,0-.665-.311.726.726,0,0,0-.657.311,1.725,1.725,0,0,0-.2.934" transform="translate(-70.123 -38.033)" fill="#fff"/>
      <path id="Tracé_8264" data-name="Tracé 8264" d="M166.925,84.293a1.568,1.568,0,0,1,1.084.365,1.5,1.5,0,0,1,.407,1.172v2.735h-1.145V86.114a1.174,1.174,0,0,0-.162-.68.588.588,0,0,0-.515-.227.736.736,0,0,0-.714.357,2.211,2.211,0,0,0-.192,1.026v1.974h-1.145V84.37h.876l.153.537h.061a1.159,1.159,0,0,1,.55-.468,1.9,1.9,0,0,1,.741-.147" transform="translate(-74.241 -38.032)" fill="#fff"/>
      <path id="Tracé_8265" data-name="Tracé 8265" d="M179.717,84.293a1.393,1.393,0,0,1,1.145.549,2.554,2.554,0,0,1,.439,1.617,2.519,2.519,0,0,1-.454,1.625,1.428,1.428,0,0,1-1.16.557,1.367,1.367,0,0,1-.722-.165,1.714,1.714,0,0,1-.439-.373h-.06a3.366,3.366,0,0,1,.06.615v1.691h-1.144V84.37h.93l.161.545h.053a1.548,1.548,0,0,1,.454-.438,1.333,1.333,0,0,1,.737-.184m-.369.914a.691.691,0,0,0-.626.277,1.659,1.659,0,0,0-.2.845v.123a1.953,1.953,0,0,0,.181.933.684.684,0,0,0,.657.327.625.625,0,0,0,.581-.327,1.915,1.915,0,0,0,.188-.941q0-1.236-.784-1.237" transform="translate(-80.034 -38.032)" fill="#fff"/>
      <path id="Tracé_8266" data-name="Tracé 8266" d="M187.738,84.28a2.008,2.008,0,0,1,1.294.365,1.353,1.353,0,0,1,.451,1.118v2.8h-.8l-.223-.569h-.03a1.774,1.774,0,0,1-.569.492,1.821,1.821,0,0,1-.822.153,1.355,1.355,0,0,1-.931-.326,1.274,1.274,0,0,1-.368-1,1.111,1.111,0,0,1,.469-.987,2.677,2.677,0,0,1,1.406-.35l.73-.023v-.184a.619.619,0,0,0-.173-.484.7.7,0,0,0-.48-.154,2.066,2.066,0,0,0-.6.088,4.94,4.94,0,0,0-.583.218l-.377-.776a3.348,3.348,0,0,1,.75-.277,3.617,3.617,0,0,1,.856-.1m.161,2.351a1.26,1.26,0,0,0-.768.2.606.606,0,0,0-.216.485.431.431,0,0,0,.153.373.666.666,0,0,0,.4.111.921.921,0,0,0,.622-.219.777.777,0,0,0,.253-.619v-.346Z" transform="translate(-83.805 -38.027)" fill="#fff"/>
      <path id="Tracé_8267" data-name="Tracé 8267" d="M197.043,84.293q.085,0,.2.008a1.091,1.091,0,0,1,.184.023l-.084,1.076a1,1,0,0,0-.158-.027,1.675,1.675,0,0,0-.181-.012,1.548,1.548,0,0,0-.561.1.94.94,0,0,0-.434.334,1.067,1.067,0,0,0-.165.631v2.135H194.7V84.37h.869l.169.706h.054a1.728,1.728,0,0,1,.507-.553,1.252,1.252,0,0,1,.745-.23" transform="translate(-87.847 -38.032)" fill="#fff"/>
      <path id="Tracé_8268" data-name="Tracé 8268" d="M201.593,81.438a.79.79,0,0,1,.439.119.616.616,0,0,1,0,.879.77.77,0,0,1-.439.123.762.762,0,0,1-.441-.123.624.624,0,0,1,0-.879.782.782,0,0,1,.441-.119m.569,5.839h-1.145v-4.2h1.145Z" transform="translate(-90.677 -36.744)" fill="#fff"/>
      <path id="Tracé_8269" data-name="Tracé 8269" d="M208.044,87.321a1.156,1.156,0,0,1-.449.979,2.2,2.2,0,0,1-1.341.342,4.255,4.255,0,0,1-.753-.057,3.158,3.158,0,0,1-.63-.188v-.946a4.292,4.292,0,0,0,.73.254,2.83,2.83,0,0,0,.692.1.863.863,0,0,0,.48-.1.306.306,0,0,0,.142-.261.333.333,0,0,0-.058-.192.755.755,0,0,0-.25-.193,6.259,6.259,0,0,0-.6-.276,4.379,4.379,0,0,1-.645-.335,1.071,1.071,0,0,1-.376-.4,1.261,1.261,0,0,1-.123-.588.971.971,0,0,1,.453-.875,2.2,2.2,0,0,1,1.207-.293,3.474,3.474,0,0,1,.745.077,3.416,3.416,0,0,1,.73.254l-.346.822q-.307-.131-.583-.219a1.83,1.83,0,0,0-.561-.089q-.507,0-.507.277a.274.274,0,0,0,.066.181.764.764,0,0,0,.253.173c.126.061.311.143.557.245a4.426,4.426,0,0,1,.622.3,1.056,1.056,0,0,1,.546,1" transform="translate(-92.433 -38.032)" fill="#fff"/>
      <path id="Tracé_8270" data-name="Tracé 8270" d="M212.821,81.438a.791.791,0,0,1,.439.119.617.617,0,0,1,0,.879.846.846,0,0,1-.88,0,.625.625,0,0,1,0-.879.783.783,0,0,1,.442-.119m.569,5.839h-1.145v-4.2h1.145Z" transform="translate(-95.743 -36.744)" fill="#fff"/>
      <path id="Tracé_8271" data-name="Tracé 8271" d="M218.072,84.294a1.738,1.738,0,0,1,1.883,1.905v.553h-2.7a1.09,1.09,0,0,0,.288.761,1.016,1.016,0,0,0,.757.277,3.1,3.1,0,0,0,.736-.081,3.524,3.524,0,0,0,.684-.25v.884a2.719,2.719,0,0,1-.649.227,4.007,4.007,0,0,1-.826.072,2.525,2.525,0,0,1-1.114-.234,1.738,1.738,0,0,1-.761-.711,2.358,2.358,0,0,1-.277-1.2,2.672,2.672,0,0,1,.25-1.225,1.693,1.693,0,0,1,.7-.734,2.112,2.112,0,0,1,1.037-.246m.008.814a.756.756,0,0,0-.55.215,1.034,1.034,0,0,0-.257.668h1.606a1.049,1.049,0,0,0-.2-.633.707.707,0,0,0-.6-.25" transform="translate(-97.498 -38.033)" fill="#fff"/>
      <path id="Tracé_8272" data-name="Tracé 8272" d="M227.208,84.293a1.566,1.566,0,0,1,1.084.365,1.5,1.5,0,0,1,.407,1.172v2.735h-1.145V86.114a1.174,1.174,0,0,0-.161-.68.588.588,0,0,0-.515-.227.736.736,0,0,0-.714.357,2.2,2.2,0,0,0-.193,1.026v1.974h-1.145V84.37h.876l.153.537h.061a1.155,1.155,0,0,1,.549-.468,1.9,1.9,0,0,1,.741-.147" transform="translate(-101.44 -38.032)" fill="#fff"/>
      <path id="Tracé_8273" data-name="Tracé 8273" d="M236.406,84.293a1.566,1.566,0,0,1,1.084.365,1.5,1.5,0,0,1,.407,1.172v2.735h-1.145V86.114a1.174,1.174,0,0,0-.161-.68.588.588,0,0,0-.515-.227.736.736,0,0,0-.714.357,2.2,2.2,0,0,0-.193,1.026v1.974h-1.145V84.37h.876l.153.537h.061a1.155,1.155,0,0,1,.549-.468,1.9,1.9,0,0,1,.741-.147" transform="translate(-105.59 -38.032)" fill="#fff"/>
      <path id="Tracé_8274" data-name="Tracé 8274" d="M244.742,84.294a1.738,1.738,0,0,1,1.882,1.905v.553h-2.7a1.09,1.09,0,0,0,.288.761,1.016,1.016,0,0,0,.757.277,3.109,3.109,0,0,0,.737-.081,3.532,3.532,0,0,0,.684-.25v.884a2.719,2.719,0,0,1-.649.227,4.007,4.007,0,0,1-.826.072,2.525,2.525,0,0,1-1.114-.234,1.738,1.738,0,0,1-.761-.711,2.358,2.358,0,0,1-.277-1.2,2.672,2.672,0,0,1,.25-1.225,1.7,1.7,0,0,1,.7-.734,2.113,2.113,0,0,1,1.037-.246m.008.814a.754.754,0,0,0-.549.215,1.031,1.031,0,0,0-.257.668h1.606a1.049,1.049,0,0,0-.2-.633.707.707,0,0,0-.6-.25" transform="translate(-109.532 -38.033)" fill="#fff"/>
      <path id="Tracé_8275" data-name="Tracé 8275" d="M94.489,103.259a1.4,1.4,0,0,1-1.141-.549,3.191,3.191,0,0,1,0-3.246,1.56,1.56,0,0,1,1.914-.376,1.412,1.412,0,0,1,.46.438h.038q-.023-.123-.054-.357a3.715,3.715,0,0,1-.031-.48V97.343h1.145v5.839h-.876l-.223-.546H95.68a1.466,1.466,0,0,1-.453.442,1.353,1.353,0,0,1-.738.181m.4-.914a.752.752,0,0,0,.668-.28,1.54,1.54,0,0,0,.2-.841V101.1a1.885,1.885,0,0,0-.188-.937.737.737,0,0,0-.7-.322.672.672,0,0,0-.591.326,1.71,1.71,0,0,0-.216.941,1.63,1.63,0,0,0,.216.926.693.693,0,0,0,.606.311" transform="translate(-41.919 -43.92)" fill="#fff"/>
      <path id="Tracé_8276" data-name="Tracé 8276" d="M103.75,100.2a1.738,1.738,0,0,1,1.882,1.905v.553h-2.7a1.09,1.09,0,0,0,.288.761,1.014,1.014,0,0,0,.757.277,3.111,3.111,0,0,0,.738-.081,3.529,3.529,0,0,0,.683-.25v.884a2.707,2.707,0,0,1-.649.227,4.008,4.008,0,0,1-.826.072,2.523,2.523,0,0,1-1.114-.234,1.738,1.738,0,0,1-.761-.711,2.358,2.358,0,0,1-.277-1.2,2.672,2.672,0,0,1,.25-1.225,1.693,1.693,0,0,1,.7-.734,2.11,2.11,0,0,1,1.037-.246m.008.814a.753.753,0,0,0-.549.215,1.025,1.025,0,0,0-.257.668h1.606a1.049,1.049,0,0,0-.2-.633.708.708,0,0,0-.6-.25" transform="translate(-45.917 -45.209)" fill="#fff"/>
      <path id="Tracé_8277" data-name="Tracé 8277" d="M116.487,100.2c.057,0,.123,0,.2.008a1.091,1.091,0,0,1,.184.023l-.084,1.076a1,1,0,0,0-.158-.027,1.675,1.675,0,0,0-.181-.012,1.546,1.546,0,0,0-.561.1.94.94,0,0,0-.434.334,1.067,1.067,0,0,0-.165.631v2.135h-1.145v-4.195h.868l.169.706h.054a1.722,1.722,0,0,1,.507-.553,1.251,1.251,0,0,1,.745-.231" transform="translate(-51.501 -45.209)" fill="#fff"/>
      <path id="Tracé_8278" data-name="Tracé 8278" d="M121.74,100.2a1.738,1.738,0,0,1,1.882,1.905v.553h-2.7a1.09,1.09,0,0,0,.288.761,1.015,1.015,0,0,0,.757.277,3.111,3.111,0,0,0,.738-.081,3.533,3.533,0,0,0,.684-.25v.884a2.716,2.716,0,0,1-.649.227,4.009,4.009,0,0,1-.826.072,2.523,2.523,0,0,1-1.114-.234,1.741,1.741,0,0,1-.761-.711,2.358,2.358,0,0,1-.277-1.2,2.672,2.672,0,0,1,.25-1.225,1.689,1.689,0,0,1,.695-.734,2.11,2.11,0,0,1,1.037-.246m.008.814a.753.753,0,0,0-.549.215,1.028,1.028,0,0,0-.257.668h1.606a1.052,1.052,0,0,0-.2-.633.709.709,0,0,0-.6-.25" transform="translate(-54.034 -45.209)" fill="#fff"/>
      <path id="Tracé_8279" data-name="Tracé 8279" d="M129.991,104.547a1.941,1.941,0,0,1-1.448-.518,2.252,2.252,0,0,1-.511-1.633,2.628,2.628,0,0,1,.261-1.252,1.643,1.643,0,0,1,.726-.715,2.389,2.389,0,0,1,1.072-.23,2.962,2.962,0,0,1,.749.085,3.107,3.107,0,0,1,.558.2l-.339.883q-.269-.107-.5-.176a1.637,1.637,0,0,0-.465-.069q-.891,0-.891,1.267a1.505,1.505,0,0,0,.234.93.788.788,0,0,0,.657.3,1.95,1.95,0,0,0,.638-.1,2.486,2.486,0,0,0,.538-.266v.976a1.843,1.843,0,0,1-.549.241,3.012,3.012,0,0,1-.726.073" transform="translate(-57.767 -45.209)" fill="#fff"/>
      <path id="Tracé_8280" data-name="Tracé 8280" d="M136.835,98.534q0,.307-.019.592c-.013.189-.024.323-.035.4h.061a1.188,1.188,0,0,1,.515-.469,1.638,1.638,0,0,1,.7-.146,1.586,1.586,0,0,1,1.095.365,1.493,1.493,0,0,1,.411,1.171v2.736h-1.145v-2.451q0-.907-.676-.907a.737.737,0,0,0-.711.357,2.17,2.17,0,0,0-.2,1.026v1.975H135.69V97.343h1.145Z" transform="translate(-61.222 -43.92)" fill="#fff"/>
      <path id="Tracé_8281" data-name="Tracé 8281" d="M146.407,100.2a1.739,1.739,0,0,1,1.884,1.905v.553h-2.705a1.088,1.088,0,0,0,.289.761,1.013,1.013,0,0,0,.757.277,3.113,3.113,0,0,0,.737-.081,3.564,3.564,0,0,0,.684-.25v.884a2.736,2.736,0,0,1-.649.227,4.017,4.017,0,0,1-.827.072,2.525,2.525,0,0,1-1.114-.234,1.741,1.741,0,0,1-.761-.711,2.358,2.358,0,0,1-.277-1.2,2.679,2.679,0,0,1,.25-1.225,1.694,1.694,0,0,1,.7-.734,2.111,2.111,0,0,1,1.037-.246m.008.814a.755.755,0,0,0-.549.215,1.034,1.034,0,0,0-.257.668h1.606a1.048,1.048,0,0,0-.2-.633.71.71,0,0,0-.6-.25" transform="translate(-65.164 -45.209)" fill="#fff"/>
      <path id="Tracé_8282" data-name="Tracé 8282" d="M155.5,100.2q.085,0,.2.008a1.091,1.091,0,0,1,.184.023l-.084,1.076a1,1,0,0,0-.158-.027,1.675,1.675,0,0,0-.181-.012,1.548,1.548,0,0,0-.561.1.94.94,0,0,0-.434.334,1.067,1.067,0,0,0-.165.631v2.135H153.16v-4.195h.869l.169.706h.054a1.728,1.728,0,0,1,.507-.553,1.252,1.252,0,0,1,.745-.231" transform="translate(-69.105 -45.209)" fill="#fff"/>
      <path id="Tracé_8283" data-name="Tracé 8283" d="M160.734,104.547a1.943,1.943,0,0,1-1.449-.518,2.255,2.255,0,0,1-.51-1.633,2.628,2.628,0,0,1,.261-1.252,1.641,1.641,0,0,1,.726-.715,2.388,2.388,0,0,1,1.072-.23,2.965,2.965,0,0,1,.749.085,3.1,3.1,0,0,1,.557.2l-.338.883q-.269-.107-.5-.176a1.63,1.63,0,0,0-.464-.069q-.892,0-.891,1.267a1.509,1.509,0,0,0,.234.93.789.789,0,0,0,.657.3,1.953,1.953,0,0,0,.638-.1,2.487,2.487,0,0,0,.538-.266v.976a1.843,1.843,0,0,1-.549.241,3.012,3.012,0,0,1-.726.073" transform="translate(-71.638 -45.209)" fill="#fff"/>
      <path id="Tracé_8284" data-name="Tracé 8284" d="M167.578,98.534q0,.307-.019.592c-.013.189-.024.323-.035.4h.062a1.184,1.184,0,0,1,.514-.469,1.64,1.64,0,0,1,.7-.146,1.588,1.588,0,0,1,1.095.365,1.493,1.493,0,0,1,.411,1.171v2.736h-1.145v-2.451q0-.907-.676-.907a.738.738,0,0,0-.711.357,2.17,2.17,0,0,0-.2,1.026v1.975h-1.145V97.343h1.145Z" transform="translate(-75.093 -43.92)" fill="#fff"/>
      <path id="Tracé_8285" data-name="Tracé 8285" d="M177.152,100.2a1.738,1.738,0,0,1,1.882,1.905v.553h-2.7a1.09,1.09,0,0,0,.288.761,1.016,1.016,0,0,0,.757.277,3.11,3.11,0,0,0,.737-.081,3.533,3.533,0,0,0,.684-.25v.884a2.719,2.719,0,0,1-.649.227,4.008,4.008,0,0,1-.826.072,2.525,2.525,0,0,1-1.114-.234,1.738,1.738,0,0,1-.761-.711,2.358,2.358,0,0,1-.277-1.2,2.672,2.672,0,0,1,.25-1.225,1.7,1.7,0,0,1,.7-.734,2.113,2.113,0,0,1,1.037-.246m.008.814a.754.754,0,0,0-.549.215,1.031,1.031,0,0,0-.257.668h1.606a1.049,1.049,0,0,0-.2-.633.707.707,0,0,0-.6-.25" transform="translate(-79.036 -45.209)" fill="#fff"/>
      <path id="Tracé_8286" data-name="Tracé 8286" d="M189.065,100.2a1.738,1.738,0,0,1,1.882,1.905v.553h-2.7a1.09,1.09,0,0,0,.288.761,1.016,1.016,0,0,0,.757.277,3.11,3.11,0,0,0,.737-.081,3.533,3.533,0,0,0,.684-.25v.884a2.719,2.719,0,0,1-.649.227,4.007,4.007,0,0,1-.826.072,2.525,2.525,0,0,1-1.114-.234,1.738,1.738,0,0,1-.761-.711,2.358,2.358,0,0,1-.277-1.2,2.672,2.672,0,0,1,.25-1.225,1.7,1.7,0,0,1,.7-.734,2.113,2.113,0,0,1,1.037-.246m.008.814a.754.754,0,0,0-.549.215,1.031,1.031,0,0,0-.257.668h1.606a1.049,1.049,0,0,0-.2-.633.707.707,0,0,0-.6-.25" transform="translate(-84.411 -45.209)" fill="#fff"/>
      <path id="Tracé_8287" data-name="Tracé 8287" d="M197.238,102.963a1.728,1.728,0,0,0,.369-.038c.117-.026.235-.057.353-.092v.852a2.609,2.609,0,0,1-.457.135,2.882,2.882,0,0,1-.6.057,1.727,1.727,0,0,1-.672-.123.953.953,0,0,1-.469-.426,1.707,1.707,0,0,1-.172-.841v-2.021h-.546v-.484l.629-.384.331-.883h.73v.891h1.175v.86h-1.175v2.021a.444.444,0,0,0,.138.357.531.531,0,0,0,.361.119" transform="translate(-88.005 -44.54)" fill="#fff"/>
      <path id="Tracé_8288" data-name="Tracé 8288" d="M206.654,103.259a1.4,1.4,0,0,1-1.141-.549,3.192,3.192,0,0,1,0-3.246,1.56,1.56,0,0,1,1.913-.376,1.406,1.406,0,0,1,.46.438h.039c-.016-.082-.033-.2-.054-.357a3.619,3.619,0,0,1-.031-.48V97.343h1.145v5.839h-.875l-.223-.546h-.046a1.458,1.458,0,0,1-.453.442,1.354,1.354,0,0,1-.738.181m.4-.914a.752.752,0,0,0,.668-.28,1.54,1.54,0,0,0,.2-.841V101.1a1.885,1.885,0,0,0-.188-.937.737.737,0,0,0-.7-.322.673.673,0,0,0-.592.326,1.715,1.715,0,0,0-.215.941,1.635,1.635,0,0,0,.215.926.694.694,0,0,0,.607.311" transform="translate(-92.527 -43.92)" fill="#fff"/>
      <path id="Tracé_8289" data-name="Tracé 8289" d="M215.916,100.2A1.738,1.738,0,0,1,217.8,102.1v.553h-2.7a1.09,1.09,0,0,0,.288.761,1.016,1.016,0,0,0,.757.277,3.11,3.11,0,0,0,.737-.081,3.534,3.534,0,0,0,.684-.25v.884a2.72,2.72,0,0,1-.649.227,4.007,4.007,0,0,1-.826.072,2.525,2.525,0,0,1-1.114-.234,1.738,1.738,0,0,1-.761-.711,2.358,2.358,0,0,1-.277-1.2,2.672,2.672,0,0,1,.25-1.225,1.7,1.7,0,0,1,.7-.734,2.113,2.113,0,0,1,1.037-.246m.008.814a.754.754,0,0,0-.549.215,1.031,1.031,0,0,0-.257.668h1.606a1.049,1.049,0,0,0-.2-.633.707.707,0,0,0-.6-.25" transform="translate(-96.526 -45.209)" fill="#fff"/>
      <path id="Tracé_8290" data-name="Tracé 8290" d="M94.789,118.868a1.722,1.722,0,0,0,.369-.038q.177-.039.353-.092v.852a2.609,2.609,0,0,1-.457.135,2.879,2.879,0,0,1-.6.057,1.729,1.729,0,0,1-.672-.123.953.953,0,0,1-.469-.426,1.707,1.707,0,0,1-.172-.841v-2.021H92.6v-.484l.63-.384.33-.883h.73v.891h1.175v.86H94.289v2.021a.444.444,0,0,0,.138.357.533.533,0,0,0,.361.119" transform="translate(-41.78 -51.716)" fill="#fff"/>
      <path id="Tracé_8291" data-name="Tracé 8291" d="M101.787,116.1c.057,0,.123,0,.2.008a1.09,1.09,0,0,1,.184.023l-.084,1.076a1,1,0,0,0-.158-.027,1.675,1.675,0,0,0-.181-.012,1.546,1.546,0,0,0-.561.1.94.94,0,0,0-.434.334,1.067,1.067,0,0,0-.165.631v2.135H99.444V116.18h.868l.169.706h.054a1.722,1.722,0,0,1,.507-.553,1.251,1.251,0,0,1,.745-.23" transform="translate(-44.868 -52.385)" fill="#fff"/>
      <path id="Tracé_8292" data-name="Tracé 8292" d="M107.014,116.089a2.01,2.01,0,0,1,1.295.365,1.355,1.355,0,0,1,.449,1.118v2.8h-.8l-.223-.569h-.031a1.777,1.777,0,0,1-.568.492,1.825,1.825,0,0,1-.822.153,1.354,1.354,0,0,1-.93-.326,1.272,1.272,0,0,1-.369-1,1.111,1.111,0,0,1,.469-.987,2.677,2.677,0,0,1,1.406-.35l.73-.023v-.184a.617.617,0,0,0-.173-.484.7.7,0,0,0-.48-.154,2.066,2.066,0,0,0-.6.088,4.981,4.981,0,0,0-.584.218l-.376-.776a3.338,3.338,0,0,1,.75-.277,3.621,3.621,0,0,1,.856-.1m.161,2.351a1.262,1.262,0,0,0-.768.2.608.608,0,0,0-.216.485.431.431,0,0,0,.154.373.662.662,0,0,0,.4.111.921.921,0,0,0,.623-.219.775.775,0,0,0,.253-.619v-.346Z" transform="translate(-47.383 -52.379)" fill="#fff"/>
      <path id="Tracé_8293" data-name="Tracé 8293" d="M114.483,120.438l-1.6-4.2h1.2l.807,2.39a3.435,3.435,0,0,1,.111.446,3.032,3.032,0,0,1,.05.415h.031a3.391,3.391,0,0,1,.168-.861l.807-2.39h1.2l-1.6,4.2Z" transform="translate(-50.933 -52.448)" fill="#fff"/>
      <path id="Tracé_8294" data-name="Tracé 8294" d="M123.436,116.089a2.01,2.01,0,0,1,1.295.365,1.354,1.354,0,0,1,.449,1.118v2.8h-.8l-.223-.569h-.031a1.777,1.777,0,0,1-.568.492,1.825,1.825,0,0,1-.822.153,1.354,1.354,0,0,1-.93-.326,1.272,1.272,0,0,1-.369-1,1.111,1.111,0,0,1,.469-.987,2.677,2.677,0,0,1,1.406-.35l.73-.023v-.184a.617.617,0,0,0-.173-.484.7.7,0,0,0-.48-.154,2.066,2.066,0,0,0-.6.088,4.982,4.982,0,0,0-.584.218l-.376-.776a3.338,3.338,0,0,1,.75-.277,3.621,3.621,0,0,1,.856-.1m.161,2.351a1.262,1.262,0,0,0-.768.2.608.608,0,0,0-.216.485.431.431,0,0,0,.154.373.662.662,0,0,0,.4.111.921.921,0,0,0,.623-.219.775.775,0,0,0,.253-.619v-.346Z" transform="translate(-54.792 -52.379)" fill="#fff"/>
      <path id="Tracé_8295" data-name="Tracé 8295" d="M130.936,113.247a.791.791,0,0,1,.438.119.617.617,0,0,1,0,.88.848.848,0,0,1-.88,0,.626.626,0,0,1,0-.88.788.788,0,0,1,.442-.119m.569,5.839H130.36v-4.2H131.5Z" transform="translate(-58.797 -51.096)" fill="#fff"/>
      <rect id="Rectangle_346" data-name="Rectangle 346" width="1.145" height="5.839" transform="translate(73.907 62.151)" fill="#fff"/>
      <path id="Tracé_8296" data-name="Tracé 8296" d="M144.072,116.089a2.008,2.008,0,0,1,1.294.365,1.355,1.355,0,0,1,.451,1.118v2.8h-.8l-.223-.569h-.03a1.774,1.774,0,0,1-.569.492,1.821,1.821,0,0,1-.822.153,1.355,1.355,0,0,1-.931-.326,1.274,1.274,0,0,1-.368-1,1.111,1.111,0,0,1,.469-.987,2.677,2.677,0,0,1,1.406-.35l.73-.023v-.184a.617.617,0,0,0-.173-.484.7.7,0,0,0-.48-.154,2.066,2.066,0,0,0-.6.088,4.937,4.937,0,0,0-.583.218l-.377-.776a3.348,3.348,0,0,1,.75-.277,3.618,3.618,0,0,1,.856-.1m.161,2.351a1.263,1.263,0,0,0-.768.2.606.606,0,0,0-.216.485.431.431,0,0,0,.153.373.668.668,0,0,0,.4.111.919.919,0,0,0,.622-.219.773.773,0,0,0,.253-.619v-.346Z" transform="translate(-64.103 -52.379)" fill="#fff"/>
      <path id="Tracé_8297" data-name="Tracé 8297" d="M151.54,120.438l-1.6-4.2h1.2l.807,2.39a3.526,3.526,0,0,1,.111.446,3.11,3.11,0,0,1,.05.415h.031a3.391,3.391,0,0,1,.168-.861l.807-2.39h1.2l-1.6,4.2Z" transform="translate(-67.653 -52.448)" fill="#fff"/>
      <path id="Tracé_8298" data-name="Tracé 8298" d="M160.52,116.1a1.738,1.738,0,0,1,1.882,1.905v.553h-2.7a1.09,1.09,0,0,0,.288.761,1.016,1.016,0,0,0,.757.277,3.11,3.11,0,0,0,.737-.081,3.534,3.534,0,0,0,.684-.25v.884a2.72,2.72,0,0,1-.649.227,4.008,4.008,0,0,1-.826.072,2.525,2.525,0,0,1-1.114-.234,1.738,1.738,0,0,1-.761-.711,2.358,2.358,0,0,1-.277-1.2,2.672,2.672,0,0,1,.25-1.225,1.7,1.7,0,0,1,.7-.734,2.113,2.113,0,0,1,1.037-.246m.008.814a.754.754,0,0,0-.549.215,1.031,1.031,0,0,0-.257.668h1.606a1.049,1.049,0,0,0-.2-.633.707.707,0,0,0-.6-.25" transform="translate(-71.531 -52.385)" fill="#fff"/>
      <path id="Tracé_8299" data-name="Tracé 8299" d="M168.771,120.452a1.943,1.943,0,0,1-1.449-.518,2.255,2.255,0,0,1-.51-1.633,2.628,2.628,0,0,1,.261-1.252,1.64,1.64,0,0,1,.726-.715,2.388,2.388,0,0,1,1.072-.23,2.965,2.965,0,0,1,.749.085,3.1,3.1,0,0,1,.557.2l-.338.883q-.269-.107-.5-.176a1.63,1.63,0,0,0-.464-.069q-.892,0-.891,1.267a1.509,1.509,0,0,0,.234.93.789.789,0,0,0,.657.3,1.953,1.953,0,0,0,.638-.1,2.486,2.486,0,0,0,.538-.266v.976a1.843,1.843,0,0,1-.549.241,3.012,3.012,0,0,1-.726.073" transform="translate(-75.264 -52.385)" fill="#fff"/>
      <rect id="Rectangle_347" data-name="Rectangle 347" width="1.145" height="5.839" transform="translate(97.747 62.151)" fill="#fff"/>
      <path id="Tracé_8300" data-name="Tracé 8300" d="M183.9,116.1a1.738,1.738,0,0,1,1.882,1.905v.553h-2.7a1.09,1.09,0,0,0,.288.761,1.016,1.016,0,0,0,.757.277,3.109,3.109,0,0,0,.737-.081,3.534,3.534,0,0,0,.684-.25v.884a2.72,2.72,0,0,1-.649.227,4.008,4.008,0,0,1-.826.072,2.525,2.525,0,0,1-1.114-.234,1.738,1.738,0,0,1-.761-.711,2.358,2.358,0,0,1-.277-1.2,2.672,2.672,0,0,1,.25-1.225,1.7,1.7,0,0,1,.7-.734,2.113,2.113,0,0,1,1.037-.246m.008.814a.754.754,0,0,0-.549.215,1.031,1.031,0,0,0-.257.668h1.606a1.049,1.049,0,0,0-.2-.633.707.707,0,0,0-.6-.25" transform="translate(-82.08 -52.385)" fill="#fff"/>
      <path id="Tracé_8301" data-name="Tracé 8301" d="M193.371,119.131a1.156,1.156,0,0,1-.449.979,2.2,2.2,0,0,1-1.341.342,4.255,4.255,0,0,1-.753-.057,3.158,3.158,0,0,1-.63-.188v-.946a4.292,4.292,0,0,0,.73.254,2.829,2.829,0,0,0,.692.1.863.863,0,0,0,.48-.1.306.306,0,0,0,.142-.261.333.333,0,0,0-.058-.192.755.755,0,0,0-.25-.193,6.261,6.261,0,0,0-.6-.276,4.379,4.379,0,0,1-.645-.335,1.071,1.071,0,0,1-.376-.4,1.261,1.261,0,0,1-.123-.588.971.971,0,0,1,.453-.875,2.2,2.2,0,0,1,1.207-.293,3.474,3.474,0,0,1,.745.077,3.415,3.415,0,0,1,.73.254l-.346.822q-.307-.131-.583-.219a1.829,1.829,0,0,0-.561-.089q-.507,0-.507.277a.274.274,0,0,0,.066.181.764.764,0,0,0,.253.173c.126.061.311.143.557.245a4.427,4.427,0,0,1,.622.3,1.056,1.056,0,0,1,.546,1" transform="translate(-85.812 -52.385)" fill="#fff"/>
      <path id="Tracé_8302" data-name="Tracé 8302" d="M203.2,115.72h-.992v3.335h-1.145V115.72h-.629v-.553l.629-.307v-.308a1.6,1.6,0,0,1,.181-.833.979.979,0,0,1,.515-.419,2.282,2.282,0,0,1,.788-.123,3.186,3.186,0,0,1,.611.054,2.444,2.444,0,0,1,.442.123l-.292.837c-.087-.025-.182-.05-.284-.073a1.627,1.627,0,0,0-.354-.034.413.413,0,0,0-.35.145.6.6,0,0,0-.111.369v.262h.992Z" transform="translate(-90.436 -51.065)" fill="#fff"/>
      <path id="Tracé_8303" data-name="Tracé 8303" d="M208.161,116.089a2.009,2.009,0,0,1,1.295.365,1.355,1.355,0,0,1,.45,1.118v2.8h-.8l-.223-.569h-.03a1.778,1.778,0,0,1-.569.492,1.824,1.824,0,0,1-.822.153,1.354,1.354,0,0,1-.93-.326,1.272,1.272,0,0,1-.369-1,1.111,1.111,0,0,1,.469-.987,2.673,2.673,0,0,1,1.405-.35l.73-.023v-.184a.617.617,0,0,0-.173-.484.7.7,0,0,0-.48-.154,2.066,2.066,0,0,0-.6.088,4.938,4.938,0,0,0-.583.218l-.377-.776a3.358,3.358,0,0,1,.75-.277,3.621,3.621,0,0,1,.856-.1m.162,2.351a1.262,1.262,0,0,0-.768.2.607.607,0,0,0-.215.485.431.431,0,0,0,.153.373.664.664,0,0,0,.4.111.92.92,0,0,0,.622-.219.775.775,0,0,0,.254-.619v-.346Z" transform="translate(-93.019 -52.379)" fill="#fff"/>
      <path id="Tracé_8304" data-name="Tracé 8304" d="M220.049,116.1a1.466,1.466,0,0,1,1.079.365,1.606,1.606,0,0,1,.365,1.172v2.735h-1.145v-2.451q0-.906-.631-.907a.69.69,0,0,0-.645.323,1.833,1.833,0,0,0-.192.93v2.105h-1.145v-2.451q0-.906-.629-.907a.67.67,0,0,0-.657.357,2.333,2.333,0,0,0-.181,1.026v1.974h-1.145V116.18H216l.153.537h.062a1.119,1.119,0,0,1,.526-.468,1.713,1.713,0,0,1,.695-.147,1.855,1.855,0,0,1,.784.15,1.04,1.04,0,0,1,.491.465h.1a1.118,1.118,0,0,1,.535-.468,1.767,1.767,0,0,1,.7-.147" transform="translate(-97.062 -52.385)" fill="#fff"/>
      <path id="Tracé_8305" data-name="Tracé 8305" d="M229.41,113.247a.793.793,0,0,1,.438.119.617.617,0,0,1,0,.88.848.848,0,0,1-.88,0,.626.626,0,0,1,0-.88.788.788,0,0,1,.442-.119m.569,5.839h-1.145v-4.2h1.145Z" transform="translate(-103.228 -51.096)" fill="#fff"/>
      <rect id="Rectangle_348" data-name="Rectangle 348" width="1.145" height="5.839" transform="translate(127.949 62.151)" fill="#fff"/>
      <rect id="Rectangle_349" data-name="Rectangle 349" width="1.145" height="5.839" transform="translate(130.293 62.151)" fill="#fff"/>
      <path id="Tracé_8306" data-name="Tracé 8306" d="M243.2,116.1a1.737,1.737,0,0,1,1.882,1.905v.553h-2.7a1.092,1.092,0,0,0,.288.761,1.016,1.016,0,0,0,.758.277,3.1,3.1,0,0,0,.736-.081,3.534,3.534,0,0,0,.684-.25v.884a2.711,2.711,0,0,1-.649.227,4,4,0,0,1-.825.072,2.521,2.521,0,0,1-1.114-.234,1.735,1.735,0,0,1-.761-.711,2.358,2.358,0,0,1-.277-1.2,2.672,2.672,0,0,1,.25-1.225,1.7,1.7,0,0,1,.7-.734,2.114,2.114,0,0,1,1.037-.246m.008.814a.755.755,0,0,0-.549.215,1.031,1.031,0,0,0-.257.668h1.606a1.049,1.049,0,0,0-.2-.633.707.707,0,0,0-.6-.25" transform="translate(-108.836 -52.385)" fill="#fff"/>
      <path id="Tracé_8307" data-name="Tracé 8307" d="M252.673,119.131a1.156,1.156,0,0,1-.449.979,2.2,2.2,0,0,1-1.341.342,4.255,4.255,0,0,1-.753-.057,3.158,3.158,0,0,1-.63-.188v-.946a4.292,4.292,0,0,0,.73.254,2.829,2.829,0,0,0,.692.1.863.863,0,0,0,.48-.1.306.306,0,0,0,.142-.261.333.333,0,0,0-.058-.192.755.755,0,0,0-.25-.193,6.262,6.262,0,0,0-.6-.276,4.379,4.379,0,0,1-.645-.335,1.071,1.071,0,0,1-.376-.4,1.261,1.261,0,0,1-.123-.588.971.971,0,0,1,.453-.875,2.2,2.2,0,0,1,1.207-.293,3.474,3.474,0,0,1,.745.077,3.415,3.415,0,0,1,.73.254l-.346.822q-.307-.131-.583-.219a1.829,1.829,0,0,0-.561-.089q-.507,0-.507.277a.274.274,0,0,0,.066.181.764.764,0,0,0,.253.173c.126.061.311.143.557.245a4.426,4.426,0,0,1,.622.3,1.056,1.056,0,0,1,.546,1" transform="translate(-112.569 -52.385)" fill="#fff"/>
    </g>
  </g>
</svg>
