<svg xmlns="http://www.w3.org/2000/svg" width="350.383" height="342.403" viewBox="0 0 350.383 342.403">
  <g id="Groupe_1745" data-name="Groupe 1745" transform="translate(-818 -322)">
    <circle id="Ellipse_230" data-name="Ellipse 230" cx="170" cy="170" r="170" transform="translate(818 323)" fill="rgba(255,188,201,0.5)"/>
    <g id="undraw_family_vg76" transform="translate(840.385 322)">
      <g id="Groupe_1376" data-name="Groupe 1376" transform="translate(156.502 320.171)">
        <path id="Tracé_4451" data-name="Tracé 4451" d="M217.451,460.1h4.756l2.263-18.346h-7.02Z" transform="translate(-216.35 -441.755)" fill="#ffb6b6"/>
        <path id="Tracé_4452" data-name="Tracé 4452" d="M233.329,464.882h0a4.083,4.083,0,0,1,.226,1.344h0a1.614,1.614,0,0,1-1.614,1.614h-14.73a1.1,1.1,0,0,1-1.1-1.1v-.613a4.708,4.708,0,0,1,.772-4.115s1.864,1.779,4.651-1.007l.822-1.488,5.947,4.349,3.3.406c.721.089,1.361-.014,1.732.611h0Z" transform="translate(-215.933 -446.643)" fill="#2f2e41"/>
      </g>
      <g id="Groupe_1377" data-name="Groupe 1377" transform="translate(142.007 320.171)">
        <path id="Tracé_4453" data-name="Tracé 4453" d="M197.451,460.1h4.756l2.263-18.346h-7.02Z" transform="translate(-196.35 -441.755)" fill="#ffb6b6"/>
        <path id="Tracé_4454" data-name="Tracé 4454" d="M213.329,464.882h0a4.082,4.082,0,0,1,.226,1.344h0a1.614,1.614,0,0,1-1.614,1.614h-14.73a1.1,1.1,0,0,1-1.1-1.1v-.613a4.708,4.708,0,0,1,.772-4.115s1.864,1.779,4.651-1.007l.822-1.488,5.947,4.349,3.3.406c.721.089,1.361-.014,1.732.611h0Z" transform="translate(-195.933 -446.643)" fill="#2f2e41"/>
      </g>
      <path id="Tracé_4455" data-name="Tracé 4455" d="M215.674,357.755l5.073,19.646-2.537,50.451-11.959.8-.725-29.043-1.45,29.9-12.321-2.563-.725-65.773Z" transform="translate(-52.577 -98.464)" fill="#2f2e41"/>
      <g id="Groupe_1378" data-name="Groupe 1378" transform="translate(106.231 189.495)">
        <path id="uuid-f560b4a3-9a95-4199-88c1-6c6c96ee74ab-1893" d="M154.324,265.1c-1.637-2.872-4.446-4.356-6.274-3.314s-1.982,4.215-.344,7.088a8.273,8.273,0,0,0,2.643,2.879l7.089,12.083,5.6-3.448-7.584-11.546A8.274,8.274,0,0,0,154.324,265.1Z" transform="translate(-146.572 -261.455)" fill="#ffb6b6"/>
        <path id="Tracé_4456" data-name="Tracé 4456" d="M187.427,310.386s-6.719,9.261-10.829,5.952-26.815-40.511-26.815-40.511l9.011-4.83Z" transform="translate(-147.456 -264.082)" fill="#ff6484"/>
      </g>
      <path id="Tracé_4457" data-name="Tracé 4457" d="M193.032,304.8l8.7-13.046,8.7,3.624-2.174,11.6Z" transform="translate(-53.128 -80.299)" fill="#ffb6b6"/>
      <path id="Tracé_4458" data-name="Tracé 4458" d="M191.28,305.48l15.22-.725,10.147,2.9,2.174,53.633-30.44-2.9V330.1l-4.349-14.478Z" transform="translate(-50.651 -83.877)" fill="#ff6484"/>
      <path id="Tracé_4459" data-name="Tracé 4459" d="M215.58,341.523a11.878,11.878,0,0,1-.61-4.85c.389-4.637.463-13.723-4.264-17.828l-2.67-2.892c-.056-.06-.118-.111-.175-.17l4.417-10.383-2.668-1.135-4.1,9.637a11.624,11.624,0,0,0-12.966.536l-2.5-9.161-2.8.764,3.126,10.447c-.114.139-.238.266-.345.411l-1.527,2.05a11.938,11.938,0,0,1-1.227,1.4,9.293,9.293,0,0,0-2.784,6.58,11.572,11.572,0,0,1-.605,3.453l-1.816,5.674a11.432,11.432,0,0,0-.4,1.627c-.8,4.858-3.571,27.747,15.366,27.288,17.653-.427,18.815-11.176,18.712-14.746a10.683,10.683,0,0,1,.192-2.3A12.793,12.793,0,0,0,215.58,341.523Z" transform="translate(-49.832 -83.742)" fill="#3f3d56"/>
      <path id="Tracé_4460" data-name="Tracé 4460" d="M331.467,36.017,333.118,61.5,312.36,66.267l1.446-20.608Z" transform="translate(-85.97 -9.913)" fill="#ffb6b6"/>
      <g id="Groupe_1379" data-name="Groupe 1379" transform="translate(214.575 299.773)">
        <path id="Tracé_4461" data-name="Tracé 4461" d="M335.66,449.7H326.3l-4.451-36.091h13.81Z" transform="translate(-303.158 -413.611)" fill="#ffb6b6"/>
        <path id="Tracé_4462" data-name="Tracé 4462" d="M296.5,459.106h0a8.039,8.039,0,0,0-.445,2.645h0a3.176,3.176,0,0,0,3.176,3.176h28.977a2.167,2.167,0,0,0,2.167-2.167v-1.206s1.433-3.626-1.518-8.095c0,0-3.668,3.5-9.149-1.982l-1.616-2.928-11.7,8.557-6.485.8c-1.419.175-2.676-.027-3.406,1.2Z" transform="translate(-296.059 -423.227)" fill="#2f2e41"/>
      </g>
      <g id="Groupe_1380" data-name="Groupe 1380" transform="translate(239.942 299.773)">
        <path id="Tracé_4463" data-name="Tracé 4463" d="M370.66,449.7H361.3l-4.451-36.091h13.81Z" transform="translate(-338.158 -413.611)" fill="#ffb6b6"/>
        <path id="Tracé_4464" data-name="Tracé 4464" d="M331.5,459.106h0a8.033,8.033,0,0,0-.445,2.645h0a3.176,3.176,0,0,0,3.176,3.176h28.977a2.167,2.167,0,0,0,2.166-2.167v-1.206s1.434-3.626-1.518-8.095c0,0-3.668,3.5-9.149-1.982l-1.616-2.928-11.7,8.557-6.485.8c-1.419.175-2.677-.027-3.406,1.2Z" transform="translate(-331.059 -423.227)" fill="#2f2e41"/>
      </g>
      <path id="Tracé_4465" data-name="Tracé 4465" d="M360.638,226.755s7.973,10.147,6.523,15.945-11.6,139.156-11.6,139.156l-14.5-.725-8.7-119.587-2.237,120.312-13.708-.725-17.395-149.3Z" transform="translate(-82.302 -62.409)" fill="#2f2e41"/>
      <path id="uuid-35c49308-43d3-4982-a82f-2c4b488719d7-1894" d="M263.622,259.607c-1.371,5.253-5.192,8.8-8.535,7.931s-4.941-5.838-3.569-11.093a13.588,13.588,0,0,1,2.963-5.692l6.088-22.185,10.35,3.079-7.1,21.543A13.59,13.59,0,0,1,263.622,259.607Z" transform="translate(-69.089 -62.909)" fill="#ffb6b6"/>
      <ellipse id="Ellipse_77" data-name="Ellipse 77" cx="20.71" cy="20.71" rx="20.71" ry="20.71" transform="translate(207.926 5.836)" fill="#ffb6b6"/>
      <path id="Tracé_4466" data-name="Tracé 4466" d="M307.628,71.1l21.743-4.349,23.917,12.321,5.073,79,6.523,29.716-67.4.725,2.9-39.862L296.032,85.6Z" transform="translate(-81.476 -18.373)" fill="#eaebf0"/>
      <path id="Tracé_4467" data-name="Tracé 4467" d="M291.271,95.374s-11.6-3.624-15.945,2.9S263,163.5,263,163.5l-7.973,44.211,14.5,2.174,23.918-77.551Z" transform="translate(-70.192 -25.973)" fill="#eaebf0"/>
      <g id="Groupe_1381" data-name="Groupe 1381" transform="translate(262.736 58.371)">
        <path id="uuid-bde1eca8-243b-424d-9fdc-27c2181c111a-1895" d="M442.04,226.456c2.363,4.888,1.756,10.069-1.355,11.572s-7.547-1.241-9.91-6.131a13.586,13.586,0,0,1-1.435-6.255l-9.75-20.837,9.876-4.367,8.563,21A13.587,13.587,0,0,1,442.04,226.456Z" transform="translate(-378.219 -113.538)" fill="#ffb6b6"/>
        <path id="Tracé_4468" data-name="Tracé 4468" d="M362.508,83.621s10.414-6.257,16.179-.944,27.361,60.482,27.361,60.482l18.177,41.083-13.573,5.532-41.536-69.72Z" transform="translate(-362.508 -80.537)" fill="#eaebf0"/>
      </g>
      <path id="Tracé_4469" data-name="Tracé 4469" d="M312.863,470.912a.86.86,0,0,1-.862.862H.862A.86.86,0,0,1,0,470.912a.84.84,0,0,1,.232-.587H65.259a30.181,30.181,0,0,0,4.073-.276H312A.86.86,0,0,1,312.863,470.912Z" transform="translate(0 -129.371)" fill="#3f3d56"/>
      <path id="uuid-76bcf24f-af63-48e1-b762-2a44b8a9d8fc-1896" d="M253.288,272.943c1.293-3.043,3.912-4.842,5.848-4.018s2.457,3.957,1.163,7a8.274,8.274,0,0,1-2.292,3.165l-5.643,12.823-5.961-2.776,6.2-12.346A8.276,8.276,0,0,1,253.288,272.943Z" transform="translate(-67.817 -73.961)" fill="#ffb6b6"/>
      <ellipse id="Ellipse_78" data-name="Ellipse 78" cx="13.331" cy="13.331" rx="13.331" ry="13.331" transform="translate(134.45 194.427)" fill="#ffb6b6"/>
      <path id="Tracé_4470" data-name="Tracé 4470" d="M227.032,301.049l13.046-5.073,4.349-15.22,9.422,3.624L246.6,306.122,227.032,313.6Z" transform="translate(-62.485 -77.272)" fill="#ff6484"/>
      <path id="Tracé_4471" data-name="Tracé 4471" d="M195.943,295.474l7.951-6.469s-.752-9.695,2.106-10.567,5.839-4.355,5.839-4.355-4.731-10.686-13.057-9.065-6.427-.845-11.558,1.872-6.335,6.344-5.711,10.2-1.234,13.425,4.982,13.918a14.174,14.174,0,0,1,9.45,4.468Z" transform="translate(-49.915 -72.895)" fill="#2f2e41"/>
      <path id="Tracé_4472" data-name="Tracé 4472" d="M291.406,31.182c-1.511-2.756-.727-4.072-2.09-5.149,0,0-.549-.434-4.679-.986h0c-.395-6.759-1.489-7.662-1.489-7.662a4.89,4.89,0,0,0-4.548-.423c-2.706,1-2.612,3.635-4.409,3.994-2.482.5,4.285-3.747,4.206-8.235-.065-3.661,2.558-7,3.471-6.742s3.334-2.379,4.521-2.24c.81.095,4.246-1.083,5.13-.9.966.2,4.048,2.136,4.212,1.764,1.144-2.59.93-3.351,1.781-4.051,1.508-1.239,3.724-.115,7.277.677,7.311,1.63,8.8-.705,12.454,1.25,1.848.988,3.269,3.367,6.038,8.085,3.871,6.6,5.807,9.9,5.53,13.543-.283,3.718-2.064,3.338-3.294,8.777-1.369,6.055.277,9-1.925,10.831-1.7,1.412-15.811,1.52-17.389.036-2.7-2.541,1.521-7.816-1.348-12.145-1.761-2.657-5.615-4.085-7.521-2.993-2.154,1.235-1.357,5.427-2.824,5.7-1.257.235-2.84-2.653-3.1-3.133Z" transform="translate(-75.314 0)" fill="#2f2e41"/>
      <g id="Groupe_1385" data-name="Groupe 1385" transform="translate(23.318 38.55)">
        <g id="Groupe_1382" data-name="Groupe 1382" transform="translate(18.675 63.273)">
          <path id="Tracé_4473" data-name="Tracé 4473" d="M131.664,238.328c2.885-2.437,2.119-8.088-1.711-12.621a14.854,14.854,0,0,0-5.607-4.215l-2.235-2.58L93.246,182.746s-15.985-35.979-20.7-39.866a11.128,11.128,0,0,0-10.27-1.863l-4.332,5.359,26.993,50.235,27.626,27.8,3.729,3.888a14.852,14.852,0,0,0,3.219,6.232c3.83,4.533,9.273,6.233,12.158,3.8Z" transform="translate(-57.939 -140.49)" fill="#ffb6b6"/>
          <path id="Tracé_4474" data-name="Tracé 4474" d="M77.83,153.017l7.234,10.609L95.448,179,76.789,185.45,60.314,157.181Z" transform="translate(-58.593 -143.938)" fill="#fff"/>
        </g>
        <path id="Tracé_4475" data-name="Tracé 4475" d="M85.041,101.336,79.8,121.31,59.828,117.38s7.858-14.407,5.894-20.956Z" transform="translate(-39.784 -65.089)" fill="#ffb6b6"/>
        <g id="Groupe_1383" data-name="Groupe 1383" transform="translate(21.389 249.847)">
          <path id="Tracé_4476" data-name="Tracé 4476" d="M65.522,444.31H77.55l5.722-46.394H65.52Z" transform="translate(-62.74 -397.914)" fill="#ffb6b6"/>
          <path id="Tracé_4477" data-name="Tracé 4477" d="M105.676,456.4h0a10.327,10.327,0,0,1,.572,3.4h0a4.082,4.082,0,0,1-4.082,4.082H64.917a2.785,2.785,0,0,1-2.785-2.785v-1.551s-1.843-4.661,1.951-10.406c0,0,4.715,4.5,11.761-2.547l2.078-3.764,15.04,11,8.336,1.026c1.824.224,3.441-.035,4.379,1.545Z" transform="translate(-61.684 -410.276)" fill="#2f2e41"/>
        </g>
        <path id="Tracé_4478" data-name="Tracé 4478" d="M95.232,266.455,78.658,379.24H57.864l2.765-64.38,1.455-33.852-4.22-16.113a71.96,71.96,0,0,1-3.545-7.923c-1.827-4.9-3.27-10.773-1.128-13.558.788-1.027,2.838-1.787,5.623-2.353a58.186,58.186,0,0,1,5.821-.829c12.3-1.217,29.789-.457,29.789-.457l.445,14.674.247,8.194Z" transform="translate(-37.663 -104.479)" fill="#2f2e41"/>
        <g id="Groupe_1384" data-name="Groupe 1384" transform="translate(0 244.825)">
          <path id="Tracé_4479" data-name="Tracé 4479" d="M36.29,436.887l11.9,1.748L60.6,393.567l-17.564-2.581Z" transform="translate(-33.306 -390.986)" fill="#ffb6b6"/>
          <path id="Tracé_4480" data-name="Tracé 4480" d="M75.967,455.584h0a10.326,10.326,0,0,1,.071,3.447h0a4.082,4.082,0,0,1-4.633,3.445l-36.853-5.418A2.785,2.785,0,0,1,32.2,453.9l.226-1.534s-1.145-4.88,3.444-10.011c0,0,4.011,5.136,12.006-.809l2.6-3.422,13.28,13.07,8.1,2.228c1.772.487,3.409.466,4.108,2.166h0Z" transform="translate(-32.173 -403.959)" fill="#2f2e41"/>
        </g>
        <path id="Tracé_4481" data-name="Tracé 4481" d="M90.831,246.583,88.557,266.16l-12.4,41.255-20.408,67.92-20.571-3.023L53.643,275.74l-1.828-16.56s-.6-1.646-1.278-4.056c-1.355-4.767-3.053-12.531-1.184-16.492a4.63,4.63,0,0,1,.961-1.384c.735-.713,2.229-1.146,4.231-1.376,8.367-.946,25.6,1.759,33.267,3.087l3.019,7.622Z" transform="translate(-33.001 -103.415)" fill="#2f2e41"/>
        <path id="Tracé_4482" data-name="Tracé 4482" d="M79.031,122.006l22.593,28.487-4.056,29.7-3.475,30.221-40.93-6.221S62,182.909,62.986,181.927s3.45,1.444,1.725-1.734-3.689-3.178-2.052-4.815S49.889,152.458,49.889,141s6.876-20.629,6.876-20.629l22.266,1.637Z" transform="translate(-37.049 -71.679)" fill="#fff"/>
        <ellipse id="Ellipse_79" data-name="Ellipse 79" cx="15.22" cy="15.22" rx="15.22" ry="15.22" transform="translate(21.491 9.579)" fill="#ffb6b6"/>
        <path id="Tracé_4483" data-name="Tracé 4483" d="M69.619,107.089S71.9,89.068,72.3,83.828s7.8-13.422,7.8-13.422l5.241,4.233s4.434,0,1.411-6.45a13,13,0,0,0-8.667-7.458S77.48,52.265,67,53.273a20.182,20.182,0,0,0-15.117,9.473s-.6-10.683-7.256-2.822S34.145,71.01,41.2,73.63s12.3.6,12.3.6-6.853,1.411-5.644,6.248-15.923,26.807-8.062,29.226,25.4,8.264,27.412,4.434a22.917,22.917,0,0,0,2.419-7.055Z" transform="translate(-33.62 -53.189)" fill="#2f2e41"/>
        <path id="Tracé_4484" data-name="Tracé 4484" d="M140.7,240.2c2.905-2.413,2.187-8.07-1.605-12.635a14.852,14.852,0,0,0-5.571-4.262l-2.214-2.6L102.753,184.3S87.07,148.188,82.384,144.261a11.128,11.128,0,0,0-10.255-1.949l-4.376,5.323,26.571,50.46,27.392,28.032,3.7,3.919a14.852,14.852,0,0,0,3.166,6.259c3.792,4.565,9.22,6.31,12.126,3.9Z" transform="translate(-41.966 -77.582)" fill="#ffb6b6"/>
        <path id="Tracé_4485" data-name="Tracé 4485" d="M65.466,138.639s6.992,36.283,14.948,41.632l15.855-12.363s1.387-.06-1.195-2.976-1.921-9.18-1.921-9.18,1.162,1.5-1.366-.584-.175-16.44-.175-16.44l-26.146-.089Z" transform="translate(-41.336 -76.708)" fill="#fff"/>
      </g>
      <path id="Tracé_4486" data-name="Tracé 4486" d="M214.073,339.331a.724.724,0,0,1-.708-.572l-.8-3.7a12.26,12.26,0,0,0-23.329-2.074l-2,4.874a.725.725,0,1,1-1.341-.55l2-4.874a13.709,13.709,0,0,1,26.086,2.319l.8,3.7a.725.725,0,0,1-.556.861A.741.741,0,0,1,214.073,339.331Z" transform="translate(-51.15 -89.154)" fill="#ffb6b6"/>
      <path id="Tracé_4487" data-name="Tracé 4487" d="M215.513,359.986l-.065,0-26.82-2.392a.725.725,0,1,1,.129-1.444l26.82,2.392a.725.725,0,0,1-.064,1.447Z" transform="translate(-51.734 -98.021)" fill="#ffb6b6"/>
    </g>
  </g>
</svg>
