<svg xmlns="http://www.w3.org/2000/svg" width="242.01" height="392" viewBox="0 0 242.01 392">
  <g id="undraw_exciting_news_re_y1iw" transform="translate(0.804 0.245)">
    <path id="Tracé_8957" data-name="Tracé 8957" d="M527.4,258.774c-1.255,4.985-5.347,15.01-5.383,20.18l.283-.365a23.1,23.1,0,0,0,2.527,2.738,14.842,14.842,0,0,1,4.527-4.113,17.767,17.767,0,0,0-.835,6.993c2.882,6.06,11.841,1.969,17.221.533,6.316,5.509,13.81,6.152,22.845,1.263,2.7-.088,5.7-.327,7.357-2.154s-6.943-11.172-6.238-13.513c5.018-16.674,4.734-14.861-1.842-21.218-1.447-1.4-1.76-3.738-3.465-5.029-2.365-1.789-5.646-1.992-8.66-2.1a4.5,4.5,0,0,0,3.656-2.473,4.063,4.063,0,0,0-.625-4.195,7.319,7.319,0,0,0-5.763-2.287,20.515,20.515,0,0,0-6.123,1.375,11.188,11.188,0,0,0-3.589,1.709,3.1,3.1,0,0,0-1.175,3.329,4.014,4.014,0,0,0,2.7,2.215,10.506,10.506,0,0,0,2.758.366,21.049,21.049,0,0,0-11.943,3.8A22.417,22.417,0,0,0,527.4,258.774Z" transform="translate(-454.386 -184.209)" fill="#2f2e41"/>
    <circle id="Ellipse_177" data-name="Ellipse 177" cx="17.026" cy="17.026" r="17.026" transform="translate(79.35 93.301) rotate(-76.491)" fill="#ffb6b6"/>
    <path id="Tracé_8958" data-name="Tracé 8958" d="M552.5,261.518c1.38,2.823,4.3,3.4,6.969,3.639.84.079,1.684.145,2.533.19.253-.423.527-.841.818-1.241a14.842,14.842,0,0,1,4.527-4.113,17.49,17.49,0,0,0-.884,5.515q2.389.021,4.787-.085a5.376,5.376,0,0,0,5.735-4.689c1.757,2.156,3.758,4.139,6.21,4.756,2.862.61-1.666-.717-.239-3.272a16.065,16.065,0,0,0,1.885-6.553c.3-2.708.26-5.773-1.261-7.258-1.22-1.2-6.027,2.649-7.663,2.992-3.607.775,3.342-1.713-.032-.218l-.206.709c.111-3.707-1.673-7.018-4.263-7.929-1.746-.607-3.693-.2-5.58.227a25.336,25.336,0,0,0-7,2.369,13.945,13.945,0,0,0-5.812,6.094C551.671,255.455,551.305,259.079,552.5,261.518Z" transform="translate(-463.979 -187.634)" fill="#2f2e41"/>
    <path id="Tracé_8959" data-name="Tracé 8959" d="M574.488,239.441c-.173-.027.267-.022.118,0a1.39,1.39,0,0,0,.217-.061c.012,0,.173-.081.066-.026a1.367,1.367,0,0,0,.586-.507,5.661,5.661,0,0,0,.7-1.762,5.932,5.932,0,0,1,.978-2.28,1.46,1.46,0,0,1,2.356.039,3.4,3.4,0,0,1,.112,2.364,7.32,7.32,0,0,1-.785,2.211,6.694,6.694,0,0,1-2.744,2.651,7,7,0,0,1-4.344.717,1.064,1.064,0,0,1-.3-1.923l2.251-1.3a1.053,1.053,0,1,1,1.1,1.8l-2.251,1.3-.3-1.923a4.189,4.189,0,0,0,.934.032,3.527,3.527,0,0,0,.983-.176,4.371,4.371,0,0,0,.884-.347,6.019,6.019,0,0,0,.525-.312q.092-.061.182-.126s.251-.2.14-.1a5.938,5.938,0,0,0,.772-.79,2.4,2.4,0,0,0,.22-.324,5.581,5.581,0,0,0,.306-.574,5.472,5.472,0,0,0,.387-1.3,5.549,5.549,0,0,0,.078-.572,2.277,2.277,0,0,1,.014-.311c.056-.25,0,.141.118.23l.483.264a.579.579,0,0,0,.48-.145q.063-.121-.029.041a3.427,3.427,0,0,0-.19.392,9.958,9.958,0,0,0-.3.962,10.012,10.012,0,0,1-.735,2A3.392,3.392,0,0,1,574,241.49a1.062,1.062,0,0,1-.778-1.27A1.075,1.075,0,0,1,574.488,239.441Z" transform="translate(-470.162 -184.596)" fill="#2f2e41"/>
    <path id="Tracé_8960" data-name="Tracé 8960" d="M145.158,540.913h7.813l3.717-30.133H145.157Z" transform="translate(-47.059 -164.758)" fill="#ffb6b6"/>
    <path id="Tracé_8961" data-name="Tracé 8961" d="M575.729,714.632v-5.3l-2.054.125-8.36.5-1.935.119L561.9,727.813l-.079.951h5.547l.178-.944.806-4.292,2.08,4.292.456.944H585.6a3.323,3.323,0,0,0,3.3-3.308C589.518,722.556,577.288,716.289,575.729,714.632Z" transform="translate(-467.218 -337.774)" fill="#2f2e41"/>
    <path id="Tracé_8962" data-name="Tracé 8962" d="M16.8,529.551l6.432,4.433,20.162-22.7L33.9,504.74Z" transform="translate(-5.676 -162.811)" fill="#ffb6b6"/>
    <path id="Tracé_8963" data-name="Tracé 8963" d="M441.419,706.675l3.006-4.361-1.762-1.062-7.165-4.337-1.661-1L422.553,709.68l-.6.738,4.567,3.148.683-.676,3.1-3.077-.723,4.715-.161,1.036,12.109,8.346a3.323,3.323,0,0,0,4.6-.85C448.275,721.025,441.762,708.924,441.419,706.675Z" transform="translate(-422.122 -333.447)" fill="#2f2e41"/>
    <path id="Tracé_8964" data-name="Tracé 8964" d="M700.986,260.389a5.549,5.549,0,0,1-7.221,2.786,5.324,5.324,0,0,1-.771-.424L659.457,288.16l-10.538-8.922,42.868-24.274a5.534,5.534,0,0,1,6.542-1.685,5.3,5.3,0,0,1,2.718,6.979Q701.018,260.324,700.986,260.389Z" transform="translate(-495.299 -190.594)" fill="#ffb6b6"/>
    <path id="Tracé_8965" data-name="Tracé 8965" d="M577.319,341.906s-11.852-3.024-3.549-18.589,40.236-32.921,42.446-33.137.417,1.89,4.246-1.582c3.114-2.823,4.389-.134,4.5-1.507.305-3.62,5.026,2.546,4.4-1.9s10.039,9.857,10.039,9.857,0,2.651-5.605,4.8c-3.146,1.208-5.342.185-5.268,2.891s-6.38,1.694-7.216,2.286-14.95,19.4-14.95,19.4Z" transform="translate(-470.118 -200.75)" fill="#5241fb"/>
    <path id="Tracé_8966" data-name="Tracé 8966" d="M727.668,316.349c-14.488-3.606-26.927-10.7-36.652-22.4a3.283,3.283,0,0,1-1.088-4.508l16.915-27.68a3.283,3.283,0,0,1,4.508-1.088L748,283.072a3.283,3.283,0,0,1,1.088,4.508l-16.915,27.68a3.283,3.283,0,0,1-4.508,1.088Z" transform="translate(-508.365 -192.967)" fill="#e6e6e6"/>
    <path id="Tracé_8967" data-name="Tracé 8967" d="M719.52,309.072c-7.628-.833-15.557-6.93-23.563-14.4a3.074,3.074,0,0,1-1.019-4.222l14.537-23.789a3.074,3.074,0,0,1,4.222-1.019l32.615,19.931a3.074,3.074,0,0,1,1.019,4.222l-9.006,14.737A13.7,13.7,0,0,1,719.52,309.072Z" transform="translate(-509.99 -194.579)" fill="#fff"/>
    <ellipse id="Ellipse_178" data-name="Ellipse 178" cx="2.44" cy="3.508" rx="2.44" ry="3.508" transform="translate(215.92 91.184) rotate(-75.779)" fill="#fff"/>
    <ellipse id="Ellipse_179" data-name="Ellipse 179" cx="2.44" cy="3.508" rx="2.44" ry="3.508" transform="translate(192.988 91.036) rotate(-75.779)" fill="#3f3d56"/>
    <ellipse id="Ellipse_180" data-name="Ellipse 180" cx="2.44" cy="3.508" rx="2.44" ry="3.508" transform="translate(220.223 110.209) rotate(-75.779)" fill="#ff6584"/>
    <ellipse id="Ellipse_181" data-name="Ellipse 181" cx="2.217" cy="1.542" rx="2.217" ry="1.542" transform="translate(229.658 118.602) rotate(-83.624)" fill="#e6e6e6"/>
    <ellipse id="Ellipse_182" data-name="Ellipse 182" cx="2.217" cy="1.542" rx="2.217" ry="1.542" transform="translate(231.544 132.972) rotate(-83.624)" fill="#3f3d56"/>
    <ellipse id="Ellipse_183" data-name="Ellipse 183" cx="2.217" cy="1.542" rx="2.217" ry="1.542" transform="translate(208.099 105.586) rotate(-83.624)" fill="#e6e6e6"/>
    <ellipse id="Ellipse_184" data-name="Ellipse 184" cx="2.217" cy="1.542" rx="2.217" ry="1.542" transform="translate(219.639 101.251) rotate(-83.624)" fill="#ff6584"/>
    <ellipse id="Ellipse_185" data-name="Ellipse 185" cx="2.217" cy="1.542" rx="2.217" ry="1.542" transform="translate(205.422 89.538) rotate(-83.624)" fill="#3f3d56"/>
    <path id="Tracé_8968" data-name="Tracé 8968" d="M567.99,453.146l.2-2.113L559.5,427.21l-37.031,7.14s-19.085,23.511-14.841,39.073c1.151,4.22-13.331,32.251-8.565,29.228s-4.957,5.392-2.467,5.589-1.42,3.131-2.161,4.731c-17.058,36.842-44.338,84.947-44.338,84.947s5.674,15.95,14.626,7.032,68.841-88.141,68.841-88.141-.807,5.158-1.933,13c-3.477,24.227-8.939,73-4.086,75.525a24.61,24.61,0,0,0,12.569,2.723s32.118-74.271,27.874-88.418" transform="translate(-431.197 -246.814)" fill="#2f2e41"/>
    <path id="Tracé_8969" data-name="Tracé 8969" d="M572.121,315.44l-3.446-7.164L550,310.539l-1.931,5.845a67.792,67.792,0,0,0-13.183,18.582c-5.167,11.038,12.029,59.794,9.2,62.623s-13.313,4.354-8.6,7.82,0,1.249-1.175,5.2-3.489,19.694-3.489,19.694,17.953,15.049,29.271-7.586c16.5,1.415,19.806-14.147,19.806-14.147l5.549-9.19c7.2-3.3-3.9-41.032-1.069-48.577S572.121,315.44,572.121,315.44Z" transform="translate(-457.224 -208.469)" fill="#5241fb"/>
    <path id="Tracé_8970" data-name="Tracé 8970" d="M615.211,431.248c.043-2.771.034-5.756,1.265-8.309.924-1.918,2.64-3.834,4.9-3.994,1.922-.136,4.1,1,4.281,3.09.21,2.484-1.881,4.856-3.574,6.424a16.351,16.351,0,0,1-7.237,3.856,1.027,1.027,0,0,0-.243,1.858,19.1,19.1,0,0,1,5.6,4.692,13.914,13.914,0,0,1,3.207,6.39,2.253,2.253,0,0,1-1.081,2.576,3.7,3.7,0,0,1-3.025-.617,12.226,12.226,0,0,1-4.476-5.388,13.818,13.818,0,0,1-1.116-7.964c.21-1.28-1.749-1.83-1.96-.54-.931,5.683,1.336,12.45,6.421,15.583,2.313,1.425,5.842,1.676,7-1.332,1.052-2.725-.689-6-2.144-8.242a20.98,20.98,0,0,0-7.4-6.913l-.243,1.858a18.483,18.483,0,0,0,7.94-4.2c2.163-1.943,4.493-4.827,4.373-7.905a5.6,5.6,0,0,0-4.97-5.179,7.5,7.5,0,0,0-7.1,3.407c-2.265,3.123-2.389,7.145-2.447,10.852a1.017,1.017,0,0,0,2.033,0Z" transform="translate(-483.25 -243.495)" fill="#2f2e41"/>
    <path id="Tracé_8971" data-name="Tracé 8971" d="M491.414,470.164a5.549,5.549,0,0,0,2.425-7.35,5.322,5.322,0,0,0-.461-.75l23.72-34.752-9.432-10.084L485.54,461.244a5.533,5.533,0,0,0-1.36,6.617,5.3,5.3,0,0,0,7.1,2.369Z" transform="translate(-442.005 -243.597)" fill="#ffb6b6"/>
    <path id="Tracé_8972" data-name="Tracé 8972" d="M567,342.088s-3.606-11.688-18.741-2.627-30.893,41.814-31,44.032,1.908.323-1.37,4.319c-2.666,3.25.083,4.39-1.283,4.573-3.6.484,2.791,4.894-1.682,4.488s10.341,9.54,10.341,9.54,2.648-.134,4.52-5.836c1.051-3.2-.08-5.344,2.628-5.4s1.377-6.456,1.927-7.32,18.635-15.89,18.635-15.89Z" transform="translate(-451.181 -217.414)" fill="#5241fb"/>
    <path id="Tracé_8973" data-name="Tracé 8973" d="M548.275,258.521c11.129-12.834-8.654,21.148,6.125,34.4-6.023,4.779-28.117,3.084-26.869,0s5.341-32.5,9.732-34.4S548.275,258.521,548.275,258.521Z" transform="translate(-456.146 -191.511)" fill="#2f2e41"/>
    <ellipse id="Ellipse_186" data-name="Ellipse 186" cx="2.44" cy="3.508" rx="2.44" ry="3.508" transform="translate(69.56 228.736) rotate(-75.779)" fill="#fff"/>
    <ellipse id="Ellipse_187" data-name="Ellipse 187" cx="2.44" cy="3.508" rx="2.44" ry="3.508" transform="translate(46.628 228.588) rotate(-75.779)" fill="#3f3d56"/>
    <ellipse id="Ellipse_188" data-name="Ellipse 188" cx="2.44" cy="3.508" rx="2.44" ry="3.508" transform="translate(73.863 247.762) rotate(-75.779)" fill="#ff6584"/>
    <ellipse id="Ellipse_189" data-name="Ellipse 189" cx="2.217" cy="1.542" rx="2.217" ry="1.542" transform="translate(83.298 256.154) rotate(-83.624)" fill="#e6e6e6"/>
    <ellipse id="Ellipse_190" data-name="Ellipse 190" cx="2.217" cy="1.542" rx="2.217" ry="1.542" transform="translate(85.184 270.524) rotate(-83.624)" fill="#3f3d56"/>
    <ellipse id="Ellipse_191" data-name="Ellipse 191" cx="2.217" cy="1.542" rx="2.217" ry="1.542" transform="translate(61.739 243.139) rotate(-83.624)" fill="#e6e6e6"/>
    <ellipse id="Ellipse_192" data-name="Ellipse 192" cx="2.217" cy="1.542" rx="2.217" ry="1.542" transform="translate(73.28 238.803) rotate(-83.624)" fill="#ff6584"/>
    <ellipse id="Ellipse_193" data-name="Ellipse 193" cx="2.217" cy="1.542" rx="2.217" ry="1.542" transform="translate(59.062 227.09) rotate(-83.624)" fill="#3f3d56"/>
    <ellipse id="Ellipse_194" data-name="Ellipse 194" cx="2.44" cy="3.508" rx="2.44" ry="3.508" transform="translate(204.401 194.856) rotate(-75.779)" fill="#fff"/>
    <ellipse id="Ellipse_195" data-name="Ellipse 195" cx="2.44" cy="3.508" rx="2.44" ry="3.508" transform="translate(181.469 194.708) rotate(-75.779)" fill="#3f3d56"/>
    <ellipse id="Ellipse_196" data-name="Ellipse 196" cx="2.44" cy="3.508" rx="2.44" ry="3.508" transform="translate(208.705 213.882) rotate(-75.779)" fill="#ff6584"/>
    <ellipse id="Ellipse_197" data-name="Ellipse 197" cx="2.217" cy="1.542" rx="2.217" ry="1.542" transform="translate(218.139 222.274) rotate(-83.624)" fill="#e6e6e6"/>
    <ellipse id="Ellipse_198" data-name="Ellipse 198" cx="2.217" cy="1.542" rx="2.217" ry="1.542" transform="translate(220.025 236.644) rotate(-83.624)" fill="#3f3d56"/>
    <ellipse id="Ellipse_199" data-name="Ellipse 199" cx="2.217" cy="1.542" rx="2.217" ry="1.542" transform="translate(196.58 209.258) rotate(-83.624)" fill="#e6e6e6"/>
    <ellipse id="Ellipse_200" data-name="Ellipse 200" cx="2.217" cy="1.542" rx="2.217" ry="1.542" transform="translate(208.121 204.923) rotate(-83.624)" fill="#ff6584"/>
    <ellipse id="Ellipse_201" data-name="Ellipse 201" cx="2.217" cy="1.542" rx="2.217" ry="1.542" transform="translate(193.903 193.21) rotate(-83.624)" fill="#3f3d56"/>
    <ellipse id="Ellipse_202" data-name="Ellipse 202" cx="2.44" cy="3.508" rx="2.44" ry="3.508" transform="translate(22.128 93.217) rotate(-75.779)" fill="#fff"/>
    <ellipse id="Ellipse_203" data-name="Ellipse 203" cx="2.44" cy="3.508" rx="2.44" ry="3.508" transform="translate(-0.804 93.069) rotate(-75.779)" fill="#3f3d56"/>
    <ellipse id="Ellipse_204" data-name="Ellipse 204" cx="2.44" cy="3.508" rx="2.44" ry="3.508" transform="translate(26.431 112.243) rotate(-75.779)" fill="#ff6584"/>
    <ellipse id="Ellipse_205" data-name="Ellipse 205" cx="2.217" cy="1.542" rx="2.217" ry="1.542" transform="translate(35.866 120.635) rotate(-83.624)" fill="#e6e6e6"/>
    <ellipse id="Ellipse_206" data-name="Ellipse 206" cx="2.217" cy="1.542" rx="2.217" ry="1.542" transform="translate(37.752 135.006) rotate(-83.624)" fill="#3f3d56"/>
    <ellipse id="Ellipse_207" data-name="Ellipse 207" cx="2.217" cy="1.542" rx="2.217" ry="1.542" transform="translate(14.307 107.62) rotate(-83.624)" fill="#e6e6e6"/>
    <ellipse id="Ellipse_208" data-name="Ellipse 208" cx="2.217" cy="1.542" rx="2.217" ry="1.542" transform="translate(25.847 103.284) rotate(-83.624)" fill="#ff6584"/>
    <ellipse id="Ellipse_209" data-name="Ellipse 209" cx="2.217" cy="1.542" rx="2.217" ry="1.542" transform="translate(11.63 91.571) rotate(-83.624)" fill="#3f3d56"/>
    <ellipse id="Ellipse_210" data-name="Ellipse 210" cx="2.44" cy="3.508" rx="2.44" ry="3.508" transform="translate(129.865 5.807) rotate(-75.779)" fill="#fff"/>
    <ellipse id="Ellipse_211" data-name="Ellipse 211" cx="2.44" cy="3.508" rx="2.44" ry="3.508" transform="translate(106.933 5.659) rotate(-75.779)" fill="#3f3d56"/>
    <ellipse id="Ellipse_212" data-name="Ellipse 212" cx="2.44" cy="3.508" rx="2.44" ry="3.508" transform="translate(134.169 24.833) rotate(-75.779)" fill="#ff6584"/>
    <ellipse id="Ellipse_213" data-name="Ellipse 213" cx="2.217" cy="1.542" rx="2.217" ry="1.542" transform="translate(143.603 33.225) rotate(-83.624)" fill="#e6e6e6"/>
    <ellipse id="Ellipse_214" data-name="Ellipse 214" cx="2.217" cy="1.542" rx="2.217" ry="1.542" transform="translate(145.489 47.595) rotate(-83.624)" fill="#3f3d56"/>
    <ellipse id="Ellipse_215" data-name="Ellipse 215" cx="2.217" cy="1.542" rx="2.217" ry="1.542" transform="translate(122.044 20.21) rotate(-83.624)" fill="#e6e6e6"/>
    <ellipse id="Ellipse_216" data-name="Ellipse 216" cx="2.217" cy="1.542" rx="2.217" ry="1.542" transform="translate(133.584 15.874) rotate(-83.624)" fill="#ff6584"/>
    <ellipse id="Ellipse_217" data-name="Ellipse 217" cx="2.217" cy="1.542" rx="2.217" ry="1.542" transform="translate(119.367 4.161) rotate(-83.624)" fill="#3f3d56"/>
    <path id="Tracé_8974" data-name="Tracé 8974" d="M666.763,694.907a1.538,1.538,0,0,0,1.114-2.665l-.105-.419.042-.1a4.129,4.129,0,0,1,7.617.028c1.246,3,2.832,6.006,3.222,9.179a12.218,12.218,0,0,1-.214,4.2,48.978,48.978,0,0,0,4.455-20.342,47.267,47.267,0,0,0-.293-5.274q-.243-2.153-.674-4.276a49.545,49.545,0,0,0-9.825-21,13.185,13.185,0,0,1-5.484-5.689,10.06,10.06,0,0,1-.915-2.748c.267.035,1.007-4.031.805-4.28.372-.565,1.038-.845,1.444-1.4,2.021-2.74,4.8-2.261,6.258,1.462,3.1,1.567,3.135,4.166,1.23,6.665-1.212,1.59-1.379,3.742-2.442,5.444.109.14.223.276.333.416a49.859,49.859,0,0,1,5.2,8.245,20.729,20.729,0,0,1,1.237-9.628c1.185-2.858,3.4-5.264,5.36-7.735a4.255,4.255,0,0,1,7.578,2.089q.006.055.012.109-.436.246-.853.522a2.086,2.086,0,0,0,.841,3.8l.043.007a20.773,20.773,0,0,1-.547,3.1c2.508,9.7-2.907,13.233-10.639,13.392-.171.087-.337.175-.508.258a50.9,50.9,0,0,1,2.74,12.893,48.264,48.264,0,0,1-.035,7.794l.013-.092a12.756,12.756,0,0,1,4.355-7.366c3.351-2.753,8.086-3.767,11.7-5.979a2.394,2.394,0,0,1,3.667,2.329l-.015.1a14,14,0,0,0-1.571.757q-.436.246-.853.522a2.086,2.086,0,0,0,.841,3.8l.043.007.087.013a20.772,20.772,0,0,1-3.821,5.983c-1.568,8.468-8.3,9.271-15.51,6.805h0a50.881,50.881,0,0,1-3.418,9.978h-12.21c-.044-.136-.083-.276-.123-.411a13.869,13.869,0,0,0,3.379-.2c-.906-1.112-1.812-2.232-2.718-3.344a.747.747,0,0,1-.057-.066c-.459-.569-.923-1.134-1.383-1.7h0a20.322,20.322,0,0,1,.6-5.177Z" transform="translate(-500.71 -314.897)" fill="#f2f2f2"/>
    <path id="Tracé_8975" data-name="Tracé 8975" d="M465.715,737.563a.8.8,0,0,0,.806.806H638.149a.806.806,0,1,0,0-1.613H466.522a.8.8,0,0,0-.806.806Z" transform="translate(-436.232 -346.615)" fill="#ccc"/>
  </g>
</svg>
