<svg id="undraw_family_vg76" xmlns="http://www.w3.org/2000/svg" width="153.454" height="175.735" viewBox="0 0 153.454 175.735">
  <g id="Groupe_1376" data-name="Groupe 1376" transform="translate(73.22 164.325)">
    <path id="Tracé_4451" data-name="Tracé 4451" d="M217.45,451.171h2.225l1.059-9.416H217.45Z" transform="translate(-216.935 -441.755)" fill="#ffb6b6"/>
    <path id="Tracé_4452" data-name="Tracé 4452" d="M224.072,462.27h0a2.28,2.28,0,0,1,.106.69h0a.794.794,0,0,1-.755.829h-6.891a.542.542,0,0,1-.515-.565v-.315a2.617,2.617,0,0,1,.361-2.112s.872.913,2.176-.517l.384-.764,2.782,2.232,1.542.208c.337.046.637-.007.81.314h0Z" transform="translate(-215.933 -452.909)" fill="#2f2e41"/>
  </g>
  <g id="Groupe_1377" data-name="Groupe 1377" transform="translate(66.438 164.325)">
    <path id="Tracé_4453" data-name="Tracé 4453" d="M197.45,451.171h2.225l1.059-9.416H197.45Z" transform="translate(-196.935 -441.755)" fill="#ffb6b6"/>
    <path id="Tracé_4454" data-name="Tracé 4454" d="M204.072,462.27h0a2.28,2.28,0,0,1,.106.69h0a.794.794,0,0,1-.755.829h-6.891a.542.542,0,0,1-.515-.565v-.315a2.617,2.617,0,0,1,.361-2.112s.872.913,2.176-.517l.384-.764,2.782,2.232,1.542.208c.337.046.637-.007.81.314h0Z" transform="translate(-195.933 -452.909)" fill="#2f2e41"/>
  </g>
  <path id="Tracé_4455" data-name="Tracé 4455" d="M202.561,357.755l2.374,10.083-1.187,25.894-5.595.411-.339-14.906-.678,15.344-5.764-1.315-.339-33.757Z" transform="translate(-126.256 -224.677)" fill="#2f2e41"/>
  <g id="Groupe_1378" data-name="Groupe 1378" transform="translate(49.7 97.257)">
    <path id="uuid-f560b4a3-9a95-4199-88c1-6c6c96ee74ab-1893" d="M150.2,263.327c-.766-1.474-2.08-2.236-2.935-1.7s-.927,2.163-.161,3.638a4.127,4.127,0,0,0,1.237,1.477l3.317,6.2,2.62-1.77-3.548-5.926A4.551,4.551,0,0,0,150.2,263.327Z" transform="translate(-146.572 -261.455)" fill="#ffb6b6"/>
    <path id="Tracé_4456" data-name="Tracé 4456" d="M167.4,291.213s-3.144,4.753-5.066,3.055-12.545-20.792-12.545-20.792L154,271Z" transform="translate(-148.694 -267.448)" fill="#ff6484"/>
  </g>
  <path id="Tracé_4457" data-name="Tracé 4457" d="M193.032,298.451l4.069-6.7,4.069,1.86-1.017,5.952Z" transform="translate(-127.578 -183.228)" fill="#ffb6b6"/>
  <path id="Tracé_4458" data-name="Tracé 4458" d="M187.423,305.127l7.121-.372,4.747,1.488,1.017,27.527-14.242-1.488V317.766l-2.035-7.431Z" transform="translate(-121.629 -191.392)" fill="#ff6484"/>
  <path id="Tracé_4459" data-name="Tracé 4459" d="M197.209,323.387a6.65,6.65,0,0,1-.285-2.489c.182-2.38.217-7.043-1.995-9.15l-1.249-1.484c-.026-.031-.055-.057-.082-.087l2.067-5.329-1.248-.582-1.918,4.946a5.045,5.045,0,0,0-6.066.275l-1.17-4.7-1.309.392,1.463,5.362c-.053.071-.111.137-.162.211l-.715,1.052a5.994,5.994,0,0,1-.574.718,4.983,4.983,0,0,0-1.3,3.377,6.459,6.459,0,0,1-.283,1.772l-.849,2.912a6.341,6.341,0,0,0-.185.835c-.374,2.493-1.671,14.241,7.189,14.005,8.259-.219,8.8-5.736,8.754-7.569a6,6,0,0,1,.09-1.183A7.179,7.179,0,0,0,197.209,323.387Z" transform="translate(-119.663 -191.084)" fill="#3f3d56"/>
  <path id="Tracé_4460" data-name="Tracé 4460" d="M321.3,36.017l.772,13.081-9.712,2.445.677-10.577Z" transform="translate(-206.443 -22.619)" fill="#ffb6b6"/>
  <g id="Groupe_1379" data-name="Groupe 1379" transform="translate(100.389 153.855)">
    <path id="Tracé_4461" data-name="Tracé 4461" d="M328.312,432.134h-4.378l-2.082-18.523h6.461Z" transform="translate(-313.106 -413.611)" fill="#ffb6b6"/>
    <path id="Tracé_4462" data-name="Tracé 4462" d="M296.267,453.968h0a4.488,4.488,0,0,0-.208,1.357h0a1.563,1.563,0,0,0,1.486,1.63H311.1a1.066,1.066,0,0,0,1.014-1.112v-.619a5.148,5.148,0,0,0-.71-4.155s-1.716,1.8-4.28-1.017l-.756-1.5-5.474,4.392-3.034.41c-.664.09-1.252-.014-1.594.617Z" transform="translate(-296.059 -435.553)" fill="#2f2e41"/>
  </g>
  <g id="Groupe_1380" data-name="Groupe 1380" transform="translate(112.257 153.855)">
    <path id="Tracé_4463" data-name="Tracé 4463" d="M363.312,432.134h-4.378l-2.082-18.523h6.461Z" transform="translate(-348.106 -413.611)" fill="#ffb6b6"/>
    <path id="Tracé_4464" data-name="Tracé 4464" d="M331.267,453.968h0a4.487,4.487,0,0,0-.208,1.357h0a1.563,1.563,0,0,0,1.486,1.63H346.1a1.066,1.066,0,0,0,1.014-1.112v-.619a5.148,5.148,0,0,0-.71-4.155s-1.716,1.8-4.28-1.017l-.756-1.5-5.474,4.392-3.034.41c-.664.09-1.252-.014-1.594.617Z" transform="translate(-331.059 -435.553)" fill="#2f2e41"/>
  </g>
  <path id="Tracé_4465" data-name="Tracé 4465" d="M327.854,226.755s3.73,5.208,3.052,8.184-5.425,71.42-5.425,71.42l-6.782-.372L314.63,244.61l-1.047,61.749-6.413-.372-8.138-76.628Z" transform="translate(-197.635 -142.406)" fill="#2f2e41"/>
  <path id="uuid-35c49308-43d3-4982-a82f-2c4b488719d7-1894" d="M256.919,244.5c-.641,2.7-2.429,4.519-3.993,4.071s-2.312-3-1.67-5.693a7.229,7.229,0,0,1,1.386-2.921l2.848-11.386,4.842,1.58-3.322,11.057A7.631,7.631,0,0,1,256.919,244.5Z" transform="translate(-165.907 -143.546)" fill="#ffb6b6"/>
  <ellipse id="Ellipse_77" data-name="Ellipse 77" cx="9.689" cy="10.629" rx="9.689" ry="10.629" transform="translate(97.278 2.995)" fill="#ffb6b6"/>
  <path id="Tracé_4466" data-name="Tracé 4466" d="M301.458,68.987l10.173-2.232,11.19,6.324,2.374,40.546,3.052,15.251-31.535.372,1.356-20.459-2.035-32.362Z" transform="translate(-195.652 -41.923)" fill="#eaebf0"/>
  <path id="Tracé_4467" data-name="Tracé 4467" d="M271.987,94.885s-5.425-1.86-7.46,1.488-5.764,33.478-5.764,33.478l-3.73,22.691,6.782,1.116,11.19-39.8Z" transform="translate(-168.554 -59.266)" fill="#eaebf0"/>
  <g id="Groupe_1381" data-name="Groupe 1381" transform="translate(122.921 29.958)">
    <path id="uuid-bde1eca8-243b-424d-9fdc-27c2181c111a-1895" d="M430.094,213.792c1.105,2.509.822,5.168-.634,5.939s-3.531-.637-4.636-3.147a7.537,7.537,0,0,1-.671-3.21l-4.561-10.694,4.62-2.241,4.006,10.781A6.9,6.9,0,0,1,430.094,213.792Z" transform="translate(-400.235 -155.838)" fill="#ffb6b6"/>
    <path id="Tracé_4468" data-name="Tracé 4468" d="M362.508,82.12s4.872-3.211,7.569-.485,12.8,31.042,12.8,31.042l8.5,21.085-6.35,2.839L365.6,100.819Z" transform="translate(-362.508 -80.537)" fill="#eaebf0"/>
  </g>
  <path id="Tracé_4469" data-name="Tracé 4469" d="M146.373,470.492a.423.423,0,0,1-.4.443H.4a.423.423,0,0,1-.4-.443.454.454,0,0,1,.109-.3H30.531a12.887,12.887,0,0,0,1.906-.141H145.97A.423.423,0,0,1,146.373,470.492Z" transform="translate(0 -295.2)" fill="#3f3d56"/>
  <path id="uuid-76bcf24f-af63-48e1-b762-2a44b8a9d8fc-1896" d="M249.624,270.89c.605-1.562,1.83-2.485,2.736-2.062s1.149,2.031.544,3.593a4.254,4.254,0,0,1-1.072,1.624l-2.64,6.581L246.4,279.2l2.9-6.337A4.612,4.612,0,0,1,249.624,270.89Z" transform="translate(-162.851 -168.764)" fill="#ffb6b6"/>
  <ellipse id="Ellipse_78" data-name="Ellipse 78" cx="6.237" cy="6.842" rx="6.237" ry="6.842" transform="translate(62.903 99.787)" fill="#ffb6b6"/>
  <path id="Tracé_4470" data-name="Tracé 4470" d="M227.032,291.171l6.1-2.6,2.034-7.812,4.408,1.86-3.391,11.159-9.155,3.837Z" transform="translate(-150.049 -176.319)" fill="#ff6484"/>
  <path id="Tracé_4471" data-name="Tracé 4471" d="M188.183,280.569l3.72-3.32s-.352-4.976.985-5.423a7.758,7.758,0,0,0,2.732-2.235s-2.213-5.485-6.109-4.652-3.007-.434-5.408.961a4.793,4.793,0,0,0-2.672,5.233c.292,1.977-.577,6.89,2.331,7.143a6.484,6.484,0,0,1,4.421,2.293Z" transform="translate(-119.864 -166.332)" fill="#2f2e41"/>
  <path id="Tracé_4472" data-name="Tracé 4472" d="M281.953,16c-.707-1.414-.34-2.09-.978-2.643a6.187,6.187,0,0,0-2.189-.506h0c-.185-3.469-.7-3.933-.7-3.933a2.115,2.115,0,0,0-2.128-.217c-1.266.513-1.222,1.866-2.063,2.05-1.161.255,2-1.923,1.968-4.227-.03-1.879,1.2-3.594,1.624-3.46s1.56-1.221,2.115-1.15c.379.049,1.986-.556,2.4-.461.452.1,1.894,1.1,1.971.905.535-1.329.435-1.72.833-2.079.706-.636,1.742-.059,3.4.347,3.421.836,4.115-.362,5.827.642.864.507,1.53,1.728,2.825,4.15,1.811,3.387,2.717,5.08,2.587,6.951-.132,1.908-.965,1.713-1.541,4.5-.641,3.107.129,4.622-.9,5.559-.8.725-7.4.78-8.136.018-1.264-1.3.712-4.011-.631-6.233-.824-1.364-2.627-2.1-3.518-1.536-1.008.634-.635,2.785-1.321,2.926-.588.121-1.329-1.361-1.452-1.608Z" transform="translate(-180.854 0)" fill="#2f2e41"/>
  <g id="Groupe_1385" data-name="Groupe 1385" transform="translate(10.909 19.786)">
    <g id="Groupe_1382" data-name="Groupe 1382" transform="translate(8.737 32.474)">
      <path id="Tracé_4473" data-name="Tracé 4473" d="M92.432,190.7c1.35-1.251.991-4.151-.8-6.478a7.041,7.041,0,0,0-2.623-2.163l-1.046-1.324-13.5-18.562s-7.479-18.466-9.686-20.461a4.824,4.824,0,0,0-4.805-.956l-2.027,2.751,12.629,25.783,12.925,14.269,1.745,2a7.914,7.914,0,0,0,1.506,3.2c1.792,2.327,4.338,3.2,5.688,1.948Z" transform="translate(-57.939 -140.49)" fill="#ffb6b6"/>
      <path id="Tracé_4474" data-name="Tracé 4474" d="M68.509,153.017l3.384,5.445,4.858,7.888-8.73,3.313-7.708-14.509Z" transform="translate(-59.509 -148.357)" fill="#e6e6e6"/>
    </g>
    <path id="Tracé_4475" data-name="Tracé 4475" d="M71.624,98.945,69.173,109.2l-9.345-2.017s3.677-7.394,2.757-10.755Z" transform="translate(-50.45 -80.342)" fill="#ffb6b6"/>
    <g id="Groupe_1383" data-name="Groupe 1383" transform="translate(10.007 128.231)">
      <path id="Tracé_4476" data-name="Tracé 4476" d="M65.521,421.726h5.627l2.677-23.811H65.52Z" transform="translate(-64.219 -397.914)" fill="#ffb6b6"/>
      <path id="Tracé_4477" data-name="Tracé 4477" d="M82.266,449.793h0a5.767,5.767,0,0,1,.268,1.745h0a2.009,2.009,0,0,1-1.91,2.1H63.2a1.371,1.371,0,0,1-1.3-1.429v-.8a6.618,6.618,0,0,1,.913-5.341s2.206,2.309,5.5-1.307l.972-1.932,7.036,5.645,3.9.527c.853.115,1.61-.018,2.049.793Z" transform="translate(-61.684 -426.121)" fill="#2f2e41"/>
    </g>
    <path id="Tracé_4478" data-name="Tracé 4478" d="M72.291,253.354,64.537,311.24H54.808L56.1,278.2l.681-17.374-1.974-8.27a38.752,38.752,0,0,1-1.659-4.067c-.855-2.515-1.53-5.529-.528-6.959a4.566,4.566,0,0,1,2.631-1.207,24.967,24.967,0,0,1,2.723-.425,111.058,111.058,0,0,1,13.937-.234l.208,7.531.115,4.206Z" transform="translate(-45.357 -170.221)" fill="#2f2e41"/>
    <g id="Groupe_1384" data-name="Groupe 1384" transform="translate(0 125.654)">
      <path id="Tracé_4479" data-name="Tracé 4479" d="M36.29,414.544l5.568.9,5.806-23.131-8.217-1.325Z" transform="translate(-34.894 -390.986)" fill="#ffb6b6"/>
      <path id="Tracé_4480" data-name="Tracé 4480" d="M52.662,447.084h0a5.807,5.807,0,0,1,.033,1.769h0a1.945,1.945,0,0,1-2.167,1.768L33.286,447.84a1.415,1.415,0,0,1-1.1-1.622l.106-.787a6.531,6.531,0,0,1,1.611-5.138s1.876,2.636,5.617-.415l1.218-1.756,6.213,6.708,3.789,1.143c.829.25,1.6.239,1.922,1.112h0Z" transform="translate(-32.173 -420.588)" fill="#2f2e41"/>
    </g>
    <path id="Tracé_4481" data-name="Tracé 4481" d="M61.217,241.275l-1.064,10.048-5.8,21.174L44.8,307.356,35.181,305.8l8.638-49.565-.855-8.5s-.279-.845-.6-2.082c-.634-2.447-1.429-6.431-.554-8.464a2.392,2.392,0,0,1,.45-.71,3.391,3.391,0,0,1,1.98-.706c3.915-.485,11.977.9,15.564,1.584l1.412,3.912Z" transform="translate(-34.161 -167.795)" fill="#2f2e41"/>
    <path id="Tracé_4482" data-name="Tracé 4482" d="M63.523,121.209l10.57,14.621-1.9,15.243L70.57,166.584l-19.149-3.193s4.136-10.924,4.6-11.428,1.614.741.807-.89-1.726-1.631-.96-2.471-5.974-11.764-5.974-17.646a20.822,20.822,0,0,1,3.217-10.587l10.417.84Z" transform="translate(-43.882 -95.379)" fill="#ffe5e9"/>
    <ellipse id="Ellipse_79" data-name="Ellipse 79" cx="7.121" cy="7.811" rx="7.121" ry="7.811" transform="translate(10.054 4.916)" fill="#ffb6b6"/>
    <path id="Tracé_4483" data-name="Tracé 4483" d="M52.489,80.853s1.066-9.249,1.254-11.938,3.649-6.889,3.649-6.889L59.845,64.2s2.075,0,.66-3.31A6.188,6.188,0,0,0,56.45,57.06s-.283-4.345-5.186-3.828a9.524,9.524,0,0,0-7.072,4.862s-.283-5.483-3.395-1.448-4.9,5.69-1.6,7.034a7.988,7.988,0,0,0,5.752.31s-3.206.724-2.64,3.207-7.45,13.758-3.772,15,11.882,4.241,12.825,2.276a12.592,12.592,0,0,0,1.132-3.621Z" transform="translate(-35.647 -53.189)" fill="#2f2e41"/>
    <path id="Tracé_4484" data-name="Tracé 4484" d="M101.884,192.311c1.359-1.238,1.023-4.142-.751-6.485a7.056,7.056,0,0,0-2.607-2.187l-1.036-1.334L84.128,163.619s-7.337-18.534-9.53-20.549a4.827,4.827,0,0,0-4.8-1L67.753,144.8l12.431,25.9L93,185.087l1.729,2.012a7.928,7.928,0,0,0,1.481,3.212c1.774,2.343,4.314,3.239,5.673,2Z" transform="translate(-55.689 -108.848)" fill="#ffb6b6"/>
    <path id="Tracé_4485" data-name="Tracé 4485" d="M65.466,138.639s3.271,18.622,6.993,21.367l7.418-6.345s.649-.031-.559-1.528-.9-4.712-.9-4.712.544.772-.639-.3-.082-8.437-.082-8.437l-12.232-.046Z" transform="translate(-54.177 -106.854)" fill="#ffe5e9"/>
  </g>
  <path id="Tracé_4486" data-name="Tracé 4486" d="M199.052,331.833a.348.348,0,0,1-.331-.294l-.373-1.9A5.921,5.921,0,0,0,193,324.677a5.745,5.745,0,0,0-5.562,3.9l-.935,2.5a.329.329,0,0,1-.442.2.385.385,0,0,1-.185-.485l.935-2.5a6.427,6.427,0,0,1,6.22-4.359,6.62,6.62,0,0,1,5.984,5.549l.373,1.9a.373.373,0,0,1-.26.442A.317.317,0,0,1,199.052,331.833Z" transform="translate(-122.828 -203.432)" fill="#ffb6b6"/>
  <path id="Tracé_4487" data-name="Tracé 4487" d="M200.855,358.116l-.03,0-12.548-1.227a.364.364,0,0,1-.308-.4.35.35,0,0,1,.368-.337l12.548,1.228a.364.364,0,0,1,.308.4A.353.353,0,0,1,200.855,358.116Z" transform="translate(-124.23 -223.666)" fill="#ffb6b6"/>
</svg>
