<svg xmlns="http://www.w3.org/2000/svg" width="429" height="280" viewBox="0 0 429 280">
  <g id="undraw_group_selfie_re_h8gb" transform="translate(0 0)">
    <path id="Path_133" data-name="Path 133" d="M855.569,557.784a88.619,88.619,0,0,1-4.14,24.5c-.056.184-.118.365-.179.549H835.8c.016-.165.033-.349.049-.549,1.03-11.842-4.854-83.054-11.955-95.38C824.518,487.9,856.767,520.157,855.569,557.784Z" transform="translate(-484.363 -327.417)" fill="#6b63ff"/>
    <path id="Path_134" data-name="Path 134" d="M868.995,616.221c-.129.184-.263.368-.4.549H857c.088-.157.19-.341.308-.549,1.914-3.455,7.581-13.786,12.841-24.5,5.651-11.509,10.839-23.455,10.4-27.779C880.69,564.921,884.6,594.648,868.995,616.221Z" transform="translate(-498.948 -361.358)" fill="#8682ff"/>
    <path id="Path_133-2" data-name="Path 133" d="M934.26,603.225a48.578,48.578,0,0,1-2.27,13.429c-.031.1-.065.2-.1.3h-8.469c.009-.09.018-.191.027-.3.565-6.492-2.661-45.532-6.554-52.289C917.237,564.914,934.916,582.6,934.26,603.225Z" transform="translate(-525.333 -361.543)" fill="#6b63ff"/>
    <path id="Path_134-2" data-name="Path 134" d="M941.62,635.262c-.071.1-.144.2-.22.3h-6.354c.048-.086.1-.187.169-.3,1.049-1.894,4.156-7.558,7.04-13.429,3.1-6.31,5.942-12.858,5.7-15.229C948.031,607.138,950.176,623.435,941.62,635.262Z" transform="translate(-533.329 -380.15)" fill="#8682ff"/>
    <path id="Path_133-3" data-name="Path 133" d="M791.259,603.225a48.569,48.569,0,0,1-2.27,13.429c-.031.1-.065.2-.1.3h-8.469c.009-.09.018-.191.027-.3.565-6.492-2.661-45.532-6.554-52.289C774.237,564.914,791.916,582.6,791.259,603.225Z" transform="translate(-462.336 -361.543)" fill="#6b63ff"/>
    <path id="Path_134-3" data-name="Path 134" d="M798.62,635.262c-.071.1-.144.2-.22.3h-6.354c.048-.086.1-.187.169-.3,1.05-1.894,4.156-7.558,7.04-13.429,3.1-6.31,5.942-12.858,5.7-15.229C805.031,607.138,807.176,623.435,798.62,635.262Z" transform="translate(-470.332 -380.15)" fill="#8682ff"/>
    <path id="Tracé_3625" data-name="Tracé 3625" d="M314.573,417.366h8.144l3.874-31.411H314.572Z" transform="translate(-138.579 -170.29)" fill="#ffb7b7"/>
    <path id="Tracé_3626" data-name="Tracé 3626" d="M527.871,638.713h16.038a10.221,10.221,0,0,1,10.22,10.22v.333H527.871Z" transform="translate(-353.954 -394.295)" fill="#2f2e41"/>
    <path id="Tracé_3627" data-name="Tracé 3627" d="M235.762,417.366h8.144l3.874-31.411H235.76Z" transform="translate(-103.86 -170.29)" fill="#ffb7b7"/>
    <path id="Tracé_3628" data-name="Tracé 3628" d="M449.059,638.713H465.1a10.221,10.221,0,0,1,10.22,10.22v.333H449.06Z" transform="translate(-319.235 -394.295)" fill="#2f2e41"/>
    <path id="Tracé_3629" data-name="Tracé 3629" d="M229.832,187.638v82.936l2.1,53.541h17.322l5.774-100.783L266.576,264.8l7.349,58.265,21-1.05L280.749,187.638Z" transform="translate(-101.249 -82.925)" fill="#2f2e41"/>
    <circle id="Ellipse_68" data-name="Ellipse 68" cx="12.598" cy="12.598" r="12.598" transform="translate(136.122 5.244)" fill="#ffb8b8"/>
    <path id="Tracé_3630" data-name="Tracé 3630" d="M251.347,60.275l-3.354,3.542-3.149,70.863,37.268-1.05-8.924-61.939-7.873-7.546-4-3.87Z" transform="translate(-107.862 -26.553)" fill="#8682ff"/>
    <path id="Tracé_3631" data-name="Tracé 3631" d="M451.218,271.862l2.829-4.591.845,9.841s6.824,22.046,6.3,41.468,2.625,65.089-1.575,65.614-22.046,1.575-22.046-2.1-1.05-101.308-1.05-101.308Z" transform="translate(-313.712 -230.399)" fill="#3f3d56"/>
    <path id="Tracé_3632" data-name="Tracé 3632" d="M496.72,267.27l7.144,5.641,15.747,5.774s0,67.188,3.15,82.936,8.923,17.322,1.575,17.847-6.824-2.1-6.824-2.1,5.249-26.246-1.575-31.495-19.947-35.694-18.9-52.491S495.67,267.27,496.72,267.27Z" transform="translate(-340.112 -230.399)" fill="#3f3d56"/>
    <path id="Tracé_3633" data-name="Tracé 3633" d="M458.983,223.149s1.07-1.88.821-8.159,9.313-2.728,17.3-3.327,6.3,10.484,6.3,10.484.576-.659,1.81-6.008-1.568-10.679-1.568-10.679c-.825-5.621-5.273-3.819-5.273-3.819a2.333,2.333,0,0,1,1.731,2.617c-1.813-3.179-6.261-1.377-6.261-1.377-5.932-3.722-11.944,1.18-11.944,1.18-7.166,1.626-2.963,7.325-2.963,7.325C451.732,215.027,458.983,223.149,458.983,223.149Z" transform="translate(-322.181 -201.366)" fill="#2f2e41"/>
    <path id="Tracé_3634" data-name="Tracé 3634" d="M431.147,440.694a5.314,5.314,0,0,0-.942-8.094l2.269-11.93-6.913-3.147-2.968,16.892a5.343,5.343,0,0,0,8.554,6.279Z" transform="translate(-307.27 -296.715)" fill="#ffb7b7"/>
    <path id="Tracé_3635" data-name="Tracé 3635" d="M432.278,290.839l-1.394-.747s-7.53,2.847-7,4.947-4.2,75.587-2.625,78.212,14.173.525,14.173.525Z" transform="translate(-306.844 -240.519)" fill="#3f3d56"/>
    <path id="Tracé_3636" data-name="Tracé 3636" d="M545.1,431.418a5.314,5.314,0,0,1-.187-8.146l-3.9-11.5,6.411-4.074,5.277,16.319a5.343,5.343,0,0,1-7.6,7.4Z" transform="translate(-359.746 -292.38)" fill="#ffb7b7"/>
    <path id="Tracé_3637" data-name="Tracé 3637" d="M530.742,366.419s12.767.336,13.964-2.481-13.65-74.944-13.421-77.1-7.622-3.93-7.622-3.93l-1.277.933Z" transform="translate(-351.538 -237.351)" fill="#3f3d56"/>
    <path id="Tracé_3638" data-name="Tracé 3638" d="M623.166,384.951l-7.9-38.731-3.472-28.607-7.692,4.976,1.063,31.525,12.278,32.663a4.28,4.28,0,1,0,5.728-1.826Z" transform="translate(-387.535 -252.66)" fill="#ffb7b7"/>
    <path id="Tracé_3639" data-name="Tracé 3639" d="M504.618,389.565l2.188-39.469-.725-28.808,10.17,3.8,1.7,31.344-7.4,34.1a4.28,4.28,0,1,1-5.933-.973Z" transform="translate(-342.915 -254.282)" fill="#ffb7b7"/>
    <path id="Tracé_3640" data-name="Tracé 3640" d="M327.1,431.287h5.2l2.472-20.043H327.1Z" transform="translate(-144.098 -181.43)" fill="#ffb7b7"/>
    <path id="Tracé_3641" data-name="Tracé 3641" d="M541.741,645.4h10.234a6.522,6.522,0,0,1,6.522,6.521v.212H541.742Z" transform="translate(-360.065 -397.242)" fill="#2f2e41"/>
    <path id="Tracé_3642" data-name="Tracé 3642" d="M362.281,427.363l5.135.794,5.508-19.43-7.58-1.172Z" transform="translate(-159.597 -179.806)" fill="#ffb7b7"/>
    <path id="Tracé_3643" data-name="Tracé 3643" d="M576.6,640.966l10.113,1.564h0a6.522,6.522,0,0,1,5.448,7.442l-.032.209-16.558-2.561Z" transform="translate(-374.969 -395.288)" fill="#2f2e41"/>
    <path id="Tracé_3644" data-name="Tracé 3644" d="M526.055,520.688l-.027-.145L507.216,418.834a38.42,38.42,0,0,1,3.4-24.026L522,372.036l33.975,4.6,4.01,28.992,14.289,55.307-.014.045-18.307,58.151-12,.789,10.628-51.908-19.461-44.2,1.373,96.083Z" transform="translate(-344.579 -276.815)" fill="#2f2e41"/>
    <path id="Tracé_3645" data-name="Tracé 3645" d="M563.386,344.84l-.224-.351c-.04-.063-4.167-6.281-15.4-2.13-11.464,4.239-20.347-3.948-20.436-4.031l-.044-.041-2.6-23.141-3.065-18.786,9.756-1.712,4.8-2.878,19.074-.34,5.019,3.948,8.241.9.754,17.117,0,.019Z" transform="translate(-351.202 -241.101)" fill="#ff6484"/>
    <path id="Tracé_3646" data-name="Tracé 3646" d="M601.156,318.774V304.117l2.317-4.229.094,0a6.947,6.947,0,0,1,4.8,2.181c2.331,2.368,3.387,6.314,3.138,11.727l0,.1Z" transform="translate(-386.239 -244.822)" fill="#ff6484"/>
    <path id="Tracé_3647" data-name="Tracé 3647" d="M519.587,317.267l-11.811-1.418-.009-.136c-.4-5.89.625-10.262,3.055-12.994a7.492,7.492,0,0,1,4.84-2.635l.068,0,3.2,2.907Z" transform="translate(-345.061 -244.908)" fill="#ff6484"/>
    <path id="Tracé_3648" data-name="Tracé 3648" d="M563.7,255.981h-31.08a2.414,2.414,0,0,1-2.411-2.411V242.317a17.951,17.951,0,0,1,35.9,0v11.253A2.414,2.414,0,0,1,563.7,255.981Z" transform="translate(-354.986 -211.498)" fill="#2f2e41"/>
    <circle id="Ellipse_69" data-name="Ellipse 69" cx="13.161" cy="13.161" r="13.161" transform="translate(180.738 18.05)" fill="#ffb7b7"/>
    <path id="Tracé_3649" data-name="Tracé 3649" d="M564.855,245.123H547.479a1.342,1.342,0,0,1-1.329-1.174l-.225-1.8a.8.8,0,0,0-1.526-.24l-1.139,2.441a1.345,1.345,0,0,1-1.214.773h-2.639a1.339,1.339,0,0,1-1.334-1.467l1.041-10.87a1.35,1.35,0,0,1,.766-1.091,27.171,27.171,0,0,1,23.985.014,1.341,1.341,0,0,1,.758,1.028l1.559,10.856a1.339,1.339,0,0,1-1.326,1.53Z" transform="translate(-358.446 -213.501)" fill="#2f2e41"/>
    <path id="Tracé_3650" data-name="Tracé 3650" d="M593.628,423.67a4.807,4.807,0,0,0,2.576-6.906l11.265-12.842-8.794-1.213-9.349,12.381a4.833,4.833,0,0,0,4.3,8.58Z" transform="translate(-380.07 -290.179)" fill="#9f616a"/>
    <path id="Tracé_3651" data-name="Tracé 3651" d="M396.87,418.372h-7.857l-3.738-30.3h11.6Z" transform="translate(-169.727 -171.22)" fill="#9f616a"/>
    <path id="Tracé_3652" data-name="Tracé 3652" d="M606.644,649.2H581.31v-.321a9.861,9.861,0,0,1,9.86-9.86h15.474Z" transform="translate(-377.496 -394.428)" fill="#2f2e41"/>
    <path id="Tracé_3653" data-name="Tracé 3653" d="M463.716,407.693l-7.5,2.33L443.656,382.19l11.075-3.438Z" transform="translate(-195.445 -167.117)" fill="#9f616a"/>
    <path id="Tracé_3654" data-name="Tracé 3654" d="M684.5,636.13l-24.194,7.511-.1-.306a9.861,9.861,0,0,1,6.493-12.341h0l14.777-4.588Z" transform="translate(-412.059 -388.874)" fill="#2f2e41"/>
    <path id="Path_973" data-name="Path 973" d="M603.093,393.871,591.458,407.2l9.109.82Z" transform="translate(-381.966 -286.278)" fill="#c9ccdb"/>
    <path id="Path_975" data-name="Path 975" d="M600.485,423.514s-4.042,2.021-4.547,11.115,1.516,32.841,1.516,32.841-2.021,10.609,0,20.208-2.021,44.457.505,44.457,15.661,1.516,16.167,0,1.01-24.25,1.01-24.25,4.042-11.62,0-18.691c0,0,14.112,24.642,23.24,43.448,2,4.116,17.177-.505,14.651-5.052s-8.588-25.261-8.588-25.261-4.547-15.156-12.63-21.724l4.042-32.333s8.589-21.724,3.537-24.755S600.485,423.514,600.485,423.514Z" transform="translate(-383.904 -298.83)" fill="#2f2e41"/>
    <circle id="Ellipse_182" data-name="Ellipse 182" cx="13.135" cy="13.135" r="13.135" transform="translate(218.601 16.257)" fill="#a0616a"/>
    <path id="Path_976" data-name="Path 976" d="M631.418,279.187l-16.329,9.6s-6.253,3.521-8.588,9.6c-2.49,6.477-1.043,15.6,0,17.682,2.02,4.042-.848,14.146-.848,14.146l-2.526,23.239s-9.094,8.588-2.021,9.6,19.7-.505,27.281,0,16.167,1.516,13.641-3.537-5.557-8.589-2.526-18.691c2.372-7.907,2.269-37.469,2.112-49.954a10.051,10.051,0,0,0-4.881-8.493Z" transform="translate(-385.03 -235.707)" fill="#c9ccdb"/>
    <path id="Path_980" data-name="Path 980" d="M631.983,307.633l1.515,30.818L618.81,368.2l-2.491-.948,15.156-27.786Z" transform="translate(-392.919 -248.251)" opacity="0.1" style="mix-blend-mode: normal;isolation: isolate"/>
    <path id="Path_982" data-name="Path 982" d="M660.589,371.67v-3.537l-17.175,28.293Z" transform="translate(-404.855 -274.929)" opacity="0.1" style="mix-blend-mode: normal;isolation: isolate"/>
    <path id="Path_983" data-name="Path 983" d="M611.243,226.079l-2.17-.868s4.541-5,10.857-4.564l-1.777-1.956s4.343-1.739,8.291,2.825a38.6,38.6,0,0,1,5.975,8.4h2.326l-.97,2.137,3.4,2.137-3.487-.382a11.827,11.827,0,0,1-.33,5.535l.1,1.689s-4.043-6.257-4.043-7.125v2.174s-2.172-1.956-2.172-3.26l-1.185,1.522-.592-2.39-7.3,2.39,1.184-1.957-4.541.652,1.777-2.39s-5.133,2.825-5.33,5.216-2.763,5.433-2.763,5.433l-1.185-2.174S605.52,229.339,611.243,226.079Z" transform="translate(-388.829 -208.855)" fill="#2f2e41"/>
    <path id="Tracé_3655" data-name="Tracé 3655" d="M624.032,425.493a4.807,4.807,0,0,0,1.309-7.254l8.807-14.637-8.869.367-7,13.844a4.833,4.833,0,0,0,5.757,7.681Z" transform="translate(-393.12 -290.573)" fill="#9f616a"/>
    <path id="Path_981" data-name="Path 981" d="M645.2,290.331l3.789-.758s11.367,8.336,7.831,25.008-19.2,41.932-19.2,41.932-3.537,4.547-4.547,5.557-3.031,0-2.021,1.516-1.516,2.526-1.516,2.526-11.115,0-10.1-4.042,18.188-32.841,18.188-32.841l-2.526-26.776S633.07,289.321,645.2,290.331Z" transform="translate(-394.261 -240.288)" fill="#c9ccdb"/>
    <path id="Tracé_3656" data-name="Tracé 3656" d="M713.205,658.485H371.371a.559.559,0,0,1,0-1.119H713.205a.559.559,0,0,1,0,1.119Z" transform="translate(-284.765 -402.513)" fill="#6b63ff"/>
    <path id="Tracé_3658" data-name="Tracé 3658" d="M333.366,290.1c.123,16.493-10.416,14-23.264,14s-22.144,2.457-23.264-14c-1.78-26.148,5.088-45.729,23.264-45.729C328.9,244.366,333.172,263.947,333.366,290.1Z" transform="translate(-247.652 -220.308)" fill="#2f2e41"/>
    <path id="Tracé_3659" data-name="Tracé 3659" d="M232.894,260.718a6.409,6.409,0,0,1-3.959,8.995l-1.172,22.746-9.532-7.016,2.575-20.525a6.444,6.444,0,0,1,12.089-4.2Z" transform="translate(-217.547 -225.914)" fill="#a0616a"/>
    <path id="Tracé_3660" data-name="Tracé 3660" d="M388.76,468.039a6.409,6.409,0,0,0-2.8-9.421l1.69-22.714-10.337,5.765-.02,20.686a6.444,6.444,0,0,0,11.467,5.684Z" transform="translate(-287.455 -304.829)" fill="#a0616a"/>
    <path id="Tracé_3661" data-name="Tracé 3661" d="M95.984,463.676H103.8l3.717-30.14H95.982Z" transform="translate(-42.283 -191.25)" fill="#a0616a"/>
    <path id="Tracé_3662" data-name="Tracé 3662" d="M309.432,684.214h15.389a9.807,9.807,0,0,1,9.807,9.807v.318h-25.2Z" transform="translate(-257.725 -414.34)" fill="#2f2e41"/>
    <path id="Tracé_3663" data-name="Tracé 3663" d="M184.845,463.676h7.814l3.718-30.14H184.844Z" transform="translate(-81.43 -191.25)" fill="#a0616a"/>
    <path id="Tracé_3664" data-name="Tracé 3664" d="M398.293,684.214h15.389a9.807,9.807,0,0,1,9.807,9.807v.318h-25.2Z" transform="translate(-296.871 -414.34)" fill="#2f2e41"/>
    <path id="Tracé_3665" data-name="Tracé 3665" d="M380.768,409.813l-.34-.062c-2.846-.515-5.727-1.036-8.26-1.581l-.251-.054v-.257c-.043-11.553-.087-23.1-.151-34.76a73.472,73.472,0,0,1-7.346-39.383l.014-.143.117-.084a7.555,7.555,0,0,1,7.614-.589,8.442,8.442,0,0,1,4.334,6.409c2.3,12.553,4.688,25.553,7.347,38.363l.01.047,0,.048c-.985,10.447-2,21.25-3.05,31.7Z" transform="translate(-281.813 -259.071)" fill="#cdc9ff"/>
    <path id="Tracé_3666" data-name="Tracé 3666" d="M341.594,553.379l-.062-.294c-3.656-17.291-7.184-31.372-10.6-44.989-4.09-16.319-7.965-31.783-11.877-51.794.537,25.235,1.785,43.366,3.22,64.206.648,9.41,1.318,19.14,2,30.5l.021.347-.347-.009c-12.23-.313-24.759-1.069-36.877-1.8l-.321-.019.022-.321c2.294-33.815,3.013-55.788,3.538-71.833,1.107-33.85,1.278-39.053,13.887-67.7.478-1.087,3.329-4.3,6.465-3.809l24.808,3.861.043.218c.7,3.526,4.174,14.226,8.982,29.035,10.278,31.658,25.811,79.5,30.663,108.017l.055.323-.324.046c-7.048,1-12.12,2.045-17.026,3.053-4.641.955-9.44,1.941-15.973,2.916Z" transform="translate(-247.733 -291.696)" fill="#2f2e41"/>
    <path id="Tracé_3667" data-name="Tracé 3667" d="M320.075,380.6a25.887,25.887,0,0,1-17.857-6.77,5.3,5.3,0,0,1-2.612-4.116,5.369,5.369,0,0,1,1.261-4.356c-4.6-5.568-9.349-11.322-13.9-17.182l-.126-.162.146-.278c2.974-5.683,6.05-11.559,9-17.365a3.034,3.034,0,0,1,2.474-1.874,3.528,3.528,0,0,1,2.724.609l.006-.141c.123-2.939.247-5.878.374-8.664l.014-.3.3-.007c5.679-.125,11.551-.255,17.32-.6l.22-.013,2.861,6.382a23.4,23.4,0,0,1,13.425,2.725l.189.1-.022.213a129.937,129.937,0,0,0,.745,32.943c-.089,4.979-.185,10.068-1.2,14.124l-.029.118-.1.068A27.217,27.217,0,0,1,320.075,380.6Z" transform="translate(-247.775 -253.438)" fill="#cdc9ff"/>
    <path id="Tracé_3668" data-name="Tracé 3668" d="M264.937,340.4l-.381-.175c-4.449-2.232-8.912-4.708-13.228-7.1l-.6-.116c-11.364-2.281-17.624-3.537-27.876-9.549l-.079-.047-.042-.081c-5.134-9.807-6.565-18.379-5.283-31.628l.026-.266.266-.021c1.111-.09,2.923-.151,4.675-.209,1.7-.057,3.466-.116,4.547-.2l.251-.02.078.239c1.343,4.149,2.485,8.019,3.693,12.116,1.242,4.212,2.526,8.565,4.089,13.4,5.725,1.645,21.071,1.153,25.843.5a8.538,8.538,0,0,1,7.455,3.39l.089.111-.023.14c-1.051,6.411-2.257,12.86-3.423,19.1Z" transform="translate(-217.01 -240.904)" fill="#cdc9ff"/>
    <circle id="Ellipse_70" data-name="Ellipse 70" cx="15.655" cy="15.655" r="15.655" transform="translate(40.919 54.801) rotate(-61.337)" fill="#a0616a"/>
    <path id="Tracé_3669" data-name="Tracé 3669" d="M296.166,273.469h6.192l2.732-7.649.546,7.649H308.6l1.593-4.462.319,4.462H332.5A16.572,16.572,0,0,0,315.925,256.9h-3.187a16.572,16.572,0,0,0-16.572,16.572Z" transform="translate(-251.881 -225.829)" fill="#2f2e41"/>
  </g>
</svg>
