<svg xmlns="http://www.w3.org/2000/svg" xmlns:xlink="http://www.w3.org/1999/xlink" width="152.973" height="65.033" viewBox="0 0 152.973 65.033">
  <defs>
    <clipPath id="clip-path">
      <rect id="Rectangle_286" data-name="Rectangle 286" width="152.973" height="65.033" fill="none"/>
    </clipPath>
  </defs>
  <g id="Groupe_1442" data-name="Groupe 1442" transform="translate(0 0)">
    <g id="Groupe_1441" data-name="Groupe 1441" transform="translate(0 0)" clip-path="url(#clip-path)">
      <path id="Tracé_7495" data-name="Tracé 7495" d="M14.01,15.7a28.744,28.744,0,0,1-1.265-4.57h-.087a36.1,36.1,0,0,1-1.3,4.9l-1.8,5.193h6.371Zm5.224,15.649-1.714-5.11H8.006l-1.675,5.11H0L9.314,3.778h7.23L26.22,31.352Z" transform="translate(0 -1.165)" fill="#322e4e"/>
      <path id="Tracé_7496" data-name="Tracé 7496" d="M52.632,18.788c-2.119,0-3.549,2.451-3.549,5.839V29.61a7.849,7.849,0,0,0,2.124.249c2.407,0,4.247-1.557,4.247-6.087,0-3.389-.9-4.984-2.821-4.984M39.28,18.421v-4a63.624,63.624,0,0,1,9.27-.366,18.29,18.29,0,0,1-.165,2.94h.083A6.418,6.418,0,0,1,54.59,13.64c4.862,0,7.4,3.6,7.4,9.478,0,6.942-3.511,11.6-10.823,11.6a10.491,10.491,0,0,1-2.08-.162V44.07H42.829V18.831c-.981-.165-2.368-.327-3.549-.41" transform="translate(-12.118 -4.208)" fill="#322e4e"/>
      <path id="Tracé_7497" data-name="Tracé 7497" d="M85.261,17.665h.083c1.064-2.413,2.982-4.293,6.126-4.086l-.331,6.166C87.751,18.973,86,20.931,86,25.99v8.38H79.749V18.807c-.981-.165-2.372-.327-3.554-.409v-4a64.559,64.559,0,0,1,9.354-.366,25.248,25.248,0,0,1-.288,3.637" transform="translate(-23.506 -4.184)" fill="#322e4e"/>
      <path id="Tracé_7498" data-name="Tracé 7498" d="M113.343,31.616c-4.7,0-6.214-1.552-6.214-6.536V15.651h-3.061V10.866h3.061v-6l6.214-1.673v7.673h4.409v4.785h-4.374v8c0,2.08.536,2.778,2.084,2.778a10.335,10.335,0,0,0,2.29-.327v4.937a19.216,19.216,0,0,1-4.409.575" transform="translate(-32.105 -0.985)" fill="#322e4e"/>
      <path id="Tracé_7499" data-name="Tracé 7499" d="M144.187,5.387a7.489,7.489,0,0,0-2.254-.364c-1.876,0-2.734.9-2.734,3.063V9.881h4.168v4.785H139.2V30.185h-6.206V14.666h-3.109V9.881h3.109V8.126c0-5.392,2.4-8.126,8.333-8.126a14.808,14.808,0,0,1,3.267.324Z" transform="translate(-40.07 0)" fill="#322e4e"/>
      <path id="Tracé_7500" data-name="Tracé 7500" d="M186.425,1.168h.521c.07.708-1.089.721-1.057.039.142-.049.393.012.535-.039" transform="translate(-57.347 -0.36)" fill="#6b63ff"/>
      <path id="Tracé_7501" data-name="Tracé 7501" d="M189.809,1.2c.419.031.862.05,1.248.115-.063.707-1.3.656-1.248-.115" transform="translate(-58.556 -0.369)" fill="#6b63ff"/>
      <path id="Tracé_7502" data-name="Tracé 7502" d="M192.372,1.7a.661.661,0,0,1,.75.634c.023.987-1.43.822-1.35-.062a.618.618,0,0,1,.6-.573" transform="translate(-59.161 -0.521)" fill="#6b63ff"/>
      <path id="Tracé_7503" data-name="Tracé 7503" d="M193.859,1.724a9.287,9.287,0,0,1,1.057.21.726.726,0,0,1-1.057-.21" transform="translate(-59.806 -0.532)" fill="#6b63ff"/>
      <path id="Tracé_7504" data-name="Tracé 7504" d="M188.312,1.829a.553.553,0,0,1,.694.538.591.591,0,0,1-1.136.23.56.56,0,0,1,.443-.768" transform="translate(-57.947 -0.56)" fill="#6b63ff"/>
      <path id="Tracé_7505" data-name="Tracé 7505" d="M184.3,1.967a.465.465,0,0,1,.591.444.489.489,0,1,1-.978,0,.439.439,0,0,1,.387-.444" transform="translate(-56.739 -0.603)" fill="#6b63ff"/>
      <path id="Tracé_7506" data-name="Tracé 7506" d="M180.034,2.286c.155-.045.284-.18.443-.174.489.021.333.875-.208.748a.412.412,0,0,1-.234-.575" transform="translate(-55.529 -0.651)" fill="#6b63ff"/>
      <path id="Tracé_7507" data-name="Tracé 7507" d="M171.838,2.212a3.759,3.759,0,0,1,.73-.02c.539.591-.588,1.126-.808.5a.509.509,0,0,1,.079-.477" transform="translate(-52.98 -0.672)" fill="#6b63ff"/>
      <path id="Tracé_7508" data-name="Tracé 7508" d="M197.213,2.61c-.142,1.1-1.912.642-1.436-.444a12.988,12.988,0,0,1,1.436.444" transform="translate(-60.372 -0.668)" fill="#6b63ff"/>
      <path id="Tracé_7509" data-name="Tracé 7509" d="M175.937,2.615a2.628,2.628,0,0,1,.638.306.382.382,0,0,1-.638-.306" transform="translate(-54.276 -0.806)" fill="#6b63ff"/>
      <path id="Tracé_7510" data-name="Tracé 7510" d="M194.392,3.054a.713.713,0,1,1,.1,1.422.713.713,0,0,1-.1-1.422" transform="translate(-59.777 -0.94)" fill="#6b63ff"/>
      <path id="Tracé_7511" data-name="Tracé 7511" d="M198.285,3.114a2.076,2.076,0,0,1,.947.5.73.73,0,0,1-.369.809.744.744,0,0,1-1-.96.692.692,0,0,1,.423-.347" transform="translate(-61.022 -0.96)" fill="#6b63ff"/>
      <path id="Tracé_7512" data-name="Tracé 7512" d="M190.349,3.192a.628.628,0,0,1,.694.4c.268.913-1.222,1.133-1.232.212a.572.572,0,0,1,.538-.616" transform="translate(-58.557 -0.982)" fill="#6b63ff"/>
      <path id="Tracé_7513" data-name="Tracé 7513" d="M170.517,4.236a5.863,5.863,0,0,1-.869-.286c-.152-.739.931-.817,1.043-.233a.552.552,0,0,1-.175.519" transform="translate(-52.332 -1.027)" fill="#6b63ff"/>
      <path id="Tracé_7514" data-name="Tracé 7514" d="M186.314,3.33a.512.512,0,0,1,.614.325c.268.85-1.126.975-1.04.116a.487.487,0,0,1,.426-.441" transform="translate(-57.346 -1.023)" fill="#6b63ff"/>
      <path id="Tracé_7515" data-name="Tracé 7515" d="M174.181,3.468c.723-.145.667.981-.019.847a.444.444,0,0,1,.019-.847" transform="translate(-53.636 -1.066)" fill="#6b63ff"/>
      <path id="Tracé_7516" data-name="Tracé 7516" d="M182.3,3.468a.437.437,0,0,1,.214.847c-.555.1-.759-.73-.214-.847" transform="translate(-56.141 -1.066)" fill="#6b63ff"/>
      <path id="Tracé_7517" data-name="Tracé 7517" d="M178.285,3.607c.638-.164.5.81-.02.649-.225-.066-.346-.559.02-.649" transform="translate(-54.929 -1.107)" fill="#6b63ff"/>
      <path id="Tracé_7518" data-name="Tracé 7518" d="M196.408,4.416a.737.737,0,0,1,.828.732c.024.944-1.539,1.082-1.539.017a.717.717,0,0,1,.71-.748" transform="translate(-60.373 -1.361)" fill="#6b63ff"/>
      <path id="Tracé_7519" data-name="Tracé 7519" d="M192.382,4.551a.667.667,0,0,1,.119,1.328.683.683,0,0,1-.4-1.249.645.645,0,0,1,.284-.079" transform="translate(-59.171 -1.402)" fill="#6b63ff"/>
      <path id="Tracé_7520" data-name="Tracé 7520" d="M201.14,5.556a.677.677,0,0,1-1.245-.328c-.01-.254.221-.687.535-.674.175.01.34.312.426.445.136.2.182.375.284.557" transform="translate(-61.668 -1.405)" fill="#6b63ff"/>
      <path id="Tracé_7521" data-name="Tracé 7521" d="M188.312,4.693a.551.551,0,0,1,.694.536.592.592,0,0,1-1.136.23.556.556,0,0,1,.443-.765" transform="translate(-57.947 -1.444)" fill="#6b63ff"/>
      <path id="Tracé_7522" data-name="Tracé 7522" d="M172.691,5.554a1.917,1.917,0,0,0-.753-.578c.317-.461,1.1.081.753.578" transform="translate(-53.043 -1.481)" fill="#6b63ff"/>
      <path id="Tracé_7523" data-name="Tracé 7523" d="M184.306,4.829c.772-.157.739,1.086-.026.941a.484.484,0,0,1,.026-.941" transform="translate(-56.74 -1.485)" fill="#6b63ff"/>
      <path id="Tracé_7524" data-name="Tracé 7524" d="M176.222,4.97a.378.378,0,0,1,.479.479.409.409,0,0,1-.769,0,.359.359,0,0,1,.29-.479" transform="translate(-54.27 -1.529)" fill="#6b63ff"/>
      <path id="Tracé_7525" data-name="Tracé 7525" d="M180.287,4.964a.444.444,0,0,1,.212-.021c.409.094.356.9-.228.768a.391.391,0,0,1,.016-.746" transform="translate(-55.532 -1.523)" fill="#6b63ff"/>
      <path id="Tracé_7526" data-name="Tracé 7526" d="M194.393,5.917a.692.692,0,0,1,.75.423.735.735,0,0,1-.654,1,.714.714,0,0,1-.1-1.422" transform="translate(-59.779 -1.823)" fill="#6b63ff"/>
      <path id="Tracé_7527" data-name="Tracé 7527" d="M198.442,5.917a.721.721,0,0,1,.806.69.73.73,0,0,1-1.442.136.685.685,0,0,1,.637-.826" transform="translate(-61.02 -1.823)" fill="#6b63ff"/>
      <path id="Tracé_7528" data-name="Tracé 7528" d="M190.349,6.055a.626.626,0,1,1-.538.614.565.565,0,0,1,.538-.614" transform="translate(-58.557 -1.865)" fill="#6b63ff"/>
      <path id="Tracé_7529" data-name="Tracé 7529" d="M186.311,6.19a.516.516,0,0,1,.614.324c.244.766-.842.91-1.023.366a.519.519,0,0,1,.409-.69" transform="translate(-57.342 -1.906)" fill="#6b63ff"/>
      <path id="Tracé_7530" data-name="Tracé 7530" d="M174.181,6.326c.723-.142.667.985-.019.851a.446.446,0,0,1,.019-.851" transform="translate(-53.636 -1.948)" fill="#6b63ff"/>
      <path id="Tracé_7531" data-name="Tracé 7531" d="M182.3,6.326a.439.439,0,0,1,.214.851c-.555.1-.763-.73-.214-.851" transform="translate(-56.141 -1.947)" fill="#6b63ff"/>
      <path id="Tracé_7532" data-name="Tracé 7532" d="M178.285,6.465c.618-.157.519.822-.02.652-.214-.063-.357-.555.02-.652" transform="translate(-54.929 -1.989)" fill="#6b63ff"/>
      <path id="Tracé_7533" data-name="Tracé 7533" d="M202.024,6.664c.37.142.828.213,1.192.366-.142.713-1.453.485-1.192-.366" transform="translate(-62.314 -2.056)" fill="#6b63ff"/>
      <path id="Tracé_7534" data-name="Tracé 7534" d="M196.408,7.278a.735.735,0,0,1,.828.726.77.77,0,0,1-1.539.02.742.742,0,0,1,.71-.746" transform="translate(-60.373 -2.244)" fill="#6b63ff"/>
      <path id="Tracé_7535" data-name="Tracé 7535" d="M192.382,7.414a.667.667,0,0,1,.119,1.328.682.682,0,0,1-.4-1.248.644.644,0,0,1,.284-.08" transform="translate(-59.171 -2.285)" fill="#6b63ff"/>
      <path id="Tracé_7536" data-name="Tracé 7536" d="M200.492,7.413a.665.665,0,1,1,.056,1.328.711.711,0,0,1-.653-.656.631.631,0,0,1,.6-.672" transform="translate(-61.668 -2.284)" fill="#6b63ff"/>
      <path id="Tracé_7537" data-name="Tracé 7537" d="M188.312,7.556a.548.548,0,0,1,.694.532.592.592,0,0,1-1.136.233.557.557,0,0,1,.443-.765" transform="translate(-57.947 -2.327)" fill="#6b63ff"/>
      <path id="Tracé_7538" data-name="Tracé 7538" d="M204.446,7.607c-.007-.018.006-.019.016-.019a4.739,4.739,0,0,1,.44.267c.119.081.333.213.35.345.039.3-.333.535-.657.5a.577.577,0,0,1-.149-1.091" transform="translate(-62.969 -2.341)" fill="#6b63ff"/>
      <path id="Tracé_7539" data-name="Tracé 7539" d="M172.105,7.69a.478.478,0,0,1,.575.632A.49.49,0,0,1,171.755,8a.449.449,0,0,1,.35-.306" transform="translate(-52.98 -2.368)" fill="#6b63ff"/>
      <path id="Tracé_7540" data-name="Tracé 7540" d="M184.3,7.69a.463.463,0,0,1,.591.44.489.489,0,0,1-.978.019.434.434,0,0,1,.387-.459" transform="translate(-56.739 -2.368)" fill="#6b63ff"/>
      <path id="Tracé_7541" data-name="Tracé 7541" d="M176.233,7.828a.39.39,0,0,1,.212.75c-.5.112-.707-.641-.212-.75" transform="translate(-54.281 -2.411)" fill="#6b63ff"/>
      <path id="Tracé_7542" data-name="Tracé 7542" d="M180.287,7.823a.46.46,0,0,1,.212-.018c.409.092.356.9-.228.768a.394.394,0,0,1,.016-.75" transform="translate(-55.532 -2.406)" fill="#6b63ff"/>
      <path id="Tracé_7543" data-name="Tracé 7543" d="M194.371,8.775a.715.715,0,1,1,.142,1.423.715.715,0,0,1-.142-1.423" transform="translate(-59.779 -2.704)" fill="#6b63ff"/>
      <path id="Tracé_7544" data-name="Tracé 7544" d="M199.139,9.845c-.307.091-.631.162-.921.271a.729.729,0,0,1,.25-1.364.717.717,0,0,1,.671,1.093" transform="translate(-61.031 -2.699)" fill="#6b63ff"/>
      <path id="Tracé_7545" data-name="Tracé 7545" d="M190.358,8.914c.921-.132.908,1.308.017,1.228a.646.646,0,0,1-.254-1.169.6.6,0,0,1,.238-.059" transform="translate(-58.566 -2.747)" fill="#6b63ff"/>
      <path id="Tracé_7546" data-name="Tracé 7546" d="M203.256,9.572c-.413.025-.839.038-1.254.058a.63.63,0,1,1,1.254-.058" transform="translate(-62.315 -2.752)" fill="#6b63ff"/>
      <path id="Tracé_7547" data-name="Tracé 7547" d="M170.13,9.026c.915-.056.571,1.43-.231,1-.112-.063-.29-.251-.264-.423s.389-.429.5-.578" transform="translate(-52.332 -2.784)" fill="#6b63ff"/>
      <path id="Tracé_7548" data-name="Tracé 7548" d="M186.308,9.054a.522.522,0,0,1,.614.69c-.181.558-1.268.4-1.023-.365a.519.519,0,0,1,.409-.325" transform="translate(-57.339 -2.789)" fill="#6b63ff"/>
      <path id="Tracé_7549" data-name="Tracé 7549" d="M174.181,9.191c.723-.144.667.982-.019.842a.44.44,0,0,1,.019-.842" transform="translate(-53.636 -2.831)" fill="#6b63ff"/>
      <path id="Tracé_7550" data-name="Tracé 7550" d="M182.3,9.191a.434.434,0,0,1,.214.842c-.551.107-.763-.725-.214-.842" transform="translate(-56.141 -2.831)" fill="#6b63ff"/>
      <path id="Tracé_7551" data-name="Tracé 7551" d="M178.285,9.328c.618-.16.519.817-.02.652-.214-.064-.357-.558.02-.652" transform="translate(-54.929 -2.872)" fill="#6b63ff"/>
      <path id="Tracé_7552" data-name="Tracé 7552" d="M197.179,10.642c-.489.138-.961.3-1.443.443-.317-.964,1.245-1.3,1.443-.443" transform="translate(-60.372 -3.131)" fill="#6b63ff"/>
      <path id="Tracé_7553" data-name="Tracé 7553" d="M192.366,10.275A.666.666,0,1,1,192.5,11.6a.686.686,0,0,1-.413-1.247.759.759,0,0,1,.277-.079" transform="translate(-59.171 -3.167)" fill="#6b63ff"/>
      <path id="Tracé_7554" data-name="Tracé 7554" d="M188.311,10.41a.553.553,0,0,1,.694.538.584.584,0,1,1-1.136-.192.577.577,0,0,1,.443-.346" transform="translate(-57.946 -3.208)" fill="#6b63ff"/>
      <path id="Tracé_7555" data-name="Tracé 7555" d="M172.11,10.549a.486.486,0,0,1,.234.943c-.624.118-.852-.812-.234-.943" transform="translate(-52.984 -3.25)" fill="#6b63ff"/>
      <path id="Tracé_7556" data-name="Tracé 7556" d="M184.306,10.549c.772-.154.733,1.088-.026.943a.485.485,0,0,1,.026-.943" transform="translate(-56.74 -3.25)" fill="#6b63ff"/>
      <path id="Tracé_7557" data-name="Tracé 7557" d="M168.7,10.665a.575.575,0,0,1-.6.943,6.263,6.263,0,0,1,.6-.943" transform="translate(-51.859 -3.29)" fill="#6b63ff"/>
      <path id="Tracé_7558" data-name="Tracé 7558" d="M176.233,10.688c.558-.127.618.659.212.75-.5.111-.707-.638-.212-.75" transform="translate(-54.281 -3.293)" fill="#6b63ff"/>
      <path id="Tracé_7559" data-name="Tracé 7559" d="M180.284,10.688a.388.388,0,0,1,.251.732c-.482.165-.8-.6-.251-.732" transform="translate(-55.529 -3.293)" fill="#6b63ff"/>
      <path id="Tracé_7560" data-name="Tracé 7560" d="M190.349,11.777a.614.614,0,0,1,.71.728.632.632,0,0,1-1.248-.113.563.563,0,0,1,.538-.615" transform="translate(-58.557 -3.631)" fill="#6b63ff"/>
      <path id="Tracé_7561" data-name="Tracé 7561" d="M170.058,11.914a.642.642,0,0,1,.482.112.591.591,0,0,1,0,.791c-.653.6-1.367-.73-.482-.9" transform="translate(-52.336 -3.672)" fill="#6b63ff"/>
      <path id="Tracé_7562" data-name="Tracé 7562" d="M186.308,11.914a.523.523,0,0,1,.614.691c-.181.553-1.268.4-1.023-.366a.532.532,0,0,1,.409-.325" transform="translate(-57.339 -3.671)" fill="#6b63ff"/>
      <path id="Tracé_7563" data-name="Tracé 7563" d="M174.181,12.051c.723-.143.667.981-.019.844a.441.441,0,0,1,.019-.844" transform="translate(-53.636 -3.714)" fill="#6b63ff"/>
      <path id="Tracé_7564" data-name="Tracé 7564" d="M182.3,12.051a.433.433,0,0,1,.192.844.433.433,0,0,1-.192-.844" transform="translate(-56.14 -3.713)" fill="#6b63ff"/>
      <path id="Tracé_7565" data-name="Tracé 7565" d="M178.284,12.188c.618-.158.519.817-.02.653-.214-.062-.36-.558.02-.653" transform="translate(-54.928 -3.754)" fill="#6b63ff"/>
      <path id="Tracé_7566" data-name="Tracé 7566" d="M168,13.272a.548.548,0,0,1,.694.536.592.592,0,0,1-1.136.233.566.566,0,0,1,.443-.769" transform="translate(-51.68 -4.09)" fill="#6b63ff"/>
      <path id="Tracé_7567" data-name="Tracé 7567" d="M188.011,14.218c0-.122.056-.183.039-.308-.013-.073-.142-.035-.188-.076a.576.576,0,1,1,.149.384" transform="translate(-57.956 -4.094)" fill="#6b63ff"/>
      <path id="Tracé_7568" data-name="Tracé 7568" d="M172.11,13.412a.485.485,0,0,1,.234.941c-.624.118-.852-.811-.234-.941" transform="translate(-52.984 -4.133)" fill="#6b63ff"/>
      <path id="Tracé_7569" data-name="Tracé 7569" d="M184.893,13.934c-.3.056-.647.071-.938.136-.3-.757,1.008-.923.938-.136" transform="translate(-56.736 -4.139)" fill="#6b63ff"/>
      <path id="Tracé_7570" data-name="Tracé 7570" d="M176.214,13.543a.543.543,0,0,1,.231-.02c.4.1.327.9-.231.77-.254-.058-.433-.631,0-.75" transform="translate(-54.281 -4.17)" fill="#6b63ff"/>
      <path id="Tracé_7571" data-name="Tracé 7571" d="M180.284,13.548a.388.388,0,0,1,.251.732c-.482.167-.8-.6-.251-.732" transform="translate(-55.529 -4.175)" fill="#6b63ff"/>
      <path id="Tracé_7572" data-name="Tracé 7572" d="M190.831,14.746a5.609,5.609,0,0,1-.578,1.078.6.6,0,0,1-.443-.578.634.634,0,0,1,1.021-.5" transform="translate(-58.557 -4.508)" fill="#6b63ff"/>
      <path id="Tracé_7573" data-name="Tracé 7573" d="M165.931,15.818c.119-.423.337-.756.482-1.151.763.193.367,1.547-.482,1.151" transform="translate(-51.19 -4.525)" fill="#6b63ff"/>
      <path id="Tracé_7574" data-name="Tracé 7574" d="M170.058,14.775a.647.647,0,0,1,.482.114.584.584,0,0,1,0,.786c-.653.609-1.367-.725-.482-.9" transform="translate(-52.336 -4.555)" fill="#6b63ff"/>
      <path id="Tracé_7575" data-name="Tracé 7575" d="M174.246,15.036c.753-.178.68.976,0,.845a.445.445,0,0,1,0-.845" transform="translate(-53.661 -4.632)" fill="#6b63ff"/>
      <path id="Tracé_7576" data-name="Tracé 7576" d="M178.449,15.04s-.489.129-.641.18c-.241-.268.113-.66.416-.507.152.076.152.1.225.327" transform="translate(-54.83 -4.528)" fill="#6b63ff"/>
      <path id="Tracé_7577" data-name="Tracé 7577" d="M168,16.133a.576.576,0,0,1,.694.558c0,.885-1.443.657-1.136-.211a.579.579,0,0,1,.443-.347" transform="translate(-51.677 -4.974)" fill="#6b63ff"/>
      <path id="Tracé_7578" data-name="Tracé 7578" d="M188.312,16.132a.552.552,0,0,1,.694.558c0,.883-1.42.665-1.136-.211a.574.574,0,0,1,.443-.347" transform="translate(-57.946 -4.973)" fill="#6b63ff"/>
      <path id="Tracé_7579" data-name="Tracé 7579" d="M172.11,16.267a.486.486,0,0,1,.234.943.486.486,0,0,1-.234-.943" transform="translate(-52.984 -5.014)" fill="#6b63ff"/>
      <path id="Tracé_7580" data-name="Tracé 7580" d="M165.955,17.494a.81.81,0,0,1,.346.021c.654.256.37,1.5-.482,1.171a.628.628,0,0,1,.136-1.192" transform="translate(-51.039 -5.394)" fill="#6b63ff"/>
      <path id="Tracé_7581" data-name="Tracé 7581" d="M170.055,17.633a.623.623,0,0,1,.482.115.55.55,0,0,1-.446.923.5.5,0,0,1-.456-.555.472.472,0,0,1,.42-.483" transform="translate(-52.332 -5.437)" fill="#6b63ff"/>
      <path id="Tracé_7582" data-name="Tracé 7582" d="M168,19a.575.575,0,0,1,.694.556c0,.885-1.443.66-1.136-.21A.573.573,0,0,1,168,19" transform="translate(-51.677 -5.857)" fill="#6b63ff"/>
      <path id="Tracé_7583" data-name="Tracé 7583" d="M164.762,19.057a.681.681,0,0,1-.33,1.189,7.56,7.56,0,0,1,.33-1.189" transform="translate(-50.727 -5.879)" fill="#6b63ff"/>
      <path id="Tracé_7584" data-name="Tracé 7584" d="M165.944,20.357a.622.622,0,0,1,.694.845c-.3.778-1.585.225-1.136-.558a.622.622,0,0,1,.443-.287" transform="translate(-51.028 -6.277)" fill="#6b63ff"/>
      <path id="Tracé_7585" data-name="Tracé 7585" d="M163.773,22.922a11.349,11.349,0,0,1,.288-1.23.675.675,0,0,1,.115,1.346.74.74,0,0,1-.4-.115" transform="translate(-50.524 -6.691)" fill="#6b63ff"/>
      <path id="Tracé_7586" data-name="Tracé 7586" d="M168.256,21.857a9.683,9.683,0,0,0-.541.949.547.547,0,0,1,.541-.949" transform="translate(-51.662 -6.728)" fill="#6b63ff"/>
      <path id="Tracé_7587" data-name="Tracé 7587" d="M165.944,23.217a.622.622,0,0,1,.694.845c-.3.781-1.585.225-1.136-.556a.617.617,0,0,1,.443-.289" transform="translate(-51.028 -7.159)" fill="#6b63ff"/>
      <path id="Tracé_7588" data-name="Tracé 7588" d="M162.562,23.607a.7.7,0,0,1-.593,1.058.735.735,0,0,1-.737-.632c.439-.149.871-.3,1.33-.426" transform="translate(-49.74 -7.283)" fill="#6b63ff"/>
      <path id="Tracé_7589" data-name="Tracé 7589" d="M159.152,25.037a5.059,5.059,0,0,1,.921-.5c.02-.013.037-.046.076-.038.792.156.618,1.459-.232,1.479a.77.77,0,0,1-.765-.943" transform="translate(-49.097 -7.558)" fill="#6b63ff"/>
      <path id="Tracé_7590" data-name="Tracé 7590" d="M163.9,24.581a.659.659,0,0,1,.73.382c.364.93-.977,1.224-1.251.539a.664.664,0,0,1,.521-.921" transform="translate(-50.387 -7.58)" fill="#6b63ff"/>
      <path id="Tracé_7591" data-name="Tracé 7591" d="M168.18,25.908a.585.585,0,0,1-.439-1.02,7.45,7.45,0,0,1,.439,1.02" transform="translate(-51.689 -7.678)" fill="#6b63ff"/>
      <path id="Tracé_7592" data-name="Tracé 7592" d="M161.861,25.939a.714.714,0,1,1,.115,1.423.714.714,0,0,1-.115-1.423" transform="translate(-49.748 -7.999)" fill="#6b63ff"/>
      <path id="Tracé_7593" data-name="Tracé 7593" d="M158.034,25.943c.875.111.7,1.427-.115,1.423a.723.723,0,0,1-.653-.425,3.556,3.556,0,0,1,.769-1" transform="translate(-48.516 -8.003)" fill="#6b63ff"/>
      <path id="Tracé_7594" data-name="Tracé 7594" d="M165.959,26.078c1.073-.177.855,1.573-.136,1.19a.629.629,0,0,1,.136-1.19" transform="translate(-51.043 -8.041)" fill="#6b63ff"/>
      <path id="Tracé_7595" data-name="Tracé 7595" d="M160.472,28.545c-.281-.025-.7.175-1.017.094-.194-.046-.32-.358-.324-.575a.843.843,0,0,1,.423-.709.768.768,0,0,1,.918,1.19" transform="translate(-49.092 -8.414)" fill="#6b63ff"/>
      <path id="Tracé_7596" data-name="Tracé 7596" d="M164.4,28.663c-.367-.069-.974-.432-.888-.923.039-.2.284-.31.465-.328a.68.68,0,0,1,.423,1.252" transform="translate(-50.441 -8.455)" fill="#6b63ff"/>
      <path id="Tracé_7597" data-name="Tracé 7597" d="M167.98,27.577a.566.566,0,0,1,.69.671c-.073.751-1.41.5-1.116-.326a.578.578,0,0,1,.426-.345" transform="translate(-51.678 -8.503)" fill="#6b63ff"/>
      <path id="Tracé_7598" data-name="Tracé 7598" d="M156.682,28.754v-.272a1.81,1.81,0,0,1,.231-.593c.221.3,0,.9-.231.865" transform="translate(-48.337 -8.604)" fill="#6b63ff"/>
      <path id="Tracé_7599" data-name="Tracé 7599" d="M157.561,29.189h-.268c.115-.51,1.113-.5,1.232-.059-.294.051-.664.017-.965.059" transform="translate(-48.525 -8.885)" fill="#6b63ff"/>
      <path id="Tracé_7600" data-name="Tracé 7600" d="M166.194,29.23h-.621c.116-.395.928-.38,1.023-.041a3.249,3.249,0,0,0-.4.041" transform="translate(-51.079 -8.926)" fill="#6b63ff"/>
      <path id="Tracé_7601" data-name="Tracé 7601" d="M186.574,18.928c.142-.01.284-.021.432-.028.1.581-.868.659-.875.089.119-.048.331-.012.443-.061" transform="translate(-57.422 -5.83)" fill="#ff6484"/>
      <path id="Tracé_7602" data-name="Tracé 7602" d="M189.369,18.785c.356,0,.72-.01,1.043.025-.01.589-1.043.616-1.043-.025" transform="translate(-58.421 -5.795)" fill="#ff6484"/>
      <path id="Tracé_7603" data-name="Tracé 7603" d="M191.539,19.032a.558.558,0,0,1,.664.483c.069.819-1.142.763-1.12.028a.51.51,0,0,1,.456-.512" transform="translate(-58.949 -5.868)" fill="#ff6484"/>
      <path id="Tracé_7604" data-name="Tracé 7604" d="M192.769,18.991a8.438,8.438,0,0,1,.885.118.6.6,0,0,1-.885-.118" transform="translate(-59.469 -5.858)" fill="#ff6484"/>
      <path id="Tracé_7605" data-name="Tracé 7605" d="M188.192,19.377a.453.453,0,0,1,.6.406.487.487,0,0,1-.921.256.465.465,0,0,1,.324-.662" transform="translate(-57.944 -5.972)" fill="#ff6484"/>
      <path id="Tracé_7606" data-name="Tracé 7606" d="M184.873,19.722a.376.376,0,0,1,.512.33.4.4,0,1,1-.806.058.355.355,0,0,1,.294-.388" transform="translate(-56.943 -6.078)" fill="#ff6484"/>
      <path id="Tracé_7607" data-name="Tracé 7607" d="M181.355,20.225c.122-.043.221-.164.353-.165.409-.008.32.707-.132.631a.336.336,0,0,1-.221-.465" transform="translate(-55.941 -6.188)" fill="#ff6484"/>
      <path id="Tracé_7608" data-name="Tracé 7608" d="M174.555,20.623a3.681,3.681,0,0,1,.608-.059c.479.464-.423.971-.64.464a.44.44,0,0,1,.033-.4" transform="translate(-53.83 -6.343)" fill="#ff6484"/>
      <path id="Tracé_7609" data-name="Tracé 7609" d="M195.6,19.535c-.056.925-1.539.641-1.215-.284a9.943,9.943,0,0,1,1.215.284" transform="translate(-59.953 -5.939)" fill="#ff6484"/>
      <path id="Tracé_7610" data-name="Tracé 7610" d="M177.97,20.743a2.058,2.058,0,0,1,.538.218.313.313,0,0,1-.538-.218" transform="translate(-54.904 -6.399)" fill="#ff6484"/>
      <path id="Tracé_7611" data-name="Tracé 7611" d="M193.294,20.043a.592.592,0,1,1,.159,1.172.592.592,0,0,1-.159-1.172" transform="translate(-59.483 -6.18)" fill="#ff6484"/>
      <path id="Tracé_7612" data-name="Tracé 7612" d="M196.516,19.881a1.66,1.66,0,0,1,.812.358.587.587,0,0,1-.257.689.618.618,0,0,1-.885-.739.6.6,0,0,1,.331-.308" transform="translate(-60.513 -6.133)" fill="#ff6484"/>
      <path id="Tracé_7613" data-name="Tracé 7613" d="M189.949,20.391a.507.507,0,0,1,.595.3c.274.74-.948,1-1,.245a.473.473,0,0,1,.409-.54" transform="translate(-58.472 -6.286)" fill="#ff6484"/>
      <path id="Tracé_7614" data-name="Tracé 7614" d="M173.583,22.38a4.58,4.58,0,0,1-.74-.188c-.168-.6.727-.728.852-.251a.45.45,0,0,1-.112.439" transform="translate(-53.316 -6.679)" fill="#ff6484"/>
      <path id="Tracé_7615" data-name="Tracé 7615" d="M186.614,20.735a.425.425,0,0,1,.528.238c.277.687-.882.871-.848.154a.4.4,0,0,1,.32-.391" transform="translate(-57.472 -6.391)" fill="#ff6484"/>
      <path id="Tracé_7616" data-name="Tracé 7616" d="M176.576,21.54c.588-.16.608.777.026.7a.366.366,0,0,1-.026-.7" transform="translate(-54.397 -6.639)" fill="#ff6484"/>
      <path id="Tracé_7617" data-name="Tracé 7617" d="M183.3,21.079a.362.362,0,0,1,.225.689c-.456.12-.667-.56-.225-.689" transform="translate(-56.472 -6.497)" fill="#ff6484"/>
      <path id="Tracé_7618" data-name="Tracé 7618" d="M179.97,21.418c.521-.165.465.649.026.545-.194-.043-.324-.443-.026-.545" transform="translate(-55.467 -6.6)" fill="#ff6484"/>
      <path id="Tracé_7619" data-name="Tracé 7619" d="M195.044,21.055a.614.614,0,0,1,.726.558c.07.782-1.215.985-1.277.1a.605.605,0,0,1,.551-.662" transform="translate(-60.001 -6.493)" fill="#ff6484"/>
      <path id="Tracé_7620" data-name="Tracé 7620" d="M191.713,21.4a.552.552,0,0,1,.175,1.09.568.568,0,0,1-.413-1.009.6.6,0,0,1,.238-.081" transform="translate(-59.005 -6.599)" fill="#ff6484"/>
      <path id="Tracé_7621" data-name="Tracé 7621" d="M199.025,21.74a.567.567,0,0,1-1.057-.2c-.013-.212.152-.583.413-.584.142,0,.29.233.369.342.126.164.182.3.275.443" transform="translate(-61.073 -6.465)" fill="#ff6484"/>
      <path id="Tracé_7622" data-name="Tracé 7622" d="M188.35,21.749a.453.453,0,0,1,.6.4.489.489,0,0,1-.925.257.465.465,0,0,1,.324-.66" transform="translate(-57.993 -6.703)" fill="#ff6484"/>
      <path id="Tracé_7623" data-name="Tracé 7623" d="M175.448,23.356a1.529,1.529,0,0,0-.658-.434c.238-.4.922,0,.658.434" transform="translate(-53.923 -7.021)" fill="#ff6484"/>
      <path id="Tracé_7624" data-name="Tracé 7624" d="M185.035,22.09c.631-.173.671.86.039.783a.4.4,0,0,1-.039-.783" transform="translate(-56.996 -6.809)" fill="#ff6484"/>
      <path id="Tracé_7625" data-name="Tracé 7625" d="M178.349,22.665a.316.316,0,0,1,.422.373.338.338,0,0,1-.634.043.3.3,0,0,1,.212-.416" transform="translate(-54.949 -6.987)" fill="#ff6484"/>
      <path id="Tracé_7626" data-name="Tracé 7626" d="M181.711,22.434a.4.4,0,0,1,.175-.03c.35.053.346.73-.145.646a.324.324,0,0,1-.03-.616" transform="translate(-55.993 -6.911)" fill="#ff6484"/>
      <path id="Tracé_7627" data-name="Tracé 7627" d="M193.457,22.417a.575.575,0,0,1,.647.307.611.611,0,0,1-.489.864.592.592,0,0,1-.158-1.171" transform="translate(-59.534 -6.912)" fill="#ff6484"/>
      <path id="Tracé_7628" data-name="Tracé 7628" d="M196.814,22.185a.588.588,0,0,1,.7.527.6.6,0,0,1-1.182.193.566.566,0,0,1,.482-.72" transform="translate(-60.563 -6.841)" fill="#ff6484"/>
      <path id="Tracé_7629" data-name="Tracé 7629" d="M190.111,22.759a.52.52,0,1,1-.409.538.466.466,0,0,1,.409-.538" transform="translate(-58.522 -7.017)" fill="#ff6484"/>
      <path id="Tracé_7630" data-name="Tracé 7630" d="M186.772,23.106a.423.423,0,0,1,.528.232c.244.62-.647.8-.819.362a.423.423,0,0,1,.29-.594" transform="translate(-57.518 -7.122)" fill="#ff6484"/>
      <path id="Tracé_7631" data-name="Tracé 7631" d="M176.735,23.908c.588-.158.611.776.033.7a.367.367,0,0,1-.033-.7" transform="translate(-54.448 -7.37)" fill="#ff6484"/>
      <path id="Tracé_7632" data-name="Tracé 7632" d="M183.457,23.447a.362.362,0,0,1,.221.689c-.449.119-.67-.558-.221-.689" transform="translate(-56.521 -7.228)" fill="#ff6484"/>
      <path id="Tracé_7633" data-name="Tracé 7633" d="M180.132,23.794c.508-.17.482.647.024.539-.178-.041-.327-.44-.024-.539" transform="translate(-55.517 -7.333)" fill="#ff6484"/>
      <path id="Tracé_7634" data-name="Tracé 7634" d="M199.8,22.627c.324.092.7.124,1.01.232a.519.519,0,0,1-1.01-.232" transform="translate(-61.634 -6.98)" fill="#ff6484"/>
      <path id="Tracé_7635" data-name="Tracé 7635" d="M195.208,23.425a.609.609,0,0,1,.723.557.636.636,0,0,1-1.268.105.616.616,0,0,1,.545-.662" transform="translate(-60.053 -7.224)" fill="#ff6484"/>
      <path id="Tracé_7636" data-name="Tracé 7636" d="M191.871,23.77a.553.553,0,0,1,.175,1.091.565.565,0,0,1-.4-1.01.515.515,0,0,1,.228-.081" transform="translate(-59.054 -7.33)" fill="#ff6484"/>
      <path id="Tracé_7637" data-name="Tracé 7637" d="M198.588,23.313a.551.551,0,1,1,.129,1.093.577.577,0,0,1-.577-.5.517.517,0,0,1,.449-.588" transform="translate(-61.125 -7.188)" fill="#ff6484"/>
      <path id="Tracé_7638" data-name="Tracé 7638" d="M188.513,24.118a.448.448,0,0,1,.6.4.486.486,0,0,1-.921.254.458.458,0,0,1,.324-.658" transform="translate(-58.043 -7.434)" fill="#ff6484"/>
      <path id="Tracé_7639" data-name="Tracé 7639" d="M201.873,23.253c-.006-.012.01-.015.017-.015.119.061.244.113.38.2.1.061.284.156.308.266.046.245-.245.462-.516.452a.481.481,0,0,1-.188-.9" transform="translate(-62.201 -7.169)" fill="#ff6484"/>
      <path id="Tracé_7640" data-name="Tracé 7640" d="M175.1,25.153a.4.4,0,0,1,.512.492.4.4,0,0,1-.779-.217.364.364,0,0,1,.268-.275" transform="translate(-53.931 -7.753)" fill="#ff6484"/>
      <path id="Tracé_7641" data-name="Tracé 7641" d="M185.19,24.459a.39.39,0,0,1,.521.333.407.407,0,0,1-.812.071.366.366,0,0,1,.29-.4" transform="translate(-57.042 -7.54)" fill="#ff6484"/>
      <path id="Tracé_7642" data-name="Tracé 7642" d="M178.514,25.037a.322.322,0,0,1,.218.606c-.406.12-.624-.485-.218-.606" transform="translate(-55.005 -7.718)" fill="#ff6484"/>
      <path id="Tracé_7643" data-name="Tracé 7643" d="M181.873,24.8a.459.459,0,0,1,.175-.026.332.332,0,0,1-.145.647.327.327,0,0,1-.03-.621" transform="translate(-56.043 -7.642)" fill="#ff6484"/>
      <path id="Tracé_7644" data-name="Tracé 7644" d="M193.605,24.788a.591.591,0,1,1,.188,1.167.591.591,0,0,1-.188-1.167" transform="translate(-59.586 -7.642)" fill="#ff6484"/>
      <path id="Tracé_7645" data-name="Tracé 7645" d="M197.614,25.4c-.251.089-.521.167-.75.276A.607.607,0,0,1,197,24.532a.6.6,0,0,1,.614.87" transform="translate(-60.624 -7.566)" fill="#ff6484"/>
      <path id="Tracé_7646" data-name="Tracé 7646" d="M190.277,25.129c.76-.163.83,1.03.089,1.015a.537.537,0,0,1-.277-.954.583.583,0,0,1,.188-.061" transform="translate(-58.58 -7.747)" fill="#ff6484"/>
      <path id="Tracé_7647" data-name="Tracé 7647" d="M200.991,24.942c-.337.045-.687.081-1.033.119-.165-.76,1.057-.857,1.033-.119" transform="translate(-61.683 -7.538)" fill="#ff6484"/>
      <path id="Tracé_7648" data-name="Tracé 7648" d="M173.538,26.37c.76-.1.555,1.154-.132.84a.422.422,0,0,1-.248-.335c.007-.138.3-.376.38-.5" transform="translate(-53.419 -8.133)" fill="#ff6484"/>
      <path id="Tracé_7649" data-name="Tracé 7649" d="M186.928,25.473a.437.437,0,0,1,.555.538c-.119.472-1.033.407-.869-.244a.43.43,0,0,1,.314-.294" transform="translate(-57.565 -7.853)" fill="#ff6484"/>
      <path id="Tracé_7650" data-name="Tracé 7650" d="M176.9,26.279c.591-.158.611.778.03.7a.366.366,0,0,1-.03-.7" transform="translate(-54.497 -8.101)" fill="#ff6484"/>
      <path id="Tracé_7651" data-name="Tracé 7651" d="M183.621,25.818a.362.362,0,0,1,.225.688c-.449.118-.67-.556-.225-.688" transform="translate(-56.572 -7.959)" fill="#ff6484"/>
      <path id="Tracé_7652" data-name="Tracé 7652" d="M180.3,26.16c.5-.165.475.65.019.543-.178-.043-.326-.442-.019-.543" transform="translate(-55.569 -8.063)" fill="#ff6484"/>
      <path id="Tracé_7653" data-name="Tracé 7653" d="M196.033,26.167c-.4.147-.779.3-1.176.449-.307-.779.961-1.146,1.176-.449" transform="translate(-60.099 -7.958)" fill="#ff6484"/>
      <path id="Tracé_7654" data-name="Tracé 7654" d="M192.029,26.139a.553.553,0,1,1,.178,1.091.571.571,0,0,1-.409-1.014.685.685,0,0,1,.231-.077" transform="translate(-59.105 -8.059)" fill="#ff6484"/>
      <path id="Tracé_7655" data-name="Tracé 7655" d="M188.67,26.488a.459.459,0,0,1,.608.4.486.486,0,1,1-.954-.094.475.475,0,0,1,.346-.308" transform="translate(-58.092 -8.166)" fill="#ff6484"/>
      <path id="Tracé_7656" data-name="Tracé 7656" d="M175.255,27.523a.4.4,0,0,1,.245.768c-.505.132-.743-.627-.245-.768" transform="translate(-53.982 -8.485)" fill="#ff6484"/>
      <path id="Tracé_7657" data-name="Tracé 7657" d="M185.355,26.829c.631-.174.671.857.04.782a.4.4,0,0,1-.04-.782" transform="translate(-57.094 -8.27)" fill="#ff6484"/>
      <path id="Tracé_7658" data-name="Tracé 7658" d="M172.453,27.808a.475.475,0,0,1-.436.814,4.805,4.805,0,0,1,.436-.814" transform="translate(-53.067 -8.579)" fill="#ff6484"/>
      <path id="Tracé_7659" data-name="Tracé 7659" d="M178.677,27.4c.456-.134.551.51.221.611-.406.118-.624-.488-.221-.611" transform="translate(-55.056 -8.448)" fill="#ff6484"/>
      <path id="Tracé_7660" data-name="Tracé 7660" d="M182.031,27.174a.322.322,0,0,1,.245.595c-.387.16-.69-.456-.245-.595" transform="translate(-56.089 -8.377)" fill="#ff6484"/>
      <path id="Tracé_7661" data-name="Tracé 7661" d="M190.431,27.5a.511.511,0,0,1,.631.566.525.525,0,0,1-1.04-.026.471.471,0,0,1,.409-.54" transform="translate(-58.621 -8.479)" fill="#ff6484"/>
      <path id="Tracé_7662" data-name="Tracé 7662" d="M173.641,28.761a.536.536,0,0,1,.4.071.483.483,0,0,1,.043.65c-.5.542-1.172-.523-.445-.721" transform="translate(-53.47 -8.868)" fill="#ff6484"/>
      <path id="Tracé_7663" data-name="Tracé 7663" d="M187.1,27.843a.432.432,0,0,1,.545.538c-.119.471-1.027.406-.868-.244a.461.461,0,0,1,.324-.294" transform="translate(-57.614 -8.584)" fill="#ff6484"/>
      <path id="Tracé_7664" data-name="Tracé 7664" d="M177.061,28.647c.591-.16.611.774.033.7a.368.368,0,0,1-.033-.7" transform="translate(-54.549 -8.832)" fill="#ff6484"/>
      <path id="Tracé_7665" data-name="Tracé 7665" d="M183.781,28.186a.36.36,0,0,1,.2.69.36.36,0,0,1-.2-.69" transform="translate(-56.62 -8.689)" fill="#ff6484"/>
      <path id="Tracé_7666" data-name="Tracé 7666" d="M180.461,28.53c.5-.167.479.647.02.541-.178-.041-.327-.44-.02-.541" transform="translate(-55.618 -8.794)" fill="#ff6484"/>
      <path id="Tracé_7667" data-name="Tracé 7667" d="M172.011,30a.456.456,0,0,1,.6.409.489.489,0,0,1-.925.252.47.47,0,0,1,.321-.662" transform="translate(-52.953 -9.25)" fill="#ff6484"/>
      <path id="Tracé_7668" data-name="Tracé 7668" d="M188.643,29.654c-.017-.1.03-.152.017-.256-.023-.059-.129-.019-.165-.053a.478.478,0,1,1,.149.308" transform="translate(-58.15 -8.899)" fill="#ff6484"/>
      <path id="Tracé_7669" data-name="Tracé 7669" d="M175.421,29.891a.4.4,0,0,1,.245.765c-.509.136-.747-.624-.245-.765" transform="translate(-54.032 -9.215)" fill="#ff6484"/>
      <path id="Tracé_7670" data-name="Tracé 7670" d="M186.037,29.6c-.252.066-.535.1-.773.168-.294-.614.79-.822.773-.168" transform="translate(-57.138 -9.007)" fill="#ff6484"/>
      <path id="Tracé_7671" data-name="Tracé 7671" d="M178.827,29.769a.342.342,0,0,1,.188-.028.335.335,0,0,1-.149.651c-.214-.039-.4-.5-.039-.622" transform="translate(-55.106 -9.174)" fill="#ff6484"/>
      <path id="Tracé_7672" data-name="Tracé 7672" d="M182.2,29.544a.322.322,0,0,1,.248.591c-.389.161-.7-.451-.248-.591" transform="translate(-56.14 -9.108)" fill="#ff6484"/>
      <path id="Tracé_7673" data-name="Tracé 7673" d="M190.992,29.931a3.83,3.83,0,0,1-.409.925.5.5,0,0,1-.4-.451.526.526,0,0,1,.812-.474" transform="translate(-58.671 -9.206)" fill="#ff6484"/>
      <path id="Tracé_7674" data-name="Tracé 7674" d="M170.465,32.235a10.224,10.224,0,0,1,.33-.982c.641.119.387,1.263-.33.982" transform="translate(-52.589 -9.641)" fill="#ff6484"/>
      <path id="Tracé_7675" data-name="Tracé 7675" d="M173.8,31.134a.518.518,0,0,1,.406.069.488.488,0,0,1,.046.651c-.5.539-1.176-.527-.452-.72" transform="translate(-53.519 -9.6)" fill="#ff6484"/>
      <path id="Tracé_7676" data-name="Tracé 7676" d="M177.29,31.144c.614-.193.618.768.046.7a.37.37,0,0,1-.046-.7" transform="translate(-54.623 -9.6)" fill="#ff6484"/>
      <path id="Tracé_7677" data-name="Tracé 7677" d="M180.747,30.9s-.4.136-.519.185c-.214-.211.053-.551.314-.447.136.057.139.077.2.262" transform="translate(-55.577 -9.445)" fill="#ff6484"/>
      <path id="Tracé_7678" data-name="Tracé 7678" d="M172.176,32.378a.472.472,0,0,1,.6.421c.05.734-1.152.627-.947-.111a.458.458,0,0,1,.346-.31" transform="translate(-53.002 -9.984)" fill="#ff6484"/>
      <path id="Tracé_7679" data-name="Tracé 7679" d="M189,31.223a.453.453,0,0,1,.6.421c.056.733-1.136.632-.954-.109a.479.479,0,0,1,.353-.312" transform="translate(-58.191 -9.626)" fill="#ff6484"/>
      <path id="Tracé_7680" data-name="Tracé 7680" d="M175.581,32.261a.4.4,0,0,1,.245.765c-.5.133-.743-.623-.245-.765" transform="translate(-54.082 -9.946)" fill="#ff6484"/>
      <path id="Tracé_7681" data-name="Tracé 7681" d="M170.561,33.616a.669.669,0,0,1,.288,0c.557.175.386,1.221-.334,1a.52.52,0,0,1,.046-1" transform="translate(-52.497 -10.365)" fill="#ff6484"/>
      <path id="Tracé_7682" data-name="Tracé 7682" d="M173.96,33.5a.522.522,0,0,1,.406.07.455.455,0,0,1-.317.788.415.415,0,0,1-.409-.435.394.394,0,0,1,.32-.423" transform="translate(-53.568 -10.331)" fill="#ff6484"/>
      <path id="Tracé_7683" data-name="Tracé 7683" d="M172.333,34.748a.479.479,0,0,1,.608.421c.053.73-1.162.626-.955-.111a.467.467,0,0,1,.347-.31" transform="translate(-53.051 -10.715)" fill="#ff6484"/>
      <path id="Tracé_7684" data-name="Tracé 7684" d="M169.677,34.987a.566.566,0,0,1-.2,1,6.753,6.753,0,0,1,.2-1" transform="translate(-52.282 -10.793)" fill="#ff6484"/>
      <path id="Tracé_7685" data-name="Tracé 7685" d="M170.714,35.99a.511.511,0,0,1,.618.659c-.2.662-1.3.274-.971-.4a.509.509,0,0,1,.353-.263" transform="translate(-52.538 -11.098)" fill="#ff6484"/>
      <path id="Tracé_7686" data-name="Tracé 7686" d="M169.08,38.24a9.072,9.072,0,0,1,.165-1.032.56.56,0,0,1,.171,1.108.577.577,0,0,1-.337-.076" transform="translate(-52.161 -11.476)" fill="#ff6484"/>
      <path id="Tracé_7687" data-name="Tracé 7687" d="M172.709,37.1a8.518,8.518,0,0,0-.4.815.454.454,0,0,1,.4-.815" transform="translate(-53.086 -11.437)" fill="#ff6484"/>
      <path id="Tracé_7688" data-name="Tracé 7688" d="M170.879,38.355a.515.515,0,0,1,.621.661c-.212.665-1.3.275-.971-.4a.521.521,0,0,1,.35-.264" transform="translate(-52.59 -11.828)" fill="#ff6484"/>
      <path id="Tracé_7689" data-name="Tracé 7689" d="M168.1,38.852a.581.581,0,0,1-.439.91.594.594,0,0,1-.637-.484c.353-.144.7-.3,1.076-.426" transform="translate(-51.527 -11.986)" fill="#ff6484"/>
      <path id="Tracé_7690" data-name="Tracé 7690" d="M165.355,40.24a4,4,0,0,1,.737-.465c.012-.01.023-.041.059-.037.663.086.591,1.174-.106,1.24a.641.641,0,0,1-.691-.738" transform="translate(-51.012 -12.259)" fill="#ff6484"/>
      <path id="Tracé_7691" data-name="Tracé 7691" d="M169.259,39.6a.55.55,0,0,1,.629.277c.356.75-.736,1.068-1,.517a.555.555,0,0,1,.373-.795" transform="translate(-52.083 -12.211)" fill="#ff6484"/>
      <path id="Tracé_7692" data-name="Tracé 7692" d="M172.873,40.472a.486.486,0,0,1-.416-.822,7.67,7.67,0,0,1,.416.822" transform="translate(-53.161 -12.232)" fill="#ff6484"/>
      <path id="Tracé_7693" data-name="Tracé 7693" d="M167.652,40.841a.591.591,0,1,1,.178,1.167.591.591,0,0,1-.178-1.167" transform="translate(-51.578 -12.594)" fill="#ff6484"/>
      <path id="Tracé_7694" data-name="Tracé 7694" d="M164.491,41.063a.6.6,0,0,1-.017,1.184.6.6,0,0,1-.561-.317,2.715,2.715,0,0,1,.578-.866" transform="translate(-50.567 -12.668)" fill="#ff6484"/>
      <path id="Tracé_7695" data-name="Tracé 7695" d="M171.052,40.722c.875-.2.8,1.258-.043.994a.522.522,0,0,1,.043-.994" transform="translate(-52.651 -12.556)" fill="#ff6484"/>
      <path id="Tracé_7696" data-name="Tracé 7696" d="M166.647,43.074c-.231,0-.568.185-.835.138-.165-.03-.287-.282-.3-.457a.721.721,0,0,1,.31-.615.638.638,0,0,1,.828.934" transform="translate(-51.059 -12.973)" fill="#ff6484"/>
      <path id="Tracé_7697" data-name="Tracé 7697" d="M169.9,42.955c-.307-.033-.826-.3-.779-.713.02-.166.218-.272.364-.3a.561.561,0,0,1,.416,1.01" transform="translate(-52.172 -12.937)" fill="#ff6484"/>
      <path id="Tracé_7698" data-name="Tracé 7698" d="M172.808,41.851a.472.472,0,0,1,.611.517c-.023.626-1.146.5-.941-.2a.466.466,0,0,1,.331-.312" transform="translate(-53.202 -12.904)" fill="#ff6484"/>
      <path id="Tracé_7699" data-name="Tracé 7699" d="M163.523,43.479a1.812,1.812,0,0,1-.02-.223,1.626,1.626,0,0,1,.156-.507c.2.232.053.743-.136.73" transform="translate(-50.441 -13.188)" fill="#ff6484"/>
      <path id="Tracé_7700" data-name="Tracé 7700" d="M164.267,43.774c-.073.008-.149.012-.225.018.066-.427.895-.477,1.017-.119-.234.059-.548.052-.792.1" transform="translate(-50.607 -13.399)" fill="#ff6484"/>
      <path id="Tracé_7701" data-name="Tracé 7701" d="M171.412,43.322c-.168.015-.34.026-.508.036.07-.332.739-.364.839-.091-.1.026-.241.021-.331.055" transform="translate(-52.724 -13.291)" fill="#ff6484"/>
      <path id="Tracé_7702" data-name="Tracé 7702" d="M215.569,14.231c.066.053.136.109.2.162-.182.3-.647-.056-.427-.314.08.025.158.129.228.152" transform="translate(-66.415 -4.343)" fill="#322e4e"/>
      <path id="Tracé_7703" data-name="Tracé 7703" d="M216.885,15.282a6.24,6.24,0,0,1,.458.431c-.247.259-.719-.145-.458-.431" transform="translate(-66.886 -4.714)" fill="#322e4e"/>
      <path id="Tracé_7704" data-name="Tracé 7704" d="M217.655,16.326a.339.339,0,0,1,.1.481c-.3.394-.812-.118-.515-.439a.313.313,0,0,1,.413-.041" transform="translate(-66.992 -5.018)" fill="#322e4e"/>
      <path id="Tracé_7705" data-name="Tracé 7705" d="M218.344,16.741a4.654,4.654,0,0,1,.353.409.367.367,0,0,1-.353-.409" transform="translate(-67.357 -5.164)" fill="#322e4e"/>
      <path id="Tracé_7706" data-name="Tracé 7706" d="M216.031,15.119a.274.274,0,0,1,.1.426.293.293,0,0,1-.512-.261.277.277,0,0,1,.409-.165" transform="translate(-66.514 -4.652)" fill="#322e4e"/>
      <path id="Tracé_7707" data-name="Tracé 7707" d="M214.425,13.923a.227.227,0,0,1,.1.36.243.243,0,1,1-.38-.3.214.214,0,0,1,.284-.057" transform="translate(-66.044 -4.286)" fill="#322e4e"/>
      <path id="Tracé_7708" data-name="Tracé 7708" d="M212.669,12.728c.079.028.175.015.228.066.191.163-.142.446-.314.23a.2.2,0,0,1,.086-.3" transform="translate(-65.572 -3.926)" fill="#322e4e"/>
      <path id="Tracé_7709" data-name="Tracé 7709" d="M209.475,10.147a2.2,2.2,0,0,1,.294.219c.023.4-.578.259-.476-.054a.268.268,0,0,1,.182-.165" transform="translate(-64.563 -3.13)" fill="#322e4e"/>
      <path id="Tracé_7710" data-name="Tracé 7710" d="M219.312,18.135c-.4.389-.945-.337-.426-.618a6.866,6.866,0,0,1,.426.618" transform="translate(-67.461 -5.404)" fill="#322e4e"/>
      <path id="Tracé_7711" data-name="Tracé 7711" d="M211.011,11.553a1.185,1.185,0,0,1,.149.317.188.188,0,0,1-.149-.317" transform="translate(-65.08 -3.564)" fill="#322e4e"/>
      <path id="Tracé_7712" data-name="Tracé 7712" d="M218.013,17.49a.354.354,0,1,1-.393.588c-.34-.254,0-.837.393-.588" transform="translate(-67.093 -5.377)" fill="#322e4e"/>
      <path id="Tracé_7713" data-name="Tracé 7713" d="M219.537,18.711a1.065,1.065,0,0,1,.222.487c-.057.18-.3.221-.4.206a.374.374,0,0,1-.091-.69.349.349,0,0,1,.273,0" transform="translate(-67.584 -5.764)" fill="#322e4e"/>
      <path id="Tracé_7714" data-name="Tracé 7714" d="M216.4,16.285a.324.324,0,0,1,.149.375c-.175.44-.829.066-.552-.3a.289.289,0,0,1,.4-.076" transform="translate(-66.615 -5.008)" fill="#322e4e"/>
      <path id="Tracé_7715" data-name="Tracé 7715" d="M208.315,10.558a3,3,0,0,1-.245-.378c.165-.34.615-.036.479.228a.275.275,0,0,1-.234.151" transform="translate(-64.19 -3.094)" fill="#322e4e"/>
      <path id="Tracé_7716" data-name="Tracé 7716" d="M214.783,15.081a.253.253,0,0,1,.142.322c-.158.418-.75.033-.442-.277a.241.241,0,0,1,.3-.044" transform="translate(-66.141 -4.642)" fill="#322e4e"/>
      <path id="Tracé_7717" data-name="Tracé 7717" d="M210,11.383c.33.167-.039.591-.268.324a.218.218,0,0,1,.268-.324" transform="translate(-64.688 -3.504)" fill="#322e4e"/>
      <path id="Tracé_7718" data-name="Tracé 7718" d="M213.194,13.891a.218.218,0,0,1-.182.4c-.244-.131-.073-.519.182-.4" transform="translate(-65.678 -4.278)" fill="#322e4e"/>
      <path id="Tracé_7719" data-name="Tracé 7719" d="M211.584,12.694c.3.134-.05.477-.2.249-.073-.1.03-.328.2-.249" transform="translate(-65.204 -3.911)" fill="#322e4e"/>
      <path id="Tracé_7720" data-name="Tracé 7720" d="M218.374,18.651a.363.363,0,0,1,.1.541c-.284.378-.94-.049-.617-.465a.365.365,0,0,1,.515-.076" transform="translate(-67.183 -5.731)" fill="#322e4e"/>
      <path id="Tracé_7721" data-name="Tracé 7721" d="M216.773,17.448c.37.232-.01.812-.363.559a.341.341,0,0,1,.221-.615.357.357,0,0,1,.142.056" transform="translate(-66.718 -5.364)" fill="#322e4e"/>
      <path id="Tracé_7722" data-name="Tracé 7722" d="M219.91,20.549a.342.342,0,0,1-.4-.513c.08-.1.3-.2.426-.1.063.054.033.225.023.3a2.242,2.242,0,0,1-.053.307" transform="translate(-67.702 -6.137)" fill="#322e4e"/>
      <path id="Tracé_7723" data-name="Tracé 7723" d="M215.144,16.244a.267.267,0,0,1,.1.426.293.293,0,0,1-.512-.262.277.277,0,0,1,.409-.164" transform="translate(-66.241 -4.999)" fill="#322e4e"/>
      <path id="Tracé_7724" data-name="Tracé 7724" d="M208.818,11.729a.965.965,0,0,0-.112-.458c.261-.082.4.373.112.458" transform="translate(-64.386 -3.474)" fill="#322e4e"/>
      <path id="Tracé_7725" data-name="Tracé 7725" d="M213.544,15.049c.35.177-.046.659-.3.366a.243.243,0,0,1,.3-.366" transform="translate(-65.77 -4.635)" fill="#322e4e"/>
      <path id="Tracé_7726" data-name="Tracé 7726" d="M210.34,12.6a.187.187,0,0,1,.039.337c-.135.114-.38-.068-.3-.235a.182.182,0,0,1,.261-.1" transform="translate(-64.805 -3.879)" fill="#322e4e"/>
      <path id="Tracé_7727" data-name="Tracé 7727" d="M211.937,13.851c.033.018.073.031.089.062.132.161-.142.463-.324.23a.2.2,0,0,1,.234-.291" transform="translate(-65.299 -4.268)" fill="#322e4e"/>
      <path id="Tracé_7728" data-name="Tracé 7728" d="M217.126,18.613a.324.324,0,0,1,.165.4.361.361,0,0,1-.558.193c-.34-.252.006-.835.393-.589" transform="translate(-66.82 -5.723)" fill="#322e4e"/>
      <path id="Tracé_7729" data-name="Tracé 7729" d="M218.719,19.866a.362.362,0,1,1-.5.128.336.336,0,0,1,.5-.128" transform="translate(-67.307 -6.109)" fill="#322e4e"/>
      <path id="Tracé_7730" data-name="Tracé 7730" d="M215.511,17.408a.31.31,0,0,1-.1.578.314.314,0,0,1-.3-.5.285.285,0,0,1,.4-.075" transform="translate(-66.341 -5.354)" fill="#322e4e"/>
      <path id="Tracé_7731" data-name="Tracé 7731" d="M213.907,16.206a.26.26,0,0,1,.142.322c-.142.373-.614.094-.511-.171a.256.256,0,0,1,.369-.151" transform="translate(-65.872 -4.99)" fill="#322e4e"/>
      <path id="Tracé_7732" data-name="Tracé 7732" d="M209.114,12.5c.324.168-.046.595-.277.327a.225.225,0,0,1,.277-.327" transform="translate(-64.415 -3.85)" fill="#322e4e"/>
      <path id="Tracé_7733" data-name="Tracé 7733" d="M212.3,15.013a.218.218,0,0,1-.182.4c-.244-.127-.069-.52.182-.4" transform="translate(-65.403 -4.624)" fill="#322e4e"/>
      <path id="Tracé_7734" data-name="Tracé 7734" d="M210.7,13.819c.29.129-.056.482-.214.249-.063-.087.033-.328.214-.249" transform="translate(-64.93 -4.258)" fill="#322e4e"/>
      <path id="Tracé_7735" data-name="Tracé 7735" d="M219.971,21.208c.109.173.261.34.357.51-.271.239-.72-.254-.357-.51" transform="translate(-67.819 -6.542)" fill="#322e4e"/>
      <path id="Tracé_7736" data-name="Tracé 7736" d="M217.495,19.779a.358.358,0,0,1,.093.541c-.291.39-.928-.059-.608-.467a.38.38,0,0,1,.515-.075" transform="translate(-66.911 -6.081)" fill="#322e4e"/>
      <path id="Tracé_7737" data-name="Tracé 7737" d="M215.881,18.575a.332.332,0,0,1-.36.557.342.342,0,0,1,.228-.618.294.294,0,0,1,.132.061" transform="translate(-66.444 -5.711)" fill="#322e4e"/>
      <path id="Tracé_7738" data-name="Tracé 7738" d="M219.078,21.083a.334.334,0,1,1-.393.538.373.373,0,0,1-.056-.457.323.323,0,0,1,.449-.081" transform="translate(-67.431 -6.486)" fill="#322e4e"/>
      <path id="Tracé_7739" data-name="Tracé 7739" d="M214.257,17.369a.27.27,0,0,1,.109.425.292.292,0,0,1-.512-.261.273.273,0,0,1,.4-.164" transform="translate(-65.969 -5.347)" fill="#322e4e"/>
      <path id="Tracé_7740" data-name="Tracé 7740" d="M220.592,22.367c0-.008.006,0,.006,0a2.3,2.3,0,0,1,.1.239c.013.068.063.188.03.244-.08.13-.3.109-.416,0a.292.292,0,0,1,.284-.479" transform="translate(-67.942 -6.897)" fill="#322e4e"/>
      <path id="Tracé_7741" data-name="Tracé 7741" d="M207.869,12.405a.241.241,0,0,1,.033.429.248.248,0,0,1-.27-.416.231.231,0,0,1,.238-.013" transform="translate(-64.021 -3.819)" fill="#322e4e"/>
      <path id="Tracé_7742" data-name="Tracé 7742" d="M212.658,16.173a.231.231,0,0,1,.1.358c-.192.264-.585-.05-.387-.3a.213.213,0,0,1,.29-.062" transform="translate(-65.499 -4.979)" fill="#322e4e"/>
      <path id="Tracé_7743" data-name="Tracé 7743" d="M209.468,13.724a.2.2,0,0,1-.149.36c-.228-.111-.08-.469.149-.36" transform="translate(-64.54 -4.227)" fill="#322e4e"/>
      <path id="Tracé_7744" data-name="Tracé 7744" d="M211.059,14.978a.328.328,0,0,1,.086.056c.132.163-.142.467-.33.233a.2.2,0,0,1,.244-.289" transform="translate(-65.026 -4.615)" fill="#322e4e"/>
      <path id="Tracé_7745" data-name="Tracé 7745" d="M216.237,19.731c.416.245.016.888-.38.6a.355.355,0,0,1,.38-.6" transform="translate(-66.545 -6.071)" fill="#322e4e"/>
      <path id="Tracé_7746" data-name="Tracé 7746" d="M217.775,21.627c-.152-.059-.294-.132-.443-.178-.182-.3.228-.653.519-.461a.363.363,0,0,1-.076.639" transform="translate(-67.034 -6.458)" fill="#322e4e"/>
      <path id="Tracé_7747" data-name="Tracé 7747" d="M214.635,18.531c.4.234-.053.792-.376.492a.324.324,0,0,1,.268-.538.538.538,0,0,1,.109.046" transform="translate(-66.072 -5.701)" fill="#322e4e"/>
      <path id="Tracé_7748" data-name="Tracé 7748" d="M219.51,22.78c-.158-.119-.331-.241-.505-.365.238-.407.813.041.505.365" transform="translate(-67.563 -6.865)" fill="#322e4e"/>
      <path id="Tracé_7749" data-name="Tracé 7749" d="M206.669,12.35c.373.261-.221.738-.4.322a.244.244,0,0,1,.023-.253c.063-.057.284-.048.377-.069" transform="translate(-63.627 -3.81)" fill="#322e4e"/>
      <path id="Tracé_7750" data-name="Tracé 7750" d="M213.016,17.334a.26.26,0,0,1,.023.462c-.237.164-.614-.234-.284-.458a.269.269,0,0,1,.261,0" transform="translate(-65.595 -5.337)" fill="#322e4e"/>
      <path id="Tracé_7751" data-name="Tracé 7751" d="M208.228,13.632c.33.168-.04.595-.271.325a.221.221,0,0,1,.271-.325" transform="translate(-64.142 -4.198)" fill="#322e4e"/>
      <path id="Tracé_7752" data-name="Tracé 7752" d="M211.422,16.138a.218.218,0,0,1-.182.4c-.25-.129-.069-.52.182-.4" transform="translate(-65.131 -4.971)" fill="#322e4e"/>
      <path id="Tracé_7753" data-name="Tracé 7753" d="M209.811,14.941c.294.131-.046.485-.212.252-.063-.091.033-.328.212-.252" transform="translate(-64.656 -4.605)" fill="#322e4e"/>
      <path id="Tracé_7754" data-name="Tracé 7754" d="M216.777,21.337c-.237-.1-.465-.182-.7-.272.174-.476.891-.124.7.272" transform="translate(-66.659 -6.428)" fill="#322e4e"/>
      <path id="Tracé_7755" data-name="Tracé 7755" d="M214.989,19.692c.392.226.013.821-.347.561a.339.339,0,0,1,.222-.613.314.314,0,0,1,.125.051" transform="translate(-66.172 -6.058)" fill="#322e4e"/>
      <path id="Tracé_7756" data-name="Tracé 7756" d="M213.377,18.493a.265.265,0,0,1,.1.425c-.268.358-.782-.16-.38-.425a.265.265,0,0,1,.277,0" transform="translate(-65.696 -5.693)" fill="#322e4e"/>
      <path id="Tracé_7757" data-name="Tracé 7757" d="M206.986,13.527a.243.243,0,0,1-.2.443c-.284-.144-.079-.583.2-.443" transform="translate(-63.752 -4.164)" fill="#322e4e"/>
      <path id="Tracé_7758" data-name="Tracé 7758" d="M211.775,17.3c.356.18-.046.656-.3.365a.244.244,0,0,1,.3-.365" transform="translate(-65.223 -5.329)" fill="#322e4e"/>
      <path id="Tracé_7759" data-name="Tracé 7759" d="M205.567,12.563a.284.284,0,0,1-.519.187,2.668,2.668,0,0,1,.519-.187" transform="translate(-63.258 -3.875)" fill="#322e4e"/>
      <path id="Tracé_7760" data-name="Tracé 7760" d="M208.578,14.848c.261.121.04.449-.152.362-.228-.109-.075-.47.152-.362" transform="translate(-64.265 -4.574)" fill="#322e4e"/>
      <path id="Tracé_7761" data-name="Tracé 7761" d="M210.175,16.1a.194.194,0,0,1-.125.365c-.245-.084-.126-.488.125-.365" transform="translate(-64.759 -4.96)" fill="#322e4e"/>
      <path id="Tracé_7762" data-name="Tracé 7762" d="M213.742,19.658a.308.308,0,0,1,.056.5c-.244.226-.7-.113-.458-.431a.286.286,0,0,1,.4-.073" transform="translate(-65.794 -6.048)" fill="#322e4e"/>
      <path id="Tracé_7763" data-name="Tracé 7763" d="M205.75,13.433a.265.265,0,0,1-.086.5c-.443.037-.317-.71.086-.5" transform="translate(-63.362 -4.133)" fill="#322e4e"/>
      <path id="Tracé_7764" data-name="Tracé 7764" d="M212.134,18.456a.264.264,0,0,1,.023.464c-.244.162-.62-.231-.29-.461a.293.293,0,0,1,.268,0" transform="translate(-65.321 -5.684)" fill="#322e4e"/>
      <path id="Tracé_7765" data-name="Tracé 7765" d="M207.347,14.756c.324.167-.05.591-.277.327-.119-.144.063-.436.277-.327" transform="translate(-63.87 -4.545)" fill="#322e4e"/>
      <path id="Tracé_7766" data-name="Tracé 7766" d="M210.534,17.264a.217.217,0,0,1-.188.391.217.217,0,0,1,.188-.391" transform="translate(-64.857 -5.318)" fill="#322e4e"/>
      <path id="Tracé_7767" data-name="Tracé 7767" d="M208.926,16.068c.3.129-.039.483-.2.251-.063-.091.033-.332.2-.251" transform="translate(-64.385 -4.952)" fill="#322e4e"/>
      <path id="Tracé_7768" data-name="Tracé 7768" d="M204.509,13.339a.273.273,0,0,1,.109.426.293.293,0,0,1-.512-.261.274.274,0,0,1,.4-.165" transform="translate(-62.962 -4.104)" fill="#322e4e"/>
      <path id="Tracé_7769" data-name="Tracé 7769" d="M212.082,19.888c.039-.045.08-.053.112-.1.013-.037-.049-.059-.049-.091.244-.313.67.083.452.357a.292.292,0,0,1-.515-.162" transform="translate(-65.428 -6.039)" fill="#322e4e"/>
      <path id="Tracé_7770" data-name="Tracé 7770" d="M206.1,14.652a.243.243,0,0,1-.2.441.243.243,0,0,1,.2-.441" transform="translate(-63.478 -4.512)" fill="#322e4e"/>
      <path id="Tracé_7771" data-name="Tracé 7771" d="M210.974,18.812c-.142-.073-.284-.175-.42-.238.119-.393.687-.049.42.238" transform="translate(-64.956 -5.675)" fill="#322e4e"/>
      <path id="Tracé_7772" data-name="Tracé 7772" d="M207.69,15.967a.217.217,0,0,1,.092.061c.126.163-.148.456-.33.231-.079-.1.03-.381.238-.292" transform="translate(-63.991 -4.92)" fill="#322e4e"/>
      <path id="Tracé_7773" data-name="Tracé 7773" d="M209.23,17.163a.191.191,0,0,1-.126.36c-.244-.081-.125-.479.126-.36" transform="translate(-64.468 -5.288)" fill="#322e4e"/>
      <path id="Tracé_7774" data-name="Tracé 7774" d="M213.014,20.978a2.357,2.357,0,0,1-.558.244.3.3,0,0,1,0-.362.318.318,0,0,1,.558.118" transform="translate(-65.525 -6.398)" fill="#322e4e"/>
      <path id="Tracé_7775" data-name="Tracé 7775" d="M202.857,13.719c.182-.131.37-.2.545-.306.234.308-.333.721-.545.306" transform="translate(-62.582 -4.138)" fill="#322e4e"/>
      <path id="Tracé_7776" data-name="Tracé 7776" d="M204.869,14.559a.279.279,0,0,1,.152.193.3.3,0,0,1-.248.308c-.44.037-.307-.71.1-.5" transform="translate(-63.089 -4.48)" fill="#322e4e"/>
      <path id="Tracé_7777" data-name="Tracé 7777" d="M206.451,15.955c.346.162-.033.595-.261.335a.223.223,0,0,1,.261-.335" transform="translate(-63.597 -4.916)" fill="#322e4e"/>
      <path id="Tracé_7778" data-name="Tracé 7778" d="M208.182,17.208s-.228-.1-.307-.129a.174.174,0,0,1,.33-.068c.033.074.024.086-.023.2" transform="translate(-64.13 -5.218)" fill="#322e4e"/>
      <path id="Tracé_7779" data-name="Tracé 7779" d="M203.626,14.467a.288.288,0,0,1,.1.431c-.277.346-.772-.187-.387-.436a.287.287,0,0,1,.284,0" transform="translate(-62.688 -4.451)" fill="#322e4e"/>
      <path id="Tracé_7780" data-name="Tracé 7780" d="M211.611,20.741a.276.276,0,0,1,.1.432c-.277.347-.766-.178-.387-.432a.266.266,0,0,1,.284,0" transform="translate(-65.152 -6.386)" fill="#322e4e"/>
      <path id="Tracé_7781" data-name="Tracé 7781" d="M205.214,15.779c.294.143.066.575-.2.44-.283-.144-.089-.579.2-.44" transform="translate(-63.206 -4.859)" fill="#322e4e"/>
      <path id="Tracé_7782" data-name="Tracé 7782" d="M202.387,14.372a.448.448,0,0,1,.136.112c.171.3-.324.707-.555.313a.311.311,0,0,1,.419-.425" transform="translate(-62.293 -4.422)" fill="#322e4e"/>
      <path id="Tracé_7783" data-name="Tracé 7783" d="M203.974,15.682a.3.3,0,0,1,.158.193.274.274,0,0,1-.459.225.249.249,0,0,1-.017-.358.237.237,0,0,1,.317-.059" transform="translate(-62.807 -4.826)" fill="#322e4e"/>
      <path id="Tracé_7784" data-name="Tracé 7784" d="M202.745,15.589a.293.293,0,0,1,.093.434c-.275.346-.773-.19-.377-.434a.294.294,0,0,1,.284,0" transform="translate(-62.414 -4.798)" fill="#322e4e"/>
      <path id="Tracé_7785" data-name="Tracé 7785" d="M201.393,14.607a.343.343,0,0,1-.5.366,3.787,3.787,0,0,1,.5-.366" transform="translate(-61.976 -4.506)" fill="#322e4e"/>
      <path id="Tracé_7786" data-name="Tracé 7786" d="M201.509,15.491a.312.312,0,0,1,.007.548c-.36.213-.694-.4-.275-.566a.317.317,0,0,1,.268.018" transform="translate(-62.023 -4.767)" fill="#322e4e"/>
      <path id="Tracé_7787" data-name="Tracé 7787" d="M199.8,15.816a6.113,6.113,0,0,1,.489-.395.335.335,0,1,1-.364.563.31.31,0,0,1-.125-.168" transform="translate(-61.639 -4.757)" fill="#322e4e"/>
      <path id="Tracé_7788" data-name="Tracé 7788" d="M201.962,16.793a4.713,4.713,0,0,0-.5.2.271.271,0,0,1,.5-.2" transform="translate(-62.146 -5.132)" fill="#322e4e"/>
      <path id="Tracé_7789" data-name="Tracé 7789" d="M200.623,16.619a.31.31,0,0,1,.017.545c-.374.213-.7-.4-.277-.568a.28.28,0,0,1,.26.023" transform="translate(-61.751 -5.113)" fill="#322e4e"/>
      <path id="Tracé_7790" data-name="Tracé 7790" d="M199.2,15.746a.347.347,0,0,1-.558.233.372.372,0,0,1-.1-.474c.221.074.432.149.653.241" transform="translate(-61.239 -4.783)" fill="#322e4e"/>
      <path id="Tracé_7791" data-name="Tracé 7791" d="M197.365,15.273a2.374,2.374,0,0,1,.512.089c.017,0,.033-.008.05.008.257.308-.205.764-.546.51a.384.384,0,0,1-.016-.608" transform="translate(-60.844 -4.711)" fill="#322e4e"/>
      <path id="Tracé_7792" data-name="Tracé 7792" d="M199.382,16.525a.337.337,0,0,1,.175.375c-.152.477-.766.18-.664-.174a.334.334,0,0,1,.489-.2" transform="translate(-61.355 -5.084)" fill="#322e4e"/>
      <path id="Tracé_7793" data-name="Tracé 7793" d="M200.686,18.336a.294.294,0,0,1,.142-.537,4.77,4.77,0,0,1-.142.537" transform="translate(-61.871 -5.491)" fill="#322e4e"/>
      <path id="Tracé_7794" data-name="Tracé 7794" d="M198.149,16.432c.439.252-.01.885-.4.593a.358.358,0,0,1,.4-.593" transform="translate(-60.965 -5.053)" fill="#322e4e"/>
      <path id="Tracé_7795" data-name="Tracé 7795" d="M196.643,15.294c.307.317-.168.778-.492.523a.372.372,0,0,1-.116-.37,1.793,1.793,0,0,1,.608-.154" transform="translate(-60.475 -4.718)" fill="#322e4e"/>
      <path id="Tracé_7796" data-name="Tracé 7796" d="M199.732,17.743c.482.262-.149.883-.416.427a.314.314,0,0,1,.416-.427" transform="translate(-61.477 -5.461)" fill="#322e4e"/>
      <path id="Tracé_7797" data-name="Tracé 7797" d="M196.789,17.033c-.1-.1-.331-.147-.426-.275a.3.3,0,0,1,.05-.329.419.419,0,0,1,.386-.147.384.384,0,0,1-.01.751" transform="translate(-60.569 -5.021)" fill="#322e4e"/>
      <path id="Tracé_7798" data-name="Tracé 7798" d="M198.358,18.265c-.125-.14-.251-.47-.069-.634a.258.258,0,0,1,.284.012.339.339,0,0,1-.214.622" transform="translate(-61.144 -5.427)" fill="#322e4e"/>
      <path id="Tracé_7799" data-name="Tracé 7799" d="M200.083,18.956a.283.283,0,0,1,.063.476c-.261.272-.71-.238-.34-.471a.292.292,0,0,1,.277,0" transform="translate(-61.597 -5.838)" fill="#322e4e"/>
      <path id="Tracé_7800" data-name="Tracé 7800" d="M195.26,15.9c.023-.033.056-.068.079-.1a1.015,1.015,0,0,1,.284-.163c-.006.185-.284.353-.363.266" transform="translate(-60.238 -4.824)" fill="#322e4e"/>
      <path id="Tracé_7801" data-name="Tracé 7801" d="M195.534,16.365a.756.756,0,0,0-.1-.084c.2-.163.591.149.5.36-.136-.071-.268-.2-.4-.276" transform="translate(-60.291 -5.008)" fill="#322e4e"/>
      <path id="Tracé_7802" data-name="Tracé 7802" d="M198.931,19.039l-.238-.192c.158-.119.472.137.409.3-.053-.024-.115-.086-.171-.106" transform="translate(-61.297 -5.805)" fill="#322e4e"/>
      <path id="Tracé_7803" data-name="Tracé 7803" d="M63.31,59l-.5-1.645H60.289L59.786,59H58.208l2.44-6.941h1.791L64.888,59Zm-1.355-4.482c-.033-.109-.074-.248-.126-.416s-.1-.339-.154-.513-.094-.325-.127-.455c-.032.13-.075.289-.13.479s-.107.372-.156.543-.086.291-.111.362l-.494,1.607h1.8Z" transform="translate(-17.957 -16.06)" fill="#322e4e"/>
      <path id="Tracé_7804" data-name="Tracé 7804" d="M72.506,58.128a1.457,1.457,0,0,1-.566,1.234,2.765,2.765,0,0,1-1.689.431,5.361,5.361,0,0,1-.949-.072,3.979,3.979,0,0,1-.794-.237V58.292a5.422,5.422,0,0,0,.919.319,3.574,3.574,0,0,0,.872.127,1.085,1.085,0,0,0,.605-.127.385.385,0,0,0,.179-.328.42.42,0,0,0-.073-.242A.959.959,0,0,0,70.7,57.8a8.058,8.058,0,0,0-.755-.348,5.482,5.482,0,0,1-.813-.422,1.345,1.345,0,0,1-.474-.5,1.58,1.58,0,0,1-.155-.741,1.224,1.224,0,0,1,.571-1.1,2.771,2.771,0,0,1,1.519-.369,4.386,4.386,0,0,1,.94.1,4.3,4.3,0,0,1,.92.319l-.436,1.036q-.388-.165-.736-.276a2.3,2.3,0,0,0-.707-.112q-.638,0-.638.349a.351.351,0,0,0,.082.228.987.987,0,0,0,.32.219c.158.077.392.18.7.309a5.566,5.566,0,0,1,.783.383,1.329,1.329,0,0,1,.688,1.263" transform="translate(-21.132 -16.755)" fill="#322e4e"/>
      <path id="Tracé_7805" data-name="Tracé 7805" d="M79.464,58.128a1.457,1.457,0,0,1-.566,1.234,2.765,2.765,0,0,1-1.689.431,5.361,5.361,0,0,1-.949-.072,3.979,3.979,0,0,1-.794-.237V58.292a5.408,5.408,0,0,0,.92.319,3.564,3.564,0,0,0,.871.127,1.085,1.085,0,0,0,.605-.127.385.385,0,0,0,.179-.328.419.419,0,0,0-.073-.242.959.959,0,0,0-.315-.243,7.972,7.972,0,0,0-.755-.348,5.517,5.517,0,0,1-.813-.422,1.345,1.345,0,0,1-.474-.5,1.581,1.581,0,0,1-.155-.741,1.224,1.224,0,0,1,.571-1.1,2.772,2.772,0,0,1,1.52-.369,4.384,4.384,0,0,1,.939.1,4.3,4.3,0,0,1,.92.319l-.436,1.036q-.388-.165-.736-.276a2.3,2.3,0,0,0-.707-.112q-.639,0-.639.349a.348.348,0,0,0,.082.228.974.974,0,0,0,.319.219c.158.077.392.18.7.309a5.577,5.577,0,0,1,.784.383,1.33,1.33,0,0,1,.687,1.263" transform="translate(-23.278 -16.755)" fill="#322e4e"/>
      <path id="Tracé_7806" data-name="Tracé 7806" d="M87.535,57.043a2.8,2.8,0,0,1-.692,2.032,2.494,2.494,0,0,1-1.883.717,2.659,2.659,0,0,1-1.312-.319,2.256,2.256,0,0,1-.905-.934,3.127,3.127,0,0,1-.329-1.5A2.782,2.782,0,0,1,83.1,55.02a2.511,2.511,0,0,1,1.888-.707,2.653,2.653,0,0,1,1.317.319,2.284,2.284,0,0,1,.9.925,3.078,3.078,0,0,1,.329,1.486m-3.65,0a2.226,2.226,0,0,0,.257,1.186,1.064,1.064,0,0,0,1.665,0,2.226,2.226,0,0,0,.257-1.186,2.173,2.173,0,0,0-.257-1.176.926.926,0,0,0-.837-.392.916.916,0,0,0-.828.392,2.173,2.173,0,0,0-.257,1.176" transform="translate(-25.425 -16.755)" fill="#322e4e"/>
      <path id="Tracé_7807" data-name="Tracé 7807" d="M93.549,59.792a2.447,2.447,0,0,1-1.826-.653,2.841,2.841,0,0,1-.643-2.058,3.312,3.312,0,0,1,.328-1.577,2.072,2.072,0,0,1,.916-.9,3.008,3.008,0,0,1,1.35-.29,3.736,3.736,0,0,1,.944.106,3.908,3.908,0,0,1,.7.252l-.427,1.113q-.338-.135-.634-.222a2.054,2.054,0,0,0-.585-.087q-1.123,0-1.123,1.6a1.9,1.9,0,0,0,.295,1.172,1,1,0,0,0,.828.378,2.46,2.46,0,0,0,.8-.121,3.128,3.128,0,0,0,.677-.335V59.4a2.314,2.314,0,0,1-.692.3,3.789,3.789,0,0,1-.914.092" transform="translate(-28.098 -16.755)" fill="#322e4e"/>
      <path id="Tracé_7808" data-name="Tracé 7808" d="M99.438,51.458a1,1,0,0,1,.552.15.778.778,0,0,1,0,1.108,1.066,1.066,0,0,1-1.109,0,.788.788,0,0,1,0-1.108.989.989,0,0,1,.557-.15m.716,7.358H98.711V53.53h1.443Z" transform="translate(-30.435 -15.875)" fill="#322e4e"/>
      <path id="Tracé_7809" data-name="Tracé 7809" d="M105.02,54.3a2.533,2.533,0,0,1,1.631.46,1.707,1.707,0,0,1,.566,1.409v3.524h-1.006l-.281-.716h-.039a2.239,2.239,0,0,1-.716.62,2.3,2.3,0,0,1-1.036.193,1.706,1.706,0,0,1-1.172-.411,1.6,1.6,0,0,1-.465-1.264,1.4,1.4,0,0,1,.591-1.243,3.373,3.373,0,0,1,1.772-.44l.92-.029v-.232a.777.777,0,0,0-.218-.61.878.878,0,0,0-.605-.194,2.6,2.6,0,0,0-.755.111,6.281,6.281,0,0,0-.736.275L103,54.774a4.206,4.206,0,0,1,.945-.349,4.563,4.563,0,0,1,1.079-.125m.2,2.962a1.59,1.59,0,0,0-.967.251.766.766,0,0,0-.272.611.543.543,0,0,0,.194.47.834.834,0,0,0,.5.14,1.161,1.161,0,0,0,.785-.276.976.976,0,0,0,.319-.779v-.436Z" transform="translate(-31.622 -16.751)" fill="#322e4e"/>
      <path id="Tracé_7810" data-name="Tracé 7810" d="M113.452,58.183a2.171,2.171,0,0,0,.465-.048q.223-.049.445-.116v1.074a3.287,3.287,0,0,1-.576.17,3.637,3.637,0,0,1-.75.072,2.179,2.179,0,0,1-.847-.155,1.2,1.2,0,0,1-.591-.537,2.151,2.151,0,0,1-.218-1.059V55.037h-.687v-.61l.794-.484.416-1.113h.92v1.123H114.3v1.084h-1.481v2.547a.56.56,0,0,0,.174.449.671.671,0,0,0,.455.15" transform="translate(-34.149 -16.298)" fill="#322e4e"/>
      <path id="Tracé_7811" data-name="Tracé 7811" d="M118.239,51.458a.994.994,0,0,1,.553.15.776.776,0,0,1,0,1.108,1.065,1.065,0,0,1-1.108,0,.788.788,0,0,1,0-1.108.985.985,0,0,1,.556-.15m.717,7.358h-1.442V53.53h1.442Z" transform="translate(-36.235 -15.875)" fill="#322e4e"/>
      <path id="Tracé_7812" data-name="Tracé 7812" d="M126.468,57.043a2.8,2.8,0,0,1-.692,2.032,2.494,2.494,0,0,1-1.883.717,2.659,2.659,0,0,1-1.312-.319,2.251,2.251,0,0,1-.9-.934,3.127,3.127,0,0,1-.33-1.5,2.782,2.782,0,0,1,.687-2.023,2.511,2.511,0,0,1,1.888-.707,2.653,2.653,0,0,1,1.317.319,2.284,2.284,0,0,1,.9.925,3.078,3.078,0,0,1,.329,1.486m-3.65,0a2.226,2.226,0,0,0,.257,1.186.917.917,0,0,0,.837.4.907.907,0,0,0,.828-.4A2.226,2.226,0,0,0,125,57.043a2.173,2.173,0,0,0-.257-1.176.926.926,0,0,0-.837-.392.916.916,0,0,0-.828.392,2.173,2.173,0,0,0-.257,1.176" transform="translate(-37.436 -16.755)" fill="#322e4e"/>
      <path id="Tracé_7813" data-name="Tracé 7813" d="M133.476,54.313a1.973,1.973,0,0,1,1.366.46,1.893,1.893,0,0,1,.513,1.476V59.7h-1.443V56.607a1.479,1.479,0,0,0-.2-.857.741.741,0,0,0-.649-.286.927.927,0,0,0-.9.45,2.776,2.776,0,0,0-.243,1.293V59.7h-1.442V54.41h1.1l.193.677h.077a1.455,1.455,0,0,1,.692-.59,2.393,2.393,0,0,1,.934-.185" transform="translate(-40.252 -16.755)" fill="#322e4e"/>
      <path id="Tracé_7814" data-name="Tracé 7814" d="M146.256,54.313a1.757,1.757,0,0,1,1.442.692,3.218,3.218,0,0,1,.553,2.038,3.179,3.179,0,0,1-.572,2.048,1.8,1.8,0,0,1-1.462.7,1.725,1.725,0,0,1-.91-.208,2.156,2.156,0,0,1-.552-.47h-.077a4.184,4.184,0,0,1,.077.774V62.02h-1.442V54.41h1.171l.2.687h.068a1.948,1.948,0,0,1,.571-.552,1.682,1.682,0,0,1,.929-.232m-.465,1.152a.87.87,0,0,0-.789.349,2.091,2.091,0,0,0-.247,1.065v.156a2.461,2.461,0,0,0,.228,1.176.862.862,0,0,0,.828.411.786.786,0,0,0,.731-.411,2.412,2.412,0,0,0,.237-1.186q0-1.558-.987-1.559" transform="translate(-44.212 -16.755)" fill="#322e4e"/>
      <path id="Tracé_7815" data-name="Tracé 7815" d="M154.188,54.3a2.531,2.531,0,0,1,1.631.46,1.707,1.707,0,0,1,.567,1.409v3.524H155.38l-.281-.716h-.038a2.241,2.241,0,0,1-.716.62,2.3,2.3,0,0,1-1.036.193,1.706,1.706,0,0,1-1.172-.411,1.6,1.6,0,0,1-.465-1.264,1.4,1.4,0,0,1,.591-1.243,3.368,3.368,0,0,1,1.771-.44l.92-.029v-.232a.777.777,0,0,0-.219-.61.877.877,0,0,0-.605-.194,2.6,2.6,0,0,0-.755.111,6.225,6.225,0,0,0-.735.275l-.475-.978a4.231,4.231,0,0,1,.945-.349,4.563,4.563,0,0,1,1.079-.125m.2,2.962a1.59,1.59,0,0,0-.968.251.765.765,0,0,0-.271.611.543.543,0,0,0,.193.47.836.836,0,0,0,.5.14,1.159,1.159,0,0,0,.784-.276.977.977,0,0,0,.319-.779v-.436Z" transform="translate(-46.791 -16.751)" fill="#322e4e"/>
      <path id="Tracé_7816" data-name="Tracé 7816" d="M163.584,54.313q.107,0,.251.01a1.374,1.374,0,0,1,.232.029l-.106,1.355a1.258,1.258,0,0,0-.2-.035,2.11,2.11,0,0,0-.227-.015,1.951,1.951,0,0,0-.707.131,1.184,1.184,0,0,0-.547.421,1.344,1.344,0,0,0-.208.795V59.7h-1.442V54.41h1.095l.213.89h.068a2.177,2.177,0,0,1,.639-.7,1.578,1.578,0,0,1,.939-.29" transform="translate(-49.555 -16.755)" fill="#322e4e"/>
      <path id="Tracé_7817" data-name="Tracé 7817" d="M167.687,51.458a1,1,0,0,1,.553.15.778.778,0,0,1,0,1.108,1.066,1.066,0,0,1-1.109,0,.788.788,0,0,1,0-1.108.987.987,0,0,1,.557-.15m.716,7.358h-1.442V53.53H168.4Z" transform="translate(-51.49 -15.875)" fill="#322e4e"/>
      <path id="Tracé_7818" data-name="Tracé 7818" d="M174.8,58.128a1.457,1.457,0,0,1-.566,1.234,2.768,2.768,0,0,1-1.69.431,5.361,5.361,0,0,1-.949-.072,3.979,3.979,0,0,1-.794-.237V58.292a5.409,5.409,0,0,0,.92.319,3.565,3.565,0,0,0,.872.127,1.087,1.087,0,0,0,.605-.127.386.386,0,0,0,.178-.328.42.42,0,0,0-.073-.242.951.951,0,0,0-.315-.243,7.887,7.887,0,0,0-.755-.348,5.517,5.517,0,0,1-.813-.422,1.35,1.35,0,0,1-.474-.5,1.589,1.589,0,0,1-.155-.741,1.224,1.224,0,0,1,.571-1.1,2.773,2.773,0,0,1,1.521-.369,4.378,4.378,0,0,1,.938.1,4.3,4.3,0,0,1,.92.319l-.436,1.036q-.387-.165-.735-.276a2.305,2.305,0,0,0-.707-.112q-.639,0-.639.349a.345.345,0,0,0,.083.228.962.962,0,0,0,.319.219c.158.077.392.18.7.309a5.575,5.575,0,0,1,.784.383,1.33,1.33,0,0,1,.687,1.263" transform="translate(-52.69 -16.755)" fill="#322e4e"/>
      <path id="Tracé_7819" data-name="Tracé 7819" d="M178.914,51.458a1,1,0,0,1,.552.15.776.776,0,0,1,0,1.108.971.971,0,0,1-.552.156.96.96,0,0,1-.556-.156.786.786,0,0,1,0-1.108.985.985,0,0,1,.556-.15m.716,7.358h-1.442V53.53h1.442Z" transform="translate(-54.953 -15.875)" fill="#322e4e"/>
      <path id="Tracé_7820" data-name="Tracé 7820" d="M184.52,54.314a2.19,2.19,0,0,1,2.372,2.4v.7h-3.408a1.373,1.373,0,0,0,.363.958,1.28,1.28,0,0,0,.954.349,3.918,3.918,0,0,0,.929-.1,4.452,4.452,0,0,0,.862-.315v1.113a3.427,3.427,0,0,1-.818.286,5.049,5.049,0,0,1-1.041.091,3.181,3.181,0,0,1-1.4-.295,2.19,2.19,0,0,1-.958-.9,2.971,2.971,0,0,1-.349-1.51,3.367,3.367,0,0,1,.315-1.544,2.137,2.137,0,0,1,.876-.925,2.662,2.662,0,0,1,1.307-.31m.01,1.026a.95.95,0,0,0-.692.271,1.3,1.3,0,0,0-.324.842h2.023a1.321,1.321,0,0,0-.252-.8.891.891,0,0,0-.755-.315" transform="translate(-56.154 -16.756)" fill="#322e4e"/>
      <path id="Tracé_7821" data-name="Tracé 7821" d="M193.758,54.313a1.974,1.974,0,0,1,1.366.46,1.893,1.893,0,0,1,.513,1.476V59.7h-1.443V56.607a1.479,1.479,0,0,0-.2-.857.741.741,0,0,0-.649-.286.927.927,0,0,0-.9.45,2.776,2.776,0,0,0-.243,1.293V59.7h-1.442V54.41h1.1l.193.677h.077a1.455,1.455,0,0,1,.692-.59,2.393,2.393,0,0,1,.934-.185" transform="translate(-58.849 -16.755)" fill="#322e4e"/>
      <path id="Tracé_7822" data-name="Tracé 7822" d="M202.957,54.313a1.973,1.973,0,0,1,1.366.46,1.9,1.9,0,0,1,.512,1.476V59.7h-1.442V56.607a1.485,1.485,0,0,0-.2-.857.742.742,0,0,0-.649-.286.926.926,0,0,0-.9.45,2.776,2.776,0,0,0-.243,1.293V59.7h-1.442V54.41h1.1l.192.677h.077a1.46,1.46,0,0,1,.693-.59,2.393,2.393,0,0,1,.934-.185" transform="translate(-61.687 -16.755)" fill="#322e4e"/>
      <path id="Tracé_7823" data-name="Tracé 7823" d="M211.19,54.314a2.19,2.19,0,0,1,2.372,2.4v.7h-3.408a1.373,1.373,0,0,0,.363.958,1.28,1.28,0,0,0,.954.349,3.918,3.918,0,0,0,.929-.1,4.451,4.451,0,0,0,.862-.315v1.113a3.426,3.426,0,0,1-.818.286,5.05,5.05,0,0,1-1.041.091A3.181,3.181,0,0,1,210,59.5a2.19,2.19,0,0,1-.958-.9,2.971,2.971,0,0,1-.349-1.51,3.367,3.367,0,0,1,.315-1.544,2.138,2.138,0,0,1,.876-.925,2.662,2.662,0,0,1,1.307-.31m.01,1.026a.95.95,0,0,0-.692.271,1.3,1.3,0,0,0-.324.842h2.023a1.322,1.322,0,0,0-.252-.8.891.891,0,0,0-.755-.315" transform="translate(-64.382 -16.756)" fill="#322e4e"/>
      <path id="Tracé_7824" data-name="Tracé 7824" d="M60.832,74.817a1.759,1.759,0,0,1-1.438-.692,4.02,4.02,0,0,1,0-4.09,1.966,1.966,0,0,1,2.411-.474,1.779,1.779,0,0,1,.58.552h.048q-.029-.155-.068-.45a4.681,4.681,0,0,1-.039-.605V67.363h1.442V74.72h-1.1l-.281-.687h-.058a1.847,1.847,0,0,1-.571.557,1.705,1.705,0,0,1-.929.228m.5-1.152a.947.947,0,0,0,.842-.353,1.94,1.94,0,0,0,.252-1.06V72.1a2.375,2.375,0,0,0-.237-1.181.928.928,0,0,0-.876-.406.846.846,0,0,0-.745.411,2.154,2.154,0,0,0-.272,1.186,2.054,2.054,0,0,0,.272,1.167.873.873,0,0,0,.764.391" transform="translate(-18.152 -20.781)" fill="#322e4e"/>
      <path id="Tracé_7825" data-name="Tracé 7825" d="M70.2,70.219a2.19,2.19,0,0,1,2.372,2.4v.7H69.162a1.373,1.373,0,0,0,.363.958,1.278,1.278,0,0,0,.954.349,3.92,3.92,0,0,0,.929-.1,4.446,4.446,0,0,0,.861-.315v1.113a3.411,3.411,0,0,1-.817.286,5.049,5.049,0,0,1-1.041.091,3.179,3.179,0,0,1-1.4-.295,2.19,2.19,0,0,1-.958-.9A2.971,2.971,0,0,1,67.7,73a3.367,3.367,0,0,1,.315-1.544,2.133,2.133,0,0,1,.876-.925,2.658,2.658,0,0,1,1.307-.31m.01,1.026a.949.949,0,0,0-.692.271,1.292,1.292,0,0,0-.324.842h2.023a1.321,1.321,0,0,0-.252-.8.892.892,0,0,0-.755-.315" transform="translate(-20.886 -21.662)" fill="#322e4e"/>
      <path id="Tracé_7826" data-name="Tracé 7826" d="M83.028,70.219c.071,0,.156,0,.252.01a1.534,1.534,0,0,1,.232.029l-.106,1.356a1.181,1.181,0,0,0-.2-.035,1.9,1.9,0,0,0-.935.116,1.183,1.183,0,0,0-.547.42,1.346,1.346,0,0,0-.208.795V75.6H80.075V70.316h1.094l.213.889h.068a2.167,2.167,0,0,1,.639-.7,1.576,1.576,0,0,1,.938-.29" transform="translate(-24.703 -21.662)" fill="#322e4e"/>
      <path id="Tracé_7827" data-name="Tracé 7827" d="M88.188,70.219a2.19,2.19,0,0,1,2.372,2.4v.7H87.152a1.373,1.373,0,0,0,.363.958,1.278,1.278,0,0,0,.954.349,3.92,3.92,0,0,0,.929-.1,4.445,4.445,0,0,0,.861-.315v1.113a3.411,3.411,0,0,1-.817.286A5.049,5.049,0,0,1,88.4,75.7,3.179,3.179,0,0,1,87,75.4a2.19,2.19,0,0,1-.958-.9A2.971,2.971,0,0,1,85.69,73,3.367,3.367,0,0,1,86,71.453a2.133,2.133,0,0,1,.876-.925,2.658,2.658,0,0,1,1.307-.31m.01,1.026a.949.949,0,0,0-.692.271,1.292,1.292,0,0,0-.324.842H89.2a1.321,1.321,0,0,0-.252-.8.892.892,0,0,0-.755-.315" transform="translate(-26.435 -21.662)" fill="#322e4e"/>
      <path id="Tracé_7828" data-name="Tracé 7828" d="M96.433,75.7a2.445,2.445,0,0,1-1.825-.653,2.838,2.838,0,0,1-.644-2.058,3.311,3.311,0,0,1,.329-1.577,2.07,2.07,0,0,1,.915-.9,3.011,3.011,0,0,1,1.35-.29,3.732,3.732,0,0,1,.944.106,3.915,3.915,0,0,1,.7.252l-.427,1.113q-.339-.135-.634-.222a2.063,2.063,0,0,0-.586-.087q-1.122,0-1.123,1.6a1.9,1.9,0,0,0,.3,1.172.993.993,0,0,0,.828.378,2.457,2.457,0,0,0,.8-.121,3.133,3.133,0,0,0,.678-.335V75.3a2.322,2.322,0,0,1-.692.3,3.8,3.8,0,0,1-.915.092" transform="translate(-28.988 -21.662)" fill="#322e4e"/>
      <path id="Tracé_7829" data-name="Tracé 7829" d="M103.064,68.864q0,.387-.024.745c-.017.239-.03.407-.044.5h.077a1.5,1.5,0,0,1,.649-.591,2.063,2.063,0,0,1,.881-.184,2,2,0,0,1,1.38.46,1.881,1.881,0,0,1,.518,1.476v3.447h-1.442V71.632q0-1.143-.852-1.142a.929.929,0,0,0-.9.45,2.734,2.734,0,0,0-.247,1.292v2.488h-1.442V67.363h1.442Z" transform="translate(-31.351 -20.781)" fill="#322e4e"/>
      <path id="Tracé_7830" data-name="Tracé 7830" d="M112.855,70.219a2.19,2.19,0,0,1,2.373,2.4v.7h-3.408a1.371,1.371,0,0,0,.364.958,1.278,1.278,0,0,0,.954.349,3.928,3.928,0,0,0,.929-.1,4.467,4.467,0,0,0,.862-.315v1.113a3.448,3.448,0,0,1-.818.286,5.056,5.056,0,0,1-1.041.091,3.178,3.178,0,0,1-1.4-.295,2.2,2.2,0,0,1-.959-.9,2.971,2.971,0,0,1-.349-1.51,3.376,3.376,0,0,1,.315-1.544,2.135,2.135,0,0,1,.877-.925,2.657,2.657,0,0,1,1.306-.31m.01,1.026a.95.95,0,0,0-.692.271,1.3,1.3,0,0,0-.324.842h2.023a1.321,1.321,0,0,0-.251-.8.893.893,0,0,0-.756-.315" transform="translate(-34.045 -21.662)" fill="#322e4e"/>
      <path id="Tracé_7831" data-name="Tracé 7831" d="M122.045,70.219c.071,0,.155,0,.251.01a1.534,1.534,0,0,1,.232.029l-.106,1.356a1.181,1.181,0,0,0-.2-.035,1.9,1.9,0,0,0-.935.116,1.183,1.183,0,0,0-.547.42,1.346,1.346,0,0,0-.208.795V75.6h-1.442V70.316h1.095l.213.889h.068a2.175,2.175,0,0,1,.639-.7,1.578,1.578,0,0,1,.939-.29" transform="translate(-36.74 -21.662)" fill="#322e4e"/>
      <path id="Tracé_7832" data-name="Tracé 7832" d="M127.176,75.7a2.448,2.448,0,0,1-1.826-.653,2.841,2.841,0,0,1-.643-2.058,3.311,3.311,0,0,1,.329-1.577,2.067,2.067,0,0,1,.915-.9,3.008,3.008,0,0,1,1.351-.29,3.736,3.736,0,0,1,.944.106,3.907,3.907,0,0,1,.7.252l-.426,1.113q-.339-.135-.635-.222a2.054,2.054,0,0,0-.585-.087q-1.123,0-1.123,1.6a1.9,1.9,0,0,0,.295,1.172,1,1,0,0,0,.828.378,2.46,2.46,0,0,0,.8-.121,3.132,3.132,0,0,0,.678-.335V75.3a2.322,2.322,0,0,1-.692.3,3.8,3.8,0,0,1-.915.092" transform="translate(-38.472 -21.662)" fill="#322e4e"/>
      <path id="Tracé_7833" data-name="Tracé 7833" d="M133.807,68.864q0,.387-.024.745c-.017.239-.03.407-.044.5h.078a1.491,1.491,0,0,1,.648-.591,2.066,2.066,0,0,1,.882-.184,2,2,0,0,1,1.38.46,1.881,1.881,0,0,1,.518,1.476v3.447H135.8V71.632q0-1.143-.852-1.142a.93.93,0,0,0-.9.45,2.734,2.734,0,0,0-.247,1.292v2.488h-1.442V67.363h1.442Z" transform="translate(-40.835 -20.781)" fill="#322e4e"/>
      <path id="Tracé_7834" data-name="Tracé 7834" d="M143.6,70.219a2.19,2.19,0,0,1,2.372,2.4v.7h-3.408a1.373,1.373,0,0,0,.363.958,1.28,1.28,0,0,0,.954.349,3.918,3.918,0,0,0,.929-.1,4.451,4.451,0,0,0,.862-.315v1.113a3.427,3.427,0,0,1-.818.286,5.05,5.05,0,0,1-1.041.091,3.181,3.181,0,0,1-1.4-.295,2.19,2.19,0,0,1-.958-.9A2.971,2.971,0,0,1,141.1,73a3.367,3.367,0,0,1,.315-1.544,2.138,2.138,0,0,1,.876-.925,2.662,2.662,0,0,1,1.307-.31m.01,1.026a.95.95,0,0,0-.692.271,1.3,1.3,0,0,0-.324.842h2.023a1.321,1.321,0,0,0-.252-.8.891.891,0,0,0-.755-.315" transform="translate(-43.53 -21.662)" fill="#322e4e"/>
      <path id="Tracé_7835" data-name="Tracé 7835" d="M155.512,70.219a2.19,2.19,0,0,1,2.372,2.4v.7h-3.408a1.373,1.373,0,0,0,.363.958,1.28,1.28,0,0,0,.954.349,3.918,3.918,0,0,0,.929-.1,4.451,4.451,0,0,0,.862-.315v1.113a3.427,3.427,0,0,1-.818.286,5.049,5.049,0,0,1-1.041.091,3.181,3.181,0,0,1-1.4-.295,2.19,2.19,0,0,1-.958-.9,2.971,2.971,0,0,1-.349-1.51,3.367,3.367,0,0,1,.315-1.544,2.137,2.137,0,0,1,.876-.925,2.662,2.662,0,0,1,1.307-.31m.01,1.026a.95.95,0,0,0-.692.271,1.3,1.3,0,0,0-.324.842h2.023a1.321,1.321,0,0,0-.252-.8.891.891,0,0,0-.755-.315" transform="translate(-47.205 -21.662)" fill="#322e4e"/>
      <path id="Tracé_7836" data-name="Tracé 7836" d="M163.738,74.088a2.177,2.177,0,0,0,.465-.048c.148-.033.3-.071.445-.116V75a3.286,3.286,0,0,1-.576.17,3.632,3.632,0,0,1-.75.072,2.176,2.176,0,0,1-.846-.155,1.2,1.2,0,0,1-.591-.537,2.151,2.151,0,0,1-.217-1.059V70.942h-.687v-.61l.793-.484.417-1.113h.92v1.123h1.481v1.084H163.11v2.547a.56.56,0,0,0,.174.449.669.669,0,0,0,.454.15" transform="translate(-49.663 -21.205)" fill="#322e4e"/>
      <path id="Tracé_7837" data-name="Tracé 7837" d="M173,74.817a1.761,1.761,0,0,1-1.438-.692,4.022,4.022,0,0,1,.006-4.09,1.965,1.965,0,0,1,2.411-.474,1.772,1.772,0,0,1,.58.552h.049c-.02-.1-.042-.253-.068-.45a4.561,4.561,0,0,1-.039-.605V67.363h1.442V74.72h-1.1l-.281-.687H174.5a1.837,1.837,0,0,1-.57.557,1.706,1.706,0,0,1-.93.228m.5-1.152a.948.948,0,0,0,.842-.353,1.94,1.94,0,0,0,.252-1.06V72.1a2.375,2.375,0,0,0-.237-1.181.928.928,0,0,0-.876-.406.848.848,0,0,0-.745.411,2.161,2.161,0,0,0-.271,1.186,2.06,2.06,0,0,0,.271,1.167.874.874,0,0,0,.765.391" transform="translate(-52.755 -20.781)" fill="#322e4e"/>
      <path id="Tracé_7838" data-name="Tracé 7838" d="M182.364,70.219a2.19,2.19,0,0,1,2.372,2.4v.7h-3.408a1.373,1.373,0,0,0,.363.958,1.28,1.28,0,0,0,.954.349,3.918,3.918,0,0,0,.929-.1,4.451,4.451,0,0,0,.862-.315v1.113a3.427,3.427,0,0,1-.818.286,5.049,5.049,0,0,1-1.041.091,3.181,3.181,0,0,1-1.4-.295,2.19,2.19,0,0,1-.958-.9,2.971,2.971,0,0,1-.349-1.51,3.367,3.367,0,0,1,.315-1.544,2.137,2.137,0,0,1,.876-.925,2.662,2.662,0,0,1,1.307-.31m.01,1.026a.95.95,0,0,0-.692.271,1.3,1.3,0,0,0-.324.842h2.023a1.321,1.321,0,0,0-.252-.8.891.891,0,0,0-.755-.315" transform="translate(-55.489 -21.662)" fill="#322e4e"/>
      <path id="Tracé_7839" data-name="Tracé 7839" d="M61.289,89.993a2.17,2.17,0,0,0,.465-.048q.223-.049.445-.116V90.9a3.286,3.286,0,0,1-.576.17,3.627,3.627,0,0,1-.75.072,2.178,2.178,0,0,1-.846-.155,1.2,1.2,0,0,1-.591-.537,2.151,2.151,0,0,1-.217-1.059V86.847H58.53v-.61l.794-.484.416-1.113h.92v1.123h1.48v1.084H60.66v2.547a.56.56,0,0,0,.174.449.671.671,0,0,0,.455.15" transform="translate(-18.057 -26.111)" fill="#322e4e"/>
      <path id="Tracé_7840" data-name="Tracé 7840" d="M68.328,86.123c.071,0,.156,0,.252.01a1.375,1.375,0,0,1,.232.029l-.106,1.355a1.258,1.258,0,0,0-.2-.035,2.112,2.112,0,0,0-.228-.015,1.948,1.948,0,0,0-.707.131,1.184,1.184,0,0,0-.547.421,1.344,1.344,0,0,0-.208.795v2.691H65.375V86.22h1.094l.213.89h.068a2.169,2.169,0,0,1,.639-.7,1.576,1.576,0,0,1,.938-.29" transform="translate(-20.168 -26.569)" fill="#322e4e"/>
      <path id="Tracé_7841" data-name="Tracé 7841" d="M73.464,86.109a2.533,2.533,0,0,1,1.631.46,1.707,1.707,0,0,1,.566,1.409V91.5H74.656l-.281-.716h-.039a2.239,2.239,0,0,1-.716.62,2.3,2.3,0,0,1-1.036.193,1.706,1.706,0,0,1-1.172-.411,1.6,1.6,0,0,1-.465-1.264,1.4,1.4,0,0,1,.591-1.243,3.373,3.373,0,0,1,1.772-.44l.92-.029v-.232a.777.777,0,0,0-.218-.61.878.878,0,0,0-.605-.194,2.6,2.6,0,0,0-.755.111,6.281,6.281,0,0,0-.736.275l-.474-.978a4.205,4.205,0,0,1,.945-.349,4.562,4.562,0,0,1,1.079-.125m.2,2.962a1.59,1.59,0,0,0-.967.251.766.766,0,0,0-.272.611.543.543,0,0,0,.194.47.834.834,0,0,0,.5.14,1.161,1.161,0,0,0,.785-.276.976.976,0,0,0,.319-.779v-.436Z" transform="translate(-21.887 -26.564)" fill="#322e4e"/>
      <path id="Tracé_7842" data-name="Tracé 7842" d="M80.83,91.549l-2.014-5.286h1.51l1.017,3.011a4.326,4.326,0,0,1,.14.562,3.819,3.819,0,0,1,.064.523h.039a4.274,4.274,0,0,1,.212-1.084l1.017-3.011h1.51l-2.014,5.286Z" transform="translate(-24.315 -26.612)" fill="#322e4e"/>
      <path id="Tracé_7843" data-name="Tracé 7843" d="M89.886,86.109a2.533,2.533,0,0,1,1.631.46,1.707,1.707,0,0,1,.566,1.409V91.5H91.078l-.281-.716h-.039a2.239,2.239,0,0,1-.716.62,2.3,2.3,0,0,1-1.036.193,1.706,1.706,0,0,1-1.172-.411,1.6,1.6,0,0,1-.465-1.264,1.4,1.4,0,0,1,.591-1.243,3.373,3.373,0,0,1,1.772-.44l.92-.029v-.232a.777.777,0,0,0-.218-.61.879.879,0,0,0-.605-.194,2.6,2.6,0,0,0-.755.111,6.281,6.281,0,0,0-.736.275l-.474-.978a4.205,4.205,0,0,1,.945-.349,4.562,4.562,0,0,1,1.079-.125m.2,2.962a1.59,1.59,0,0,0-.967.251.766.766,0,0,0-.272.611.543.543,0,0,0,.194.47.834.834,0,0,0,.5.14,1.161,1.161,0,0,0,.785-.276.976.976,0,0,0,.319-.779v-.436Z" transform="translate(-26.953 -26.564)" fill="#322e4e"/>
      <path id="Tracé_7844" data-name="Tracé 7844" d="M97.029,83.268a1,1,0,0,1,.552.149.777.777,0,0,1,0,1.108,1.064,1.064,0,0,1-1.108,0,.789.789,0,0,1,0-1.108.99.99,0,0,1,.556-.149m.717,7.357H96.3V85.339h1.442Z" transform="translate(-29.692 -25.688)" fill="#322e4e"/>
      <rect id="Rectangle_282" data-name="Rectangle 282" width="1.443" height="7.358" transform="translate(69.564 57.579)" fill="#322e4e"/>
      <path id="Tracé_7845" data-name="Tracé 7845" d="M110.523,86.109a2.531,2.531,0,0,1,1.631.46,1.707,1.707,0,0,1,.567,1.409V91.5h-1.007l-.281-.716h-.038a2.241,2.241,0,0,1-.716.62,2.3,2.3,0,0,1-1.036.193,1.706,1.706,0,0,1-1.172-.411A1.605,1.605,0,0,1,108,89.923a1.4,1.4,0,0,1,.591-1.243,3.37,3.37,0,0,1,1.771-.44l.92-.029v-.232a.777.777,0,0,0-.218-.61.879.879,0,0,0-.605-.194,2.608,2.608,0,0,0-.756.111,6.225,6.225,0,0,0-.735.275l-.475-.978a4.23,4.23,0,0,1,.945-.349,4.564,4.564,0,0,1,1.079-.125m.2,2.962a1.594,1.594,0,0,0-.968.251.765.765,0,0,0-.271.611.543.543,0,0,0,.193.47.838.838,0,0,0,.5.14,1.158,1.158,0,0,0,.784-.276.975.975,0,0,0,.319-.779v-.436Z" transform="translate(-33.32 -26.564)" fill="#322e4e"/>
      <path id="Tracé_7846" data-name="Tracé 7846" d="M117.888,91.549l-2.014-5.286h1.51l1.017,3.011a4.443,4.443,0,0,1,.14.562,3.921,3.921,0,0,1,.063.523h.039a4.274,4.274,0,0,1,.212-1.084l1.017-3.011h1.51l-2.014,5.286Z" transform="translate(-35.747 -26.612)" fill="#322e4e"/>
      <path id="Tracé_7847" data-name="Tracé 7847" d="M126.967,86.123a2.19,2.19,0,0,1,2.372,2.4v.7h-3.408a1.373,1.373,0,0,0,.363.958,1.28,1.28,0,0,0,.954.349,3.918,3.918,0,0,0,.929-.1,4.451,4.451,0,0,0,.862-.315v1.113a3.427,3.427,0,0,1-.818.286,5.049,5.049,0,0,1-1.041.091,3.181,3.181,0,0,1-1.4-.295,2.19,2.19,0,0,1-.958-.9,2.971,2.971,0,0,1-.349-1.51,3.367,3.367,0,0,1,.315-1.544,2.137,2.137,0,0,1,.876-.925,2.662,2.662,0,0,1,1.307-.31m.01,1.026a.95.95,0,0,0-.692.271,1.3,1.3,0,0,0-.324.842h2.023a1.321,1.321,0,0,0-.252-.8.891.891,0,0,0-.755-.315" transform="translate(-38.399 -26.569)" fill="#322e4e"/>
      <path id="Tracé_7848" data-name="Tracé 7848" d="M135.212,91.6a2.448,2.448,0,0,1-1.826-.653,2.841,2.841,0,0,1-.643-2.058,3.311,3.311,0,0,1,.329-1.577,2.067,2.067,0,0,1,.915-.9,3.009,3.009,0,0,1,1.35-.29,3.736,3.736,0,0,1,.944.106,3.907,3.907,0,0,1,.7.252l-.426,1.113q-.339-.135-.635-.222a2.055,2.055,0,0,0-.585-.087q-1.123,0-1.123,1.6a1.9,1.9,0,0,0,.295,1.172,1,1,0,0,0,.828.378,2.46,2.46,0,0,0,.8-.121,3.133,3.133,0,0,0,.678-.335v1.23a2.322,2.322,0,0,1-.692.3,3.8,3.8,0,0,1-.915.092" transform="translate(-40.951 -26.569)" fill="#322e4e"/>
      <rect id="Rectangle_283" data-name="Rectangle 283" width="1.442" height="7.358" transform="translate(99.604 57.579)" fill="#322e4e"/>
      <path id="Tracé_7849" data-name="Tracé 7849" d="M150.346,86.123a2.19,2.19,0,0,1,2.372,2.4v.7H149.31a1.373,1.373,0,0,0,.363.958,1.28,1.28,0,0,0,.954.349,3.918,3.918,0,0,0,.929-.1,4.451,4.451,0,0,0,.862-.315v1.113a3.427,3.427,0,0,1-.818.286,5.049,5.049,0,0,1-1.041.091,3.181,3.181,0,0,1-1.4-.295,2.19,2.19,0,0,1-.958-.9,2.971,2.971,0,0,1-.349-1.51,3.367,3.367,0,0,1,.315-1.544,2.137,2.137,0,0,1,.876-.925,2.662,2.662,0,0,1,1.307-.31m.01,1.026a.95.95,0,0,0-.692.271,1.3,1.3,0,0,0-.324.842h2.023a1.321,1.321,0,0,0-.252-.8.891.891,0,0,0-.755-.315" transform="translate(-45.611 -26.569)" fill="#322e4e"/>
      <path id="Tracé_7850" data-name="Tracé 7850" d="M160.13,89.937a1.456,1.456,0,0,1-.566,1.234,2.768,2.768,0,0,1-1.69.431,5.361,5.361,0,0,1-.949-.072,3.979,3.979,0,0,1-.794-.237V90.1a5.408,5.408,0,0,0,.92.319,3.565,3.565,0,0,0,.872.127,1.087,1.087,0,0,0,.605-.127.386.386,0,0,0,.178-.328.42.42,0,0,0-.073-.242.951.951,0,0,0-.315-.243,7.89,7.89,0,0,0-.755-.348,5.517,5.517,0,0,1-.813-.422,1.35,1.35,0,0,1-.474-.5,1.589,1.589,0,0,1-.155-.741,1.224,1.224,0,0,1,.571-1.1,2.773,2.773,0,0,1,1.521-.369,4.378,4.378,0,0,1,.938.1,4.3,4.3,0,0,1,.92.319l-.436,1.036q-.387-.165-.735-.276a2.305,2.305,0,0,0-.707-.112q-.639,0-.639.349a.345.345,0,0,0,.083.228.962.962,0,0,0,.319.219c.158.077.392.18.7.309a5.577,5.577,0,0,1,.784.383,1.33,1.33,0,0,1,.687,1.263" transform="translate(-48.164 -26.568)" fill="#322e4e"/>
      <path id="Tracé_7851" data-name="Tracé 7851" d="M169.855,86.4h-1.25v4.2h-1.442V86.4h-.793v-.7l.793-.387V84.93a2.015,2.015,0,0,1,.228-1.05,1.234,1.234,0,0,1,.649-.528,2.876,2.876,0,0,1,.992-.155,4.014,4.014,0,0,1,.77.068,3.079,3.079,0,0,1,.557.155l-.369,1.055c-.109-.032-.229-.063-.358-.092a2.05,2.05,0,0,0-.446-.043.52.52,0,0,0-.44.183.752.752,0,0,0-.14.465v.33h1.25Z" transform="translate(-51.325 -25.666)" fill="#322e4e"/>
      <path id="Tracé_7852" data-name="Tracé 7852" d="M174.612,86.109a2.531,2.531,0,0,1,1.631.46,1.707,1.707,0,0,1,.567,1.409V91.5H175.8l-.281-.716h-.038a2.24,2.24,0,0,1-.716.62,2.3,2.3,0,0,1-1.036.193,1.706,1.706,0,0,1-1.172-.411,1.6,1.6,0,0,1-.465-1.264,1.4,1.4,0,0,1,.591-1.243,3.368,3.368,0,0,1,1.771-.44l.92-.029v-.232a.777.777,0,0,0-.219-.61.877.877,0,0,0-.605-.194,2.6,2.6,0,0,0-.755.111,6.225,6.225,0,0,0-.735.275l-.475-.978a4.23,4.23,0,0,1,.945-.349,4.562,4.562,0,0,1,1.079-.125m.2,2.962a1.59,1.59,0,0,0-.968.251.765.765,0,0,0-.271.611.542.542,0,0,0,.193.47.836.836,0,0,0,.5.14,1.159,1.159,0,0,0,.784-.276.977.977,0,0,0,.319-.779v-.436Z" transform="translate(-53.092 -26.564)" fill="#322e4e"/>
      <path id="Tracé_7853" data-name="Tracé 7853" d="M187.261,86.123a1.848,1.848,0,0,1,1.36.46,2.024,2.024,0,0,1,.46,1.476v3.446h-1.442V88.417q0-1.142-.795-1.142a.869.869,0,0,0-.813.407,2.31,2.31,0,0,0-.242,1.171v2.653h-1.443V88.417q0-1.142-.793-1.142a.845.845,0,0,0-.828.45,2.939,2.939,0,0,0-.228,1.293v2.487h-1.442V86.22h1.1l.193.677h.078a1.41,1.41,0,0,1,.663-.59,2.158,2.158,0,0,1,.875-.185,2.337,2.337,0,0,1,.988.189,1.311,1.311,0,0,1,.619.586h.126a1.408,1.408,0,0,1,.674-.59,2.226,2.226,0,0,1,.886-.185" transform="translate(-55.856 -26.569)" fill="#322e4e"/>
      <path id="Tracé_7854" data-name="Tracé 7854" d="M195.5,83.268a1,1,0,0,1,.553.149.777.777,0,0,1,0,1.108,1.066,1.066,0,0,1-1.109,0,.789.789,0,0,1,0-1.108.994.994,0,0,1,.557-.149m.716,7.357h-1.442V85.339h1.442Z" transform="translate(-60.071 -25.688)" fill="#322e4e"/>
      <rect id="Rectangle_284" data-name="Rectangle 284" width="1.442" height="7.358" transform="translate(137.659 57.579)" fill="#322e4e"/>
      <rect id="Rectangle_285" data-name="Rectangle 285" width="1.442" height="7.358" transform="translate(140.611 57.579)" fill="#322e4e"/>
      <path id="Tracé_7855" data-name="Tracé 7855" d="M209.648,86.123a2.19,2.19,0,0,1,2.372,2.4v.7h-3.408a1.373,1.373,0,0,0,.363.958,1.28,1.28,0,0,0,.954.349,3.918,3.918,0,0,0,.929-.1,4.451,4.451,0,0,0,.862-.315v1.113a3.426,3.426,0,0,1-.818.286,5.049,5.049,0,0,1-1.041.091,3.181,3.181,0,0,1-1.4-.295,2.19,2.19,0,0,1-.958-.9,2.971,2.971,0,0,1-.349-1.51,3.367,3.367,0,0,1,.315-1.544,2.137,2.137,0,0,1,.876-.925,2.662,2.662,0,0,1,1.307-.31m.01,1.026a.95.95,0,0,0-.692.271,1.3,1.3,0,0,0-.324.842h2.023a1.321,1.321,0,0,0-.252-.8.891.891,0,0,0-.755-.315" transform="translate(-63.906 -26.569)" fill="#322e4e"/>
      <path id="Tracé_7856" data-name="Tracé 7856" d="M219.431,89.937a1.456,1.456,0,0,1-.566,1.234,2.768,2.768,0,0,1-1.69.431,5.361,5.361,0,0,1-.949-.072,3.979,3.979,0,0,1-.794-.237V90.1a5.408,5.408,0,0,0,.92.319,3.565,3.565,0,0,0,.872.127,1.087,1.087,0,0,0,.605-.127.386.386,0,0,0,.178-.328.42.42,0,0,0-.073-.242.951.951,0,0,0-.315-.243,7.889,7.889,0,0,0-.755-.348,5.518,5.518,0,0,1-.813-.422,1.35,1.35,0,0,1-.474-.5,1.589,1.589,0,0,1-.155-.741,1.224,1.224,0,0,1,.571-1.1,2.773,2.773,0,0,1,1.521-.369,4.378,4.378,0,0,1,.938.1,4.3,4.3,0,0,1,.92.319l-.436,1.036q-.387-.165-.735-.276a2.305,2.305,0,0,0-.707-.112q-.639,0-.639.349a.345.345,0,0,0,.083.228.962.962,0,0,0,.319.219c.158.077.392.18.7.309a5.578,5.578,0,0,1,.784.383,1.33,1.33,0,0,1,.687,1.263" transform="translate(-66.458 -26.568)" fill="#322e4e"/>
    </g>
  </g>
</svg>
