<svg id="Groupe_1594" data-name="Groupe 1594" xmlns="http://www.w3.org/2000/svg" width="238.356" height="155.901" viewBox="0 0 238.356 155.901">
  <g id="undraw_team_spirit_re_yl1v" transform="translate(61.537)">
    <g id="Groupe_1447" data-name="Groupe 1447">
      <path id="Tracé_7878" data-name="Tracé 7878" d="M515.807,395.58a2.849,2.849,0,0,0-.374-4.353l4.651-22.508-5.017,1.583-3.742,21.774a2.864,2.864,0,0,0,4.483,3.5Z" transform="translate(-508.852 -306.308)" fill="#ffb6b6"/>
      <path id="Tracé_7879" data-name="Tracé 7879" d="M529.056,248.935l-3.108-2.346s-2.742-.194-3.227,4.75-3.526,23.921-3.526,23.921l-4.756,22.028,6.583,1.445,5.094-23.772,5.1-16.4Z" transform="translate(-511.351 -219.827)" fill="#e6e6e6"/>
      <path id="Tracé_7880" data-name="Tracé 7880" d="M519.2,329.675l-14.909-11.592a1.112,1.112,0,0,1-.2-1.558l10.144-13.046a1.112,1.112,0,0,1,1.558-.2l14.909,11.592a1.112,1.112,0,0,1,.2,1.558L520.756,329.48a1.112,1.112,0,0,1-1.558.2Z" transform="translate(-503.861 -259.807)" fill="#3f3d56"/>
      <path id="Tracé_7881" data-name="Tracé 7881" d="M522.1,331.448l-13.644-10.609a.987.987,0,0,1-.173-1.384l9.2-11.827a.987.987,0,0,1,1.384-.173l13.644,10.609a.987.987,0,0,1,.173,1.384l-9.2,11.827A.987.987,0,0,1,522.1,331.448Z" transform="translate(-506.847 -262.781)" fill="#fff"/>
      <path id="Tracé_7882" data-name="Tracé 7882" d="M515.278,337.234a.247.247,0,0,1-.043-.346l4.639-5.966a.246.246,0,1,1,.389.3l-4.639,5.966A.247.247,0,0,1,515.278,337.234Z" transform="translate(-511.878 -279.476)" fill="#e4e4e4"/>
      <path id="Tracé_7883" data-name="Tracé 7883" d="M517.912,339.282a.247.247,0,0,1-.043-.346l4.639-5.966a.246.246,0,0,1,.389.3l-4.639,5.966A.247.247,0,0,1,517.912,339.282Z" transform="translate(-513.743 -280.927)" fill="#e4e4e4"/>
      <path id="Tracé_7884" data-name="Tracé 7884" d="M529.549,337.95a.247.247,0,0,1-.043-.346l2.011-2.586a.246.246,0,1,1,.389.3l-2.011,2.586A.247.247,0,0,1,529.549,337.95Z" transform="translate(-521.983 -282.377)" fill="#e4e4e4"/>
      <path id="Tracé_7885" data-name="Tracé 7885" d="M533.1,338.762a.247.247,0,0,1-.043-.346L540.381,329a.246.246,0,1,1,.389.3l-7.324,9.419A.247.247,0,0,1,533.1,338.762Z" transform="translate(-524.498 -278.113)" fill="#e4e4e4"/>
      <path id="Tracé_7886" data-name="Tracé 7886" d="M535.735,340.81a.247.247,0,0,1-.043-.346l7.324-9.419a.247.247,0,0,1,.389.3l-7.324,9.419A.247.247,0,0,1,535.735,340.81Z" transform="translate(-526.363 -279.564)" fill="#e4e4e4"/>
      <path id="Tracé_7887" data-name="Tracé 7887" d="M541.714,345.46a.247.247,0,0,1-.043-.346l7.324-9.419a.246.246,0,1,1,.389.3l-7.324,9.419A.247.247,0,0,1,541.714,345.46Z" transform="translate(-530.597 -282.856)" fill="#e4e4e4"/>
      <path id="Tracé_7888" data-name="Tracé 7888" d="M544.348,347.508a.247.247,0,0,1-.043-.346l7.324-9.419a.247.247,0,0,1,.389.3l-7.324,9.419A.247.247,0,0,1,544.348,347.508Z" transform="translate(-532.462 -284.306)" fill="#e4e4e4"/>
      <path id="Tracé_7889" data-name="Tracé 7889" d="M550.327,352.157a.247.247,0,0,1-.043-.346l7.324-9.419a.247.247,0,0,1,.389.3l-7.324,9.419A.247.247,0,0,1,550.327,352.157Z" transform="translate(-536.696 -287.598)" fill="#e4e4e4"/>
      <path id="Tracé_7890" data-name="Tracé 7890" d="M552.961,354.2a.247.247,0,0,1-.043-.346l7.324-9.419a.246.246,0,0,1,.389.3l-7.324,9.419A.247.247,0,0,1,552.961,354.2Z" transform="translate(-538.561 -289.048)" fill="#e4e4e4"/>
      <circle id="Ellipse_94" data-name="Ellipse 94" cx="0.101" cy="0.101" r="0.101" transform="translate(2.058 75.893)" fill="#fff"/>
      <path id="Tracé_7891" data-name="Tracé 7891" d="M555.234,161.272a24.362,24.362,0,0,1-1.739,5.549c-4.575,9.678,8.454,6.524,13.11,6.524,5.091,0,9.962,2.677,9.218-9.218-.318-5.081-4.127-9.218-9.218-9.218C562.257,154.909,556.144,156.842,555.234,161.272Z" transform="translate(-538.328 -154.909)" fill="#2f2e41"/>
      <path id="Tracé_7892" data-name="Tracé 7892" d="M437.811,467.5h-4.337l-2.064-16.73h6.4Z" transform="translate(-404.789 -319.191)" fill="#ffb6b6"/>
      <path id="Tracé_7893" data-name="Tracé 7893" d="M587.98,662.3h-3.11l-.555-2.937-1.422,2.937h-8.25a1.854,1.854,0,0,1-1.054-3.38l6.588-4.55V651.4l6.929.414Z" transform="translate(-552.668 -506.474)" fill="#2f2e41"/>
      <path id="Tracé_7894" data-name="Tracé 7894" d="M504.94,456.767l-3.481,2.588L489.82,447.162l5.137-3.82Z" transform="translate(-446.148 -313.93)" fill="#ffb6b6"/>
      <path id="Tracé_7895" data-name="Tracé 7895" d="M693.778,641.075l-2.5,1.856-2.2-2.025.611,3.2-6.62,4.923a1.854,1.854,0,0,1-2.863-2.084l2.571-7.582-1.771-2.382,5.807-3.8Z" transform="translate(-628.665 -493.574)" fill="#2f2e41"/>
      <path id="Tracé_7896" data-name="Tracé 7896" d="M404.675,206.653l20.589-3.207-4.094-12.318H404.675Z" transform="translate(-385.858 -135.338)" fill="#ffb6b6"/>
      <path id="Tracé_7897" data-name="Tracé 7897" d="M584.687,367.291s8.229,7.11,4.432,27.378l-4.636,19.86,12.629,21.926-6.422,3.5-15.564-21.631-7.122-16.706-3.767-29.278Z" transform="translate(-546.615 -305.297)" fill="#2f2e41"/>
      <path id="Tracé_7898" data-name="Tracé 7898" d="M425.741,346.3l-.5,7.666,1.449,22.7,7.194,2.477,1.362-23.258Z" transform="translate(-400.424 -245.215)" fill="#2f2e41"/>
      <path id="Tracé_7899" data-name="Tracé 7899" d="M560.332,226.8l7.959.31,3.172,5.265,7.237,1.413-4.32,21.855.794,12.44-7.206-.044a21.077,21.077,0,0,0-14.1,5.3h0l.216-16.148-3.1-12.054.7-12.64,5.822-.728Z" transform="translate(-537.227 -205.818)" fill="#e6e6e6"/>
      <circle id="Ellipse_95" data-name="Ellipse 95" cx="7.49" cy="7.49" r="7.49" transform="translate(20.025 3.452)" fill="#ffb6b6"/>
      <path id="Tracé_7900" data-name="Tracé 7900" d="M570.725,163.2a8.58,8.58,0,0,1,13.045,7.488c-3.817.958-7.826,1.692-11.9.229l-.961-2.353-.567,2.354c-1.24.507-2.482.935-3.725,0A8.761,8.761,0,0,1,570.725,163.2Z" transform="translate(-548.297 -159.89)" fill="#2f2e41"/>
      <path id="Tracé_7901" data-name="Tracé 7901" d="M641.073,416.459l1.01,9.163a1.118,1.118,0,0,0,1.069.79h4.654a1.119,1.119,0,0,0,1.069-.79l.836-7.023a1.7,1.7,0,1,0,.438-3.2,1.109,1.109,0,0,0-.849-.392h-7.159a1.119,1.119,0,0,0-1.069,1.448Zm8.785,1.665.512-1.665a1.109,1.109,0,0,0,.017-.592c.022,0,.042-.007.065-.007a1.213,1.213,0,0,1,0,2.426A1.2,1.2,0,0,1,649.858,418.124Z" transform="translate(-600.986 -339.087)" fill="#6c63ff"/>
      <path id="Tracé_7902" data-name="Tracé 7902" d="M655.195,388.88a2.849,2.849,0,0,1,.4-4.351L651.055,362l5.009,1.608,3.631,21.793a2.864,2.864,0,0,1-4.5,3.48Z" transform="translate(-608.088 -301.549)" fill="#ffb6b6"/>
      <path id="Tracé_7903" data-name="Tracé 7903" d="M630.054,253.09l3.108-2.346s2.742-.194,3.227,4.75,3.526,23.921,3.526,23.921l4.756,22.028-6.584,1.445-5.094-23.772-5.1-16.4Z" transform="translate(-591.689 -222.769)" fill="#e6e6e6"/>
      <circle id="Ellipse_96" data-name="Ellipse 96" cx="1.759" cy="1.759" r="1.759" transform="translate(9.781 47.312)" fill="#6c63ff"/>
    </g>
    <g id="Groupe_1446" data-name="Groupe 1446" transform="translate(61.364 0)">
      <path id="Tracé_7913" data-name="Tracé 7913" d="M716.757,540.468h-3.845l-1.829-14.829h5.674Z" transform="translate(-686.632 -388.578)" fill="#9e616a"/>
      <path id="Tracé_7914" data-name="Tracé 7914" d="M654.446,540.468H650.6l-1.829-14.829h5.674Z" transform="translate(-642.51 -388.578)" fill="#9e616a"/>
      <path id="Tracé_7915" data-name="Tracé 7915" d="M803.645,729.59H791.822v-.15a4.6,4.6,0,0,1,4.6-4.6h0l2.16-1.638,4.029,1.639h1.032Z" transform="translate(-791.573 -573.689)" fill="#2f2e41"/>
      <path id="Tracé_7916" data-name="Tracé 7916" d="M867.645,729.59H855.822v-.15a4.6,4.6,0,0,1,4.6-4.6h0l2.159-1.638,4.029,1.639h1.032Z" transform="translate(-836.892 -573.689)" fill="#2f2e41"/>
      <path id="Tracé_7917" data-name="Tracé 7917" d="M803.562,424.734l-5.843,35.578,1.59,5.3-2.086,3.755,3.064,32.976-1.244,2.738,3.475,2.143h7.072l.375-29.854,1.747-4.383v-2.416l3.556-18.2.655,25.493,1.034,4.39-.869,3.126,1.135,2.19,3.016,20.308h7.93l-.613-4.725h0a3.492,3.492,0,0,0,1.833-3.864l-.455-2.071,1.035-6.123,1.884-34.159-.531-27.562-9.276-7.093Z" transform="translate(-795.398 -360.608)" fill="#2f2e41"/>
      <circle id="Ellipse_219" data-name="Ellipse 219" cx="7.367" cy="7.367" r="7.367" transform="translate(14.193 3.705)" fill="#9e616a"/>
      <path id="Tracé_7918" data-name="Tracé 7918" d="M796.433,441.108a3.153,3.153,0,0,0-.505-4.809l2.865-10.834-5.519,1.857-1.874,10a3.171,3.171,0,0,0,5.034,3.783Z" transform="translate(-790.97 -362.864)" fill="#9e616a"/>
      <path id="Path_1101" data-name="Path 1101" d="M799.475,300.264l-1.185-.246-1.01.559s-2.822,3.763-2.822,7.213-3.45,36.69-3.45,36.69l6.272,2.822,5.018-26.028Z" transform="translate(-790.997 -274.035)" fill="#e6e6e6"/>
      <path id="Path_1104" data-name="Path 1104" d="M850.158,216.674s1.927-3.684-2.312-4.019c0,0-3.614-3.278-7.3-.6a3.7,3.7,0,0,0-3.108,2.274,1.378,1.378,0,0,0-1.927,1,10.475,10.475,0,0,0,0,6.363c1.156,3.014,1.541,3.349,1.541,3.349s-1.9-6.319,2.725-6.654,9.8-3.225,10.186.458.965,4.591.965,4.591S854.59,218.181,850.158,216.674Z" transform="translate(-822.147 -211.004)" fill="#2f2e41"/>
      <path id="Tracé_7919" data-name="Tracé 7919" d="M919.543,485.515a2.255,2.255,0,0,1-1.507-.575l-22.3-19.847a2.274,2.274,0,0,1-.186-3.206l14.283-16.045a2.273,2.273,0,0,1,3.206-.186l22.3,19.847a2.271,2.271,0,0,1,.186,3.206l-14.283,16.045a2.255,2.255,0,0,1-1.565.757C919.633,485.513,919.588,485.515,919.543,485.515Z" transform="translate(-864.62 -376.754)" fill="#fff"/>
      <path id="Tracé_7920" data-name="Tracé 7920" d="M919.189,485.307a2.4,2.4,0,0,1-1.6-.612l-22.3-19.847a2.42,2.42,0,0,1-.2-3.413l14.283-16.045a2.421,2.421,0,0,1,3.413-.2l22.3,19.847a2.417,2.417,0,0,1,.2,3.412L921,484.5a2.4,2.4,0,0,1-1.665.806C919.284,485.306,919.237,485.307,919.189,485.307Zm-8.009-40.142a1.829,1.829,0,0,0-1.37.614l-14.283,16.045a1.836,1.836,0,0,0,.15,2.588l22.3,19.847a1.833,1.833,0,0,0,2.588-.15l14.283-16.045a1.833,1.833,0,0,0-.15-2.588l-22.3-19.847a1.826,1.826,0,0,0-1.218-.463Z" transform="translate(-864.266 -376.4)" fill="#3f3d56"/>
      <path id="Tracé_7921" data-name="Tracé 7921" d="M961.988,488.982a.979.979,0,0,1-.653-.248l-17.5-15.579a.983.983,0,1,1,1.307-1.468l17.5,15.579a.982.982,0,0,1-.654,1.716Z" transform="translate(-898.979 -395.417)" fill="#6c63ff"/>
      <path id="Tracé_7922" data-name="Tracé 7922" d="M950.552,501.829a.979.979,0,0,1-.653-.248L932.4,486a.983.983,0,1,1,1.307-1.468l17.5,15.579a.982.982,0,0,1-.654,1.716Z" transform="translate(-890.882 -404.514)" fill="#6c63ff"/>
      <path id="Tracé_7923" data-name="Tracé 7923" d="M939.115,514.677a.978.978,0,0,1-.653-.249l-17.5-15.579a.983.983,0,0,1,1.307-1.468l17.5,15.579a.982.982,0,0,1-.654,1.716Z" transform="translate(-882.783 -413.611)" fill="#6c63ff"/>
      <path id="Tracé_7924" data-name="Tracé 7924" d="M914.419,443.1a3.153,3.153,0,0,1,1.725-4.517l.019-11.206,4.856,3.214-.762,10.149a3.17,3.17,0,0,1-5.838,2.36Z" transform="translate(-878.101 -364.22)" fill="#9e616a"/>
      <path id="Path_1100" data-name="Path 1100" d="M911.6,306.308l2.169-2.091,1.594,1.15s1.568,1.882,2.822,7.526,0,36.691,0,36.691l-6.9-.941.941-16.307-2.822-13.8Z" transform="translate(-874.834 -277.008)" fill="#e6e6e6"/>
      <path id="Tracé_7925" data-name="Tracé 7925" d="M850.143,286.165l-7.309-3.491-4.962-4.6L828.823,278,825.9,281.8l-7.706,2.618,1.284,26.572-.876,2.043s.61.551.889.859-.385,2.889-.385,2.889l-.374,2.808,1.038.742-1.35,1.594-.335,2.513s23.561-5.856,28.013,3.845c.235.513-.344-4.5-.344-4.5l-.579-3.667.575-3.292.876-.876-1.469-1.469.942-6.969Z" transform="translate(-810.172 -258.446)" fill="#3f3d56"/>
    </g>
  </g>
  <g id="undraw_having_fun_re_vj4h" transform="translate(0 8.483)">
    <g id="Groupe_1449" data-name="Groupe 1449" transform="translate(183.971)">
      <path id="Tracé_4406" data-name="Tracé 4406" d="M590.611,418.272a2.97,2.97,0,0,0,.474-4.529l4.756-9.421-5.448.632-3.681,8.849a2.986,2.986,0,0,0,3.9,4.469Z" transform="translate(-585.941 -342.533)" fill="#ffb7b7"/>
      <path id="Tracé_4407" data-name="Tracé 4407" d="M488.963,519.532h-4.286L482.638,503h6.326Z" transform="translate(-446.15 -377.059)" fill="#ffb7b7"/>
      <path id="Tracé_4408" data-name="Tracé 4408" d="M707.261,693.167H693.44v-.175a5.38,5.38,0,0,1,5.379-5.379h8.442Z" transform="translate(-663.355 -546.539)" fill="#2f2e41"/>
      <path id="Tracé_4409" data-name="Tracé 4409" d="M405.264,519.532h-4.286L398.938,503h6.326Z" transform="translate(-385.875 -377.059)" fill="#ffb7b7"/>
      <path id="Tracé_4410" data-name="Tracé 4410" d="M619.814,693.167H605.993v-.175a5.38,5.38,0,0,1,5.379-5.379h8.442Z" transform="translate(-600.381 -546.539)" fill="#2f2e41"/>
      <path id="Tracé_4411" data-name="Tracé 4411" d="M400.584,312.572l-4.2,9.665-3.461,55.555,8.74-.35,2.387-26.484,7.364-23.588,4.234,26.3,1.748,23.075,7.232.313,2.882-64.485Z" transform="translate(-381.547 -239.926)" fill="#2f2e41"/>
      <path id="Tracé_4412" data-name="Tracé 4412" d="M666.775,272.694l-12.16.3-7.139,3.665-.392,27.039-4.453,18.668s27.82,1.915,31.666-.882l-4.545-21.327,6.1-23.048Z" transform="translate(-626.766 -247.743)" fill="#5241fb"/>
      <path id="Tracé_4413" data-name="Tracé 4413" d="M612.472,286.51l-1.132-.765s-4.69,1.406-6.076,7.659c0,0-1.061,3.137-1.526,5.294-.534,2.474-12.321,25.2-12.321,25.2l7.057,2.025L611.413,305Z" transform="translate(-589.884 -257.142)" fill="#5241fb"/>
      <path id="Tracé_4414" data-name="Tracé 4414" d="M757.6,428.342a2.97,2.97,0,0,1,.793-4.484l-1.974-10.367,5.062,2.11,1.1,9.521a2.986,2.986,0,0,1-4.979,3.22Z" transform="translate(-708.707 -349.135)" fill="#ffb7b7"/>
      <path id="Tracé_4415" data-name="Tracé 4415" d="M746.144,288.548l1.3-.423s4.12,2.644,3.728,9.038c0,0,.154,3.308.007,5.51-.169,2.525,2.1,27.62,2.1,27.62h-7.342l-3.147-22.726Z" transform="translate(-698.891 -258.855)" fill="#5241fb"/>
      <path id="Tracé_4416" data-name="Tracé 4416" d="M696.185,210.47a8.429,8.429,0,1,1-8.43-8.429h0a8.408,8.408,0,0,1,8.429,8.387C696.185,210.442,696.185,210.456,696.185,210.47Z" transform="translate(-653.191 -196.863)" fill="#ffb7b7"/>
      <path id="Tracé_4417" data-name="Tracé 4417" d="M678.5,185.825c.987-2.123,2.9-1.7,4.57-.984,2.116-.469,4.129-1.875,6.41-1.044,2.246,3.267,9.787,2.306,8.183,7.624,0,1.274,2.4.533,1.979,2.62,1.271,4.017-4.589,11.624-7.954,10.022.832-1.525,2.733-4.989-.15-5.333-6.2,5.771-.64-10.989-8.433-6.115C680.519,194.977,676.987,188.186,678.5,185.825Z" transform="translate(-652.331 -183.539)" fill="#2f2e41"/>
    </g>
    <g id="Groupe_1450" data-name="Groupe 1450" transform="translate(0 6.121)">
      <path id="Tracé_4418" data-name="Tracé 4418" d="M782.285,401.615a2.8,2.8,0,0,1-3.353-2.685l-21.166-19.922,4.763-3.8,19.344,20.827a2.816,2.816,0,0,1,.412,5.579Z" transform="translate(-726.197 -345.251)" fill="#9f616a"/>
      <path id="Tracé_4419" data-name="Tracé 4419" d="M834.291,372.269l4.118-4.826a1.256,1.256,0,0,0-.289-1.88l-5.361-3.356a3.488,3.488,0,0,0-4.513,5.32l4.143,4.752a1.256,1.256,0,0,0,1.9-.011Z" transform="translate(-799.722 -335.291)" fill="#cbcbcb"/>
      <path id="Tracé_4420" data-name="Tracé 4420" d="M542.271,569.636h5.175l2.462-19.96H542.27Z" transform="translate(-496.629 -434.356)" fill="#9f616a"/>
      <path id="Tracé_4421" data-name="Tracé 4421" d="M748.33,752.2h16.686v-.211a6.5,6.5,0,0,0-6.495-6.494H748.33Z" transform="translate(-704.008 -611.908)" fill="#2f2e41"/>
      <path id="Tracé_4422" data-name="Tracé 4422" d="M690.079,569.636h5.175l2.462-19.96h-7.638Z" transform="translate(-685.803 -434.356)" fill="#9f616a"/>
      <path id="Tracé_4423" data-name="Tracé 4423" d="M896.138,752.2h16.686v-.211a6.5,6.5,0,0,0-6.494-6.494H896.138Z" transform="translate(-893.182 -611.908)" fill="#2f2e41"/>
      <path id="Tracé_4424" data-name="Tracé 4424" d="M764.313,378.718,759.1,359.445l6.767-3.8h9.446l3.674,3.931s6.138,4.271,4.652,9l-2.4,10.777,3.666,17.117,18.468,25.612,4.372,25.158-17.21,4.512-18.61-36.643L762.9,455.681l-16.786-.844,5.784-49.2s1.649-14.987,10.292-24.344Z" transform="translate(-746.118 -331.16)" fill="#2f2e41"/>
      <path id="Tracé_4425" data-name="Tracé 4425" d="M904.127,417.752a2.8,2.8,0,0,1,.359-4.28l4.047-27.3L914.343,388l-5.815,26.3a2.816,2.816,0,0,1-4.4,3.453Z" transform="translate(-896.705 -353.141)" fill="#9f616a"/>
      <path id="Tracé_4426" data-name="Tracé 4426" d="M901.221,373.79l6.3.727a1.256,1.256,0,0,0,1.4-1.288l-.2-6.321a3.488,3.488,0,0,0-6.933-.779l-1.633,6.089a1.256,1.256,0,0,0,1.069,1.573Z" transform="translate(-890.393 -336.479)" fill="#cbcbcb"/>
      <path id="Tracé_4427" data-name="Tracé 4427" d="M862.908,287.165v-8.12a10.881,10.881,0,1,0-21.762,0v8.12a1.463,1.463,0,0,0,1.462,1.462h18.839A1.463,1.463,0,0,0,862.908,287.165Z" transform="translate(-827.876 -268.164)" fill="#2f2e41"/>
      <ellipse id="Ellipse_72" data-name="Ellipse 72" cx="7.978" cy="7.978" rx="7.978" ry="7.978" transform="translate(29.562 23.123) rotate(-151.337)" fill="#9f616a"/>
      <path id="Tracé_4428" data-name="Tracé 4428" d="M850.787,287.216a8.617,8.617,0,0,0-8.607-8.608h-1.624a8.617,8.617,0,0,0-8.608,8.608v.162h3.432l1.171-3.278.234,3.278h1.774l.591-1.654.118,1.654h11.52Z" transform="translate(-813.181 -275.686)" fill="#2f2e41"/>
      <path id="Tracé_4429" data-name="Tracé 4429" d="M878.1,306.335a1.439,1.439,0,0,0,.115-1.529c-1.721-3.273-4.131-9.322-.932-13.052l.23-.268h-9.286v13.941l8.435,1.488a1.5,1.5,0,0,0,.259.023,1.455,1.455,0,0,0,1.179-.6Z" transform="translate(-850.926 -284.958)" fill="#2f2e41"/>
    </g>
  </g>
</svg>
