<svg id="chat-left-heart" xmlns="http://www.w3.org/2000/svg" width="24" height="22.939" viewBox="0 0 24 22.939">
  <path id="Tracé_9028" data-name="Tracé 9028" d="M21,1.5A1.5,1.5,0,0,1,22.5,3V15A1.5,1.5,0,0,1,21,16.5H6.621a3,3,0,0,0-2.121.879l-3,3V3A1.5,1.5,0,0,1,3,1.5ZM3,0A3,3,0,0,0,0,3V22.19a.75.75,0,0,0,1.281.529L5.56,18.44A1.5,1.5,0,0,1,6.621,18H21a3,3,0,0,0,3-3V3a3,3,0,0,0-3-3Z" fill="#ff6484"/>
  <path id="Tracé_9029" data-name="Tracé 9029" d="M8,3.993c1.664-1.711,5.825,1.283,0,5.132C2.175,5.275,6.336,2.282,8,3.993Z" transform="translate(4 2.768)" fill="#ff6484"/>
</svg>
