<svg id="check-circle" xmlns="http://www.w3.org/2000/svg" width="55.782" height="55.782" viewBox="0 0 55.782 55.782">
  <path id="Tracé_3460" data-name="Tracé 3460" d="M27.891,52.3a24.4,24.4,0,1,1,24.4-24.4,24.4,24.4,0,0,1-24.4,24.4Zm0,3.486A27.891,27.891,0,1,0,0,27.891,27.891,27.891,0,0,0,27.891,55.782Z" fill="#6c63ff"/>
  <path id="Tracé_3461" data-name="Tracé 3461" d="M28,5.529a.819.819,0,0,0-.07.077L15.817,21.033l-7.3-7.3a2.615,2.615,0,0,0-3.7,3.7l9.225,9.228a2.615,2.615,0,0,0,3.762-.07L31.729,9.19a2.615,2.615,0,1,0-3.734-3.661Z" transform="translate(10.251 11.798)" fill="#6c63ff"/>
</svg>
