<svg id="hospital" xmlns="http://www.w3.org/2000/svg" width="38" height="38" viewBox="0 0 38 38">
  <path id="Tracé_3410" data-name="Tracé 3410" d="M17.381,5.034V7.675l2.255-1.321L20.82,8.436,18.564,9.754l2.255,1.321-1.183,2.079-2.255-1.321v2.641H15.015V11.834L12.76,13.154l-1.183-2.079,2.255-1.321L11.577,8.434,12.76,6.355l2.255,1.321V5.034Zm11.24,9.522a.6.6,0,0,0-.592.6v1.2a.6.6,0,0,0,.592.6H29.8a.6.6,0,0,0,.592-.6v-1.2a.6.6,0,0,0-.592-.6Zm-.592,5.4a.6.6,0,0,1,.592-.6H29.8a.6.6,0,0,1,.592.6v1.2a.6.6,0,0,1-.592.6H28.621a.6.6,0,0,1-.592-.6Zm.592,4.2a.6.6,0,0,0-.592.6v1.2a.6.6,0,0,0,.592.6H29.8a.6.6,0,0,0,.592-.6v-1.2a.6.6,0,0,0-.592-.6Zm-26.03-9.6a.6.6,0,0,0-.592.6v1.2a.6.6,0,0,0,.592.6H3.775a.6.6,0,0,0,.592-.6v-1.2a.6.6,0,0,0-.592-.6Zm0,4.8a.6.6,0,0,0-.592.6v1.2a.6.6,0,0,0,.592.6H3.775a.6.6,0,0,0,.592-.6v-1.2a.6.6,0,0,0-.592-.6ZM2,24.76a.6.6,0,0,1,.592-.6H3.775a.6.6,0,0,1,.592.6v1.2a.6.6,0,0,1-.592.6H2.592a.6.6,0,0,1-.592-.6Z" transform="translate(2.802 6.637)" fill="#fff"/>
  <path id="Tracé_3411" data-name="Tracé 3411" d="M11.875,2.375A2.375,2.375,0,0,1,14.25,0h9.5a2.375,2.375,0,0,1,2.375,2.375V4.75A2.375,2.375,0,0,1,28.5,7.125v9.5h7.125A2.375,2.375,0,0,1,38,19V35.625A2.375,2.375,0,0,1,35.625,38H2.375A2.375,2.375,0,0,1,0,35.625V19a2.375,2.375,0,0,1,2.375-2.375H9.5v-9.5A2.375,2.375,0,0,1,11.875,4.75Zm4.75,33.25h4.75V28.5h-4.75Zm7.125,0h2.375V7.125H11.875v28.5H14.25V28.5a2.375,2.375,0,0,1,2.375-2.375h4.75A2.375,2.375,0,0,1,23.75,28.5Zm0-33.25h-9.5V4.75h9.5ZM28.5,19V35.625h7.125V19ZM9.5,35.625V19H2.375V35.625Z" transform="translate(0 0)" fill="#fff"/>
</svg>
