<svg xmlns="http://www.w3.org/2000/svg" width="38" height="33.487" viewBox="0 0 38 33.487">
  <path id="megaphone" d="M30.875,4.562a3.563,3.563,0,0,1,7.125,0V30.687a3.563,3.563,0,0,1-7.125,0v-.508a40.382,40.382,0,0,0-16.416-4.947l.962,6.441a2.375,2.375,0,0,1-2.335,2.814h-1.3a2.375,2.375,0,0,1-2.175-1.422L5.216,24.776l-.48-.007A4.783,4.783,0,0,1,0,20V15.25a4.8,4.8,0,0,1,4.731-4.781q2.95-.04,5.9-.178c7.227-.366,14.6-2.016,20.247-5.223Zm2.375,0V30.687a1.188,1.188,0,0,0,2.375,0V4.562a1.187,1.187,0,0,0-2.375,0ZM30.875,7.769a49.829,49.829,0,0,1-19,4.828V22.65q.641.036,1.275.086a44.41,44.41,0,0,1,17.725,4.733ZM9.5,22.529V12.721q-2.365.087-4.731.123A2.423,2.423,0,0,0,2.375,15.25V20a2.411,2.411,0,0,0,2.389,2.4q2.369.027,4.736.133ZM7.94,24.845l3.821,7.213.024.057h1.3l0-.033-1.052-7.044q-2.044-.123-4.09-.195Z" transform="translate(0 -1)" fill="#fff"/>
</svg>
