<svg xmlns="http://www.w3.org/2000/svg" width="38" height="28.5" viewBox="0 0 38 28.5">
  <path id="people" d="M35.625,30.5A2.326,2.326,0,0,0,38,28.125c0-2.375-2.375-9.5-11.875-9.5S14.25,25.75,14.25,28.125A2.326,2.326,0,0,0,16.625,30.5ZM16.677,28.125l-.052-.01a7.289,7.289,0,0,1,1.805-4.085C19.741,22.494,22.045,21,26.125,21s6.382,1.5,7.7,3.031a7.313,7.313,0,0,1,1.8,4.085l-.019,0-.033,0Zm9.448-14.25a4.75,4.75,0,1,0-4.75-4.75A4.75,4.75,0,0,0,26.125,13.875Zm7.125-4.75A7.125,7.125,0,1,1,26.125,2,7.125,7.125,0,0,1,33.25,9.125ZM16.473,19.29a13.965,13.965,0,0,0-2.921-.587q-.836-.079-1.677-.078C2.375,18.625,0,25.75,0,28.125A2.1,2.1,0,0,0,2.375,30.5H12.388a5.315,5.315,0,0,1-.513-2.375,10.9,10.9,0,0,1,2.589-6.9,12.567,12.567,0,0,1,2.009-1.938ZM11.685,21A13.046,13.046,0,0,0,9.5,28.125H2.375a7.287,7.287,0,0,1,1.8-4.094C5.474,22.52,7.723,21.048,11.685,21ZM3.563,10.313a7.125,7.125,0,1,1,7.125,7.125A7.125,7.125,0,0,1,3.563,10.313Zm7.125-4.75a4.75,4.75,0,1,0,4.75,4.75A4.75,4.75,0,0,0,10.688,5.563Z" transform="translate(0 -2)" fill="#fff"/>
</svg>
